<svg xmlns="http://www.w3.org/2000/svg" width="50" height="50" viewBox="0 0 50 50">
  <g id="icn_MenuPanel" transform="translate(0 50) rotate(-90)">
    <g id="Rectangle_101" data-name="Rectangle 101" transform="translate(0 0)" fill="#583703" stroke="#583703" stroke-width="1" opacity="0">
      <rect width="50" height="50" stroke="none"/>
      <rect x="0.5" y="0.5" width="49" height="49" fill="none"/>
    </g>
    <path id="Icon_awesome-edit" data-name="Icon awesome-edit" d="M20.1,4.149l4.5,4.5a.488.488,0,0,1,0,.689L13.7,20.247l-4.634.514a.971.971,0,0,1-1.074-1.074l.514-4.634L19.413,4.149A.488.488,0,0,1,20.1,4.149Zm8.089-1.143L25.755.569A1.953,1.953,0,0,0,23,.569L21.231,2.337a.488.488,0,0,0,0,.689l4.5,4.5a.488.488,0,0,0,.689,0l1.768-1.768a1.953,1.953,0,0,0,0-2.756ZM19.174,17.281v5.083H3.2V6.386H14.67a.614.614,0,0,0,.424-.175l2-2a.6.6,0,0,0-.424-1.024H2.4A2.4,2.4,0,0,0,0,5.587V23.163a2.4,2.4,0,0,0,2.4,2.4H19.973a2.4,2.4,0,0,0,2.4-2.4V15.284a.6.6,0,0,0-1.024-.424l-2,2A.614.614,0,0,0,19.174,17.281Z" transform="translate(37.78 10.62) rotate(90)" fill="#ff8744"/>
  </g>
</svg>
