<svg xmlns="http://www.w3.org/2000/svg" width="80" height="80" viewBox="0 0 80 80">
  <g id="Group_24816" data-name="Group 24816" transform="translate(-0.5 14)">
    <circle id="Ellipse_195" data-name="Ellipse 195" cx="40" cy="40" r="40" transform="translate(0.5 -14)" fill="#f2f2f2"/>
    <path id="Icon_awesome-user" data-name="Icon awesome-user" d="M15.75,18a9,9,0,1,0-9-9A9,9,0,0,0,15.75,18Zm6.3,2.25H20.876a12.24,12.24,0,0,1-10.252,0H9.45A9.452,9.452,0,0,0,0,29.7v2.925A3.376,3.376,0,0,0,3.375,36h24.75A3.376,3.376,0,0,0,31.5,32.625V29.7A9.452,9.452,0,0,0,22.05,20.25Z" transform="translate(24.75 7.5)" opacity="0.1"/>
  </g>
</svg>
