<svg xmlns="http://www.w3.org/2000/svg" width="160" height="160" viewBox="0 0 160 160">
  <g id="Group_24887" data-name="Group 24887" transform="translate(-21.482 -5.191)">
    <g id="Group_360" data-name="Group 360" transform="translate(21.482 5.191)">
      <g id="Rectangle_144" data-name="Rectangle 144" transform="translate(0 0)" fill="#fff7e8" stroke="#707070" stroke-width="1" opacity="0">
        <rect width="160" height="160" stroke="none"/>
        <rect x="0.5" y="0.5" width="159" height="159" fill="none"/>
      </g>
      <path id="Icon_awesome-user-plus" data-name="Icon awesome-user-plus" d="M125.523,41.841H112.649V28.967a3.228,3.228,0,0,0-3.219-3.219h-6.437a3.228,3.228,0,0,0-3.219,3.219V41.841H86.9a3.228,3.228,0,0,0-3.219,3.219V51.5A3.228,3.228,0,0,0,86.9,54.715H99.775V67.59a3.228,3.228,0,0,0,3.219,3.219h6.437a3.228,3.228,0,0,0,3.219-3.219V54.715h12.874a3.228,3.228,0,0,0,3.219-3.219V45.06A3.228,3.228,0,0,0,125.523,41.841ZM45.06,51.5A25.748,25.748,0,1,0,19.311,25.748,25.746,25.746,0,0,0,45.06,51.5Zm18.024,6.437H59.724a35.017,35.017,0,0,1-29.329,0H27.036A27.043,27.043,0,0,0,0,84.97v8.368a9.658,9.658,0,0,0,9.656,9.656H80.464a9.658,9.658,0,0,0,9.656-9.656V84.97A27.043,27.043,0,0,0,63.084,57.934Z" transform="translate(15.629 28.503)" fill="#ff8744"/>
    </g>
  </g>
</svg>
