<svg xmlns="http://www.w3.org/2000/svg" width="50" height="50" viewBox="0 0 50 50">
  <g id="Group_5996" data-name="Group 5996" transform="translate(-1474 -31)">
    <g id="Rectangle_1379" data-name="Rectangle 1379" transform="translate(1474 31)" fill="#583703" stroke="#707070" stroke-width="1" opacity="0">
      <rect width="50" height="50" stroke="none"/>
      <rect x="0.5" y="0.5" width="49" height="49" fill="none"/>
    </g>
    <g id="bell" transform="translate(1483.786 40.32)">
      <path id="Path_1" data-name="Path 1" d="M4.987,23.516H25.44a3.919,3.919,0,0,0,3.685-5.253L25.4,7.961A10.873,10.873,0,0,0,14.925,0h0A10.871,10.871,0,0,0,4.313,8.513l-3.07,9.929a3.919,3.919,0,0,0,3.744,5.074Z" transform="translate(0)" fill="#583703"/>
      <path id="Path_2" data-name="Path 2" d="M7.1,20a6.532,6.532,0,0,0,12.8,0Z" transform="translate(1.848 6.129)" fill="#583703"/>
    </g>
  </g>
</svg>
