<svg xmlns="http://www.w3.org/2000/svg" width="22.944" height="20.391" viewBox="0 0 22.944 20.391">
  <path id="Icon_awesome-edit" data-name="Icon awesome-edit" d="M16.037,3.317,19.63,6.91a.389.389,0,0,1,0,.55l-8.7,8.7-3.7.41a.775.775,0,0,1-.856-.856l.41-3.7,8.7-8.7A.389.389,0,0,1,16.037,3.317Zm6.453-.912L20.546.461a1.558,1.558,0,0,0-2.2,0l-1.41,1.41a.389.389,0,0,0,0,.55L20.53,6.014a.389.389,0,0,0,.55,0L22.49,4.6a1.558,1.558,0,0,0,0-2.2ZM15.3,13.794v4.055H2.,1.593A.49.49,0,0,0,15.3,13.794Z" transform="translate(0 -0.007)" fill="#ff8744"/>
</svg>
