<svg xmlns="http://www.w3.org/2000/svg" width="38.49" height="53.012" viewBox="0 0 38.49 53.012">
  <g id="Group_5800" data-name="Group 5800" transform="translate(0 0)">
    <g id="Group_5799" data-name="Group 5799" transform="translate(0)">
      <g id="Group_5798" data-name="Group 5798">
        <path id="Path_1110" data-name="Path 1110" d="M673.779-579.988c-1.423-1.375-2.858-2.738-4.26-4.134a1.205,1.205,0,0,0-1.133-.372c-1.741.217-3.488.389-5.234.56-.946.093-1.3-.38-.981-1.292q2.268-6.537,4.55-13.07a.606.606,0,0,0-.214-.778,18.954,18.954,0,0,1-6.646-16.258A19.259,19.259,0,0,1,675.725-632.7c.658-.112,1.32-.2,1.981-.3h2.687c1.165.206,2.346.348,3.493.629a19.257,19.257,0,0,1,14.283,16.435,18.98,18.98,0,0,1-6.634,16.91.542.542,0,0,0-.163.7c.415,1.15.813,2.306,1.211,3.462.206.6.038,1.044-.433,1.193s-.811-.069-1.026-.676c-.395-1.115-.783-2.233-1.139-3.25-1.6.736-3.129,1.586-4.755,2.142a51.075,51.075,0,0,1-5.039,1.2l4.186,12.055c.174-.158.312-.276.441-.4,1.073-1.048,2.151-2.091,3.211-3.151a1.152,1.152,0,0,1,1.017-.366c1.674.182,3.351.346,5.084.523-.056-.193-.094-.351-.147-.5q-.846-2.441-1.7-4.88c-.208-.6-.052-1.055.406-1.208s.842.082,1.06.705q1.1,3.145,2.191,6.294c.3.87-.066,1.343-.992,1.251q-2.7-.267-5.391-.579a.933.933,0,0,0-.867.283c-1.2,1.209-2.43,2.4-3.652,3.588-.232.227-.481.437-.722.654H683.8a4.409,4.409,0,0,1-.606-.911c-1.324-3.75-2.623-7.508-3.93-11.264-.053-.154-.118-.3-.217-.554-.1.251-.164.4-.217.555-1.307,3.756-2.606,7.514-3.93,11.264a4.409,4.409,0,0,1-.606.911Zm-12.435-33.7a17.757,17.757,0,0,0,17.709,17.75,17.755,17.755,0,0,0,17.7-17.759,17.74,17.74,0,0,0-17.71-17.742A17.743,17.743,0,0,0,661.345-613.691Zm6.825,15.923L663.943-585.6c.19-.014.325-.019.459-.033,1.541-.158,3.083-.31,4.622-.482a1.192,1.192,0,0,1,1.063.379c.836.846,1.7,1.661,2.543,2.5.337.337.637.712,1.044,1.171l4.292-12.358A19.437,19.437,0,0,1,668.169-597.768Z" transform="translate(-659.799 633)" fill="#25a107"/>
        <path id="Path_1111" data-name="Path 1111" d="M718.917-589.045a15.477,15.477,0,0,1-14.066,15.323,15.334,15.334,0,0,1-16.274-11.764c-.146-.62,0-1.015.438-1.169.485-.172.908.123,1.056.753A13.876,13.876,0,0,0,692-581.417a13.793,13.793,0,0,0,14.387,5.906,13.832,13.832,0,0,0,10.675-11.025,13.823,13.823,0,0,0-11.65-16.178,13.81,13.81,0,0,0-15.559,11.853c-.072.563-.086,1.134-.127,1.7-.043.592-.364.941-.835.91s-.718-.38-.717-.958a15.371,15.371,0,0,1,13.77-15.1,15.3,15.3,0,0,1,16.578,12.193C718.736-591.109,718.789-590.069,718.917-589.045Z" transform="translate(-684.257 608.329)" fill="#25a107"/>
      </g>
      <circle id="Ellipse_26" data-name="Ellipse 26" cx="12.218" cy="12.218" r="12.218" transform="translate(7.068 7.041)" fill="#25a107"/>
    </g>
    <text id="_1" data-name="1" transform="translate(14.824 25.223)" fill="#fff7e8" font-size="17" font-family="Boogaloo-Regular, Boogaloo"><tspan x="0" y="0">1</tspan></text>
  </g>
</svg>
