<svg xmlns="http://www.w3.org/2000/svg" width="33.485" height="46.119" viewBox="0 0 33.485 46.119">
  <g id="Group_5803" data-name="Group 5803" transform="translate(0 0)">
    <g id="Group_5799" data-name="Group 5799" transform="translate(0)">
      <g id="Group_5798" data-name="Group 5798">
        <path id="Path_1110" data-name="Path 1110" d="M671.962-586.881c-1.238-1.2-2.487-2.382-3.706-3.6a1.049,1.049,0,0,0-.986-.324c-1.515.189-3.034.338-4.554.487-.823.081-1.128-.331-.853-1.124q1.974-5.687,3.958-11.371a.528.528,0,0,0-.186-.677,16.489,16.489,0,0,1-5.782-14.144,16.755,16.755,0,0,1,13.8-15.11c.573-.1,1.149-.174,1.723-.261h2.337c1.014.179,2.041.3,3.039.547a16.753,16.753,0,0,1,12.426,14.3,16.512,16.512,0,0,1-5.771,14.711.472.472,0,0,0-.142.611c.361,1,.707,2.006,1.054,3.012.179.521.033.909-.377,1.038s-.705-.06-.892-.588c-.344-.97-.681-1.943-.991-2.827-1.394.641-2.722,1.38-4.136,1.864a44.428,44.428,0,0,1-4.383,1.045l3.642,10.487c.151-.137.271-.24.384-.35.933-.912,1.871-1.819,2.794-2.742a1,1,0,0,1,.885-.318c1.457.158,2.915.3,4.423.455-.049-.168-.082-.305-.128-.438q-.736-2.123-1.475-4.246c-.181-.524-.045-.918.353-1.051s.732.071.922.614q.957,2.736,1.906,5.476c.262.757-.058,1.168-.863,1.089q-2.347-.232-4.69-.5a.812.812,0,0,0-.755.246c-1.048,1.052-2.114,2.085-3.177,3.121-.2.2-.419.38-.628.569h-.449a3.832,3.832,0,0,1-.527-.793c-1.152-3.262-2.282-6.532-3.419-9.8-.047-.134-.1-.264-.189-.482-.086.219-.142.349-.189.483-1.137,3.267-2.267,6.537-3.419,9.8a3.836,3.836,0,0,1-.528.792ZM661.144-616.2A15.448,15.448,0,0,0,676.55-600.76a15.446,15.446,0,0,0,15.4-15.45,15.433,15.433,0,0,0-15.407-15.435A15.436,15.436,0,0,0,661.144-616.2Zm5.937,13.853L663.4-591.763c.165-.012.282-.017.4-.029,1.341-.138,2.682-.269,4.021-.419a1.037,1.037,0,0,1,.925.33c.727.736,1.481,1.445,2.212,2.178.293.294.554.619.908,1.019l3.734-10.751A16.91,16.91,0,0,1,667.081-602.349Z" transform="translate(-659.799 633)" fill="#418dff"/>
        <path id="Path_1111" data-name="Path 1111" d="M714.92-591.038a13.465,13.465,0,0,1-12.237,13.331,13.34,13.34,0,0,1-14.158-10.234c-.127-.539,0-.883.381-1.017.422-.149.79.107.919.655a12.072,12.072,0,0,0,1.678,3.9,12,12,0,0,0,12.517,5.138,12.034,12.034,0,0,0,9.287-9.591,12.026,12.026,0,0,0-10.135-14.074,12.015,12.015,0,0,0-13.536,10.312c-.062.49-.075.986-.11,1.48-.038.515-.317.819-.726.791s-.625-.331-.624-.834a13.372,13.372,0,0,1,11.979-13.136,13.308,13.308,0,0,1,14.422,10.608C714.762-592.834,714.808-591.929,714.92-591.038Z" transform="translate(-684.766 607.815)" fill="#418dff"/>
      </g>
      <circle id="Ellipse_26" data-name="Ellipse 26" cx="10.629" cy="10.629" r="10.629" transform="translate(6.149 6.125)" fill="#418dff"/>
    </g>
    <text id="_4" data-name="4" transform="translate(12.553 22.284)" fill="#fff7e8" font-size="15" font-family="Boogaloo-Regular, Boogaloo"><tspan x="0" y="0">4</tspan></text>
  </g>
</svg>
