<svg id="Group_5801" data-name="Group 5801" xmlns="http://www.w3.org/2000/svg" width="33.484" height="46.118" viewBox="0 0 33.484 46.118">
  <g id="Group_5799" data-name="Group 5799" transform="translate(0)">
    <g id="Group_5798" data-name="Group 5798">
      <path id="Path_1110" data-name="Path 1110" d="M671.961-586.883c-1.238-1.2-2.486-2.382-3.706-3.6a1.049,1.049,0,0,0-.986-.324c-1.515.189-3.034.338-4.554.487-.823.081-1.128-.331-.853-1.124q1.973-5.687,3.958-11.37a.528.528,0,0,0-.186-.677,16.488,16.488,0,0,1-5.782-14.144,16.754,16.754,0,0,1,13.8-15.109c.573-.1,1.149-.174,1.723-.261h2.337c1.014.179,2.041.3,3.039.547a16.752,16.752,0,0,1,12.426,14.3,16.511,16.511,0,0,1-5.771,14.711.472.472,0,0,0-.142.611c.361,1,.707,2.006,1.054,3.012.179.521.033.909-.377,1.038s-.705-.06-.892-.588c-.344-.97-.681-1.943-.991-2.827a45.361,45.361,0,0,1-4.136,1.864,44.42,44.42,0,0,1-4.383,1.045l3.642,10.487c.151-.137.271-.24.384-.35.933-.912,1.871-1.819,2.793-2.742a1,1,0,0,1,.884-.318c1.457.158,2.915.3,4.423.455-.049-.168-.082-.305-.128-.438q-.736-2.123-1.475-4.245c-.181-.524-.045-.918.353-1.051s.732.072.922.614q.957,2.736,1.906,5.476c.262.757-.058,1.168-.863,1.089q-2.347-.232-4.69-.5a.812.812,0,0,0-.755.246c-1.048,1.052-2.114,2.085-3.177,3.121-.2.2-.418.38-.628.569h-.449a3.833,3.833,0,0,1-.527-.793c-1.152-3.262-2.282-6.532-3.419-9.8-.047-.134-.1-.264-.189-.482-.086.219-.142.349-.189.483-1.137,3.267-2.267,6.537-3.419,9.8a3.833,3.833,0,0,1-.528.792ZM661.144-616.2a15.447,15.447,0,0,0,15.406,15.441,15.446,15.446,0,0,0,15.4-15.45,15.433,15.433,0,0,0-15.406-15.435A15.435,15.435,0,0,0,661.144-616.2Zm5.937,13.852L663.4-591.764c.165-.012.282-.017.4-.029,1.341-.138,2.682-.269,4.021-.419a1.037,1.037,0,0,1,.925.33c.727.736,1.481,1.445,2.212,2.177.293.294.554.619.908,1.019l3.733-10.751A16.91,16.91,0,0,1,667.081-602.35Z" transform="translate(-659.799 633)" fill="#f60"/>
      <path id="Path_1111" data-name="Path 1111" d="M714.919-591.039a13.464,13.464,0,0,1-12.237,13.33,13.34,13.34,0,0,1-14.158-10.234c-.127-.539,0-.883.381-1.017.422-.149.79.107.919.655a12.071,12.071,0,0,0,1.678,3.9,12,12,0,0,0,12.516,5.138,12.033,12.033,0,0,0,9.286-9.591A12.025,12.025,0,0,0,703.17-602.93a12.014,12.014,0,0,0-13.536,10.312c-.062.49-.075.986-.11,1.48-.037.515-.317.819-.726.791s-.625-.331-.624-.834a13.372,13.372,0,0,1,11.979-13.136,13.307,13.307,0,0,1,14.422,10.608C714.762-592.835,714.807-591.93,714.919-591.039Z" transform="translate(-684.766 607.815)" fill="#f60"/>
    </g>
    <circle id="Ellipse_26" data-name="Ellipse 26" cx="10.629" cy="10.629" r="10.629" transform="translate(6.149 6.125)" fill="#f60"/>
  </g>
  <text id="_2" data-name="2" transform="translate(12.896 20.283)" fill="#fff7e8" font-size="15" font-family="Boogaloo-Regular, Boogaloo"><tspan x="0" y="0">2</tspan></text>
</svg>
