<svg xmlns="http://www.w3.org/2000/svg" width="677" height="479" viewBox="0 0 677 479">
  <g id="Group_25189" data-name="Group 25189" transform="translate(-119 -296)">
    <rect id="Rectangle_18235" data-name="Rectangle 18235" width="677" height="479" rx="20" transform="translate(119 296)" fill="#fff7e8"/>
    <path id="Icon_awesome-image" data-name="Icon awesome-image" d="M90.625,79.5H9.375A9.375,9.375,0,0,1,0,70.125V13.875A9.375,9.375,0,0,1,9.375,4.5h81.25A9.375,9.375,0,0,1,100,13.875v56.25A9.375,9.375,0,0,1,90.625,79.5ZM21.875,15.437A10.938,10.938,0,1,0,32.813,26.375,10.937,10.937,0,0,0,21.875,15.437ZM12.5,67h75V45.125L70.407,28.032a2.344,2.344,0,0,0-3.315,0L40.625,54.5,29.782,43.657a2.344,2.344,0,0,0-3.315,0L12.5,57.625Z" transform="translate(408 493.5)" opacity="0.25"/>
  </g>
</svg>
