<svg id="Group_25190" data-name="Group 25190" xmlns="http://www.w3.org/2000/svg" width="40" height="40" viewBox="0 0 40 40">
  <g id="Ellipse_202" data-name="Ellipse 202" fill="#fff7e8" stroke="#bfb9ae" stroke-width="1">
    <circle cx="20" cy="20" r="20" stroke="none"/>
    <circle cx="20" cy="20" r="19.5" fill="none"/>
  </g>
  <path id="Icon_awesome-image" data-name="Icon awesome-image" d="M16.82,18.42H1.74A1.74,1.74,0,0,1,0,16.68V6.24A1.74,1.74,0,0,1,1.74,4.5H16.82a1.74,1.74,0,0,1,1.74,1.74V16.68A1.74,1.74,0,0,1,16.82,18.42ZM4.06,6.53A2.03,2.03,0,1,0,6.09,8.56,2.03,2.03,0,0,0,4.06,6.53ZM2.32,16.1H16.24V12.04L13.068,8.868a.435.435,0,0,0-.615,0L7.54,13.78,5.528,11.768a.435.435,0,0,0-.615,0L2.32,14.36Z" transform="translate(10.72 8.54)" opacity="0.25"/>
</svg>
