<svg id="Group_28310" data-name="Group 28310" xmlns="http://www.w3.org/2000/svg" width="1132" height="1080" viewBox="0 0 1132 1080">
  <rect id="Rectangle_18309" data-name="Rectangle 18309" width="1132" height="1080" rx="10" fill="#fff7e8"/>
  <g id="Group_28309" data-name="Group 28309" transform="translate(341.1 315.1)" opacity="0.5">
    <g id="Rectangle_144" data-name="Rectangle 144" transform="translate(-0.1 -0.1)" fill="#ff8744" stroke="#707070" stroke-width="1" opacity="0">
      <rect width="450" height="450" stroke="none"/>
      <rect x="0.5" y="0.5" width="449" height="449" fill="none"/>
    </g>
    <g id="Group_6141" data-name="Group 6141" transform="translate(35.773 33.317)">
      <path id="Path_9832" data-name="Path 9832" d="M-1441.433,191.264c0-4.66-.045-8.752.01-12.844.195-14.522,10.412-25,24.963-25.552,3.539-.135,7.1-.02,11.022-.02V27.409h46.937V152.571h134.94V27.434h47.083V152.767c10.822-.093,21.4-.677,29.447,8.174,7.954,8.754,6.366,19.42,6.6,30.323,3.843,0,7.506,0,11.17,0,6.9,0,13.8-.047,20.707.022,4.116.04,6.609,2.26,6.717,5.738.113,3.618-2.508,6.035-6.732,6.189-.93.033-1.86.007-2.788.007h-359.194c-.929,0-1.859.026-2.788-.007-4.234-.153-6.849-2.554-6.743-6.177.1-3.479,2.6-5.721,6.7-5.748,9.292-.064,18.584-.022,27.876-.023Z" transform="translate(1480.082 179.938)" fill="#ff8744"/>
      <path id="Path_9833" data-name="Path 9833" d="M-1294.161-14.385q62.1,0,124.187,0c8.273,0,10.878,2.6,10.881,10.939a52.766,52.766,0,0,1-.3,6.735,16.594,16.594,0,0,1-14.459,14.233,44.838,44.838,0,0,1-5.163.252q-115.031.018-230.063-.016a31.592,31.592,0,0,1-7.5-.659,16.432,16.432,0,0,1-12.32-14.478,58.138,58.138,0,0,1-.146-8.724c.285-5.313,3.354-8.149,8.706-8.269,2.52-.057,5.042-.014,7.562-.014Z" transform="translate(1483.228 177.356)" fill="#ff8744"/>
      <path id="Path_9834" data-name="Path 9834" d="M-1295.55-56.095q49.37,0,98.746,0c8.586,0,11.22,2.6,11.19,11.108a39.3,39.3,0,0,1-.369,7.515c-1.685,8.324-8.545,13.65-17.594,13.683-18.979.068-37.959.022-56.938.022q-62.711,0-125.425.021c-17.575.028-21.472-13-19.011-26.335.393-2.127,3.383-4.1,5.6-5.45,1.409-.856,3.607-.548,5.448-.549Q-1344.726-56.115-1295.55-56.095Z" transform="translate(1484.68 174.779)" fill="#ff8744"/>
      <path id="Path_9835" data-name="Path 9835" d="M-1296.5-97.6q37.21,0,74.417,0c9.352,0,11.716,2.313,11.562,11.808a31.251,31.251,0,0,1-1.231,9.356c-2.341,6.967-8.618,10.892-16.755,10.9q-40.389.054-80.784.016-27.658,0-55.316-.01c-11.922-.019-18.652-6.771-18.771-18.734-.014-1.324-.032-2.648.009-3.971.2-6.487,3.085-9.348,9.668-9.357q33.826-.049,67.651-.014Z" transform="translate(1486.053 172.218)" fill="#ff8744"/>
      <path id="Path_9836" data-name="Path 9836" d="M-1347.141-105.532c.864-1.4,1.432-2.409,2.09-3.359q18.327-26.464,36.68-52.908c5.633-8.1,12.781-8.107,18.42,0q18.374,26.43,36.688,52.9c.66.951,1.224,1.969,2.083,3.36Z" transform="translate(1488.291 167.878)" fill="#ff8744"/>
    </g>
  </g>
</svg>
