<svg id="Layer_1" data-name="Layer 1" xmlns="http://www.w3.org/2000/svg" viewBox="0 0 1386 604"><defs><style>.cls-1{font-size:117.25px;font-family:Poppins-SemiBold, Poppins;font-weight:600;letter-spacing:0.1em;}.cls-1,.cls-2,.cls-3{fill:#ff8744;}.cls-2{font-size:42.21px;font-family:Poppins-Medium, Poppins;font-weight:500;letter-spacing:0.1em;}</style></defs><text class="cls-1" transform="translate(364.26 324.65)">APNA DHARM</text><text class="cls-2" transform="translate(432.31 393.83)">PARASPAROPAGRAHO JĪVĀNĀM</text><path class="cls-3" d="M157.42,207.32c0-2.49,0-5,0-7.43l.06-13.83a1.84,1.84,0,0,0,0-.47c-1.38-4.59-.59-9.15.33-13.67a35,35,0,0,1,8-16.7,22.93,22.93,0,0,1,9.47-6.49,17.18,17.18,0,0,1,14.11,1l1,.49.53-1.93c2.7-9.52,9.36-14.62,18.69-16.65a24.09,24.09,0,0,1,15.5,1.65,15.11,15.11,0,0,1,8.07,8.66c1.46,3.8,1.82,7.81,2.25,11.81.56,5.22.18,10.45.34,15.67,0,.37,0,.73,0,1,2.34-.3,4.6-.7,6.87-.86,4.22-.3,8.45-.64,12.66.31,8.27,1.88,12.92,7.34,15.17,15.17a52.71,52.71,0,0,1,1.83,14.41c.07,11.48.06,23,.09,34.44v.91a3,3,0,0,0,.48-.16c8.55-5,17.65-5.83,27.07-3.32,8.73,2.33,15.72,7.15,20.23,15.16a18.16,18.16,0,0,1,1.75,4.37c.92,3.52-.16,6.4-3,8.74-3.19,2.64-6.37,5.32-9.39,8.15a44.43,44.43,0,0,0-9.76,12.77,24.34,24.34,0,0,0-2.68,10.89q.12,25.77.23,51.53c0,10.83,0,21.66,0,32.49,0,3.37.19,6.74.18,10.11q0,3.71-.3,7.41c-.36,4.59-.57,9.23-2.05,13.64-1.07,3.16-2.32,6.25-3.59,9.34-1.18,2.85-2.38,5.71-3.76,8.47a85.67,85.67,0,0,1-33.59,35.78A88.79,88.79,0,0,1,208.41,473c-21.54.09-40.54-7-57.06-20.7a90.2,90.2,0,0,1-28.63-41.79A75.93,75.93,0,0,1,119,392.94a123,123,0,0,1,0-20.31c.52-6.25.43-12.49.43-18.74,0-15.35,0-30.7.05-46.05q0-16,.26-32c.17-12.32.19-24.64.78-36.94.32-6.54,1.27-13.11,4.34-19.12,4-7.92,10.64-12,19.29-13a39,39,0,0,1,12.75.53A2.55,2.55,0,0,0,157.42,207.32ZM129.85,316.73h.34c0,5.91,0,11.82,0,17.73,0,7.43.08,14.85.1,22.28q0,14.72,0,29.43c0,4-.19,7.9.67,11.83,1.36,6.24,2.81,12.46,5.49,18.27a74.68,74.68,0,0,0,22.1,27.91A79.11,79.11,0,0,0,203.31,461a77.66,77.66,0,0,0,42.41-8.94c19.81-10.65,32.85-26.9,39.28-48.47a57.94,57.94,0,0,0,2.42-16.82c0-26.24.05-52.49.11-78.73q0-10.36.16-20.71a6.41,6.41,0,0,1,.68-3.12,22.89,22.89,0,0,0,1.72-4.06,46.55,46.55,0,0,1,8.71-13.72,106.38,106.38,0,0,1,13.81-13.2c.61-.49.75-.9.32-1.52a43.78,43.78,0,0,0-3.76-5.38c-5.48-5.73-12.4-8.07-20.21-7.89A23.09,23.09,0,0,0,273,244.82a2.21,2.21,0,0,0-.61,1.42c0,6.59,0,13.19.07,19.78q.11,19.55.22,39.09c0,1.21,0,2.42-.05,3.63a5.07,5.07,0,0,1-5.38,4.77,5,5,0,0,1-5-5.13c0-1.09,0-2.17,0-3.25l.18-44.48q.11-28,.23-56c0-1.76.06-3.52.19-5.28.05-.72.53-1.44.5-2.14-.16-4-.34-7.93-1.68-11.72a11,11,0,0,0-9-7.72A34.65,34.65,0,0,0,236.52,179a1,1,0,0,0-.76,1.16q.08,13.14.13,26.27c.07,17.55.07,35.1.22,52.65.09,11-.27,22,.39,33a17,17,0,0,1-.43,4.87,5.09,5.09,0,0,1-5.71,3.94,5.31,5.31,0,0,1-4.52-5.32c0-1.57,0-3.15,0-4.73.13-18.38.29-36.77.37-55.15q.15-35.7.2-71.4c0-3-.1-6-.2-9-.07-2.32-.17-4.64-.33-7a8.34,8.34,0,0,0-6.25-8,16.34,16.34,0,0,0-9.06-.3c-5.06,1.29-9.11,3.91-11,9.06a39,39,0,0,0-1.48,5.54,10,10,0,0,0-.37,4.13,25.81,25.81,0,0,1,.71,7.43c-.18,3.67-.07,7.35-.06,11q.08,18.94.15,37.88c0,13.62,0,27.24.08,40.86,0,7.67.2,15.34.3,23a156.73,156.73,0,0,1-.56,18.64,4.89,4.89,0,0,1-.54,2,4.57,4.57,0,0,1-4.78,2.16,4.29,4.29,0,0,1-3.95-3.29,17.31,17.31,0,0,1-.56-4.3c0-4.82.12-9.65.14-14.48q.12-33.47.22-66.94.09-25.29.25-50.59a4.41,4.41,0,0,0-1.5-3.51,7.63,7.63,0,0,0-1.32-1,9.5,9.5,0,0,0-10.06.11,17.84,17.84,0,0,0-8,10.68,36.23,36.23,0,0,0-1.57,12.1c.29,7.54.16,15.1.2,22.65q.11,22.89.2,45.78,0,11.84.1,23.67.06,13.94.11,27.86a5.2,5.2,0,1,1-10.4-.21q.06-20.1.17-40.2,0-9.52.08-19,.06-11.83.13-23.67c0-.44-.05-.71-.56-.88a27.74,27.74,0,0,0-10.7-1.32c-7.63.45-13,4.66-15.05,12a42.29,42.29,0,0,0-1.4,13.19c.33,7.63.18,15.29.18,22.93Q129.87,290.08,129.85,316.73Z"/><path class="cls-3" d="M207.33,443.5a62.19,62.19,0,0,1-37-12.58A65.3,65.3,0,0,1,144.62,390c-3-15.11-.69-29.53,6.37-43.22,1.54-3,2.85-6.1,4.9-8.82a59.67,59.67,0,0,1,12.58-12c7-5.19,14.55-9.39,23.08-11.57A66.39,66.39,0,0,1,238,319.16a61.57,61.57,0,0,1,27.69,25.39c14,24.64,11.41,51.37-4.05,72.47A63.83,63.83,0,0,1,229,440.68C222.78,442.68,216.4,443.57,207.33,443.5Zm1.47-46.45c11.15-.16,19.35-8.6,19.21-19.78a18.9,18.9,0,0,0-19-18.55,19.33,19.33,0,0,0-19.19,19.73C190,388.43,198.9,397.19,208.8,397.05Zm21.5,35.06c-4.16-11.07-8.27-22-12.4-33a24.46,24.46,0,0,1-11.12,1.46c-1.36,11.67-2.71,23.27-4.07,35C212.28,436.38,221.48,435.5,230.3,432.11Zm-68.72-88.54a58.94,58.94,0,0,0-10.43,25.73l35.7,3.9,3.16-8Zm52.36-23.51c0,4.92,0,9.67,0,14.43.05,7.16.5,14.31,0,21.32l6.74,2.49,21-28.44A57.15,57.15,0,0,0,213.94,320.06Zm48,34c-2.64-6.84-12.48-19.34-17-21.58L223.8,360.65a21.48,21.48,0,0,1,5.61,7Zm-89.57,68.77,20.92-28.14c-1.49-2-2.94-3.87-4.44-5.84L156,402.36A59.61,59.61,0,0,0,172.36,422.82Zm94-36.59-34.89-3.89c-.89,2.46-1.76,4.88-2.56,7.08l28.05,21.06A60.52,60.52,0,0,0,266.33,386.23Zm-79-1.28-.91-7.38-35.69-3.92c-1.31,5,1.22,21.48,3.76,24.87Zm39.39,7.84c-1.49,1.32-3,2.71-4.56,4a1,1,0,0,0-.36,1.36q4,10.67,8,21.36c1.38,3.67,2.72,7.35,4.1,11.07a56.41,56.41,0,0,0,20.56-16.65Zm-42.25-67.66a57.28,57.28,0,0,0-20.39,15.29l28.69,21.51,3.91-3.26C192.58,347.49,188.52,336.35,184.44,325.13Zm13.94,109.75q2-17.78,4-35.21l-5.7-2.51-21.07,28.1A59,59,0,0,0,198.38,434.88Zm68.34-53c1.22-4.6-.77-19.52-3.17-23.76L230.9,371.45c.2,1.11.44,2.2.58,3.3s.19,2.26.28,3.43Zm-57.41-62c-4.93-.54-18.5,1.92-21,3.74l12.28,33c1.4-.33,2.74-.72,4.11-.94s2.81-.26,4.23-.39C209.11,343.55,208.38,331.77,209.31,320Z"/><path class="cls-3" d="M208.8,397.05c-9.9.14-18.83-8.62-18.94-18.6a19.33,19.33,0,0,1,19.19-19.73,18.9,18.9,0,0,1,19,18.55C228.15,388.45,220,396.89,208.8,397.05Z"/></svg>