<svg xmlns="http://www.w3.org/2000/svg" xmlns:xlink="http://www.w3.org/1999/xlink" viewBox="0 0 672.29 256.71"><defs><style>.cls-1{fill:none;}.cls-2{isolation:isolate;}.cls-3{fill:url(#linear-gradient);}.cls-4{fill:#010101;}.cls-5{clip-path:url(#clip-path);}.cls-6{fill:#f4a32a;}.cls-7{fill:#f4a22a;}.cls-8{fill:#f4a12a;}.cls-9{fill:#f4a12b;}.cls-10{fill:#f4a02b;}.cls-11{fill:#f49f2b;}.cls-12{fill:#f39e2b;}.cls-13{fill:#f39d2b;}.cls-14{fill:#f39c2b;}.cls-15{fill:#f39b2b;}.cls-16{fill:#f39a2c;}.cls-17{fill:#f3992c;}.cls-18{fill:#f3982c;}.cls-19{fill:#f3972c;}.cls-20{fill:#f2972c;}.cls-21{fill:#f2962c;}.cls-22{fill:#f2952c;}.cls-23{fill:#f2942c;}.cls-24{fill:#f2932c;}.cls-25{fill:#f2932d;}.cls-26{fill:#f2922d;}.cls-27{fill:#f2912d;}.cls-28{fill:#f2902d;}.cls-29{fill:#f28f2d;}.cls-30{fill:#f18e2d;}.cls-31{fill:#f18d2d;}.cls-32{fill:#f18c2d;}.cls-33{fill:#f18b2d;}.cls-34{fill:#f18a2d;}.cls-35{fill:#f1892e;}.cls-36{fill:#f1882e;}.cls-37{fill:#f1872e;}.cls-38{fill:#f1862e;}.cls-39{fill:#f0852e;}.cls-40{fill:#f0842e;}.cls-41{fill:#f0832e;}.cls-42{fill:#f0822e;}.cls-43{fill:#f0812e;}.cls-44{fill:#f0802e;}.cls-45{fill:#f07f2e;}.cls-46{fill:#f07e2e;}.cls-47{fill:#f07d2e;}.cls-48{fill:#ef7c2e;}.cls-49{fill:#ef7b2f;}.cls-50{fill:#ef7a2f;}.cls-51{fill:#ef792f;}.cls-52{fill:#ef782f;}.cls-53{fill:#ef772f;}.cls-54{fill:#ef762f;}.cls-55{fill:#ef752f;}.cls-56{fill:#ef742f;}.cls-57{fill:#ef732f;}.cls-58{fill:#ef722f;}.cls-59{fill:#ee712f;}.cls-60{fill:#ee702f;}.cls-61{fill:#ee6f2f;}.cls-62{fill:#ee6e2f;}.cls-63{fill:#ee6d2f;}.cls-64{fill:#ee6c2f;}.cls-65{fill:#ee6b2f;}.cls-66{fill:#ee6a2f;}.cls-67{fill:#ee692f;}.cls-68{fill:#ee682f;}.cls-69{fill:#ee672f;}.cls-70{fill:#ed672f;}.cls-71{fill:#ed662f;}.cls-72{fill:#ed652f;}.cls-73{fill:#ed642f;}.cls-74{fill:#ed6330;}.cls-75{fill:#ed6230;}.cls-76{fill:#ed6130;}.cls-77{fill:#ed6030;}.cls-78{fill:#ed5f30;}.cls-79{clip-path:url(#clip-path-2);}.cls-80{opacity:0.3;mix-blend-mode:overlay;}.cls-81{font-size:22.56px;fill:#231f20;stroke:#231f20;stroke-miterlimit:10;stroke-width:0.25px;font-family:GilmerLight, Gilmer Light;}</style><linearGradient id="linear-gradient" x1="152.29" y1="35.15" x2="152.29" y2="261.97" gradientUnits="userSpaceOnUse"><stop offset="0" stop-color="#f4a32a"/><stop offset="1" stop-color="#ed5f30"/></linearGradient><clipPath id="clip-path"><rect class="cls-1" x="275.97" y="178.23" width="335.62" height="1.84"/></clipPath><clipPath id="clip-path-2"><path class="cls-1" d="M244.06,128.6a91.45,91.45,0,0,1-38.58,74.68l-.86.6a89.9,89.9,0,0,1-8.61,5.3l-.62.33q-2.08,1.11-4.23,2.11a91.81,91.81,0,0,1-75.38.9c-2-.89-4-1.85-6-2.89s-3.81-2.09-5.65-3.24c-1.25-.77-2.46-1.57-3.66-2.41-.38-.25-.75-.51-1.12-.78a91.58,91.58,0,1,1,144.7-74.6Z"/></clipPath></defs><g class="cls-2"><g id="Layer_1" data-name="Layer 1"><path class="cls-3" d="M243.87,128.12A91.45,91.45,0,0,1,205.3,202.8l-.86.61a94.54,94.54,0,0,1-8.61,5.29l-.63.34q-2.08,1.11-4.23,2.11a91.81,91.81,0,0,1-75.38.9c-2-.89-4-1.86-6-2.89s-3.81-2.1-5.65-3.25q-1.86-1.16-3.66-2.4l-1.11-.78a91.58,91.58,0,1,1,144.69-74.61Z"/><path d="M213.31,133.78c-3.26-3.77-6.47-7.59-9.87-11.24-8.55-9.18-20.27-24.87-29.89-32.84a38.32,38.32,0,0,1-6.44-6.9A34.27,34.27,0,0,1,161.57,70c-1.34-5.95-3-11.83-4.11-17.82-.82-4.54-.91-9.22-1.39-13.83,0-.52-.56-1.39-.88-1.39a3.18,3.18,0,0,0-1.78.79,1.24,1.24,0,0,0-.35.74l-2.6-1.63a10.94,10.94,0,0,0-1,2.52c-.66,5.34-1,10.76-1.9,16.06s-3.1,8.16-4.43,13.26c-2.06,7.88-5.83,14.61-12.5,19.64-5.19,3.92-32.45,37.73-39.36,45.8a8.08,8.08,0,0,0-1.61,6.78,66.2,66.2,0,0,1,.84,8.4,195.3,195.3,0,0,0,3.9,36.17c1.22,6.12,3.76,12.07,5.89,18.06q1.8,1.25,3.66,2.4,2.76,1.72,5.65,3.25c2,1,4,2,6,2.89a91.81,91.81,0,0,0,75.38-.9q2.15-1,4.23-2.11l.63-.34a94.54,94.54,0,0,0,8.61-5.29c.37-2,.78-3.95,1.25-5.9,3.87-16.15,8.25-32.43,8.39-49.08a63.93,63.93,0,0,1,.84-8A7.89,7.89,0,0,0,213.31,133.78Zm-18.25,15.08c-1.18,9-2.22,17.93-3.31,26.91a25.47,25.47,0,0,1-4.1,10.74c-3.21,5-6.25,10.18-9.23,15.36-.78,1.35-1.47,1.72-2.92,1.14-6.28-2.56-10.37-6.89-11.52-13.75a3.33,3.33,0,0,1,1.21-3.52,22.07,22.07,0,0,0,6.55-10.45c.23-.7,1-1.24,1.53-1.83a11.92,11.92,0,0,0,1.66-1.76,17.9,17.9,0,0,0,2.24-9.82,2.85,2.85,0,0,0-.39-1.69c-1.55-1.66-.63-3.44-.47-5.23.59-6.82-.43-13.36-4-19.31-1.95-3.28-3.56-4.47-9.48-7.75-2.3-1.55-16-3.47-21.82.17-9.12,6-12.45,14.69-12,25.21a8.52,8.52,0,0,0,.11,1.23c.29,1.76,1.26,3.59-.84,5-.42.29-.56,1.16-.62,1.79A17.35,17.35,0,0,0,130,172c.69,1.18,1.64,2,3.25,1.52a11.45,11.45,0,0,1,.39,1.17A22.46,22.46,0,0,0,139.36,185a4.39,4.39,0,0,1,1.07,2.61,16.44,16.44,0,0,1-10.74,15.68,1.53,1.53,0,0,1-2.15-.8c-3.42-5.74-6.84-11.48-10.34-17.16a27.84,27.84,0,0,1-3.62-11.66c-1-8.62-2.12-17.23-3.16-25.85a10.47,10.47,0,0,1,1.78-7.37c5.48-8,10.6-16.26,16.61-23.82,5.53-7,12.07-21.22,18.12-27.76l.06-.06a7.29,7.29,0,0,1,1.35-1.15,5.94,5.94,0,0,1,2.46-10.13,6.83,6.83,0,0,1,.81-.15l.21,0a.57.57,0,0,0,.12-.25.27.27,0,0,0-.12-.24h0l-.21,0a3.65,3.65,0,0,1-.92-.29,3.92,3.92,0,0,1-.53-.29,4.08,4.08,0,0,1,.87-7.3h0a4.11,4.11,0,0,1,.65-.17h0l.12,0h0a.3.3,0,0,0,.16-.26.31.31,0,0,0-.16-.26l0,0a2.09,2.09,0,0,1-.56-.21,2.42,2.42,0,0,1,.33-4.42.37.37,0,0,1-.14-.3.4.4,0,0,1,.4-.4h-.08a.29.29,0,0,0,.14-.26.25.25,0,0,0-.08-.2h0l0-.06c-.37-.63.56-2.22.56-2.22s.92,1.59.55,2.22l0,.06h0a.25.25,0,0,0-.09.2.28.28,0,0,0,.15.26h-.07a.41.41,0,0,1,.4.4.38.38,0,0,1-.15.3,2.42,2.42,0,0,1,.33,4.42,2.3,2.3,0,0,1-.57.21l0,0a.29.29,0,0,0-.16.26.28.28,0,0,0,.16.26h0l.12,0h0a4.55,4.55,0,0,1,.66.17,4.08,4.08,0,0,1,.87,7.3,3.39,3.39,0,0,1-.53.29,4.11,4.11,0,0,1-.92.29l-.22,0h0a.26.26,0,0,0-.13.24.55.55,0,0,0,.13.25l.21,0a7.23,7.23,0,0,1,.81.15,6,6,0,0,1,4.4,5.74,5.91,5.91,0,0,1-2,4.46A7.23,7.23,0,0,1,158,89.58c6.1,8.91,15.66,23.17,19.54,28,5.65,7.1,10.43,14.89,15.6,22.38A12.09,12.09,0,0,1,195.06,148.86ZM152.31,63.43Zm0,0h0Zm0,0h0Z"/><path class="cls-4" d="M154.79,49.86h-4.32a.93.93,0,0,0,0-1.82h4.32a.93.93,0,0,0,0,1.82Z"/><path class="cls-4" d="M154.21,40.88v0h-3.16v0c.3,0,.54-.36.54-.8s-.24-.8-.54-.8h3.16c-.3,0-.54.36-.54.8S153.91,40.88,154.21,40.88Z"/><path class="cls-4" d="M427.21,101.78a24.26,24.26,0,0,1-5.8-.56,3.53,3.53,0,0,1-2.09-1.31,4.68,4.68,0,0,1-.65-2.71,10.53,10.53,0,0,1,.68-3.65l3.94-11.47a9.28,9.28,0,0,0-1.07-.5l-4.36,12.6a16,16,0,0,1-3,5.76,6.5,6.5,0,0,1-5,1.84v1h18.46v-1ZM413.3,81.65a9.1,9.1,0,0,1,4.56-1.06,11.16,11.16,0,0,1,4.36,1l.37-1.08a14.48,14.48,0,0,0-5.3-1,7.89,7.89,0,0,0-5.33,1.8,5.33,5.33,0,0,0-2.08,4.09A5,5,0,0,0,411.22,89a4.13,4.13,0,0,0,3,1.37,4.27,4.27,0,0,0,3-1.12,3.69,3.69,0,0,0,1.25-2.87,3.62,3.62,0,0,0-.94-2.68,3.13,3.13,0,0,0-2.3-.93,2.86,2.86,0,0,0-2.93,1.93.67.67,0,0,1-.63.5c-.41,0-.58-.21-.49-.62A3.85,3.85,0,0,1,413.3,81.65Z"/><path class="cls-4" d="M461.24,115.25h4.11v.93H451.58v-.93h4.11V75h-4.42v-.93h1.31a41.75,41.75,0,0,0,8.66-.81v6.48h.37a11.41,11.41,0,0,1,3.34-5,7.87,7.87,0,0,1,5.27-1.87,9.1,9.1,0,0,1,8.32,4.4,20.82,20.82,0,0,1,2.71,11.12,20.64,20.64,0,0,1-2.8,11.19q-2.81,4.46-8.61,4.46a8.44,8.44,0,0,1-8.23-5.11h-.37Zm-.12-26.87v2.25A16.89,16.89,0,0,0,463,98.89a6.23,6.23,0,0,0,5.86,3.39q4.29,0,5.42-4.86a33.94,33.94,0,0,0,.93-7.85q0-3.93-.21-6a28.06,28.06,0,0,0-.82-4.27,6.85,6.85,0,0,0-2-3.46,4.89,4.89,0,0,0-3.37-1.24,5,5,0,0,0-3.49,1.4,9.57,9.57,0,0,0-2.4,3.58A23.19,23.19,0,0,0,461.12,88.38Z"/><path class="cls-4" d="M501,101.85v.93H487.23v-.93h4.12V75h-4.43v-.93h1.31A43.13,43.13,0,0,0,497,73.3v6.23h.37A10,10,0,0,1,501,74.7a9.31,9.31,0,0,1,5.64-1.84q5.43,0,7.42,3.21t2,9.57v16.21h4.12v.93H506.37v-.93h4.11V86.51q0-7-1.06-9.29a5.42,5.42,0,0,0-1.52-1.8,4.84,4.84,0,0,0-3-.81A5.89,5.89,0,0,0,501.1,76,8.66,8.66,0,0,0,498.45,80a32.23,32.23,0,0,0-1.55,10.59v11.29Z"/><path class="cls-4" d="M536.42,72.86q7.41,0,9.81,3.34t2.4,11.62v11c0,1.7.38,2.55,1.13,2.55q2.29,0,3-7.17l1.12.13Q553,104,547.64,104a2.84,2.84,0,0,1-2.4-1.12,5.49,5.49,0,0,1-1.06-2.47,20.62,20.62,0,0,1-.22-3.33h-.37a8.65,8.65,0,0,1-3.31,5.11,10.58,10.58,0,0,1-6.39,1.81,11.44,11.44,0,0,1-6.82-2.09,6.92,6.92,0,0,1-2.93-6,7.16,7.16,0,0,1,1.68-4.87q3.49-4,15.83-4h1.44V84c0-3.28-.56-5.76-1.69-7.42s-3.06-2.49-5.82-2.49-4.8.56-6.08,1.68a4.73,4.73,0,0,0-1.94,3.49c0,.38.18.56.53.56a.55.55,0,0,0,.6-.56q.38-1.62,2.49-1.62a2.69,2.69,0,0,1,2.18,1,3.55,3.55,0,0,1,.81,2.37,3.09,3.09,0,0,1-1,2.36,3.73,3.73,0,0,1-2.68,1,3.79,3.79,0,0,1-2.86-1.28,4.39,4.39,0,0,1-1.22-3.15,5.77,5.77,0,0,1,2.93-5.26A13.4,13.4,0,0,1,536.42,72.86Zm6.67,19.51V88.2h-2q-1.33,0-3.18.18a14.76,14.76,0,0,0-3.77.94q-4,1.43-4,6.36a7.5,7.5,0,0,0,1.44,4.8q1.43,1.8,4.61,1.8a5.69,5.69,0,0,0,5-2.86A12.86,12.86,0,0,0,543.09,92.37Z"/><path class="cls-4" d="M448.9,101.78v1h-16v-1h4.61l-1.1-3.62L436.4,98l-.1-.31a1,1,0,0,0-.07-.15,39.31,39.31,0,0,0-7-10.84,19.16,19.16,0,0,0-5.52-4.43,3.49,3.49,0,0,0-.39-.19l.38-1.11a21.42,21.42,0,0,1,4.94,3.36,29.68,29.68,0,0,1,5.76,7.11v-.06L427.83,70h-.38l-3.78,11c-.36-.18-.72-.33-1.08-.47L428,64.82a12.2,12.2,0,0,1,.81-2.06A3,3,0,0,1,431.69,61h.19l12.59,40.77Z"/><path class="cls-4" d="M436.4,98l-.17-.46a1,1,0,0,1,.07.15Z"/><path class="cls-4" d="M293.83,124.67a8.56,8.56,0,0,0,5.62,2.14,19,19,0,0,0,5.52-.75v44h6.53q11.89,0,17.46-6,4.83-5,5.89-16.71a114.46,114.46,0,0,0,.54-12.32,73,73,0,0,0-1.07-13.23,35.64,35.64,0,0,0-3.54-10.34q-5.13-9.21-18.31-9.21-9.33,0-14.36,4a8.61,8.61,0,0,0-2.52,2.89,6.36,6.36,0,0,0-.91,2.74c0,.68.29,1,.86,1a1.18,1.18,0,0,0,1.18-.85,4.9,4.9,0,0,1,5-3.32,5.41,5.41,0,0,1,4,1.71,6.46,6.46,0,0,1,1.66,4.71,6,6,0,0,1-2.14,4.82,7.67,7.67,0,0,1-5.14,1.83,7.22,7.22,0,0,1-5.31-2.36,8.25,8.25,0,0,1-2.3-6q0-5.79,5.57-9.59t14.78-3.8q16.94,0,26.25,8.41t9.32,26.08q0,37.29-34.71,37.28H286v-1.71h7.82Z"/><path class="cls-4" d="M382,170.2v1.6H358.31v-1.6h7.08V99.49h-7.61v-1.6H360a73.84,73.84,0,0,0,15.1-1.4v35.36h.65a17,17,0,0,1,6.16-8.31,16.1,16.1,0,0,1,9.69-3.16q9.31,0,12.75,5.52t3.43,16.44V170.2h7.07v1.6H391.2v-1.6h7.07V143.84q0-12.1-1.82-16a9.13,9.13,0,0,0-2.62-3.1,8.27,8.27,0,0,0-5.2-1.4,10.12,10.12,0,0,0-6.48,2.47,14.65,14.65,0,0,0-4.55,6.75,54.89,54.89,0,0,0-2.68,18.21V170.2Z"/><path class="cls-4" d="M442.84,120.38q12.75,0,16.87,5.73t4.13,20v19q0,4.39,1.92,4.4c2.64,0,4.4-4.11,5.25-12.32l1.93.21q-1.6,16.6-10.82,16.61A4.86,4.86,0,0,1,458,172a9.49,9.49,0,0,1-1.82-4.23,35.39,35.39,0,0,1-.38-5.73h-.64a14.77,14.77,0,0,1-5.68,8.78,18.27,18.27,0,0,1-11,3.11,19.72,19.72,0,0,1-11.73-3.59q-5-3.59-5-10.34a12.28,12.28,0,0,1,2.9-8.36q6-6.85,27.21-6.85h2.46v-5.25q0-8.46-2.89-12.75t-10-4.28q-7.12,0-10.44,2.89c-2.22,1.93-3.32,3.93-3.32,6,0,.64.3,1,.91,1a.94.94,0,0,0,1-1q.65-2.79,4.29-2.79a4.67,4.67,0,0,1,3.75,1.66,6.13,6.13,0,0,1,1.39,4.07,5.35,5.35,0,0,1-1.77,4.07,6.42,6.42,0,0,1-4.6,1.66,6.58,6.58,0,0,1-4.93-2.19,7.56,7.56,0,0,1-2.09-5.41,9.92,9.92,0,0,1,5-9.05A23.05,23.05,0,0,1,442.84,120.38Zm11.46,33.53v-7.17h-3.37a53.4,53.4,0,0,0-5.47.32,25,25,0,0,0-6.48,1.6q-6.86,2.47-6.85,10.93a12.91,12.91,0,0,0,2.46,8.25q2.46,3.1,7.93,3.11a9.79,9.79,0,0,0,8.62-4.93A22,22,0,0,0,454.3,153.91Z"/><path class="cls-4" d="M515.68,128.52a5.92,5.92,0,0,0-2-4.6,7.88,7.88,0,0,0-5.47-1.82,9.22,9.22,0,0,0-6.37,2.73,18,18,0,0,0-4.55,7.12,56.29,56.29,0,0,0-2.89,18.32V170.2h7.82v1.6H477.76v-1.6h7.07V124.13h-7.6v-1.6h2.24a72.91,72.91,0,0,0,15.11-1.4v11.14h.64q4.5-11.88,13.5-11.89a8.77,8.77,0,0,1,6.48,2.52,8.44,8.44,0,0,1,2.52,6.21,8.23,8.23,0,0,1-2.09,5.9,6.6,6.6,0,0,1-4.93,2.19,6.42,6.42,0,0,1-4.6-1.66,5.36,5.36,0,0,1-1.77-4.07,6.11,6.11,0,0,1,1.39-4.07,4.64,4.64,0,0,1,3.75-1.66q3.64,0,4.29,2.78c.14.65.49,1,1.07,1S515.68,129.17,515.68,128.52Z"/><path class="cls-4" d="M545.12,170.2v1.6H521.45v-1.6h7.07V124.13h-7.61v-1.6h2.25a73.87,73.87,0,0,0,15.11-1.4v10.72h.64a17.57,17.57,0,0,1,6-8.31,15.43,15.43,0,0,1,9.53-3.16q12.75,0,15.11,11.47h.64a17.57,17.57,0,0,1,6-8.31,15.44,15.44,0,0,1,9.54-3.16q9.21,0,12.32,5.36t3.1,16.6V170.2h7.07v1.6H584.55v-1.6h7.07V139.88q0-12.21-3.54-15.21a7.1,7.1,0,0,0-4.39-1.29q-14.36,0-14.35,27.43V170.2h7.07v1.6H553.27v-1.6h7.07V139.88q0-12.21-3.54-15.21a7.1,7.1,0,0,0-4.39-1.29q-14.35,0-14.36,27.43V170.2Z"/><g class="cls-5"><rect class="cls-6" x="275.97" y="178.23" width="3.53" height="1.84"/><rect class="cls-6" x="279.5" y="178.23" width="3.53" height="1.84"/><rect class="cls-7" x="283.03" y="178.23" width="3.53" height="1.84"/><rect class="cls-8" x="286.57" y="178.23" width="3.53" height="1.84"/><rect class="cls-9" x="290.1" y="178.23" width="3.53" height="1.84"/><rect class="cls-10" x="293.63" y="178.23" width="3.53" height="1.84"/><rect class="cls-11" x="297.16" y="178.23" width="3.53" height="1.84"/><rect class="cls-12" x="300.7" y="178.23" width="3.53" height="1.84"/><rect class="cls-12" x="304.23" y="178.23" width="3.53" height="1.84"/><rect class="cls-13" x="307.76" y="178.23" width="3.53" height="1.84"/><rect class="cls-14" x="311.3" y="178.23" width="3.53" height="1.84"/><rect class="cls-14" x="314.83" y="178.23" width="3.53" height="1.84"/><rect class="cls-15" x="318.36" y="178.23" width="3.53" height="1.84"/><rect class="cls-16" x="321.89" y="178.23" width="3.53" height="1.84"/><rect class="cls-16" x="325.43" y="178.23" width="3.53" height="1.84"/><rect class="cls-17" x="328.96" y="178.23" width="3.53" height="1.84"/><rect class="cls-18" x="332.49" y="178.23" width="3.53" height="1.84"/><rect class="cls-19" x="336.03" y="178.23" width="3.53" height="1.84"/><rect class="cls-20" x="339.56" y="178.23" width="3.53" height="1.84"/><rect class="cls-21" x="343.09" y="178.23" width="3.53" height="1.84"/><rect class="cls-22" x="346.62" y="178.23" width="3.53" height="1.84"/><rect class="cls-22" x="350.16" y="178.23" width="3.53" height="1.84"/><rect class="cls-23" x="353.69" y="178.23" width="3.53" height="1.84"/><rect class="cls-24" x="357.22" y="178.23" width="3.53" height="1.84"/><rect class="cls-25" x="360.76" y="178.23" width="3.53" height="1.84"/><rect class="cls-26" x="364.29" y="178.23" width="3.53" height="1.84"/><rect class="cls-27" x="367.82" y="178.23" width="3.53" height="1.84"/><rect class="cls-28" x="371.35" y="178.23" width="3.53" height="1.84"/><rect class="cls-28" x="374.89" y="178.23" width="3.53" height="1.84"/><rect class="cls-29" x="378.42" y="178.23" width="3.53" height="1.84"/><rect class="cls-30" x="381.95" y="178.23" width="3.53" height="1.84"/><rect class="cls-30" x="385.49" y="178.23" width="3.53" height="1.84"/><rect class="cls-31" x="389.02" y="178.23" width="3.53" height="1.84"/><rect class="cls-32" x="392.55" y="178.23" width="3.53" height="1.84"/><rect class="cls-32" x="396.08" y="178.23" width="3.53" height="1.84"/><rect class="cls-33" x="399.62" y="178.23" width="3.53" height="1.84"/><rect class="cls-34" x="403.15" y="178.23" width="3.53" height="1.84"/><rect class="cls-34" x="406.68" y="178.23" width="3.53" height="1.84"/><rect class="cls-35" x="410.22" y="178.23" width="3.53" height="1.84"/><rect class="cls-36" x="413.75" y="178.23" width="3.53" height="1.84"/><rect class="cls-36" x="417.28" y="178.23" width="3.53" height="1.84"/><rect class="cls-37" x="420.81" y="178.23" width="3.53" height="1.84"/><rect class="cls-38" x="424.35" y="178.23" width="3.53" height="1.84"/><rect class="cls-38" x="427.88" y="178.23" width="3.53" height="1.84"/><rect class="cls-39" x="431.41" y="178.23" width="3.53" height="1.84"/><rect class="cls-40" x="434.95" y="178.23" width="3.53" height="1.84"/><rect class="cls-41" x="438.48" y="178.23" width="3.53" height="1.84"/><rect class="cls-41" x="442.01" y="178.23" width="3.53" height="1.84"/><rect class="cls-42" x="445.54" y="178.23" width="3.53" height="1.84"/><rect class="cls-43" x="449.08" y="178.23" width="3.53" height="1.84"/><rect class="cls-43" x="452.61" y="178.23" width="3.53" height="1.84"/><rect class="cls-44" x="456.14" y="178.23" width="3.53" height="1.84"/><rect class="cls-45" x="459.68" y="178.23" width="3.53" height="1.84"/><rect class="cls-45" x="463.21" y="178.23" width="3.53" height="1.84"/><rect class="cls-46" x="466.74" y="178.23" width="3.53" height="1.84"/><rect class="cls-47" x="470.27" y="178.23" width="3.53" height="1.84"/><rect class="cls-48" x="473.81" y="178.23" width="3.53" height="1.84"/><rect class="cls-48" x="477.34" y="178.23" width="3.53" height="1.84"/><rect class="cls-49" x="480.87" y="178.23" width="3.53" height="1.84"/><rect class="cls-50" x="484.41" y="178.23" width="3.53" height="1.84"/><rect class="cls-50" x="487.94" y="178.23" width="3.53" height="1.84"/><rect class="cls-51" x="491.47" y="178.23" width="3.53" height="1.84"/><rect class="cls-52" x="495" y="178.23" width="3.53" height="1.84"/><rect class="cls-52" x="498.54" y="178.23" width="3.53" height="1.84"/><rect class="cls-53" x="502.07" y="178.23" width="3.53" height="1.84"/><rect class="cls-54" x="505.6" y="178.23" width="3.53" height="1.84"/><rect class="cls-55" x="509.14" y="178.23" width="3.53" height="1.84"/><rect class="cls-55" x="512.67" y="178.23" width="3.53" height="1.84"/><rect class="cls-56" x="516.2" y="178.23" width="3.53" height="1.84"/><rect class="cls-57" x="519.73" y="178.23" width="3.53" height="1.84"/><rect class="cls-58" x="523.27" y="178.23" width="3.53" height="1.84"/><rect class="cls-58" x="526.8" y="178.23" width="3.53" height="1.84"/><rect class="cls-59" x="530.33" y="178.23" width="3.53" height="1.84"/><rect class="cls-60" x="533.87" y="178.23" width="3.53" height="1.84"/><rect class="cls-61" x="537.4" y="178.23" width="3.53" height="1.84"/><rect class="cls-61" x="540.93" y="178.23" width="3.53" height="1.84"/><rect class="cls-62" x="544.46" y="178.23" width="3.53" height="1.84"/><rect class="cls-63" x="548" y="178.23" width="3.53" height="1.84"/><rect class="cls-64" x="551.53" y="178.23" width="3.53" height="1.84"/><rect class="cls-65" x="555.06" y="178.23" width="3.53" height="1.84"/><rect class="cls-65" x="558.6" y="178.23" width="3.53" height="1.84"/><rect class="cls-66" x="562.13" y="178.23" width="3.53" height="1.84"/><rect class="cls-67" x="565.66" y="178.23" width="3.53" height="1.84"/><rect class="cls-68" x="569.19" y="178.23" width="3.53" height="1.84"/><rect class="cls-69" x="572.73" y="178.23" width="3.53" height="1.84"/><rect class="cls-70" x="576.26" y="178.23" width="3.53" height="1.84"/><rect class="cls-71" x="579.79" y="178.23" width="3.53" height="1.84"/><rect class="cls-72" x="583.33" y="178.23" width="3.53" height="1.84"/><rect class="cls-73" x="586.86" y="178.23" width="3.53" height="1.84"/><rect class="cls-74" x="590.39" y="178.23" width="3.53" height="1.84"/><rect class="cls-75" x="593.93" y="178.23" width="3.53" height="1.84"/><rect class="cls-75" x="597.46" y="178.23" width="3.53" height="1.84"/><rect class="cls-76" x="600.99" y="178.23" width="3.53" height="1.84"/><rect class="cls-77" x="604.52" y="178.23" width="3.53" height="1.84"/><rect class="cls-78" x="608.06" y="178.23" width="3.53" height="1.84"/></g><g class="cls-79"><path class="cls-80" d="M266.87,95.43c-7.32-4-13.77-5.11-20-3.11-16.66,5.39-30,1.65-41.11-12.1-5.68-7-14.35-8.75-22.92-7.77-15.43,1.77-29-1.86-41.09-11.54-.6-.48-1.27-.85-1.89-1.3-11-8-22.51-14-36.13-8L99,46.42c-7.5,5.52-6.27,12.87-6.2,19.89.3,28.34.57,56.69,1,85,0,1.47,1.45,2.89,2.11,4.38s1.65,3,1.66,4.46q.45,57.72.7,115.45.1,20.3.19,40.58c0,3.28.28,6.26,5.12,5.54q-.21-42.51-.42-84.91c-.15-25.86-.43-51.73-.39-77.59,0-1.89,1.82-4.26,3.45-5.58,13-10.57,28.45-11.54,44.31-10.39,11.12.81,20.43-3.23,28.69-10.39,7.5-6.51,15.1-13,25.8-13.29,5.12-.11,10.26.21,15.39.38,7.15.22,13.73-1.43,18.75-6.75C246.67,105.32,254.26,97.7,266.87,95.43Z"/></g><text class="cls-81" transform="translate(399.18 205.52)">Experience Digitally</text></g></g></svg>