<svg xmlns="http://www.w3.org/2000/svg" xmlns:xlink="http://www.w3.org/1999/xlink" width="1920" height="700" viewBox="0 0 1920 700">
  <defs>
    <linearGradient id="linear-gradient" x1="0.5" y1="-0.008" x2="0.5" y2="1.231" gradientUnits="objectBoundingBox">
      <stop offset="0" stop-color="#f58f17"/>
      <stop offset="1" stop-color="#e74620"/>
    </linearGradient>
    <clipPath id="clip-path">
      <rect id="Rectangle_18627" data-name="Rectangle 18627" width="949.669" height="5.218" fill="none"/>
    </clipPath>
    <clipPath id="clip-path-2">
      <path id="Path_12031" data-name="Path 12031" d="M565.169,601.619A258.8,258.8,0,0,1,456.018,812.943c-.806.572-1.616,1.143-2.431,1.706a259.148,259.148,0,0,1-24.366,14.985c-.591.32-1.183.64-1.774.939q-5.9,3.154-11.969,5.97A259.779,259.779,0,0,1,202.2,839.1c-5.755-2.524-11.426-5.257-16.966-8.175q-8.166-4.312-15.987-9.182-5.267-3.285-10.348-6.808c-1.061-.722-2.111-1.466-3.152-2.207A258.731,258.731,0,0,1,46.889,601.619c0-143.117,116.021-259.141,259.138-259.141S565.169,458.5,565.169,601.619Z" transform="translate(-46.889 -342.478)" fill="none"/>
    </clipPath>
  </defs>
  <g id="Logo_ApnaDharm_Landscape" transform="translate(5319 -5589)">
    <g id="Rectangle_18628" data-name="Rectangle 18628" transform="translate(-5319 5589)" fill="#fff" stroke="#707070" stroke-width="1" opacity="0">
      <rect width="1920" height="700" stroke="none"/>
      <rect x="0.5" y="0.5" width="1919" height="699" fill="none"/>
    </g>
    <g id="Group_28459" data-name="Group 28459" transform="translate(-5185.087 5333.012)">
      <path id="Path_12024" data-name="Path 12024" d="M564.981,601.141A258.783,258.783,0,0,1,455.83,812.466c-.806.574-1.613,1.146-2.431,1.709a260.035,260.035,0,0,1-24.363,14.985c-.591.317-1.183.637-1.774.937-3.933,2.105-7.914,4.086-11.972,5.973a259.779,259.779,0,0,1-213.277,2.552c-5.755-2.524-11.426-5.257-16.963-8.178q-8.17-4.308-15.99-9.182-5.267-3.281-10.345-6.805c-1.061-.724-2.114-1.466-3.155-2.207A258.736,258.736,0,0,1,46.7,601.141C46.7,458.024,162.725,342,305.842,342S564.981,458.024,564.981,601.141Z" transform="translate(0 0)" fill="url(#linear-gradient)"/>
      <path id="Path_12025" data-name="Path 12025" d="M425.8,616.638c-9.23-10.685-18.316-21.482-27.931-31.81-24.193-25.967-57.353-70.374-84.6-92.915a108.888,108.888,0,0,1-18.214-19.53c-7.886-10.806-12.7-23.208-15.659-36.343-3.794-16.822-8.582-33.448-11.652-50.406-2.317-12.852-2.552-26.089-3.916-39.13-.15-1.474-1.6-3.933-2.5-3.953-1.681-.057-3.56,1.146-5.042,2.235a3.558,3.558,0,0,0-.976,2.094l-7.363-4.592c-.965,2.366-2.516,4.658-2.815,7.108-1.876,15.135-2.722,30.455-5.388,45.449-2.6,14.666-8.78,23.086-12.544,37.534-5.812,22.28-16.488,41.337-35.358,55.57-14.7,11.081-91.828,106.757-111.384,129.589-4.779,5.577-5.549,12.1-4.553,19.2,1.1,7.886,2.309,15.817,2.385,23.743a551.1,551.1,0,0,0,11.041,102.36c3.435,17.3,10.625,34.136,16.663,51.094q5.085,3.535,10.345,6.805,7.818,4.872,15.99,9.182c5.537,2.92,11.208,5.653,16.963,8.178a259.78,259.78,0,0,0,213.277-2.552c4.058-1.887,8.039-3.868,11.972-5.973.591-.3,1.183-.62,1.774-.937a260.117,260.117,0,0,0,24.363-14.985c1.07-5.586,2.216-11.163,3.54-16.683,10.948-45.692,23.338-91.78,23.763-138.873.057-7.595,1.333-15.192,2.374-22.739C431.31,628.429,430.464,622.046,425.8,616.638Zm-51.645,42.678c-3.353,25.35-6.3,50.734-9.38,76.121-1.353,11.1-5.577,20.964-11.584,30.39-9.089,14.253-17.7,28.825-26.128,43.471-2.207,3.828-4.151,4.881-8.254,3.22-17.79-7.229-29.357-19.49-32.594-38.887-.676-4.086-.028-7.08,3.415-9.98,9.267-7.829,14.835-18.121,18.542-29.575.648-1.981,2.79-3.492,4.318-5.173s3.6-3.05,4.694-4.986a50.654,50.654,0,0,0,6.347-27.769c-.074-1.636-.139-3.738-1.106-4.779-4.394-4.714-1.785-9.728-1.344-14.807,1.681-19.292-1.2-37.789-11.265-54.639-5.54-9.267-10.093-12.657-26.85-21.932-6.5-4.375-45.347-9.821-61.722.49-25.817,16.9-35.225,41.569-33.949,71.322a28.7,28.7,0,0,0,.331,3.475c.806,4.994,3.557,10.158-2.385,14.213-1.194.818-1.579,3.3-1.746,5.059A49.057,49.057,0,0,0,190,724.689c1.944,3.333,4.638,5.682,9.182,4.3a28.218,28.218,0,0,1,1.109,3.322c2.439,11.417,8.571,20.712,16.259,29.247a12.576,12.576,0,0,1,3.025,7.408c.58,19.47-12,37.526-30.393,44.351-2.917,1.078-4.544.328-6.092-2.272-9.66-16.233-19.34-32.467-29.255-48.558-6.262-10.167-8.882-21.31-10.252-32.982-2.883-24.391-5.99-48.762-8.939-73.153a29.666,29.666,0,0,1,5.051-20.851c15.5-22.6,29.979-46.015,46.991-67.4,15.659-19.68,34.145-60.03,51.269-78.535.057-.065.122-.13.178-.187a19.976,19.976,0,0,1,3.823-3.24,16.747,16.747,0,0,1,9.239-29.094,5.468,5.468,0,0,1,.591-.085,1.623,1.623,0,0,0,.357-.713.758.758,0,0,0-.357-.668v-.02h-.04c-.207-.037-.393-.054-.6-.1a10.6,10.6,0,0,1-2.592-.818,9.072,9.072,0,0,1-1.519-.806,11.539,11.539,0,0,1,2.467-20.664c.02,0,.02-.008.02-.008a10.484,10.484,0,0,1,1.839-.47h.057a2.579,2.579,0,0,1,.348-.085h.02a.831.831,0,0,0,.458-.741.815.815,0,0,0-.458-.724.211.211,0,0,0-.124-.054,6.924,6.924,0,0,1-1.585-.6A6.84,6.84,0,0,1,251,417.968a1.1,1.1,0,0,1-.393-.843,1.141,1.141,0,0,1,1.135-1.146H251.5v-.008a.81.81,0,0,0,.413-.753.758.758,0,0,0-.243-.563c0-.02,0-.02-.011-.02-.037-.065-.093-.122-.122-.187-1.041-1.783,1.587-6.282,1.587-6.282s2.609,4.5,1.568,6.282c-.028.065-.085.122-.122.187-.008,0-.008,0-.008.02a.75.75,0,0,0-.246.563.81.81,0,0,0,.413.753v.008h-.207a1.154,1.154,0,0,1,1.137,1.146,1.117,1.117,0,0,1-.413.843,6.851,6.851,0,0,1,.928,12.515,7.4,7.4,0,0,1-1.6.6.2.2,0,0,0-.122.054.817.817,0,0,0-.461.724.833.833,0,0,0,.461.741h.017a2.48,2.48,0,0,1,.348.085h.057a10.386,10.386,0,0,1,1.879.478,11.546,11.546,0,0,1,2.45,20.664,10.889,10.889,0,0,1-1.486.806,11.68,11.68,0,0,1-2.617.818c-.2.048-.4.065-.611.1h-.037v.02a.758.758,0,0,0-.357.668,1.623,1.623,0,0,0,.357.713,5.671,5.671,0,0,1,.591.085,17.437,17.437,0,0,1,2.3.43,16.81,16.81,0,0,1,6.712,28.87,20.037,20.037,0,0,1,5.221,5.221c17.275,25.217,44.323,65.559,55.287,79.341,15.99,20.09,29.51,42.144,44.144,63.315C373.982,641.864,375.363,650.135,374.152,659.317ZM253.191,417.583v-.008h-.028Zm-.065,0a.1.1,0,0,1,.037-.008h-.093A.283.283,0,0,1,253.125,417.583Zm-.085,0,.028-.008h-.028Z" transform="translate(52.725 0.521)"/>
      <g id="Group_28440" data-name="Group 28440" transform="translate(300.712 349.75)">
        <path id="Path_12026" data-name="Path 12026" d="M148.672,358.637v.051h-12.2v-.051a2.623,2.623,0,0,0,0-5.13h12.2a2.622,2.622,0,0,0,0,5.13Z" transform="translate(-136.471 -328.703)" fill="#040505"/>
        <path id="Path_12027" data-name="Path 12027" d="M145.993,349.277v.045h-8.947v-.045c.84,0,1.519-1.016,1.519-2.266s-.679-2.269-1.519-2.269h8.947c-.84,0-1.522,1.016-1.522,2.269S145.153,349.277,145.993,349.277Z" transform="translate(-135.419 -344.741)" fill="#040505"/>
      </g>
      <g id="Group_28443" data-name="Group 28443" transform="translate(655.804 742.924)">
        <g id="Group_28442" data-name="Group 28442">
          <g id="Group_28441" data-name="Group 28441" clip-path="url(#clip-path)">
            <path id="Path_12028" data-name="Path 12028" d="M261.964,483.692v0Z" transform="translate(-261.963 -483.693)" fill="#f58f17"/>
            <rect id="Rectangle_18532" data-name="Rectangle 18532" width="9.997" height="5.218" fill="#f58f17"/>
            <rect id="Rectangle_18533" data-name="Rectangle 18533" width="9.997" height="5.218" transform="translate(9.997)" fill="#f58f17"/>
            <rect id="Rectangle_18534" data-name="Rectangle 18534" width="9.997" height="5.218" transform="translate(19.993)" fill="#f48e17"/>
            <rect id="Rectangle_18535" data-name="Rectangle 18535" width="9.997" height="5.218" transform="translate(29.99)" fill="#f48d17"/>
            <rect id="Rectangle_18536" data-name="Rectangle 18536" width="9.997" height="5.218" transform="translate(39.986)" fill="#f48c18"/>
            <rect id="Rectangle_18537" data-name="Rectangle 18537" width="9.997" height="5.218" transform="translate(49.983)" fill="#f48b18"/>
            <rect id="Rectangle_18538" data-name="Rectangle 18538" width="9.997" height="5.218" transform="translate(59.979)" fill="#f48b18"/>
            <rect id="Rectangle_18539" data-name="Rectangle 18539" width="9.997" height="5.218" transform="translate(69.976)" fill="#f38a18"/>
            <rect id="Rectangle_18540" data-name="Rectangle 18540" width="9.997" height="5.218" transform="translate(79.972)" fill="#f38918"/>
            <rect id="Rectangle_18541" data-name="Rectangle 18541" width="9.997" height="5.218" transform="translate(89.969)" fill="#f38818"/>
            <rect id="Rectangle_18542" data-name="Rectangle 18542" width="9.997" height="5.218" transform="translate(99.965)" fill="#f38719"/>
            <rect id="Rectangle_18543" data-name="Rectangle 18543" width="9.997" height="5.218" transform="translate(109.962)" fill="#f38719"/>
            <rect id="Rectangle_18544" data-name="Rectangle 18544" width="9.997" height="5.218" transform="translate(119.958)" fill="#f38619"/>
            <rect id="Rectangle_18545" data-name="Rectangle 18545" width="9.997" height="5.218" transform="translate(129.955)" fill="#f28519"/>
            <rect id="Rectangle_18546" data-name="Rectangle 18546" width="9.997" height="5.218" transform="translate(139.951)" fill="#f28419"/>
            <rect id="Rectangle_18547" data-name="Rectangle 18547" width="9.997" height="5.218" transform="translate(149.948)" fill="#f28419"/>
            <rect id="Rectangle_18548" data-name="Rectangle 18548" width="9.997" height="5.218" transform="translate(159.944)" fill="#f2831a"/>
            <rect id="Rectangle_18549" data-name="Rectangle 18549" width="9.997" height="5.218" transform="translate(169.941)" fill="#f2821a"/>
            <rect id="Rectangle_18550" data-name="Rectangle 18550" width="9.997" height="5.218" transform="translate(179.937)" fill="#f2811a"/>
            <rect id="Rectangle_18551" data-name="Rectangle 18551" width="9.997" height="5.218" transform="translate(189.934)" fill="#f1801a"/>
            <rect id="Rectangle_18552" data-name="Rectangle 18552" width="9.997" height="5.218" transform="translate(199.93)" fill="#f1801a"/>
            <rect id="Rectangle_18553" data-name="Rectangle 18553" width="9.997" height="5.218" transform="translate(209.927)" fill="#f17f1a"/>
            <rect id="Rectangle_18554" data-name="Rectangle 18554" width="9.997" height="5.218" transform="translate(219.923)" fill="#f17e1a"/>
            <rect id="Rectangle_18555" data-name="Rectangle 18555" width="9.997" height="5.218" transform="translate(229.92)" fill="#f17d1b"/>
            <rect id="Rectangle_18556" data-name="Rectangle 18556" width="9.997" height="5.218" transform="translate(239.916)" fill="#f07d1b"/>
            <rect id="Rectangle_18557" data-name="Rectangle 18557" width="9.997" height="5.218" transform="translate(249.913)" fill="#f07c1b"/>
            <rect id="Rectangle_18558" data-name="Rectangle 18558" width="9.997" height="5.218" transform="translate(259.909)" fill="#f07b1b"/>
            <rect id="Rectangle_18559" data-name="Rectangle 18559" width="9.997" height="5.218" transform="translate(269.906)" fill="#f07a1b"/>
            <rect id="Rectangle_18560" data-name="Rectangle 18560" width="9.997" height="5.218" transform="translate(279.902)" fill="#f07a1b"/>
            <rect id="Rectangle_18561" data-name="Rectangle 18561" width="9.997" height="5.218" transform="translate(289.899)" fill="#f0791b"/>
            <rect id="Rectangle_18562" data-name="Rectangle 18562" width="9.997" height="5.218" transform="translate(299.895)" fill="#f0781b"/>
            <rect id="Rectangle_18563" data-name="Rectangle 18563" width="9.997" height="5.218" transform="translate(309.892)" fill="#ef771c"/>
            <rect id="Rectangle_18564" data-name="Rectangle 18564" width="9.997" height="5.218" transform="translate(319.888)" fill="#ef771c"/>
            <rect id="Rectangle_18565" data-name="Rectangle 18565" width="9.997" height="5.218" transform="translate(329.885)" fill="#ef761c"/>
            <rect id="Rectangle_18566" data-name="Rectangle 18566" width="9.997" height="5.218" transform="translate(339.881)" fill="#ef751c"/>
            <rect id="Rectangle_18567" data-name="Rectangle 18567" width="9.997" height="5.218" transform="translate(349.878)" fill="#ef741c"/>
            <rect id="Rectangle_18568" data-name="Rectangle 18568" width="9.997" height="5.218" transform="translate(359.874)" fill="#ef741c"/>
            <rect id="Rectangle_18569" data-name="Rectangle 18569" width="9.997" height="5.218" transform="translate(369.871)" fill="#ef731c"/>
            <rect id="Rectangle_18570" data-name="Rectangle 18570" width="9.997" height="5.218" transform="translate(379.867)" fill="#ee721c"/>
            <rect id="Rectangle_18571" data-name="Rectangle 18571" width="9.997" height="5.218" transform="translate(389.864)" fill="#ee711c"/>
            <rect id="Rectangle_18572" data-name="Rectangle 18572" width="9.997" height="5.218" transform="translate(399.861)" fill="#ee711c"/>
            <rect id="Rectangle_18573" data-name="Rectangle 18573" width="9.997" height="5.218" transform="translate(409.857)" fill="#ee701d"/>
            <rect id="Rectangle_18574" data-name="Rectangle 18574" width="9.997" height="5.218" transform="translate(419.853)" fill="#ee6f1d"/>
            <rect id="Rectangle_18575" data-name="Rectangle 18575" width="9.997" height="5.218" transform="translate(429.85)" fill="#ee6e1d"/>
            <rect id="Rectangle_18576" data-name="Rectangle 18576" width="9.997" height="5.218" transform="translate(439.847)" fill="#ee6e1d"/>
            <rect id="Rectangle_18577" data-name="Rectangle 18577" width="9.997" height="5.218" transform="translate(449.843)" fill="#ed6d1d"/>
            <rect id="Rectangle_18578" data-name="Rectangle 18578" width="9.997" height="5.218" transform="translate(459.84)" fill="#ed6c1d"/>
            <rect id="Rectangle_18579" data-name="Rectangle 18579" width="9.997" height="5.218" transform="translate(469.836)" fill="#ed6b1d"/>
            <rect id="Rectangle_18580" data-name="Rectangle 18580" width="9.997" height="5.218" transform="translate(479.833)" fill="#ed6b1d"/>
            <rect id="Rectangle_18581" data-name="Rectangle 18581" width="9.997" height="5.218" transform="translate(489.829)" fill="#ed6a1d"/>
            <rect id="Rectangle_18582" data-name="Rectangle 18582" width="9.997" height="5.218" transform="translate(499.826)" fill="#ed691d"/>
            <rect id="Rectangle_18583" data-name="Rectangle 18583" width="9.997" height="5.218" transform="translate(509.822)" fill="#ed681e"/>
            <rect id="Rectangle_18584" data-name="Rectangle 18584" width="9.997" height="5.218" transform="translate(519.819)" fill="#ec681e"/>
            <rect id="Rectangle_18585" data-name="Rectangle 18585" width="9.997" height="5.218" transform="translate(529.815)" fill="#ec671e"/>
            <rect id="Rectangle_18586" data-name="Rectangle 18586" width="9.997" height="5.218" transform="translate(539.812)" fill="#ec661e"/>
            <rect id="Rectangle_18587" data-name="Rectangle 18587" width="9.997" height="5.218" transform="translate(549.808)" fill="#ec651e"/>
            <rect id="Rectangle_18588" data-name="Rectangle 18588" width="9.997" height="5.218" transform="translate(559.805)" fill="#ec651e"/>
            <rect id="Rectangle_18589" data-name="Rectangle 18589" width="9.997" height="5.218" transform="translate(569.801)" fill="#ec641e"/>
            <rect id="Rectangle_18590" data-name="Rectangle 18590" width="9.997" height="5.218" transform="translate(579.798)" fill="#ec631e"/>
            <rect id="Rectangle_18591" data-name="Rectangle 18591" width="9.997" height="5.218" transform="translate(589.794)" fill="#eb621e"/>
            <rect id="Rectangle_18592" data-name="Rectangle 18592" width="9.997" height="5.218" transform="translate(599.791)" fill="#eb621e"/>
            <rect id="Rectangle_18593" data-name="Rectangle 18593" width="9.997" height="5.218" transform="translate(609.787)" fill="#eb611e"/>
            <rect id="Rectangle_18594" data-name="Rectangle 18594" width="9.997" height="5.218" transform="translate(619.784)" fill="#eb601e"/>
            <rect id="Rectangle_18595" data-name="Rectangle 18595" width="9.997" height="5.218" transform="translate(629.78)" fill="#eb5f1f"/>
            <rect id="Rectangle_18596" data-name="Rectangle 18596" width="9.997" height="5.218" transform="translate(639.777)" fill="#eb5f1f"/>
            <rect id="Rectangle_18597" data-name="Rectangle 18597" width="9.997" height="5.218" transform="translate(649.773)" fill="#eb5e1f"/>
            <rect id="Rectangle_18598" data-name="Rectangle 18598" width="9.997" height="5.218" transform="translate(659.77)" fill="#eb5d1f"/>
            <rect id="Rectangle_18599" data-name="Rectangle 18599" width="9.997" height="5.218" transform="translate(669.766)" fill="#ea5c1f"/>
            <rect id="Rectangle_18600" data-name="Rectangle 18600" width="9.997" height="5.218" transform="translate(679.763)" fill="#ea5c1f"/>
            <rect id="Rectangle_18601" data-name="Rectangle 18601" width="9.997" height="5.218" transform="translate(689.759)" fill="#ea5b1f"/>
            <rect id="Rectangle_18602" data-name="Rectangle 18602" width="9.997" height="5.218" transform="translate(699.756)" fill="#ea5a1f"/>
            <rect id="Rectangle_18603" data-name="Rectangle 18603" width="9.997" height="5.218" transform="translate(709.752)" fill="#ea591f"/>
            <rect id="Rectangle_18604" data-name="Rectangle 18604" width="9.997" height="5.218" transform="translate(719.749)" fill="#ea581f"/>
            <rect id="Rectangle_18605" data-name="Rectangle 18605" width="9.997" height="5.218" transform="translate(729.745)" fill="#ea581f"/>
            <rect id="Rectangle_18606" data-name="Rectangle 18606" width="9.997" height="5.218" transform="translate(739.742)" fill="#e9571f"/>
            <rect id="Rectangle_18607" data-name="Rectangle 18607" width="9.997" height="5.218" transform="translate(749.738)" fill="#e9561f"/>
            <rect id="Rectangle_18608" data-name="Rectangle 18608" width="9.997" height="5.218" transform="translate(759.735)" fill="#e9551f"/>
            <rect id="Rectangle_18609" data-name="Rectangle 18609" width="9.997" height="5.218" transform="translate(769.731)" fill="#e9541f"/>
            <rect id="Rectangle_18610" data-name="Rectangle 18610" width="9.997" height="5.218" transform="translate(779.728)" fill="#e95420"/>
            <rect id="Rectangle_18611" data-name="Rectangle 18611" width="9.997" height="5.218" transform="translate(789.724)" fill="#e95320"/>
            <rect id="Rectangle_18612" data-name="Rectangle 18612" width="9.997" height="5.218" transform="translate(799.721)" fill="#e95220"/>
            <rect id="Rectangle_18613" data-name="Rectangle 18613" width="9.997" height="5.218" transform="translate(809.717)" fill="#e95120"/>
            <rect id="Rectangle_18614" data-name="Rectangle 18614" width="9.997" height="5.218" transform="translate(819.714)" fill="#e85020"/>
            <rect id="Rectangle_18615" data-name="Rectangle 18615" width="9.997" height="5.218" transform="translate(829.711)" fill="#e84f20"/>
            <rect id="Rectangle_18616" data-name="Rectangle 18616" width="9.997" height="5.218" transform="translate(839.707)" fill="#e84f20"/>
            <rect id="Rectangle_18617" data-name="Rectangle 18617" width="9.997" height="5.218" transform="translate(849.704)" fill="#e84e20"/>
            <rect id="Rectangle_18618" data-name="Rectangle 18618" width="9.997" height="5.218" transform="translate(859.7)" fill="#e84d20"/>
            <rect id="Rectangle_18619" data-name="Rectangle 18619" width="9.997" height="5.218" transform="translate(869.696)" fill="#e84c20"/>
            <rect id="Rectangle_18620" data-name="Rectangle 18620" width="9.997" height="5.218" transform="translate(879.693)" fill="#e74b20"/>
            <rect id="Rectangle_18621" data-name="Rectangle 18621" width="9.997" height="5.218" transform="translate(889.69)" fill="#e74a20"/>
            <rect id="Rectangle_18622" data-name="Rectangle 18622" width="9.997" height="5.218" transform="translate(899.686)" fill="#e74920"/>
            <rect id="Rectangle_18623" data-name="Rectangle 18623" width="9.997" height="5.218" transform="translate(909.683)" fill="#e74920"/>
            <rect id="Rectangle_18624" data-name="Rectangle 18624" width="9.997" height="5.218" transform="translate(919.679)" fill="#e74820"/>
            <rect id="Rectangle_18625" data-name="Rectangle 18625" width="9.997" height="5.218" transform="translate(929.676)" fill="#e74720"/>
            <rect id="Rectangle_18626" data-name="Rectangle 18626" width="9.997" height="5.218" transform="translate(939.672)" fill="#e74620"/>
            <path id="Path_12029" data-name="Path 12029" d="M597.586,488.91v0Z" transform="translate(352.084 -483.693)" fill="#e74620"/>
          </g>
        </g>
      </g>
      <g id="Group_28445" data-name="Group 28445" transform="translate(47.233 343.347)">
        <g id="Group_28444" data-name="Group 28444" clip-path="url(#clip-path-2)">
          <path id="Path_12030" data-name="Path 12030" d="M571.472,490.574c-20.707-11.4-38.952-14.468-56.484-8.8-47.141,15.237-84.918,4.655-116.31-34.244-16.083-19.926-40.621-24.753-64.862-21.975-43.643,5.006-82.148-5.26-116.276-32.668-1.678-1.347-3.577-2.414-5.328-3.675-31.233-22.535-63.705-39.594-102.23-22.62-5.365-5.885-9.649-10.588-13.4-14.708-21.2,15.616-17.73,36.431-17.524,56.3.826,80.2,1.616,160.392,2.83,240.582.062,4.16,4.08,8.191,5.959,12.413,1.831,4.114,4.658,8.387,4.689,12.606q1.273,163.336,1.978,326.678.31,57.409.543,114.819c.034,9.3.806,17.7,14.49,15.693q-.577-120.281-1.174-240.268c-.43-73.19-1.231-146.377-1.1-219.564.008-5.337,5.127-12.031,9.751-15.778,36.934-29.917,80.513-32.662,125.379-29.391,31.454,2.295,57.8-9.151,81.175-29.411,21.239-18.4,42.721-36.929,73-37.6,14.507-.32,29.046.6,43.567,1.061,20.223.642,38.836-4.041,53.035-19.086C514.315,518.539,535.786,496.983,571.472,490.574Z" transform="translate(11.353 -325.273)" opacity="0.3" style="mix-blend-mode: overlay;isolation: isolate"/>
        </g>
      </g>
      <text id="Experience_Digitally" data-name="Experience Digitally" transform="translate(995.939 818.906)" fill="#1a1818" stroke="#1a1818" stroke-miterlimit="10" stroke-width="0.25" font-size="62" font-family="GilmerLight, Gilmer"><tspan x="0" y="0">Experience Digitally</tspan></text>
      <g id="Group_28452" data-name="Group 28452" transform="translate(1034.524 408.688)">
        <g id="Group_28446" data-name="Group 28446" transform="translate(0 52.234)">
          <path id="Path_12032" data-name="Path 12032" d="M445.042,447.158a68.651,68.651,0,0,1-16.411-1.585,9.994,9.994,0,0,1-5.914-3.707c-1.245-1.754-1.839-4.329-1.839-7.668A29.8,29.8,0,0,1,422.8,423.87l11.149-32.455A26.253,26.253,0,0,0,430.922,390l-12.337,35.653c-2.49,7.385-5.348,12.846-8.574,16.3q-4.838,5.221-14.2,5.206v2.83h52.234v-2.83ZM405.682,390.2a25.749,25.749,0,0,1,12.9-3,31.567,31.567,0,0,1,12.337,2.8l1.047-3.056a40.964,40.964,0,0,0-15-2.914c-6.112,0-11.12,1.7-15.082,5.093q-5.9,5.136-5.885,11.573c0,4.273,1.245,7.725,3.792,10.3a11.686,11.686,0,0,0,8.63,3.876A12.076,12.076,0,0,0,416.8,411.7a10.444,10.444,0,0,0,3.537-8.121c0-3.282-.877-5.8-2.66-7.583a8.855,8.855,0,0,0-6.508-2.632c-4.131,0-6.876,1.811-8.291,5.461a1.887,1.887,0,0,1-1.783,1.415c-1.16,0-1.641-.594-1.386-1.754C400.165,394.952,402.174,392.179,405.682,390.2Z" transform="translate(-395.807 -384.03)" fill="#040505"/>
        </g>
        <g id="Group_28447" data-name="Group 28447" transform="translate(117.303 33.525)">
          <path id="Path_12033" data-name="Path 12033" d="M465.485,497.358h11.641v2.648H438.143v-2.648h11.644V383.589H437.263v-2.643h3.707a118.136,118.136,0,0,0,24.515-2.295V397h1.058a32.251,32.251,0,0,1,9.437-14.287,22.333,22.333,0,0,1,14.9-5.291q15.874,0,23.548,12.436t7.671,31.485q0,19.049-7.934,31.66T489.825,465.61q-16.4,0-23.282-14.465h-1.058Zm-.351-76.019v6.349q0,13.756,5.291,23.37T487,460.673q12.169,0,15.345-13.76a95.558,95.558,0,0,0,2.646-22.224q0-11.112-.617-16.935a79.3,79.3,0,0,0-2.295-12.082,19.413,19.413,0,0,0-5.642-9.787,13.858,13.858,0,0,0-9.524-3.529,14.189,14.189,0,0,0-9.878,3.97,27.2,27.2,0,0,0-6.791,10.141A65.347,65.347,0,0,0,465.134,421.339Z" transform="translate(-437.263 -377.418)" fill="#040505"/>
        </g>
        <g id="Group_28448" data-name="Group 28448" transform="translate(218.192 33.525)">
          <path id="Path_12034" data-name="Path 12034" d="M512.781,459.436v2.646H473.8v-2.646h11.641V383.589H472.918v-2.643h3.7a121.741,121.741,0,0,0,24.872-2.295v17.64h1.058a28.119,28.119,0,0,1,10.141-13.67,26.473,26.473,0,0,1,15.962-5.2q15.348,0,20.99,9.083t5.645,27.076v45.859h11.641v2.646H527.948v-2.646h11.644V416.047q0-19.932-3-26.281a15.272,15.272,0,0,0-4.321-5.119q-2.912-2.288-8.557-2.292a16.7,16.7,0,0,0-10.667,4.058,24.128,24.128,0,0,0-7.5,11.112q-4.41,12.525-4.409,29.985v31.926Z" transform="translate(-472.918 -377.418)" fill="#040505"/>
        </g>
        <g id="Group_28449" data-name="Group 28449" transform="translate(323.492 33.525)">
          <path id="Path_12035" data-name="Path 12035" d="M544.879,377.418q20.992,0,27.784,9.437t6.788,32.9V450.97q0,7.237,3.175,7.232,6.523,0,8.644-20.285l3.175.354Q591.8,465.613,576.63,465.61a7.973,7.973,0,0,1-6.788-3.175,15.642,15.642,0,0,1-3-6.966,60.393,60.393,0,0,1-.617-9.437h-1.058a24.323,24.323,0,0,1-9.346,14.462q-7.059,5.115-18.081,5.116a32.433,32.433,0,0,1-19.315-5.908q-8.289-5.908-8.291-17.023a20.193,20.193,0,0,1,4.765-13.758q9.877-11.286,44.8-11.287h4.055V408.99q0-13.93-4.759-20.99T542.5,380.946q-11.736,0-17.2,4.759t-5.467,9.881q0,1.587,1.5,1.587a1.549,1.549,0,0,0,1.675-1.587Q524.066,391,530.064,391a7.653,7.653,0,0,1,6.177,2.733,10.1,10.1,0,0,1,2.289,6.7,8.847,8.847,0,0,1-2.909,6.7,10.635,10.635,0,0,1-7.586,2.731,10.838,10.838,0,0,1-8.112-3.613,12.431,12.431,0,0,1-3.441-8.907q0-9.877,8.291-14.9T544.879,377.418Zm18.873,55.208V420.81H558.2q-3.795,0-9,.529a40.929,40.929,0,0,0-10.673,2.646q-11.29,4.058-11.287,17.99,0,8.468,4.057,13.582t13.053,5.116q8.994,0,14.2-8.115T563.753,432.626Z" transform="translate(-510.132 -377.418)" fill="#040505"/>
        </g>
        <g id="Group_28450" data-name="Group 28450" transform="translate(36.162)">
          <path id="Path_12036" data-name="Path 12036" d="M483.033,480.932v2.83h-45.16v-2.83h13.044L447.8,470.689l-.141-.453-.283-.877a2.841,2.841,0,0,0-.2-.424,111.24,111.24,0,0,0-19.892-30.673,54.208,54.208,0,0,0-15.619-12.535,9.87,9.87,0,0,0-1.1-.537l1.075-3.141a60.6,60.6,0,0,1,13.978,9.507,83.969,83.969,0,0,1,16.3,20.118v-.17L423.414,390.98h-1.075l-10.7,31.069c-1.019-.509-2.037-.934-3.056-1.33l15.365-44.368a34.53,34.53,0,0,1,2.292-5.829,8.411,8.411,0,0,1,8.093-4.952h.538L470.5,480.932Z" transform="translate(-408.587 -365.57)" fill="#040505"/>
        </g>
        <g id="Group_28451" data-name="Group 28451" transform="translate(74.757 103.365)">
          <path id="Path_12037" data-name="Path 12037" d="M422.708,403.4l-.481-1.3a2.847,2.847,0,0,1,.2.424Z" transform="translate(-422.227 -402.1)" fill="#040505"/>
        </g>
      </g>
      <g id="Group_28458" data-name="Group 28458" transform="translate(684.205 509.081)">
        <g id="Group_28453" data-name="Group 28453" transform="translate(0 10.003)">
          <path id="Path_12038" data-name="Path 12038" d="M294.131,474.306a24.313,24.313,0,0,0,15.914,6.061,53.409,53.409,0,0,0,15.608-2.122V602.831h18.494q33.641,0,49.407-16.978,13.637-14.244,16.672-47.285a327.546,327.546,0,0,0,1.514-34.861,205.619,205.619,0,0,0-3.03-37.435,101.006,101.006,0,0,0-10-29.252q-14.55-26.065-51.835-26.069-26.37,0-40.619,11.217a24.08,24.08,0,0,0-7.122,8.183q-2.581,4.855-2.578,7.73c0,1.924.8,2.881,2.428,2.881a3.331,3.331,0,0,0,3.33-2.425q3.642-9.393,14.25-9.4a15.26,15.26,0,0,1,11.366,4.85q4.7,4.851,4.7,13.336a17.019,17.019,0,0,1-6.061,13.641,21.726,21.726,0,0,1-14.55,5.153q-8.493,0-15.005-6.669t-6.516-16.975q0-16.366,15.761-27.13t41.833-10.761q47.889,0,74.265,23.8t26.375,73.81q0,105.489-98.215,105.49H272v-4.85h22.13Z" transform="translate(-272.001 -404.585)" fill="#040505"/>
        </g>
        <g id="Group_28454" data-name="Group 28454" transform="translate(203.093)">
          <path id="Path_12039" data-name="Path 12039" d="M412.28,609.6v4.547H345.29V609.6H365.3V409.539H343.776v-4.547h6.364a209.32,209.32,0,0,0,42.741-3.942V501.081H394.7a48.348,48.348,0,0,1,17.43-23.491,45.487,45.487,0,0,1,27.43-8.942q26.375,0,36.072,15.611t9.7,46.53V609.6h20.005v4.547H438.352V609.6h20.005V535.033q0-34.252-5.153-45.166a26.3,26.3,0,0,0-7.428-8.792q-5-3.934-14.7-3.942t-18.338,6.972q-8.637,6.978-12.883,19.1-7.58,21.527-7.578,51.532V609.6Z" transform="translate(-343.776 -401.05)" fill="#040505"/>
        </g>
        <g id="Group_28455" data-name="Group 28455" transform="translate(384.056 67.599)">
          <path id="Path_12040" data-name="Path 12040" d="M467.445,424.94q36.069,0,47.743,16.216t11.672,56.532v53.654q0,12.432,5.453,12.427,11.214,0,14.855-34.86l5.455.608q-4.546,46.989-30.613,46.982-7.58,0-11.672-5.455a26.92,26.92,0,0,1-5.156-11.972,103.127,103.127,0,0,1-1.061-16.219h-1.817q-3.943,16.069-16.066,24.855T455.171,576.5q-18.947,0-33.194-10.155T407.73,537.093q0-14.24,8.186-23.641,16.973-19.4,76.993-19.4h6.972V479.2q0-23.947-8.183-36.074T463.354,431q-20.161,0-29.552,8.183t-9.4,16.977c0,1.819.855,2.728,2.575,2.728s2.677-.908,2.878-2.728q1.821-7.882,12.125-7.883a13.135,13.135,0,0,1,10.611,4.7,17.35,17.35,0,0,1,3.942,11.519,15.188,15.188,0,0,1-5,11.519q-5,4.7-13.033,4.7a18.616,18.616,0,0,1-13.944-6.214,21.37,21.37,0,0,1-5.911-15.308q0-16.973,14.247-25.613T467.445,424.94Zm32.435,94.879V499.508h-9.55q-6.519,0-15.458.908a70.51,70.51,0,0,0-18.339,4.547q-19.4,6.978-19.4,30.919,0,14.55,6.969,23.341t22.433,8.792q15.462,0,24.4-13.944T499.881,519.819Z" transform="translate(-407.73 -424.94)" fill="#040505"/>
        </g>
        <g id="Group_28456" data-name="Group 28456" transform="translate(541.075 67.599)">
          <path id="Path_12041" data-name="Path 12041" d="M572.042,447.976a16.755,16.755,0,0,0-5.758-13.033q-5.76-5.148-15.461-5.153t-18.036,7.73A50.611,50.611,0,0,0,519.9,457.678a159.365,159.365,0,0,0-8.183,51.832v56.382h22.127v4.547H464.736v-4.547h20.008V435.548H463.222V431h6.364q24.248,0,42.744-3.939v31.524h1.817q12.729-33.649,38.194-33.646,11.214,0,18.341,7.122a23.911,23.911,0,0,1,7.119,17.583q0,10.458-5.911,16.669a18.622,18.622,0,0,1-13.941,6.217q-8.035,0-13.036-4.7a15.2,15.2,0,0,1-5-11.519,17.338,17.338,0,0,1,3.939-11.519,13.138,13.138,0,0,1,10.611-4.7q10.3,0,12.125,7.88c.4,1.819,1.409,2.728,3.033,2.728S572.042,449.795,572.042,447.976Z" transform="translate(-463.222 -424.94)" fill="#040505"/>
        </g>
        <g id="Group_28457" data-name="Group 28457" transform="translate(664.696 67.599)">
          <path id="Path_12042" data-name="Path 12042" d="M575.415,565.893v4.547h-66.99v-4.547H528.43V435.548H506.911V431h6.364a209.537,209.537,0,0,0,42.741-3.939v30.31h1.819a49.417,49.417,0,0,1,16.975-23.491,43.543,43.543,0,0,1,26.977-8.942q36.069,0,42.741,32.433h1.819a49.4,49.4,0,0,1,16.975-23.491A43.543,43.543,0,0,1,690.3,424.94q26.069,0,34.86,15.155t8.792,46.985v78.812h20.005v4.547h-66.99v-4.547h20.005V480.108q0-34.558-10-43.044-4.852-3.642-12.427-3.639-40.623,0-40.619,77.6v54.865h20.005v4.547H598.453v-4.547h20.008V480.108q0-34.558-10.005-43.044-4.851-3.642-12.427-3.639-40.623,0-40.622,77.6v54.865Z" transform="translate(-506.911 -424.94)" fill="#040505"/>
        </g>
      </g>
    </g>
  </g>
</svg>
