<!DOCTYPE svg PUBLIC "-//W3C//DTD SVG 1.1//EN" "http://www.w3.org/Graphics/SVG/1.1/DTD/svg11.dtd">
<!-- Uploaded to: SVG Repo, www.svgrepo.com, Transformed by: SVG Repo Mixer Tools -->
<svg fill="#533810" height="800px" width="800px" version="1.1" id="Layer_1" xmlns="http://www.w3.org/2000/svg" xmlns:xlink="http://www.w3.org/1999/xlink" viewBox="0 0 511.976 511.976" xml:space="preserve">
<g id="SVGRepo_bgCarrier" stroke-width="0"/>
<g id="SVGRepo_tracerCarrier" stroke-linecap="round" stroke-linejoin="round"/>
<g id="SVGRepo_iconCarrier"> <g> <g> <g> <path d="M196.693,275.785c0.341,4.693,3.733,8.576,8.299,9.6l110.997,24.661c27.52,6.891,46.251,19.435,57.237,38.379 c1.941,3.349,5.483,5.312,9.237,5.312c0.853,0,1.728-0.107,2.581-0.32l40.896-10.219c16.555-4.16,34.091-3.477,50.709,1.984 c3.243,1.067,6.805,0.491,9.579-1.493c2.773-1.984,4.416-5.248,4.416-8.64v-15.061c0-1.237-0.213-2.475-0.64-3.648 c-2.325-6.4-23.68-62.699-57.792-71.232l-47.296-11.84l-3.072-12.224c12.437-13.035,21.099-30.229,24.235-47.979 c7.68-3.157,13.419-10.261,14.507-18.944l3.243-25.984c0.832-6.677-1.237-13.376-5.632-18.453 c-1.899-2.176-4.139-3.947-6.635-5.291l0.96-20.011l3.819-3.819c6.827-7.253,16.043-22.848,1.152-45.611 C410.24,23.86,395.2,10.655,364.8,10.655c-9.28,0-30.4,0-50.517,13.056c-58.155,1.621-65.728,30.699-65.728,56.043 c0,5.333,1.109,16.171,2.005,24.192c-2.752,1.344-5.269,3.243-7.339,5.611c-4.48,5.077-6.592,11.861-5.739,18.603l3.243,25.963 c1.109,8.896,7.125,16.171,16.021,19.179c3.072,17.088,11.285,33.749,23.019,46.528l-3.349,13.44l-47.317,11.819 c-10.603,2.645-20.331,7.403-28.928,14.165c-2.816,2.219-4.331,5.675-4.053,9.237L196.693,275.785z"/> <path d="M510.848,401.332c-14.528-29.035-48.213-44.565-79.723-36.672l-48.235,12.053c0.725,4.885,1.088,9.984,1.088,15.339 v3.371c0,14.699-9.984,27.477-24.256,31.04l-28.715,7.168c-7.552,1.899-15.381,2.859-23.275,2.859 c-6.379,0-12.715-0.619-18.816-1.856l-92.565-18.517c-5.781-1.152-9.536-6.763-8.384-12.544 c1.173-5.803,6.891-9.493,12.544-8.363l92.587,18.517c10.624,2.133,22.165,1.856,32.704-0.768l28.736-7.168 c4.779-1.216,8.107-5.461,8.107-10.368v-3.371c0-3.904-0.256-7.552-0.704-11.051c-0.128-1.003-0.363-1.899-0.533-2.88 c-0.427-2.475-0.896-4.907-1.579-7.189c-0.299-1.003-0.661-1.92-1.003-2.88c-0.747-2.112-1.579-4.181-2.581-6.123 c-0.448-0.853-0.939-1.685-1.429-2.517c-1.109-1.899-2.347-3.712-3.733-5.44c-0.555-0.704-1.131-1.408-1.749-2.069 c-1.536-1.728-3.243-3.349-5.077-4.885c-0.64-0.533-1.259-1.088-1.941-1.621c-2.048-1.557-4.309-3.008-6.677-4.373 c-0.64-0.363-1.237-0.789-1.92-1.131c-2.752-1.472-5.739-2.773-8.917-4.011c-0.469-0.171-0.875-0.384-1.344-0.576 c-3.755-1.387-7.787-2.624-12.117-3.712l-152.896-33.984c-2.859-0.619-5.803-0.064-8.235,1.557s-4.075,4.16-4.587,7.019 c-7.68,43.712-24.341,100.437-33.579,130.368c-1.707,5.547,1.323,11.435,6.805,13.269l122.645,40.896 c16.427,6.208,29.184,10.603,44.245,10.603c0,0,0,0,0.021,0c21.888,0,46.677-9.28,102.592-32.192l117.333-53.333 c2.624-1.195,4.672-3.413,5.653-6.144C512.341,406.943,512.149,403.935,510.848,401.332z"/> <path d="M124.651,270.324c-18.283-17.323-91.392-22.933-113.365-24.235c-2.795-0.021-5.803,0.875-7.936,2.88 C1.195,250.975,0,253.791,0,256.735v192c0,5.888,4.779,10.667,10.667,10.667h64c4.608,0,8.704-2.965,10.155-7.36 c1.557-4.779,38.315-117.589,43.136-173.056C128.235,275.764,126.997,272.585,124.651,270.324z"/> </g> </g> </g> </g>
</svg>