<svg id="Layer_1" data-name="Layer 1" xmlns="http://www.w3.org/2000/svg" viewBox="0 0 100 100"><defs><style>.cls-1,.cls-3{fill:#fff;}.cls-1,.cls-2,.cls-3{stroke:#573a14;stroke-miterlimit:10;}.cls-1,.cls-2{stroke-width:0.25px;}.cls-2{fill:#523714;}.cls-3{stroke-width:0.75px;}</style></defs><rect class="cls-1" x="37.9" y="29.93" width="27.57" height="41.71"/><path class="cls-2" d="M43.86,28.72v2H38.49v40H64.73V30.75H62.48l1.09-2.13c.66,0,1.44,0,2.22,0a1,1,0,0,1,1,1.12V71.22c0,1.36-.26,1.62-1.65,1.62H38.08c-1.47,0-1.72-.25-1.72-1.74V30.34c0-1.46.27-1.73,1.73-1.72H43.6A1.31,1.31,0,0,1,43.86,28.72Z"/><path class="cls-2" d="M59.32,72.72v-2H64.7v-40H38.45V70.69H40.7l-1.09,2.13c-.66,0-1.44,0-2.22,0a1,1,0,0,1-1-1.12V30.22c0-1.36.25-1.61,1.64-1.61H65.1c1.47,0,1.72.25,1.72,1.74q0,20.38,0,40.75c0,1.46-.27,1.73-1.74,1.73l-5.51,0A.86.86,0,0,1,59.32,72.72Z"/><path class="cls-2" d="M51.77,51.4h8.3c.74,0,1.35.14,1.43,1s-.45,1.08-1.43,1.08H43.29c-1,0-1.51-.39-1.44-1.08.09-.86.72-1,1.45-1Z"/><path class="cls-2" d="M51.54,38.12c-2.8,0-5.6,0-8.39,0a1.73,1.73,0,0,1-1.26-.6.86.86,0,0,1,.56-1.35,2.9,2.9,0,0,1,1-.11H60.2a1,1,0,0,1,1.21,1.05c0,.71-.51,1-1.22,1Z"/><path class="cls-2" d="M51.72,60.13H60.2c.63,0,1.14.15,1.27.86s-.37,1.19-1.21,1.19h-17c-.67,0-1.22-.15-1.38-.87s.43-1.2,1.41-1.2h8.48Z"/><path class="cls-2" d="M51.62,44.1h8.56c.87,0,1.38.48,1.25,1.16a1,1,0,0,1-1.09.86H42.94c-.66,0-1.14-.27-1.15-1s.46-1,1.17-1Z"/><path class="cls-3" d="M80.29,12.81c0,1.26.09,2.53,0,3.78a4.28,4.28,0,0,1-4,3.75c-2.66.26-5.32.67-8,1a52.29,52.29,0,0,1-9.42.91,12.84,12.84,0,0,1-6-1.47A5.52,5.52,0,0,1,51,19a2.46,2.46,0,0,0-1.39-.92c-1.58-.34-3.2-.58-4.81-.77a39.17,39.17,0,0,1-4.07-.29,4.45,4.45,0,0,0-3.21.5,53.57,53.57,0,0,1-5.8,2.26,3.66,3.66,0,0,1-2.38,0,1.18,1.18,0,0,0-.7.11,20.91,20.91,0,0,1-5.53,1.51,6.65,6.65,0,0,1-1.48,0,2,2,0,0,1-1.91-1.73,2.36,2.36,0,0,1,1.18-2.28c1.79-1.21,3.59-2.42,5.31-3.72,1.38-1.05,2.68-2.2,4-3.35A25.41,25.41,0,0,1,37.23,6.2a46.09,46.09,0,0,0,6-3,8.55,8.55,0,0,1,8-.66c3.31,1.35,6.59,2.74,9.87,4.14A20,20,0,0,0,71,8.08,46.59,46.59,0,0,0,76.54,7a2.76,2.76,0,0,1,3.64,2.73c0,1,0,2.06,0,3.09Zm-43,3.41a18.38,18.38,0,0,1-1.81-.63A2.59,2.59,0,0,1,34,13.18a2,2,0,0,1,1.42-2,7.28,7.28,0,0,1,2.25-.63Q44.8,10.18,52,9.93a25.93,25.93,0,0,1,3.39.33c.51.06.81.36.7.88s-.51.54-1,.51c-1.81-.14-3.62-.36-5.43-.33-3.3.07-6.6.26-9.9.48a23.9,23.9,0,0,0-3.64.63,1.19,1.19,0,0,0-.72.79,1,1,0,0,0,.76,1.15,49.79,49.79,0,0,0,5.07,1.34,43.55,43.55,0,0,0,4.44.28,15.86,15.86,0,0,1,5,1,3.16,3.16,0,0,1,1.72,1.52,1.78,1.78,0,0,0,.7.76,13.41,13.41,0,0,0,2.64,1.16,22.27,22.27,0,0,0,8.61.11c4-.53,8-1.09,12-1.61a2.91,2.91,0,0,0,2.64-3c0-2-.09-4-.13-6,0-1.29-.73-1.83-2-1.52a30.89,30.89,0,0,1-6.87,1.18A22.79,22.79,0,0,1,60.65,8c-3.3-1.41-6.6-2.82-9.92-4.18a7.65,7.65,0,0,0-7.31.81A25.27,25.27,0,0,1,40.9,6.12c-1.57.75-3.17,1.41-4.75,2.12a20.25,20.25,0,0,0-4.86,3c-3.14,2.65-6.15,5.47-9.78,7.46a.93.93,0,0,0-.35.77.78.78,0,0,0,.57.51,4.63,4.63,0,0,0,1.78,0c1.79-.48,3.54-1.08,5.32-1.61.25-.08.63-.17.8,0a1.65,1.65,0,0,0,1.42.19,15.51,15.51,0,0,0,2-.57C34.42,17.44,35.75,16.85,37.25,16.22Z"/><path class="cls-2" d="M37.25,16.22c-1.5.63-2.83,1.22-4.18,1.74a15.51,15.51,0,0,1-2,.57,1.65,1.65,0,0,1-1.42-.19c-.17-.13-.55,0-.8,0-1.78.53-3.53,1.13-5.32,1.61a4.63,4.63,0,0,1-1.78,0,.78.78,0,0,1-.57-.51.93.93,0,0,1,.35-.77c3.63-2,6.64-4.81,9.78-7.46a20.25,20.25,0,0,1,4.86-3c1.58-.71,3.18-1.37,4.75-2.12a25.27,25.27,0,0,0,2.52-1.45,7.65,7.65,0,0,1,7.31-.81C54.05,5.22,57.35,6.63,60.65,8a22.79,22.79,0,0,0,9.28,1.54A30.89,30.89,0,0,0,76.8,8.4c1.26-.31,2,.23,2,1.52,0,2,.1,4,.13,6a2.91,2.91,0,0,1-2.64,3c-4,.52-8,1.08-12,1.61a22.27,22.27,0,0,1-8.61-.11,13.41,13.41,0,0,1-2.64-1.16,1.78,1.78,0,0,1-.7-.76A3.16,3.16,0,0,0,50.64,17a15.86,15.86,0,0,0-5-1,43.55,43.55,0,0,1-4.44-.28,49.79,49.79,0,0,1-5.07-1.34,1,1,0,0,1-.76-1.15,1.19,1.19,0,0,1,.72-.79,23.9,23.9,0,0,1,3.64-.63c3.3-.22,6.6-.41,9.9-.48,1.81,0,3.62.19,5.43.33.46,0,.87,0,1-.51s-.19-.82-.7-.88A25.93,25.93,0,0,0,52,9.93q-7.17.24-14.35.64a7.28,7.28,0,0,0-2.25.63,2,2,0,0,0-1.42,2,2.59,2.59,0,0,0,1.48,2.41A18.38,18.38,0,0,0,37.25,16.22Z"/><path class="cls-3" d="M19.71,87.19c0-1.26-.09-2.53,0-3.78a4.28,4.28,0,0,1,4-3.75c2.66-.26,5.32-.67,8-1a52.29,52.29,0,0,1,9.42-.91,12.84,12.84,0,0,1,6,1.47A5.52,5.52,0,0,1,49,81a2.46,2.46,0,0,0,1.39.92c1.58.34,3.2.58,4.81.77a39.17,39.17,0,0,1,4.07.29,4.45,4.45,0,0,0,3.21-.5,53.57,53.57,0,0,1,5.8-2.26,3.66,3.66,0,0,1,2.38,0,1.18,1.18,0,0,0,.7-.11,20.91,20.91,0,0,1,5.53-1.51,6.65,6.65,0,0,1,1.48,0,2,2,0,0,1,1.91,1.73,2.36,2.36,0,0,1-1.18,2.28c-1.79,1.21-3.59,2.42-5.31,3.72-1.38,1-2.68,2.2-4,3.35a25.41,25.41,0,0,1-7.06,4.16,46.09,46.09,0,0,0-6,3,8.55,8.55,0,0,1-8,.66c-3.31-1.35-6.59-2.74-9.87-4.14A20,20,0,0,0,29,91.92,46.59,46.59,0,0,0,23.46,93a2.76,2.76,0,0,1-3.64-2.73c0-1,0-2.06,0-3.09Zm43-3.41a18.38,18.38,0,0,1,1.81.63A2.59,2.59,0,0,1,66,86.82a2,2,0,0,1-1.42,2,7.28,7.28,0,0,1-2.25.63q-7.17.39-14.35.64a25.93,25.93,0,0,1-3.39-.33c-.51-.06-.81-.36-.7-.88s.51-.54,1-.51c1.81.14,3.62.36,5.43.33,3.3-.07,6.6-.26,9.9-.48a23.9,23.9,0,0,0,3.64-.63,1.19,1.19,0,0,0,.72-.79,1,1,0,0,0-.76-1.15,49.79,49.79,0,0,0-5.07-1.34A43.55,43.55,0,0,0,54.32,84a15.86,15.86,0,0,1-5-1,3.16,3.16,0,0,1-1.72-1.52,1.78,1.78,0,0,0-.7-.76,13.41,13.41,0,0,0-2.64-1.16,22.27,22.27,0,0,0-8.61-.11c-4,.53-8,1.09-12,1.61a2.91,2.91,0,0,0-2.64,3c0,2,.09,4,.13,6,0,1.29.73,1.83,2,1.52a30.89,30.89,0,0,1,6.87-1.18A22.79,22.79,0,0,1,39.35,92c3.3,1.41,6.6,2.82,9.92,4.18a7.65,7.65,0,0,0,7.31-.81,25.27,25.27,0,0,1,2.52-1.45c1.57-.75,3.17-1.41,4.75-2.12a20.25,20.25,0,0,0,4.86-3c3.14-2.65,6.15-5.47,9.78-7.46a.93.93,0,0,0,.35-.77.78.78,0,0,0-.57-.51,4.63,4.63,0,0,0-1.78,0c-1.79.48-3.54,1.08-5.32,1.61-.25.08-.63.17-.8,0A1.65,1.65,0,0,0,69,81.47a15.51,15.51,0,0,0-2,.57C65.58,82.56,64.25,83.15,62.75,83.78Z"/><path class="cls-2" d="M62.75,83.78c1.5-.63,2.83-1.22,4.18-1.74a15.51,15.51,0,0,1,2-.57,1.65,1.65,0,0,1,1.42.19c.17.13.55,0,.8,0C73,81.09,74.7,80.49,76.49,80a4.63,4.63,0,0,1,1.78,0,.78.78,0,0,1,.57.51.93.93,0,0,1-.35.77c-3.63,2-6.64,4.81-9.78,7.46a20.25,20.25,0,0,1-4.86,3c-1.58.71-3.18,1.37-4.75,2.12a25.27,25.27,0,0,0-2.52,1.45,7.65,7.65,0,0,1-7.31.81C46,94.78,42.65,93.37,39.35,92a22.79,22.79,0,0,0-9.28-1.54A30.89,30.89,0,0,0,23.2,91.6c-1.26.31-2-.23-2-1.52,0-2-.1-4-.13-6a2.91,2.91,0,0,1,2.64-3c4-.52,8-1.08,12-1.61a22.27,22.27,0,0,1,8.61.11,13.41,13.41,0,0,1,2.64,1.16,1.78,1.78,0,0,1,.7.76A3.16,3.16,0,0,0,49.36,83a15.86,15.86,0,0,0,5,1,43.55,43.55,0,0,1,4.44.28,49.79,49.79,0,0,1,5.07,1.34,1,1,0,0,1,.76,1.15,1.19,1.19,0,0,1-.72.79,23.9,23.9,0,0,1-3.64.63c-3.3.22-6.6.41-9.9.48-1.81,0-3.62-.19-5.43-.33-.46,0-.87,0-1,.51s.19.82.7.88a25.93,25.93,0,0,0,3.39.33q7.17-.24,14.35-.64a7.28,7.28,0,0,0,2.25-.63,2,2,0,0,0,1.42-2,2.59,2.59,0,0,0-1.48-2.41A18.38,18.38,0,0,0,62.75,83.78Z"/></svg>