<svg id="Layer_1" data-name="Layer 1" xmlns="http://www.w3.org/2000/svg" viewBox="0 0 100 100"><defs><style>.cls-1,.cls-3{fill:#ffffff;}.cls-2,.cls-4{fill:#fff;}.cls-2{stroke:#ffffff;stroke-width:2px;}.cls-2,.cls-3{stroke-miterlimit:10;}.cls-3{stroke:#fff;}</style></defs><polygon class="cls-1" points="34.66 11.55 42.32 10.66 67.97 10.67 71.17 11.55 74.62 14.74 90.45 30.57 91.85 32.62 91.85 71.94 91.85 81.38 89.55 87.38 84.57 90.57 36.45 90.45 30.45 86.23 28.79 80.78 29.04 17.55 31.72 14.49 34.66 11.55"/><path class="cls-2" d="M97,34.39a10.78,10.78,0,0,0-3.07-7.95Q85,17.42,76,8.51a10.3,10.3,0,0,0-7.45-3c-10,0-20-.06-30,0A15.3,15.3,0,0,0,23.6,20.17a1.43,1.43,0,0,0-.05.51c0,.43.05.88.05,1.33q0,29.41,0,58.83h0V81a15.27,15.27,0,0,0,14.8,15C53,96,67.62,96,82.22,96a12,12,0,0,0,2.52-.31A15.28,15.28,0,0,0,97,80.55c0-7.68,0-15.35,0-23S97,42.1,97,34.39ZM91.8,79.82a14.92,14.92,0,0,1-.24,2.84c-1.07,5-5.1,8.09-10.41,8.09q-20.83,0-41.67,0c-6.07,0-10.19-3.85-10.69-9.91v-.06c0-9,0-17.9,0-26.85q0-16.23,0-32.47c0-.3,0-.59,0-.88A10.12,10.12,0,0,1,39.24,10.7c9.58-.06,19.15,0,28.73,0a6.73,6.73,0,0,1,5,2.11q8.28,8.36,16.64,16.64a7.16,7.16,0,0,1,2.21,5.37C91.79,49.8,91.81,64.81,91.8,79.82Z"/><path class="cls-3" d="M40.41,43.8c1.06.45,2,.86,3,1.25a2.59,2.59,0,0,1,1.86,2.43c.05,2.19.05,4.39,0,6.58a2.45,2.45,0,0,1-1.7,2.21c-1,.42-2,.86-3.11,1.35.4,1,.75,2,1.18,2.9a2.69,2.69,0,0,1-.41,3.21c-1.44,1.53-2.93,3-4.45,4.45a2.7,2.7,0,0,1-3.13.41c-1-.41-1.94-.78-3-1.19-.44,1-.88,2-1.28,3a2.53,2.53,0,0,1-2.27,1.79q-3.34.13-6.69,0a2.55,2.55,0,0,1-2.28-1.77c-.41-1-.85-2-1.31-3l-2.95,1.22a2.66,2.66,0,0,1-3-.41Q8.49,66,6.26,63.63a2.57,2.57,0,0,1-.38-3c.41-.93.75-1.88,1.16-2.93-1-.4-1.82-.83-2.73-1.16a2.79,2.79,0,0,1-2.07-2.72c0-2.13,0-4.26,0-6.38A2.47,2.47,0,0,1,4,45.17c1-.41,2-.86,3.06-1.33-.41-1-.76-2-1.18-3a2.57,2.57,0,0,1,.4-3q2.27-2.38,4.67-4.65a2.47,2.47,0,0,1,2.77-.39l3.11,1.24c.41-1,.83-1.87,1.19-2.81A2.8,2.8,0,0,1,20.6,29.2q3.15-.12,6.29,0a2.64,2.64,0,0,1,2.44,1.86c.39,1,.82,1.93,1.28,3,1-.4,2-.78,2.91-1.2a2.76,2.76,0,0,1,3.22.42c1.54,1.47,3,3,4.51,4.53a2.53,2.53,0,0,1,.42,2.85C41.25,41.65,40.86,42.66,40.41,43.8ZM34.33,63.23c1,0,2.07-1.83,1.65-2.65-2.06-4.08-.91-6.81,3.38-8.19.78-.25,1-.69,1-1.48.07-1.14-.27-1.79-1.4-2a7.52,7.52,0,0,1-1.41-.59,4.46,4.46,0,0,1-2.32-5.64c.26-.73.59-1.44.84-2.18a1,1,0,0,0,0-.73c-.83-1.38-1.57-1.61-3-1a6,6,0,0,1-3.73.69c-2.18-.5-3.16-2.11-3.77-4a1.59,1.59,0,0,0-1.84-1.25c-.93,0-1.55.2-1.78,1.19a6.87,6.87,0,0,1-.58,1.41,4.57,4.57,0,0,1-5.79,2.43c-.64-.23-1.26-.51-1.9-.73a1.15,1.15,0,0,0-.76-.1,2.26,2.26,0,0,0-1.23,3c.17.4.36.8.5,1.22a4.61,4.61,0,0,1-2.42,5.81c-.61.29-1.26.51-1.85.83a1.21,1.21,0,0,0-.62.68c-.39,1.57-.06,2.18,1.4,2.8.43.18.88.35,1.3.57a4.6,4.6,0,0,1,2.28,5.45,7.14,7.14,0,0,1-.66,1.7c-.54.86-.15,1.39.42,2s1.33,1.06,2.26.45a6,6,0,0,1,1.22-.5,4.55,4.55,0,0,1,5.93,2.46c.28.61.52,1.25.82,1.86a1,1,0,0,0,.5.55,2.13,2.13,0,0,0,2.92-1.35c.19-.47.38-.95.6-1.4a3.88,3.88,0,0,1,3-2.34,10.29,10.29,0,0,1,3.06.32A12,12,0,0,1,34.33,63.23Z"/><path class="cls-4" d="M66.6,48.11c3.56,0,7.12,0,10.68,0a2.62,2.62,0,1,1,.17,5.23c-1.35,0-2.71,0-4.07,0-5.8,0-11.6,0-17.4,0-2.07,0-3.36-1.59-2.81-3.38A2.72,2.72,0,0,1,56,48.11Z"/><path class="cls-4" d="M66.53,37.74c-3.63,0-7.26,0-10.89,0a2.51,2.51,0,0,1-2.57-2.27,2.55,2.55,0,0,1,1.68-2.72,3,3,0,0,1,1-.17c7.26,0,14.52,0,21.78,0a2.57,2.57,0,0,1,1,5,4.12,4.12,0,0,1-1.4.19Z"/><path class="cls-4" d="M66.74,63.73c3.63,0,7.26,0,10.88,0A2.46,2.46,0,0,1,80.12,66a2.52,2.52,0,0,1-1.81,2.82,5.82,5.82,0,0,1-1.51.12H55.63A2.62,2.62,0,0,1,53,66.31a2.55,2.55,0,0,1,2.6-2.57c3.7,0,7.4,0,11.1,0Z"/><path class="cls-4" d="M34.33,63.23a12,12,0,0,0-2-.77,10.29,10.29,0,0,0-3.06-.32,3.88,3.88,0,0,0-3,2.34c-.22.45-.41.93-.6,1.4a2.13,2.13,0,0,1-2.92,1.35,1,1,0,0,1-.5-.55c-.3-.61-.54-1.25-.82-1.86a4.55,4.55,0,0,0-5.93-2.46,6,6,0,0,0-1.22.5c-.93.61-1.58.28-2.26-.45s-1-1.15-.42-2a7.14,7.14,0,0,0,.66-1.7A4.6,4.6,0,0,0,10,53.25c-.42-.22-.87-.39-1.3-.57-1.46-.62-1.79-1.23-1.4-2.8a1.21,1.21,0,0,1,.62-.68c.59-.32,1.24-.54,1.85-.83a4.61,4.61,0,0,0,2.42-5.81c-.14-.42-.33-.82-.5-1.22a2.26,2.26,0,0,1,1.23-3,1.15,1.15,0,0,1,.76.1c.64.22,1.26.5,1.9.73a4.57,4.57,0,0,0,5.79-2.43,6.87,6.87,0,0,0,.58-1.41c.23-1,.85-1.17,1.78-1.19a1.59,1.59,0,0,1,1.84,1.25c.61,1.9,1.59,3.51,3.77,4A6,6,0,0,0,33,38.72c1.47-.61,2.21-.38,3,1a1,1,0,0,1,0,.73c-.25.74-.58,1.45-.84,2.18a4.46,4.46,0,0,0,2.32,5.64,7.52,7.52,0,0,0,1.41.59c1.13.26,1.47.91,1.4,2-.05.79-.24,1.23-1,1.48-4.29,1.38-5.44,4.11-3.38,8.19C36.4,61.4,35.3,63.19,34.33,63.23ZM14.6,50.7a9.11,9.11,0,1,0,9.14-9.1A9.13,9.13,0,0,0,14.6,50.7Z"/><path class="cls-1" d="M14.6,50.7a9.11,9.11,0,1,1,9.07,9.17A9.14,9.14,0,0,1,14.6,50.7Zm9.11-3.86a3.9,3.9,0,1,0,3.89,3.87A3.86,3.86,0,0,0,23.71,46.84Z"/><path class="cls-4" d="M23.71,46.84a3.9,3.9,0,1,1-.07,7.79,3.9,3.9,0,0,1,.07-7.79Z"/></svg>