<svg width="12" height="12" viewBox="0 0 12 12" fill="none" xmlns="http://www.w3.org/2000/svg">
<g clip-path="url(#clip0_200_238)">
<path fill-rule="evenodd" clip-rule="evenodd" d="M2.61121 2.61426H5.0805V5.06738H2.61121V2.61426ZM3.49107 1.4492e-06H2.25789C1.96326 -0.000334543 1.6715 0.0577567 1.39956 0.1709C1.12551 0.284166 0.876437 0.45007 0.666506 0.659181C0.456994 0.868699 0.290733 1.11721 0.17715 1.39063C0.0611047 1.66341 0.000875826 1.95659 2.79475e-06 2.25293V3.77344H1.00123V2.25293C1.00225 2.08858 1.0355 1.92602 1.0991 1.77442C1.16151 1.62208 1.25367 1.48366 1.3702 1.36719C1.60576 1.13255 1.92505 1.00083 2.25789 1.00098H3.49107V1.4492e-06ZM9.74211 1.4492e-06H8.93663V0.999025H9.74211C9.90681 1.00015 10.0697 1.03332 10.2217 1.09668C10.3738 1.15996 10.5124 1.25179 10.6298 1.36719L10.6641 1.40235C10.7652 1.51179 10.8463 1.63804 10.9038 1.77539C10.9679 1.92652 11.0011 2.08885 11.0017 2.25293V3.77344H12.0029V2.25293C12.0032 1.67278 11.7779 1.11513 11.3746 0.697267L11.3384 0.661134C11.1284 0.452082 10.8794 0.286186 10.6053 0.172853C10.332 0.05853 10.0385 -0.00023382 9.74211 1.4492e-06ZM12 9.74707V8.0586H10.9988V9.74707C10.9982 9.91115 10.9649 10.0735 10.9009 10.2246C10.8368 10.3767 10.7437 10.515 10.6269 10.6318C10.5107 10.7486 10.3726 10.8413 10.2204 10.9046C10.0682 10.9679 9.90503 11.0007 9.74016 11.001H8.93663V12H9.74211C10.0385 11.9998 10.3318 11.9412 10.6054 11.8276C10.879 11.7139 11.1274 11.5475 11.3364 11.3379C11.5456 11.1281 11.7118 10.8796 11.8258 10.6064C11.9389 10.334 11.9971 10.042 11.9971 9.74707H12ZM2.25789 12H3.49107V11.001H2.25789C2.09285 11.0008 1.92947 10.9681 1.77713 10.9048C1.62479 10.8414 1.4865 10.7487 1.3702 10.6318L1.34475 10.6084C1.23503 10.493 1.14833 10.3578 1.08931 10.21C1.03024 10.0628 1.00001 9.90563 1.00025 9.74707V8.0586H2.79475e-06V9.74707C-0.000453877 10.034 0.05506 10.3182 0.163448 10.584C0.271473 10.8522 0.430689 11.097 0.632251 11.3047L0.662592 11.3389C0.872924 11.5479 1.12231 11.7138 1.39663 11.8272C1.66957 11.9404 1.9623 11.9985 2.25789 11.998V12ZM8.76829 8.76758H9.39565V9.38574H8.76829V8.76758ZM7.5586 8.76758H8.1889V9.35352H6.92929V8.15137H7.53609V7.54102H8.1566V6.32422H8.78885V6.92188H9.38782V7.54004H8.78885V8.15821H7.5586V8.7666V8.76758ZM5.69024 7.53125H6.29998V6.91309H5.71275V6.29492H6.29998V5.67676H5.70003V6.29492H5.06974V5.67676H5.68926V3.84082H6.31857V5.67578H6.92831V6.29395H7.52826V5.67578H8.15758V6.29395H7.5586V6.91211H6.92929V8.12891H6.31955V9.35645H5.69024V7.53125ZM8.75851 5.67578H9.38782V6.29395H8.75851V5.67578ZM3.84145 5.67578H4.47076V6.29395H3.84145V5.67578ZM2.61121 5.67578H3.24052V6.29395H2.61121V5.67578ZM5.69024 2.61426H6.31955V3.23242H5.69024V2.61426ZM2.60142 6.92188H5.06974V9.375H2.60142V6.92188ZM3.20137 7.51953H4.4737V8.78028H3.20137V7.51953ZM6.92048 2.61524H9.38782V5.06738H6.9195V2.61426L6.92048 2.61524ZM7.52043 3.21094H8.79276V4.47168H7.52043V3.20996V3.21094ZM3.2141 3.21094H4.48642V4.47168H3.2141V3.20996V3.21094Z" fill="#573a14"/>
</g>
<defs>
<clipPath id="clip0_200_238">
<rect width="12" height="12" fill="white"/>
</clipPath>
</defs>
</svg>
