<svg id="Layer_1" data-name="Layer 1" xmlns="http://www.w3.org/2000/svg" viewBox="0 0 100 100"><defs><style>.cls-1{fill:#ffffff;}.cls-2{fill:#fff;}</style></defs><path class="cls-1" d="M32.84,87.54V86l.8-.26v-14H29c0,.35-.05.68-.05,1v23c0,.5-.16,1,.56,1.34.25.11.19.91.29,1.5H22.87V97l.83-.26V71.6c-1.28,0-2.5.05-3.71,0-1.41-.08-1.67-.36-1.67-1.74q0-24.89,0-49.75c0-.2,0-.4.05-.65H81.43V69.06c0,2.38-.08,2.45-2.44,2.57-.71,0-1.42,0-2.28,0V72.8q0,11.51,0,23c0,.47-.13.94.49,1.3.26.15.15.92.22,1.5h-6.7c-.38-1.28-.29-1.51.74-1.82v-25h-5v1c0,4,0,8,0,12,0,.48-.15,1,.56,1.22.23.09.19.91.3,1.5H60.47V86c.65,0,.83-.41.83-1.11,0-4.36,0-8.71,0-13.16H39c0,.34,0,.67,0,1q0,6,0,12.05c0,.48-.15,1,.54,1.25.25.1.2.9.31,1.5Z"/><path class="cls-1" d="M81,17.9H18.34L20,14.75c1.36-2.66,2.71-5.32,4.08-8A4.65,4.65,0,0,1,28.45,4L71,4a4.54,4.54,0,0,1,4.26,2.51c1.93,3.66,3.78,7.37,5.66,11.06C81,17.64,81,17.72,81,17.9ZM32.85,12H66.76c-.08-1.56-.94-2.31-2.58-2.31H36.51c-.51,0-1,0-1.53,0A2.18,2.18,0,0,0,32.85,12Z"/><path class="cls-2" d="M32.85,12A2.18,2.18,0,0,1,35,9.73c.51,0,1,0,1.53,0H64.18c1.64,0,2.5.75,2.58,2.31Z"/><path class="cls-2" d="M35,37H32.83V40.3h-2.6a2.1,2.1,0,0,0-1.42.43A1.57,1.57,0,0,0,28.3,42a2.42,2.42,0,0,0,.16.89,2.2,2.2,0,0,0,.44.74,2.09,2.09,0,0,0,.67.51,2.12,2.12,0,0,0,.87.18l.38,0a.91.91,0,0,0,.29-.1,3.08,3.08,0,0,1-.06-.61,2.88,2.88,0,0,1,.1-.78,2.42,2.42,0,0,1,.31-.67A1.64,1.64,0,0,1,32,41.7a1.35,1.35,0,0,1,.7-.17,1.27,1.27,0,0,1,.52.1,1.1,1.1,0,0,1,.42.29,1.29,1.29,0,0,1,.29.47,1.94,1.94,0,0,1,.11.66,2.3,2.3,0,0,1-.09.64,3.57,3.57,0,0,1-.23.57,3.39,3.39,0,0,1-.34.5,4.19,4.19,0,0,1-.39.45,5.6,5.6,0,0,0,1.21,1.37L33,47.82a7,7,0,0,1-.88-1,6.07,6.07,0,0,1-.6-1,4.09,4.09,0,0,1-.56.13l-.56,0a3.49,3.49,0,0,1-1-.14,3.87,3.87,0,0,1-.93-.41,4.36,4.36,0,0,1-.81-.62,4.14,4.14,0,0,1-1-1.78A3.79,3.79,0,0,1,26.42,42a3.85,3.85,0,0,1,.25-1.41,3,3,0,0,1,.71-1,3,3,0,0,1,1.08-.62,4.36,4.36,0,0,1,1.39-.21H31V37H25.3v-1.6H35Z"/><path class="cls-2" d="M39.46,37H37.92v9H36.07V37H34.5v-1.6h5Z"/><path class="cls-2" d="M49.52,37H48v9H46V41H42.92c0,.32,0,.6,0,.82a2,2,0,0,1-.08.55.56.56,0,0,1-.19.3.61.61,0,0,1-.38.1,1.56,1.56,0,0,1-.59-.12,2.2,2.2,0,0,1-.53-.32,3.48,3.48,0,0,1-.47-.47,4.83,4.83,0,0,1-.36-.56,2.8,2.8,0,0,1-.23-.58,2,2,0,0,1-.09-.56,1,1,0,0,1,.08-.42.54.54,0,0,1,.23-.22,1,1,0,0,1,.36-.09l.49,0H46V37H39v-1.6H49.52Z"/><path class="cls-2" d="M58.78,37H57.23v9H55.38V43.26h0a3.25,3.25,0,0,1-1.74.53l-.44,0a2.6,2.6,0,0,1-.62-.14,3.39,3.39,0,0,1-.68-.35,2.35,2.35,0,0,1-.63-.63,3.72,3.72,0,0,1-.46-1,5.2,5.2,0,0,1-.18-1.46V37H49v-1.6h9.76Zm-3.4,0H52.45v3.27a3,3,0,0,0,.11.88,1.37,1.37,0,0,0,.27.54.87.87,0,0,0,.41.28,1.63,1.63,0,0,0,.5.07,1.71,1.71,0,0,0,.95-.26,2.76,2.76,0,0,0,.69-.77Z"/><path class="cls-2" d="M55.58,35.61l-.21-.38c-.24-.46-.46-.86-.65-1.18a7.52,7.52,0,0,0-.51-.82,3.32,3.32,0,0,0-.42-.5,1.49,1.49,0,0,0-.38-.27,1.44,1.44,0,0,0-.42-.11l-.48,0H51.06V30.74h1.32a9,9,0,0,1,1,0,2,2,0,0,1,.72.18,2.33,2.33,0,0,1,.61.46,5.71,5.71,0,0,1,.62.85c.23.36.48.81.77,1.36s.64,1.2,1,2Z"/><path class="cls-2" d="M66.44,45.29a5.07,5.07,0,0,1-1.35.6,5.34,5.34,0,0,1-1.45.2,4.5,4.5,0,0,1-1.77-.33,4,4,0,0,1-1.33-.89,3.72,3.72,0,0,1-.84-1.32,4.47,4.47,0,0,1-.29-1.61,3.57,3.57,0,0,1,.25-1.4,2.64,2.64,0,0,1,.71-1,2.87,2.87,0,0,1,1.08-.61,4.36,4.36,0,0,1,1.39-.21H63.9V37H58.28v-1.6H68V37H65.75V40.3H63.22a2.9,2.9,0,0,0-.81.1,1.53,1.53,0,0,0-.61.31,1.36,1.36,0,0,0-.38.55,2.22,2.22,0,0,0-.13.81,2.59,2.59,0,0,0,.16,1,2.15,2.15,0,0,0,.45.73,2,2,0,0,0,.68.45,2.3,2.3,0,0,0,.88.16,3.33,3.33,0,0,0,.75-.09A5.94,5.94,0,0,0,65,44a6.36,6.36,0,0,0,.75-.34q.38-.19.69-.39Z"/><path class="cls-2" d="M72.45,37H70.9v9H69.05V37H67.48v-1.6h1.6a5.32,5.32,0,0,0-.34-1.12,4.23,4.23,0,0,0-.45-.77,2.1,2.1,0,0,0-.5-.49,2.24,2.24,0,0,0-.5-.27,1.64,1.64,0,0,0-.45-.11l-.34,0a1.47,1.47,0,0,0-1,.3.94.94,0,0,0-.33.74,1.79,1.79,0,0,0,.27.89,4.11,4.11,0,0,0,.79.94h-2a4.17,4.17,0,0,1-.67-1.1,3,3,0,0,1-.22-1.1,2.06,2.06,0,0,1,.19-.89,2.16,2.16,0,0,1,.57-.72,3.08,3.08,0,0,1,1-.48A4.64,4.64,0,0,1,66.37,31a4.58,4.58,0,0,1,1.86.34,3.86,3.86,0,0,1,1.3.93,4.64,4.64,0,0,1,.83,1.4,8.23,8.23,0,0,1,.43,1.71h1.66Z"/></svg>