<svg id="Layer_1" data-name="Layer 1" xmlns="http://www.w3.org/2000/svg" viewBox="0 0 100 100"><defs><style>.cls-1{fill:none;stroke:#523714;stroke-miterlimit:10;}.cls-2{fill:#523714;}.cls-3{fill:#fff;}</style></defs><path class="cls-1" d="M33.77,28.42a15.72,15.72,0,0,1,1.43-4,16.45,16.45,0,0,1,11.15-8.68,15.44,15.44,0,0,1,4.55-.39.74.74,0,0,0,.51-.19l7.43-5.3a26.38,26.38,0,0,1,3.63-2.29A18.63,18.63,0,0,1,69,5.73a20.14,20.14,0,0,1,5.2.2c1.89.32,3.79.59,5.68.89L85,7.64l5.23.81,2.7.43a1.65,1.65,0,0,1,1.4,1.67V28.39a1.51,1.51,0,0,1-1,1.53,20.37,20.37,0,0,0-3.69,2L86.5,33.82c0,.11.1.25.16.38q2.15,4.62,4.28,9.25l3.21,6.92a2,2,0,0,1,.2.89q0,20.67,0,41.33a1.74,1.74,0,0,1-1.19,1.67,4.34,4.34,0,0,1-.63.09c-.12,0-.24,0-.36,0H7.89a5.62,5.62,0,0,1-.71,0,1.71,1.71,0,0,1-1.53-1.68c0-.11,0-.22,0-.32q0-20.38,0-40.76a3,3,0,0,1,.29-1.3q4.8-10.33,9.57-20.66a1.88,1.88,0,0,1,1.87-1.18h16.4ZM9.08,90.91H90.94v-38l-.24,0-81.56,0,0,0,0,0Zm9.14-59.07L10,49.5H90c-2.26-4.88-4.5-9.72-6.75-14.56l-.62.08-2.93.33c-1,.1-1.93.23-2.89.29a25.4,25.4,0,0,1-4.61-.22l-4.54-.59c-.4,0-.8-.06-1.22-.09-.06.28-.11.53-.16.78s-.11.5-.18.79c.22,0,.4,0,.58,0a1.68,1.68,0,0,1,1.6,1.28c0,.14.07.3.1.45.35,1.66.71,3.33,1,5a1.63,1.63,0,0,1-1,1.88,2.45,2.45,0,0,1-.76.11H50.72c-6.12,0-12.25,0-18.37,0a1.72,1.72,0,0,1-1.73-2c.35-1.8.74-3.59,1.13-5.38a1.67,1.67,0,0,1,1.64-1.33c.17,0,.35,0,.52,0-.13-.77-.29-1.5-.39-2.24s-.12-1.47-.18-2.23ZM91,12l-.61-.1L84.71,11,79,10.14l-5.65-.88a15.56,15.56,0,0,0-4.52-.1,14.68,14.68,0,0,0-6.64,2.52c-2.13,1.47-4.21,3-6.32,4.48l-.19.19a16.85,16.85,0,0,1,4.93,2.83l.3-.18c1-.58,1.92-1.18,2.89-1.75a17.42,17.42,0,0,1,1.91-1,12.21,12.21,0,0,1,4.12-1,8,8,0,0,1,2,0,4.78,4.78,0,0,1,.88,9.2c-.67.24-1.34.45-2,.65-1.73.49-3.51.74-5.28,1.06a36.28,36.28,0,0,0-4.23.93,10.17,10.17,0,0,0-3.16,1.49,1.57,1.57,0,0,0-.61,1.81A1.54,1.54,0,0,0,59,31.49c1.4,0,2.79-.06,4.19-.12a33.22,33.22,0,0,1,6.38.26c1.64.23,3.28.41,4.93.58a13.77,13.77,0,0,0,3-.05c1.38-.16,2.75-.34,4.13-.46a8.3,8.3,0,0,0,3.28-1c.79-.43,1.56-.9,2.32-1.38a36.59,36.59,0,0,1,3.37-2,.52.52,0,0,0,.35-.56q0-7.2,0-14.39ZM60.41,23.81l-.3-.38a13,13,0,0,0-11.78-4.56,12.79,12.79,0,0,0-7.23,3.34,13.2,13.2,0,0,0-4.05,12.33,13.06,13.06,0,0,0,3.72,6.89.74.74,0,0,0,.56.26h9l.3,0-.24-.29L46.63,37c-.47-.54-1-1.06-1.44-1.58a.72.72,0,0,1-.22-.54c0-.39,0-.78,0-1.17s.14-.52.55-.53.95,0,1.42,0a10.23,10.23,0,0,0,1.54-.23,2.58,2.58,0,0,0,1.38-.81,1.84,1.84,0,0,0,.47-.92h-5c-.23,0-.35-.13-.36-.37s0-.78,0-1.17.15-.37.42-.38h4.76a1.79,1.79,0,0,0-.81-.84A4,4,0,0,0,47.5,28c-.66,0-1.33,0-2,0-.41,0-.53-.13-.54-.54v-1.1c0-.6.07-.66.68-.66H55c.31,0,.42.13.44.43,0,.12,0,.24,0,.45A10.85,10.85,0,0,1,60.41,23.81Zm-12,11.48c.36.4.72.78,1.06,1.17,1.42,1.67,2.83,3.35,4.24,5a.42.42,0,0,0,.34.21h4.76a.46.46,0,0,0,.27-.11,13.37,13.37,0,0,0,3.19-4.73,11.8,11.8,0,0,0,.61-2h-.4l-3.34.1a4.84,4.84,0,0,1-2.63-.61,2,2,0,0,1-.47-.36,8.28,8.28,0,0,1-1.71-2.51c0-.08-.11-.19-.17-.19a5.56,5.56,0,0,0-1,0c-.16.45-.26.87-.44,1.25a4.49,4.49,0,0,1-2.7,2.37C49.55,35,49,35.14,48.45,35.29ZM64,23h.13c1.43-.26,2.87-.51,4.29-.78a18.2,18.2,0,0,0,3.07-.87,1.46,1.46,0,0,0,.8-.66,1.37,1.37,0,0,0-1.29-2c-.48,0-1,0-1.45.09a8.55,8.55,0,0,0-3.51,1.14l-2.73,1.67a2.39,2.39,0,0,0-.22.16ZM52.46,27.6l.72,1.66H54l.58-1.66Zm2.13,0L52.65,28l.53,1.22H54Z"/><path class="cls-2" d="M9.08,90.91V53l0,0,0,0,81.56,0,.24,0v38Z"/><path class="cls-2" d="M18.22,31.84H33.34c.06.76.09,1.5.18,2.23s.26,1.47.39,2.24c-.17,0-.35,0-.52,0a1.67,1.67,0,0,0-1.64,1.33c-.39,1.79-.78,3.58-1.13,5.38a1.72,1.72,0,0,0,1.73,2c6.12,0,12.25,0,18.37,0H67.6a2.45,2.45,0,0,0,.76-.11,1.63,1.63,0,0,0,1-1.88c-.33-1.67-.69-3.34-1-5,0-.15-.06-.31-.1-.45a1.68,1.68,0,0,0-1.6-1.28c-.18,0-.36,0-.58,0,.07-.29.12-.54.18-.79s.1-.5.16-.78c.42,0,.82,0,1.22.09l4.54.59a25.4,25.4,0,0,0,4.61.22c1-.06,1.93-.19,2.89-.29L82.62,35l.62-.08c2.25,4.84,4.49,9.68,6.75,14.56H10Z"/><path class="cls-2" d="M91,12v.42q0,7.2,0,14.39a.52.52,0,0,1-.35.56,36.59,36.59,0,0,0-3.37,2c-.76.48-1.53.95-2.32,1.38a8.3,8.3,0,0,1-3.28,1c-1.38.12-2.75.3-4.13.46a13.77,13.77,0,0,1-3,.05c-1.65-.17-3.29-.35-4.93-.58a33.22,33.22,0,0,0-6.38-.26c-1.4.06-2.79.09-4.19.12a1.54,1.54,0,0,1-1.56-1.06,1.57,1.57,0,0,1,.61-1.81,10.17,10.17,0,0,1,3.16-1.49,36.28,36.28,0,0,1,4.23-.93c1.77-.32,3.55-.57,5.28-1.06.69-.2,1.36-.41,2-.65a4.78,4.78,0,0,0-.88-9.2,8,8,0,0,0-2,0,12.21,12.21,0,0,0-4.12,1,17.42,17.42,0,0,0-1.91,1c-1,.57-1.93,1.17-2.89,1.75l-.3.18a16.85,16.85,0,0,0-4.93-2.83l.19-.19c2.11-1.49,4.19-3,6.32-4.48a14.68,14.68,0,0,1,6.64-2.52,15.56,15.56,0,0,1,4.52.1l5.65.88,5.68.9,5.64.88Z"/><path class="cls-2" d="M60.41,23.81a10.85,10.85,0,0,0-4.92,2.72c0-.21,0-.33,0-.45,0-.3-.13-.42-.44-.43H45.65c-.61,0-.68.06-.68.66v1.1c0,.41.13.53.54.54.66,0,1.33,0,2,0a4,4,0,0,1,1.85.45,1.79,1.79,0,0,1,.81.84H45.4c-.27,0-.41.12-.42.38s0,.78,0,1.17.13.34.36.37h5a1.84,1.84,0,0,1-.47.92,2.58,2.58,0,0,1-1.38.81,10.23,10.23,0,0,1-1.54.23c-.47,0-.95,0-1.42,0s-.54.13-.55.53,0,.78,0,1.17a.72.72,0,0,0,.22.54c.48.52,1,1,1.44,1.58l3.75,4.36.24.29-.3,0h-9a.74.74,0,0,1-.56-.26,13.06,13.06,0,0,1-3.72-6.89A13.2,13.2,0,0,1,41.1,22.21a12.79,12.79,0,0,1,7.23-3.34,13,13,0,0,1,11.78,4.56Z"/><path class="cls-2" d="M48.45,35.29c.56-.15,1.1-.25,1.61-.44a4.49,4.49,0,0,0,2.7-2.37c.18-.38.28-.8.44-1.25a5.56,5.56,0,0,1,1,0c.06,0,.14.11.17.19a8.28,8.28,0,0,0,1.71,2.51,2,2,0,0,0,.47.36,4.84,4.84,0,0,0,2.63.61l3.34-.1h.4a11.8,11.8,0,0,1-.61,2,13.37,13.37,0,0,1-3.19,4.73.46.46,0,0,1-.27.11H54.09a.42.42,0,0,1-.34-.21c-1.41-1.67-2.82-3.35-4.24-5C49.17,36.07,48.81,35.69,48.45,35.29Z"/><path class="cls-3" d="M64,23l-.91-1.28a2.39,2.39,0,0,1,.22-.16l2.73-1.67a8.55,8.55,0,0,1,3.51-1.14c.48-.05,1-.08,1.45-.09a1.37,1.37,0,0,1,1.29,2,1.46,1.46,0,0,1-.8.66,18.2,18.2,0,0,1-3.07.87c-1.42.27-2.86.52-4.29.78Z"/><rect class="cls-2" x="52.71" y="27.55" width="1.63" height="1.38"/></svg>