<svg xmlns="http://www.w3.org/2000/svg" width="221.557" height="222.232" viewBox="0 0 221.557 222.232">
  <g id="Group_5844" data-name="Group 5844" transform="translate(0)">
    <path id="Path_1169" data-name="Path 1169" d="M1507.892,1561.527a23.738,23.738,0,0,0-3.939,1.594,32.4,32.4,0,0,0-6.128,4.413,12.526,12.526,0,0,1-16.873,1.357c-1.594-1.212-3.39-2.158-5.1-3.221-.27-.168-.71-.237-.812-.467-.5-1.118-1.008-.779-2.075-.648-1.493.182-3.13-.821-4.768-1.336-2.911,1.187-6.13,2.541-9.38,3.816a12.125,12.125,0,0,1-14.834-5.045c-4.358-7.089-10.632-10.246-18.948-9.429-6.9.678-12.4-3.5-13.578-10.177a19.14,19.14,0,0,0-14.174-14.883,15.161,15.161,0,0,1-5.677-2.819c-3.513-2.875-4.668-6.84-3.915-11.275a18.825,18.825,0,0,0-8.041-18.693c-6.217-4.06-7.69-10.694-4.2-17.213,3.7-6.913,3.073-13.734-1.519-20.076-2.566-3.544-3.459-7.369-1.982-11.439a13.151,13.151,0,0,1,3.48-5.3,19.937,19.937,0,0,0,6.986-14.955c.011-.255.054-.509.085-.792.678.076,1.3.148,1.927.209.049.005.107-.069.264-.18-.285-1.264-.4-2.683-2.911-1.48-.253-3.147-.954-6.13-.617-8.99.537-4.56,3.463-7.583,7.738-9.294,7.671-3.069,11.8-8.784,12.318-17a11.942,11.942,0,0,1,11.491-11.413,20.929,20.929,0,0,0,10.608-2.926,6.677,6.677,0,0,1,2.008-.518c.522-.8,1.028-1.57,1.531-2.342a44.893,44.893,0,0,0,3.763-5.886,12.293,12.293,0,0,1,15.22-6.956c8.086,2.709,14.969.953,20.849-5.19a12.281,12.281,0,0,1,16.858-.623c.246.215.711.487.68.662-.383,2.152,1.694,2.147,2.636,3.135a15.776,15.776,0,0,1,1.509,2.186c.344.514.683,1.031,1.024,1.547l.807-.271c-.155-1.233-.31-2.467-.419-3.342,2.822,0,5.867.2,8.866-.077a15.353,15.353,0,0,0,5.148-1.724,12.31,12.31,0,0,1,16.506,4.7c4.193,6.791,10.334,9.937,18.317,9.14,7.287-.728,12.749,3.32,14.037,10.531a18.334,18.334,0,0,0,6.379,10.562l-.918,1.211,2.328,1.421.246-.343-.773-1c2.763.978,5.792,2.029,8.805,3.122a12.28,12.28,0,0,1,7.73,13.482c-1.274,8.1,1.6,14.489,8.337,19.064a12.359,12.359,0,0,1,4,16.679c-3.8,6.96-3.339,13.824,1.253,20.263,4.228,5.928,3.565,12.821-1.958,17.468-3.3,2.776-4.719,6.519-6.118,10.462-1.161,3.27.011,6.048.625,8.989a14.179,14.179,0,0,1-.691,8.808c-1.573,3.9-4.356,5.461-7.689,6.993-6.863,3.153-10.78,8.552-11.32,16.1-.509,7.1-5.268,11.776-12.358,12.031-8.051.289-13.869,4.159-17.112,11.573-2.525,5.77-8.652,9-14.6,7.059a29.611,29.611,0,0,0-10.978-1.227c.134-.416.478-.912.356-1.23a3,3,0,0,0-1.137-1.464c-.212-.126-1.245.511-1.225.744a2.641,2.641,0,0,0,.839,1.469C1506.958,1561.357,1507.479,1561.387,1507.892,1561.527ZM1417.569,1384.9a8.64,8.64,0,0,1-1.04,1.767c-3.448,3.642-7.227,7.008-10.374,10.889-18.644,22.994-26.127,49.257-21.445,78.5,4.4,27.495,18.3,49.469,41.191,65.379,20.178,14.025,42.674,19.657,67.175,17a99.81,99.81,0,0,0,23.355-5.536,6.87,6.87,0,0,1,1.945-.132,19.309,19.309,0,0,1,2.2-1.51c3.313-1.682,6.705-3.214,9.967-4.988,1.3-.709,2.1-.83,3.373.17,2.754,2.159,5.262,1.011,5.633-2.46a13.5,13.5,0,0,0-.393-3.069,33.267,33.267,0,0,1,4.889-3.646c1.8-.915,2.772-2.53,4.17-3.763a93.421,93.421,0,0,0,16.591-19.461,98.21,98.21,0,0,0,10.959-22.826c.089-.272.411-.726.515-.7,2.367.649,1.908-1.343,2.522-2.446l-1.639.227c1.077-6.481,2.462-12.739,3.1-19.072a95.9,95.9,0,0,0-5.736-43.093,7.859,7.859,0,0,1-.14-1.633,6.437,6.437,0,0,0-.416-2.309c-.778-1.347-1.991-2.461-2.667-3.846a96.3,96.3,0,0,0-13.383-20.866c-3.376-3.922-6.953-7.672-10.446-11.506l1.653-2.074a2.445,2.445,0,0,0-1.488.423c-1.263.867-2.173.622-3.4-.371-17.338-13.968-37.158-21.548-59.42-22.122-24.13-.621-45.7,6.792-64.675,21.748A15.493,15.493,0,0,1,1417.569,1384.9Zm149.472,11.3a3.594,3.594,0,0,0-1.338,1.023,2.261,2.261,0,0,0,.16,1.818,3.94,3.94,0,0,0,1.466,1.591,3.76,3.76,0,0,0,2.279.559,2.172,2.172,0,0,0,1.26-1.471C1571.126,1398.591,1568.781,1396.217,1567.041,1396.206Zm1.6,120.465c-.139-.905-.216-1.409-.294-1.912-1.109.2-2.227.371-3.323.632a.867.867,0,0,0-.515.673,1.305,1.305,0,0,0,.542.931,1.606,1.606,0,0,0,1.231-.039c.219-.111.232-.632.363-1.054Zm-13.966,22.507c.343-1.731.44-2.792-.966-2.97-.409-.052-.919.7-1.383,1.084Zm35.111-101.494c-1.319-1.451-2.172-.668-3.081.271C1587.821,1438.829,1588.828,1439.278,1589.782,1437.683Zm-12.076,54.883c-.554.646-1.225,1.143-1.142,1.39.161.485.741.83,1.149,1.234.358-.365.97-.71,1-1.1S1578.2,1493.26,1577.706,1492.566Z" transform="translate(-1371.234 -1349.306)" fill="#ff8744"/>
    <path id="Path_1170" data-name="Path 1170" d="M1596.972,1518.928a84.2,84.2,0,0,1-13.342,25.106c-15.506,20.311-35.977,32.431-61.211,36.267a89.932,89.932,0,0,1-51.962-7.421c-1.733-.8-3.564-1.5-5.241-2.47-1.808-1.042-3.659-2.017-5.42-3.132q-31.508-19.96-41.216-55.983c-.1-.374-.148-.762-.177-.916l2.508-1.849-2.316-2.468-.821,1.678a87.741,87.741,0,0,1-1.99-25.875,91.984,91.984,0,0,1,22.915-55.422c14.732-16.846,33.3-27,55.355-30.7a92.99,92.99,0,0,1,42.223,2.784c1.88.555,3.451,1.093,3.013,3.526a3.747,3.747,0,0,0,.248,1.142c-3.019-.879-5.886-1.81-8.8-2.546a90.508,90.508,0,0,0-28.367-2.472,12.185,12.185,0,0,1-3.013-.523,13.736,13.736,0,0,1-3.044,1.218,91.1,91.1,0,0,0-45.639,20.516c-2.605,2.165-4.82,4.649-7.167,7.018-2.47,2.494-4.564,5.363-6.82,8.07-.326.392-.636.8-.8,1a9.87,9.87,0,0,0-2.072-1.091c-.219-.058-.644.667-.974,1.032l1.892,1.7c-.172.283-.509.874-.881,1.442a89.84,89.84,0,0,0-12.314,28.4c-.357,1.485-.618,2.948-2.613,3.422-1.479.352-1.678,3.518-.189,4.715,1.122.9,1,1.81.886,2.9-2.35,23.128,3.077,44.284,16.874,62.973,15.52,21.023,36.517,33.031,62.478,36.308,1.708.215,3.369.817,5.077,1.01.893.1,1.844-.464,2.765-.451,42.97.616,79.71-27.731,89.693-69.24.395-1.641.738-3.294,1.113-4.975l3.6,1c-1.427,4.809-2.843,9.581-4.264,14.363-.762-.429-1.52-.868-2.277-1.306l-.535.543c.376.562.653,1.426,1.158,1.591C1595.72,1519.948,1596.406,1519.254,1596.972,1518.928Z" transform="translate(-1398.187 -1376.782)" fill="#ff8744"/>
    <path id="Path_1171" data-name="Path 1171" d="M1738.223,1582.479l-2.369-9.146,4.262-1.338c-2.068-8.049-4.119-16.033-6.214-24.188l-4.488,1.038c-.781-3.006-1.559-6-2.381-9.157,7.566-1.938,14.983-3.917,22.446-5.7a35.852,35.852,0,0,1,7.918-1.058c6.787-.067,12.166,2.77,15.554,8.741,4.108,7.24,5.605,14.865,2.33,22.872-2.7,6.608-7.992,10.349-14.606,12.235-7.078,2.018-14.246,3.717-21.376,5.549C1739,1582.4,1738.682,1582.415,1738.223,1582.479Zm12.321-29.549c-1.479-.013-2.9.171-2.74,2.08.1,1.237,1.537,1.632,3.527,1.029l3.205,12.187c3.649-.576,5.94-2.513,6.517-5.8a21.04,21.04,0,0,0-3.924-16.268c-2.1-2.944-5.51-3.489-8.764-1.829Zm18.639,12.775c1.8-1.332,1.7-3.371,0-6.236Zm-25.325-16.658c2.121-1.634,2.023-2.769-.3-3.987Z" transform="translate(-1587.593 -1460.963)" fill="#ff8744"/>
    <path id="Path_1172" data-name="Path 1172" d="M1602.742,1608.037l2.4,9.313-21.752,5.642-2.458-9.3,2.923-.912c-.419-3.654-1.383-4.351-4.754-3.493-1.453.37-2.889.817-4.356,1.115-1.186.241-1.86.8-1.385,2.005.461,1.166.494,2.926,2.563,2.5.442-.091.882-.2,1.536-.346l2.414,9.319-17.844,4.612c-.81-3.15-1.585-6.16-2.41-9.369,3.962-.916,4.54-3.81,4.493-7.214-.022-1.577.556-3.155.625-4.743.036-.832-.634-1.682-.653-2.531-.08-3.522-.029-7.046-.04-10.57,0-.575-.07-1.15-.124-1.957l-5.591,1.358-2.4-9.2c4.618-1.185,9.134-2.372,13.668-3.484.965-.237,1.748.006,1.352,1.349-.05.169.344.469.63.833.218-.307.49-.515.469-.687-.312-2.525,1.585-2.587,3.235-2.986,1.9-.459,3.767-1.068,5.683-1.43a2.075,2.075,0,0,1,1.773.7c2.611,4.65,5.067,9.387,7.66,14.049,2.75,4.944,5.624,9.82,8.395,14.753C1599.794,1609.149,1601.218,1608.327,1602.742,1608.037Zm-23.779-5.663-6.274-12.223v13.843Zm-17.8-17.83-.636.218,1.113,4.066C1563.1,1586.488,1562.906,1585.665,1561.167,1584.544Z" transform="translate(-1483.545 -1488.281)" fill="#ff8744"/>
    <path id="Path_1173" data-name="Path 1173" d="M1470.582,1635.362l1.355,5.188,4-.887,1.946,9.454-22.373,5.738-2.392-9.281,4.083-1.244-6.215-24.173-4,.89-2.392-9.071c1.479-.418,2.881-.836,4.3-1.208,1.765-.465,3.534-.916,5.311-1.329s3.729-1.818,5.137.721c.11.2.587.192,1.217.375-.154-.966-.275-1.725-.437-2.746,4.074-.9,8.163-2.011,12.324-2.676,9.291-1.485,14.506,2.426,16.27,11.666,1.6,8.356-2.784,13.251-9.833,15.942a1.812,1.812,0,0,1-1.321-.247c-1.97-1.129-2.978-.711-4.055,1.166C1473.065,1634.4,1471.8,1634.678,1470.582,1635.362Zm1.064-10.041c-.046.035.195-.156.441-.339,2.41-1.8,2.959-4.055,1.67-6.876q-1.542-3.375-5.928-2.33c-.807.192-1.611.4-2.412.614-.4.107-1.112.221-1.125.378a3.225,3.225,0,0,0,.251,1.947c.235.342,1.079.268,2.149.477.108,1.574.224,3.5.391,5.419a1.053,1.053,0,0,0,.458.776c.914.368,1.868.636,2.73.916a23.239,23.239,0,0,0,1.3,2.45,8.324,8.324,0,0,0,1.454-.624Z" transform="translate(-1415.841 -1504.675)" fill="#ff8744"/>
    <path id="Path_1174" data-name="Path 1174" d="M1683.581,1562.078l-3.591,1.054c-.434,1.913,1.835,3.671-.189,5.425,2.582.4,1.459,2.757,2.339,4.128-1.485-.765-2.96-1.126-4.035.278a2.521,2.521,0,0,0-.072,2.4c1.595,1.92,2.944-.323,4.665-.495l3.268,12.491,3.738-.795,2.427,9.318-22.745,5.845-2.389-9.305,3.841-1.155-6.211-24.172-3.826.81-2.351-9.137,22.777-5.87C1682.026,1556.01,1682.795,1559.009,1683.581,1562.078Z" transform="translate(-1545.887 -1473.106)" fill="#ff8744"/>
    <path id="Path_1175" data-name="Path 1175" d="M1740.623,1416.768l3.18-2.347c5.16,1.854,7.782,3.458,7.673,4.355a12.062,12.062,0,0,1,2.589.813,92.338,92.338,0,0,1,36.461,39.315c.52,1.052,1.039,2.107,1.5,3.187.738,1.734,1.424,3.49,2.029,4.983l-1.221,1.712.548.408,1.118-.871a93.624,93.624,0,0,1,4.833,43.43l-3.4.4c.207-2.941.41-5.825.613-8.71,2.73-1.554.144-3.182.054-4.769-.158-2.8-.274-5.608-.576-8.394a89.688,89.688,0,0,0-15.129-41.055c-.56-.829-.81-1.862-1.29-2.753a4.223,4.223,0,0,0-1.229-1.647,7.988,7.988,0,0,1-3.982-4.934,1.675,1.675,0,0,0-.564-.767c-3.56-3.022-7.094-6.078-10.708-9.034A89.129,89.129,0,0,0,1740.623,1416.768Z" transform="translate(-1595.856 -1388.902)" fill="#ff8744"/>
    <path id="Path_1176" data-name="Path 1176" d="M1577.324,1440.46l3.043-1.159,5.763,15.14c-3.11,1.7-3.124,1.709-5.3-.6a57.1,57.1,0,0,0-5.537-5.424c1.1,2.958,2.208,5.916,3.366,9.018l-3.085,1.185-5.713-15.028c2.875-1.946,3.2-1.924,5.334.428,1.711,1.883,3.4,3.784,5.1,5.678l.556-.337C1579.694,1446.434,1578.532,1443.5,1577.324,1440.46Z" transform="translate(-1492.02 -1404.031)" fill="#ff8744"/>
    <path id="Path_1177" data-name="Path 1177" d="M1673.606,1799.8c-2.382,1.189-3.586,1.921-2.071,4.549-2.233-1.109-2.5-3.1-3.437-4.529a49.971,49.971,0,0,0-3.135-4.823c.369,3.146.738,6.291,1.133,9.667l-3.241.358q-1.019-8.083-2.014-15.974c.241-.152.339-.262.452-.278,3.283-.459,3.273-.452,4.859,2.411a38.357,38.357,0,0,0,3.811,5.9c-.343-2.994-.685-5.989-1.055-9.227l3.138-.443Z" transform="translate(-1547.342 -1615.713)" fill="#ff8744"/>
    <path id="Path_1178" data-name="Path 1178" d="M1779.115,1746.047c-.136,4.191-3.893,6.8-7.359,5.373a14.885,14.885,0,0,1-7.482-6.849,5.123,5.123,0,0,1,.96-6.288,5.007,5.007,0,0,1,6.069-1.228,14.886,14.886,0,0,1,7.46,7.384A5.532,5.532,0,0,1,1779.115,1746.047Zm-5.606,2.324c1.842-.033,2.9-1.755,1.844-3.024a33.44,33.44,0,0,0-5.173-4.919,2.586,2.586,0,0,0-2.522.3,2.542,2.542,0,0,0-.022,2.5,54.44,54.44,0,0,0,4.849,4.732A2.663,2.663,0,0,0,1773.508,1748.371Z" transform="translate(-1609.825 -1584.77)" fill="#ff8744"/>
    <path id="Path_1179" data-name="Path 1179" d="M1707.558,1446.194a67.62,67.62,0,0,1-2.96,7.144c-1.084,2.068-3.63,2.61-6.046,1.862-2.174-.673-3.907-2.509-3.618-4.748a35.586,35.586,0,0,1,2.161-8.6,5.123,5.123,0,0,1,6.292-3C1706.211,1439.611,1707.6,1441.529,1707.558,1446.194Zm-3-2.016c-.69-.776-1.207-1.867-1.915-2.009a2.649,2.649,0,0,0-2.283,1.144,32,32,0,0,0-2.038,6.461,2.736,2.736,0,0,0,1.376,2.185,2.39,2.39,0,0,0,2.219-.834C1702.927,1448.978,1703.635,1446.685,1704.555,1444.178Z" transform="translate(-1568.054 -1403.633)" fill="#ff8744"/>
    <path id="Path_1180" data-name="Path 1180" d="M1584.71,1795.081l-3.219-1.176,2.4-6.543-3.171-1.184-2.5,6.47-3.215-1.2,5.761-15.306,3.179,1.206-2.137,5.878,3.155,1.2,2.315-5.847,3.134,1.182Z" transform="translate(-1495.144 -1608.865)" fill="#ff8744"/>
    <path id="Path_1181" data-name="Path 1181" d="M1738.514,1452.544l2.981,1.79c-1.652,2.853-3.22,5.549-4.774,8.253a5.759,5.759,0,0,0-1.028,2.079,2.685,2.685,0,0,0,.761,2.085c.358.274,1.485-.058,1.981-.468a7.569,7.569,0,0,0,1.4-2.1c1.547-2.64,3.076-5.29,4.706-8.1l3.039,1.742c-2.1,3.593-4.075,7.163-6.242,10.613-1.494,2.378-4.07,2.737-6.707,1.209s-3.568-3.884-2.224-6.436C1734.282,1459.65,1736.4,1456.209,1738.514,1452.544Z" transform="translate(-1590.488 -1412.084)" fill="#ff8744"/>
    <path id="Path_1182" data-name="Path 1182" d="M1515.081,1498.66l-2.663,2.212-5.01-4.5-2.232,2.506,5.042,4.676c-.573.274-1.1.76-1.473.662-1.447-.381-3.021.244-4.376-1.192-2.626-2.785-5.567-5.274-8.486-7.986l2.287-2.53,4.691,4.246,2.263-2.489-4.535-4.316,2.246-2.505,1.906,1.624H1502.8c.525.839.76,1.672,1.246,1.861s1.2-.3,2.044-.555Z" transform="translate(-1447.033 -1433.308)" fill="#ff8744"/>
    <path id="Path_1183" data-name="Path 1183" d="M1788.841,1700.265l8.7,4.936c-.262.682-.867,1.706-.682,1.877a9.608,9.608,0,0,0,2.476,1.231v-2.034a4.042,4.042,0,0,1,2.244,4.171,6.075,6.075,0,0,1-2.36,4.186c-2.582,2.169-4.586.961-6.787-.291l-8.751-4.978,1.709-3.021c3.05,1.734,5.981,3.406,8.919,5.064.509.287,1.064.733,1.578.708.688-.034,1.664-.279,1.947-.764a2.325,2.325,0,0,0-.432-1.992,6.193,6.193,0,0,0-1.921-1.3c-2.705-1.558-5.421-3.1-8.353-4.766Z" transform="translate(-1622.038 -1562.721)" fill="#ff8744"/>
    <path id="Path_1184" data-name="Path 1184" d="M1705.467,1784.321c.079-1.606.188-3.21.23-4.816.077-2.92.06-2.92,3.294-3.684-.125,2.182-.186,4.288-.389,6.381a3.455,3.455,0,0,0,1.252,3.26c1.818,1.548,3.557,3.191,5.44,4.894-3.354,2.029-3.35,2.026-5.336-.142-1.232-1.344-2.477-2.676-3.719-4.01-.038-.041-.121-.04-.495-.151l2.641,7.27-3.194,1.206c-1-2.627-2.02-5.133-2.863-7.7-.146-.443.464-1.133.724-1.709-3.053-.732-2.276-3.809-3.808-5.823l3.352-1.265,2.515,6.369Z" transform="translate(-1570.693 -1608.666)" fill="#ff8744"/>
    <path id="Path_1185" data-name="Path 1185" d="M1616.936,1433.123l3.4-.417.961,6.665.368.081c.412-1.489.794-2.987,1.241-4.466.947-3.131.059-2.907,4.184-2.727-.407.334-.807.677-1.223,1-.753.585-2.023,1.072-2.14,1.758-.132.78.764,1.734,1.427,3.03-.8,1.291.07,2.82,1.133,4.4,1.123,1.665,2.088,3.436,3.13,5.173-2.711,1.125-3.294.952-4.622-1.353a29.745,29.745,0,0,0-3.18-4.81c.145,1.155.3,2.308.432,3.463s.26,2.3.388,3.444c-3.265.464-3.349.437-3.789-2.617C1618.052,1441.623,1617.525,1437.492,1616.936,1433.123Z" transform="translate(-1520.643 -1399.695)" fill="#ff8744"/>
    <path id="Path_1186" data-name="Path 1186" d="M1623.439,1788.913l3.488.468c.676,5.485,1.35,10.961,2.049,16.634l-3.251-.312c.439-2.762-1.417-2.852-3.417-3.091-1.857-.222-1.554,1.375-2.365,2.353l-3.126-.43Zm3.979,7.889-2.4-1.183-.516-2.5-2.535,6.967,3.194.322v-2.624Z" transform="translate(-1520.571 -1616.628)" fill="#ff8744"/>
    <path id="Path_1187" data-name="Path 1187" d="M1540.677,1463.939l12.5,11.124-3.1,2.182-.826-3.008a23.621,23.621,0,0,0-3.689,3.077c-.465.564-.079,1.83-.079,3l-2.4,1.732-2.764-8.24,1.61.135c.065-.516.13-1.03.24-1.89l-2.13.9c-.447-1.347-.915-2.761-1.384-4.175C1537.62,1465.665,1537.62,1465.665,1540.677,1463.939Zm3.25,11.262,2.6-1.766-.552.285-4.7-5.393Z" transform="translate(-1472.663 -1419.013)" fill="#ff8744"/>
    <path id="Path_1188" data-name="Path 1188" d="M1730.4,1762.832c2.846-3.1,5.026-.6,7.635.951-.285-1.248-.479-2.106-.677-2.964-.622-2.694-.622-2.694,2.324-4.205,1.052,5.515,1.778,11.13,6.223,15.332l-2.817,1.9c-1.8-2.2-3.334-4.649-5.423-6.471S1732.951,1764.387,1730.4,1762.832Z" transform="translate(-1589.638 -1596.987)" fill="#ff8744"/>
    <path id="Path_1189" data-name="Path 1189" d="M1670.372,1431.773c-2.563,4.976-5.558,9.74-4.68,15.866l-3.854-.437c2.008-5.907-.533-11.017-2.725-16.551l3.26.281-.379.375,2.58,4.687C1666.232,1434.147,1666.015,1430.018,1670.372,1431.773Z" transform="translate(-1546.291 -1398.771)" fill="#ff8744"/>
    <path id="Path_1190" data-name="Path 1190" d="M1558.348,1766.609l-2.716-1.644-7.27,11.067-2.878-1.856,7.19-11.086-2.625-1.863,1.623-2.573,8.335,5.418Z" transform="translate(-1477.193 -1598.227)" fill="#ff8744"/>
    <path id="Path_1191" data-name="Path 1191" d="M1490.006,1531.9l-1.787,2.914-11.338-6.694-1.779,2.7-2.6-1.544,5.05-8.532,2.623,1.553-1.548,2.783Z" transform="translate(-1432.813 -1453.558)" fill="#ff8744"/>
    <path id="Path_1192" data-name="Path 1192" d="M1770.7,1497.627l-1.663,1.916-3.532-2.992,1.533-1.969Z" transform="translate(-1610.987 -1437.648)" fill="#ff8744"/>
    <path id="Path_1193" data-name="Path 1193" d="M1530.286,1769.045l-3.368-3.158,1.706-1.865,3.583,3.285Z" transform="translate(-1465.904 -1601.491)" fill="#ff8744"/>
    <path id="Path_1194" data-name="Path 1194" d="M1822.6,1693.123l1.567-4.459,2.308.928-1.5,4.335Z" transform="translate(-1645.706 -1555.667)" fill="#ff8744"/>
    <path id="Path_1195" data-name="Path 1195" d="M1487.211,1569.325l-2.328-.971,1.714-4.25,2.3.8Z" transform="translate(-1440.343 -1479.922)" fill="#ff8744"/>
  </g>
</svg>
