<svg id="Layer_1" data-name="Layer 1" xmlns="http://www.w3.org/2000/svg" viewBox="0 0 100 100"><defs><style>.cls-1,.cls-3{fill:#573a14;}.cls-2{fill:#fff;}.cls-3{stroke:#fff;stroke-miterlimit:10;}</style></defs><path class="cls-1" d="M96.49,87.92Q90.15,58.64,83.82,29.36c-.14-.64-.29-1.28-.39-1.93a5.33,5.33,0,0,0-5.51-4.83c-1.67,0-3.33,0-5,0,0-.37,0-.63,0-.89,0-2.33,0-4.67,0-7A3.52,3.52,0,0,0,69,10.85c-1.22,0-2.45,0-3.67,0a3.46,3.46,0,0,0-3.74,3.75c0,2.34,0,4.67,0,7v.94H49.79v-1c0-2.39,0-4.78,0-7.17a3.57,3.57,0,0,0-3.45-3.48c-1.29,0-2.57,0-3.86,0-2.58,0-3.9,1.34-3.92,3.94,0,2.27,0,4.54,0,6.82,0,.31,0,.62,0,.92H26.79v-1c0-2.39,0-4.78,0-7.18a3.37,3.37,0,0,0-3.3-3.44c-1.5-.06-3-.06-4.5,0a3.55,3.55,0,0,0-3.39,3,12.47,12.47,0,0,0-.07,1.62c0,2.32,0,4.65,0,7.07h-4.9A4.93,4.93,0,0,0,6.68,24a4,4,0,0,0-.35.46,8.42,8.42,0,0,0-1.44,4.88V90.92c1.53,3.62,2.68,4.37,6.67,4.37H53q18.87,0,37.74,0A8.43,8.43,0,0,0,93,95C95.87,94,97.21,91.24,96.49,87.92ZM64.31,22q0-3.59,0-7.17c0-1,.15-1.17,1.2-1.18s2.33,0,3.5,0c.94,0,1.24.54,1,1.81A34.18,34.18,0,0,0,70,28.72c.24,1.42-.34,1.78-1.67,1.54a8.07,8.07,0,0,0-2.64,0c-1.07.15-1.42-.22-1.41-1C64.32,26.81,64.31,24.39,64.31,22ZM42.45,13.62a19,19,0,0,0,3.37,0c.9-.08,1.24.25,1.24,1.06,0,2.45,0,4.9,0,7.35v7.07c0,1.09-.15,1.24-1.26,1.24s-2.32,0-3.49,0c-.95,0-1.19-.57-.79-2.13a24,24,0,0,0,.06-12.24C41.11,14.25,41.25,13.51,42.45,13.62Zm-24.14,1a1,1,0,0,1,1.08-1.05c1.17,0,2.34,0,3.51,0a1.12,1.12,0,0,1,1.17,1.14c0,2.43,0,4.85,0,7.28v7.07c0,1.08-.16,1.25-1.26,1.25s-2.27,0-3.4,0c-.75,0-1.1-.28-1.09-1.05C18.32,24.38,18.31,19.52,18.31,14.65ZM91.16,92.56c-1,0-2,0-3,0h-5c.11-1.46.3-2.78.31-4.11,0-6,0-12.08,0-18.12,0-.24,0-.48,0-.71a1.36,1.36,0,0,0-1.32-1.33,1.39,1.39,0,0,0-1.39,1.36c0,.27,0,.54,0,.81V89.14c0,2.6-.84,3.45-3.41,3.45H48.2a2.63,2.63,0,0,0-1.24.13H41.44l0,0a5.2,5.2,0,0,0-1.25-.11H10.77a3.19,3.19,0,0,1-3.18-3.19V40.93H80.77V62.68a4.54,4.54,0,0,0,0,1,1.31,1.31,0,0,0,1.37,1.07,1.25,1.25,0,0,0,1.26-1.07,4.54,4.54,0,0,0,0-1V41.43a2.26,2.26,0,0,1,.29.78l6.39,29.4q1.89,8.7,3.76,17.41A2.84,2.84,0,0,1,91.16,92.56Z"/><path class="cls-1" d="M47.91,95.28h0Z"/><path class="cls-1" d="M83.5,59.89H80.77V78.1h2.7c0-.16,0-.32,0-.48C83.52,71.71,83.5,65.8,83.5,59.89Z"/><path class="cls-2" d="M64.32,22c0-2.39,0-4.78,0-7.17,0-1,.15-1.18,1.21-1.19s2.33,0,3.49,0c.72,0,1.06.3,1.06,1v14.7c0,.76-.37,1.06-1.11,1-1.22,0-2.45,0-3.67,0-.74,0-1-.37-1-1.06C64.33,26.81,64.32,24.39,64.32,22Z"/><path class="cls-2" d="M24.06,22c0,2.35,0,4.71,0,7.07,0,1.08-.16,1.24-1.25,1.25s-2.27,0-3.41,0c-.75,0-1.09-.29-1.09-1.05q0-7.3,0-14.6c0-.76.34-1.07,1.1-1.05,1.16,0,2.33,0,3.49,0,.84,0,1.18.31,1.17,1.16C24.05,17.16,24.06,19.58,24.06,22Z"/><path class="cls-2" d="M47.05,22c0,2.35,0,4.71,0,7.07,0,1.08-.15,1.24-1.25,1.24s-2.33,0-3.49,0c-.67,0-1-.28-1-1,0-4.92,0-9.85,0-14.78,0-.63.27-.93.91-.93,1.26,0,2.51,0,3.76,0,.77,0,1.07.32,1.06,1.08C47,17.11,47.05,19.56,47.05,22Z"/><path class="cls-3" d="M7.59,40.93H80.79a0,0,0,0,1,0,0V90.28a2.26,2.26,0,0,1-2.26,2.26H9.85a2.26,2.26,0,0,1-2.26-2.26V40.93a0,0,0,0,1,0,0Z"/><path class="cls-3" d="M39.61,62.18a10.8,10.8,0,0,1,1.73,1.23,24,24,0,0,1,1.77,2.25c1,1.32,1.89,1.35,3,.09Q51,60,55.88,54.33a4.28,4.28,0,0,1,.84-.81,2.27,2.27,0,0,1,3.17,3.14c-.78,1.09-1.68,2.1-2.55,3.12-3.48,4.06-7,8.08-10.41,12.2-1.79,2.18-3.49,2-5-.11-1.34-1.94-2.87-3.74-4.29-5.62a2.3,2.3,0,0,1-.28-2.68,2.1,2.1,0,0,1,2.05-1.17Z"/><path class="cls-2" d="M44.26,85.08a18.54,18.54,0,0,1-1.93-37A17.83,17.83,0,0,1,54,50.82a1.38,1.38,0,0,0,1.66.11,5.09,5.09,0,0,1,6.45,7.55,2.12,2.12,0,0,0-.33,2.32A18.48,18.48,0,0,1,50.23,84a23.17,23.17,0,0,1-3.21.8C46.12,85,45.19,85,44.26,85.08Zm8.65-31.64A15.75,15.75,0,0,0,32.19,76.78,15.78,15.78,0,0,0,53,79.61c6.82-4.65,8-12.9,6.16-17.58-1.25,1.45-2.47,2.88-3.69,4.31-2.3,2.67-4.57,5.37-6.89,8s-5.8,2.85-8,.24c-2-2.31-3.76-4.79-5.56-7.24a4.53,4.53,0,0,1-.63-3.87,5.14,5.14,0,0,1,8.81-2.27c.52.56,1,1.17,1.5,1.8Zm-13.3,8.74-.15.22a2.1,2.1,0,0,0-2.05,1.17,2.3,2.3,0,0,0,.28,2.68c1.42,1.88,3,3.68,4.29,5.62,1.46,2.13,3.16,2.29,5,.11,3.4-4.12,6.93-8.14,10.41-12.2.87-1,1.77-2,2.55-3.12a2.27,2.27,0,0,0-3.17-3.14,4.28,4.28,0,0,0-.84.81Q51,60,46.08,65.75C45,67,44.14,67,43.11,65.66a24,24,0,0,0-1.77-2.25A10.8,10.8,0,0,0,39.61,62.18Z"/></svg>