<svg id="Layer_1" data-name="Layer 1" xmlns="http://www.w3.org/2000/svg" viewBox="0 0 100 100"><defs><style>.cls-1{fill:none;stroke:#573a14;stroke-miterlimit:10;}.cls-2{fill:#573a14;}.cls-3{fill:#fff;}</style></defs><path class="cls-1" d="M89.94,54.91c4.85.52,7.47,3.44,7.47,8.21V67.7c0,4.78-2.62,7.7-7.47,8.22,0,.38,0,.77,0,1.17-.06,3.17.12,6.36-.23,9.5A10.2,10.2,0,0,1,80,95.28H15.55a10.4,10.4,0,0,1-10.45-8,11.81,11.81,0,0,1-.3-2.58q0-19.23,0-38.46a10.49,10.49,0,0,1,10.61-10.7A2.33,2.33,0,0,0,16.79,35q13.83-12.06,27.6-24.16c2.45-2.15,5.17-2.86,8.19-1.5s4.46,3.91,4.49,7.24c0,1.49,0,3,0,4.63,1-.48,1.88-.93,2.79-1.36A7.44,7.44,0,0,1,70.2,24.43a8.45,8.45,0,0,1,.31,2.3c0,2.89,0,5.78,0,8.8H79.2A10.46,10.46,0,0,1,89.94,46.27C90,49.13,89.94,52,89.94,54.91ZM86.88,55a2.72,2.72,0,0,0,.07-.39c0-2.86,0-5.73,0-8.59a7.41,7.41,0,0,0-7.5-7.45q-32.05,0-64.12,0A7.4,7.4,0,0,0,7.79,46q0,19.37,0,38.74a7.41,7.41,0,0,0,7.52,7.52q32.05,0,64.12,0A7.43,7.43,0,0,0,87,84.76c0-2.73,0-5.47,0-8.21,0-.21,0-.41-.06-.68H85.82c-4.6,0-9.21,0-13.81,0-3.47,0-5.74-1.61-6.74-4.93a19,19,0,0,1,0-11.22c1-3.16,3.27-4.72,6.59-4.76,1.65,0,3.29,0,4.94,0ZM20.73,35.53c2.64,0,5,0,7.35,0a1.78,1.78,0,0,0,.79-.25Q41.17,29.15,53.47,23a1,1,0,0,0,.63-1.08c0-1.84,0-3.67,0-5.51A4.52,4.52,0,0,0,51.35,12a4.25,4.25,0,0,0-4.89.94q-10.38,9.12-20.77,18.2ZM80.79,72.88c3,0,6,0,9,0a4.48,4.48,0,0,0,4.67-4.62c0-1.89,0-3.79,0-5.69A4.46,4.46,0,0,0,89.75,58q-8.81,0-17.62,0c-2.36,0-3.61.92-4.15,3.21a18.49,18.49,0,0,0,0,8.5c.54,2.3,1.78,3.21,4.14,3.22C75,72.89,77.9,72.88,80.79,72.88ZM35.18,35.47H67.47a1.13,1.13,0,0,0,0-.24q0-3.82,0-7.65a10.44,10.44,0,0,0-.06-1.77,4.43,4.43,0,0,0-6.35-3.25c-3.36,1.6-6.68,3.3-10,5Z"/><path class="cls-2" d="M86.88,55h-10c-1.65,0-3.29,0-4.94,0-3.32,0-5.6,1.6-6.59,4.76a19,19,0,0,0,0,11.22c1,3.32,3.27,4.91,6.74,4.93,4.6,0,9.21,0,13.81,0h1.07c0,.27.06.47.06.68,0,2.74,0,5.48,0,8.21a7.43,7.43,0,0,1-7.52,7.54q-32.06,0-64.12,0a7.41,7.41,0,0,1-7.52-7.52q0-19.36,0-38.74a7.4,7.4,0,0,1,7.53-7.51q32.07,0,64.12,0A7.41,7.41,0,0,1,86.94,46c0,2.86,0,5.73,0,8.59A2.72,2.72,0,0,1,86.88,55Z"/><path class="cls-2" d="M20.73,35.53l5-4.36Q36.07,22.08,46.46,13A4.25,4.25,0,0,1,51.35,12a4.52,4.52,0,0,1,2.74,4.4c0,1.84,0,3.67,0,5.51A1,1,0,0,1,53.47,23q-12.31,6.11-24.6,12.25a1.78,1.78,0,0,1-.79.25C25.73,35.54,23.37,35.53,20.73,35.53Z"/><path class="cls-2" d="M80.79,72.88c-2.89,0-5.78,0-8.67,0-2.36,0-3.6-.92-4.14-3.22a18.49,18.49,0,0,1,0-8.5c.54-2.29,1.79-3.21,4.15-3.21q8.81,0,17.62,0a4.46,4.46,0,0,1,4.67,4.62c0,1.9,0,3.8,0,5.69a4.48,4.48,0,0,1-4.67,4.62C86.76,72.9,83.78,72.88,80.79,72.88Zm1.68-7.43a6,6,0,1,0-6,5.94A6,6,0,0,0,82.47,65.45Z"/><path class="cls-2" d="M35.18,35.47,51.1,27.52c3.34-1.66,6.66-3.36,10-5a4.43,4.43,0,0,1,6.35,3.25,10.44,10.44,0,0,1,.06,1.77q0,3.83,0,7.65a1.13,1.13,0,0,1,0,.24Z"/><path class="cls-3" d="M82.47,65.45a6,6,0,1,1-6-6A6,6,0,0,1,82.47,65.45Zm-6-3a3,3,0,1,0,3,2.95A3,3,0,0,0,76.48,62.43Z"/><path class="cls-2" d="M76.48,62.43a3,3,0,1,1-3,3A3,3,0,0,1,76.48,62.43Z"/></svg>