<svg xmlns="http://www.w3.org/2000/svg" width="30" height="30" viewBox="0 0 30 30">
  <path id="Icon_awesome-print" data-name="Icon awesome-print" d="M26.25,11.25V4.526A1.876,1.876,0,0,0,25.7,3.2L23.049.549A1.875,1.875,0,0,0,21.723,0H5.625A1.875,1.875,0,0,0,3.75,1.875V11.25A3.75,3.75,0,0,0,0,15v6.563a.937.937,0,0,0,.938.938H3.75v5.625A1.875,1.875,0,0,0,5.625,30h18.75a1.875,1.875,0,0,0,1.875-1.875V22.5h2.813A.937.937,0,0,0,30,21.563V15A3.75,3.75,0,0,0,26.25,11.25Zm-3.75,15H7.5V20.625h15Zm0-13.125H7.5V3.75H18.75V6.563a.937.937,0,0,0,.938.938H22.5Zm2.813,4.219a1.406,1.406,0,1,1,1.406-1.406A1.407,1.407,0,0,1,25.313,17.344Z" fill="#fff"/>
</svg>
