<svg id="Layer_1" data-name="Layer 1" xmlns="http://www.w3.org/2000/svg" viewBox="0 0 100 100"><defs><style>.cls-1,.cls-3{fill:#ffffff;}.cls-2{fill:#fff;}.cls-3{stroke:#fff;stroke-miterlimit:10;}</style></defs><path class="cls-1" d="M88.79,20.25V92.41a9.7,9.7,0,0,1-.68,1.37,3.59,3.59,0,0,1-2.18,1.31H14.06a.37.37,0,0,0-.12-.07,3.21,3.21,0,0,1-2.74-3.49V41.92q0-17,0-34.08a3.52,3.52,0,0,1,.39-1.59,3.27,3.27,0,0,1,3.1-1.71H71a3.54,3.54,0,0,1,2.45.9q6.84,6.24,13.69,12.47A4.71,4.71,0,0,1,88.79,20.25ZM18.05,88.76H81.94V22.63h-.58c-3.34,0-6.68,0-10,0a2.1,2.1,0,0,1-2.28-2.29c0-3,0-6,0-9v-.54h-51Z"/><path class="cls-2" d="M88.79,20.25a4.71,4.71,0,0,0-1.61-2.34Q80.31,11.7,73.49,5.44A3.54,3.54,0,0,0,71,4.54H14.7a3.27,3.27,0,0,0-3.1,1.71,3.52,3.52,0,0,0-.39,1.59q0,17,0,34.08V91.53A3.21,3.21,0,0,0,13.94,95a.37.37,0,0,1,.12.07h-3V4.45H88.79Z"/><path class="cls-2" d="M85.93,95.09a3.59,3.59,0,0,0,2.18-1.31,9.7,9.7,0,0,0,.68-1.37v2.68Z"/><path class="cls-3" d="M18.05,88.76V10.85h51v.54c0,3,0,6,0,9a2.1,2.1,0,0,0,2.28,2.29c3.34,0,6.68,0,10,0h.58V88.76ZM63.57,32c.33.17.56.28.78.41.41.24.79.54,1.22.74a1.49,1.49,0,0,0,2.22-.88A1.46,1.46,0,0,0,67.42,31a5.55,5.55,0,0,0-2.62-1.73c-.37-.13-.91-.13-1.08-.39s0-.8,0-1.21a1.05,1.05,0,0,0-1.13-1.12,1.07,1.07,0,0,0-1.19,1.1,6.94,6.94,0,0,0,0,.79c0,.3-.09.39-.41.45a10,10,0,0,0-2.31.57,4.49,4.49,0,0,0-2.81,3.76,4.17,4.17,0,0,0,2.12,4.45A23.11,23.11,0,0,0,60.6,38.9a.55.55,0,0,1,.4.6c-.06,1.36-.08,2.71-.12,4.07a1.54,1.54,0,0,1,0,.3A4.19,4.19,0,0,1,59,43a4.21,4.21,0,0,0-1.38-.67,1.28,1.28,0,0,0-1.6.89,1.77,1.77,0,0,0,.46,1.62,5.13,5.13,0,0,0,2,1.3c.74.28,1.51.49,2.28.73v1a1.16,1.16,0,1,0,2.32,0c0-.2,0-.4,0-.6s.09-.41.41-.46a7.74,7.74,0,0,0,1.79-.4,4.46,4.46,0,0,0,3.19-4.19A4.38,4.38,0,0,0,66,37.92c-.74-.41-1.54-.68-2.31-1-.13-.05-.3-.21-.29-.31C63.46,35.07,63.52,33.58,63.57,32ZM49.85,56.39H30.13a4.56,4.56,0,0,0-.82.08,1.22,1.22,0,0,0,.05,2.39,3.61,3.61,0,0,0,.73.07H69.61a3.93,3.93,0,0,0,.69-.06,1.22,1.22,0,0,0,.08-2.4,3.94,3.94,0,0,0-.77-.08Zm0,12.92H69.58c.2,0,.4,0,.6,0a1.31,1.31,0,0,0,1.15-1.09,1.22,1.22,0,0,0-.88-1.3,2.19,2.19,0,0,0-.68-.09H29.55A1.32,1.32,0,0,0,28.37,68a1.25,1.25,0,0,0,1,1.28,3.5,3.5,0,0,0,.73,0Zm0,10.53H70.08a1.3,1.3,0,0,0,1.25-1.24,1.28,1.28,0,0,0-1.23-1.25H29.55a1.24,1.24,0,0,0,0,2.48c.2,0,.4,0,.6,0Zm-12-43.32c-2.59,0-5.17,0-7.75,0a2.5,2.5,0,0,0-.82.11,1.23,1.23,0,0,0-.85,1.28,1.26,1.26,0,0,0,1,1.09,4.48,4.48,0,0,0,.73,0H45.41a3.94,3.94,0,0,0,.69,0,1.22,1.22,0,0,0,.21-2.38,2.8,2.8,0,0,0-.77-.1C43,36.51,40.37,36.52,37.79,36.52Zm0-10.4H30.1a4.73,4.73,0,0,0-.65,0,1.22,1.22,0,0,0-.23,2.38,2.2,2.2,0,0,0,.68.1H45.63a1.93,1.93,0,0,0,.68-.1,1.21,1.21,0,0,0,.87-1.08,1.18,1.18,0,0,0-.73-1.18,2.51,2.51,0,0,0-.94-.15Zm0,19.77H30.09a4.72,4.72,0,0,0-.65,0A1.26,1.26,0,0,0,28.37,47a1.24,1.24,0,0,0,.91,1.29,2.92,2.92,0,0,0,.73.08H45.52a2.92,2.92,0,0,0,.73-.08,1.25,1.25,0,0,0,.93-1.23,1.27,1.27,0,0,0-1.07-1.16,4.57,4.57,0,0,0-.64,0Z"/><path class="cls-2" d="M49.85,56.39H69.61a3.94,3.94,0,0,1,.77.08,1.22,1.22,0,0,1-.08,2.4,3.93,3.93,0,0,1-.69.06H30.09a3.61,3.61,0,0,1-.73-.07,1.22,1.22,0,0,1-.05-2.39,4.56,4.56,0,0,1,.82-.08Z"/><path class="cls-2" d="M49.86,69.31H30.09a3.5,3.5,0,0,1-.73,0,1.25,1.25,0,0,1-1-1.28,1.32,1.32,0,0,1,1.18-1.17H69.77a2.19,2.19,0,0,1,.68.09,1.22,1.22,0,0,1,.88,1.3,1.31,1.31,0,0,1-1.15,1.09c-.2,0-.4,0-.6,0Z"/><path class="cls-2" d="M49.81,79.84H30.13c-.2,0-.4,0-.6,0a1.24,1.24,0,0,1,0-2.48H70.1a1.28,1.28,0,0,1,1.23,1.25,1.3,1.3,0,0,1-1.25,1.24H49.81Z"/><path class="cls-2" d="M37.79,36.52c2.58,0,5.17,0,7.75,0a2.8,2.8,0,0,1,.77.1A1.22,1.22,0,0,1,46.1,39a3.94,3.94,0,0,1-.69,0H30.14a4.48,4.48,0,0,1-.73,0,1.26,1.26,0,0,1-1-1.09,1.23,1.23,0,0,1,.85-1.28,2.5,2.5,0,0,1,.82-.11C32.62,36.51,35.2,36.52,37.79,36.52Z"/><path class="cls-2" d="M37.8,26.12h7.71a2.51,2.51,0,0,1,.94.15,1.18,1.18,0,0,1,.73,1.18,1.21,1.21,0,0,1-.87,1.08,1.93,1.93,0,0,1-.68.1H29.9a2.2,2.2,0,0,1-.68-.1,1.22,1.22,0,0,1,.23-2.38,4.73,4.73,0,0,1,.65,0Z"/><path class="cls-2" d="M37.8,45.89h7.67a4.57,4.57,0,0,1,.64,0,1.27,1.27,0,0,1,1.07,1.16,1.25,1.25,0,0,1-.93,1.23,2.92,2.92,0,0,1-.73.08H30a2.92,2.92,0,0,1-.73-.08A1.24,1.24,0,0,1,28.37,47a1.26,1.26,0,0,1,1.07-1.1,4.72,4.72,0,0,1,.65,0Z"/><path class="cls-2" d="M61.14,31.81v4a2.26,2.26,0,0,1-1.89-2.2A1.9,1.9,0,0,1,61.14,31.81Z"/><path class="cls-2" d="M63.27,44.06V40.15a2.33,2.33,0,0,1,1.79,2A1.83,1.83,0,0,1,63.27,44.06Z"/><polygon class="cls-1" points="54.15 26.32 60.62 23.94 69.3 25.98 74.92 34.15 72.53 52.02 55.34 52.02 52.45 38.23 54.15 26.32"/><path class="cls-2" d="M62.78,49.54l-1.31-1.65q-3.27-4.1-6.52-8.2c-.17-.2-.33-.41-.49-.61a.17.17,0,0,1,0-.1c0-.64,0-1.29,0-1.94,0,0,0,0,0-.06h2.29a8,8,0,0,0,2.61-.42,4.56,4.56,0,0,0,1.88-1.2,3.61,3.61,0,0,0,1-2,2.82,2.82,0,0,0,0-.41v0H53.68l0-.07,1.32-2a.13.13,0,0,1,.11-.06h6.77l0-.07a3.35,3.35,0,0,0-1.83-1.74,5.82,5.82,0,0,0-1.54-.4,16.69,16.69,0,0,0-2.34-.13h-2.5l0-.07,1.32-2a.11.11,0,0,1,.11-.06H69.51l0,.07-1.32,2a.12.12,0,0,1-.12.06H64.27a4.47,4.47,0,0,1,1,2.34h4.21l0,0c-.45.69-.9,1.38-1.34,2.07a.13.13,0,0,1-.1,0H65.39c0,.14,0,.27-.07.41A5.82,5.82,0,0,1,63.94,36a7.37,7.37,0,0,1-2.77,1.91,9.46,9.46,0,0,1-2.33.63l-.94.1,0,.06,8.64,10.76a.1.1,0,0,1,0,0Z"/></svg>