<?xml version="1.0" encoding="utf-8"?>
<!-- Generator: Adobe Illustrator 23.0.5, SVG Export Plug-In . SVG Version: 6.00 Build 0)  -->
<svg version="1.1" id="Layer_1" xmlns="http://www.w3.org/2000/svg" xmlns:xlink="http://www.w3.org/1999/xlink" x="0px" y="0px"
	 viewBox="0 0 100 100" style="enable-background:new 0 0 100 100;" xml:space="preserve">
<style type="text/css">
	.st0{fill:none;stroke:#573B17;stroke-miterlimit:10;}
	.st1{fill:#573B17;}
	.st2{fill:#FFFFFF;}
	.st3{fill:none;stroke:#573B17;stroke-width:3;stroke-miterlimit:10;}
	.st4{fill:#573C18;}
</style>
<path class="st0" d="M-125.89,97.57c-0.28,0.03-0.52,0.04-0.75,0.08c-3.89,0.61-7.31-1.48-8.49-5.24c-0.11-0.34-0.06-0.96,0.15-1.12
	c1.91-1.44,3.64-3.2,6.09-3.75c0.44-0.1,0.9-0.11,1.29-0.16c-0.47-2.01-1.13-3.99-1.34-6.01c-0.22-2.17-0.03-4.38,0.08-6.57
	c0.02-0.36,0.5-0.88,0.86-0.99c0.25-0.08,0.89,0.34,1,0.66c0.89,2.5,2.75,4.21,4.6,5.95c0.45,0.43,0.97,0.78,1.42,1.21
	c1.79,1.73,3.55,2.18,6.26,1.6c4.84-1.05,9.88-1.04,14.81,0.19c0.39,0.1,0.93,0.09,1.26-0.11c3.17-1.95,6.06-4.24,8.32-7.23
	c0.52-0.68,0.8-1.55,1.29-2.26c0.26-0.38,0.74-0.62,1.12-0.92c0.3,0.39,0.8,0.76,0.86,1.19c0.6,4.23,0.24,8.36-1.52,12.31
	c-0.1,0.22-0.18,0.45-0.35,0.87c3.23-0.23,5.24,1.93,7.54,3.5c0.63,0.43,0.69,0.93,0.42,1.61c-1.58,4.01-4.54,5.7-8.84,5.03
	c-0.11-0.02-0.24,0.01-0.49,0.03c0,1.04,0.03,2.07,0,3.1c-0.11,3.77-1.32,7.15-3.62,10.15c-1.65,2.15-3.08,4.43-3.48,7.18
	c2.06,1.36,2.46,2.34,1.99,4.71c-1.02,5.14-4.43,8.11-10.32,8.87c-3.46,0.45-6.8-0.07-9.85-1.89c-2.62-1.56-4.16-3.89-4.75-6.85
	c-0.31-1.56-0.06-2.97,1.45-3.93c0.25-0.16,0.43-0.82,0.31-1.11c-0.8-1.86-1.39-3.9-2.6-5.46c-3.26-4.2-4.89-8.81-4.64-14.11
	C-125.8,97.96-125.85,97.8-125.89,97.57z M-116.4,117.94c5.46,0.79,10.74,1.16,16.01-0.05c0.6-0.14,0.96-0.29,1.08-0.93
	c0.49-2.49,1.59-4.74,3.19-6.68c3.59-4.37,4.32-9.38,3.56-14.77c-0.83-5.86-4.75-10.07-10.5-10.66c-3.36-0.34-6.82-0.27-10.19,0.07
	c-4.78,0.48-8.12,3.27-9.53,7.82c-1.81,5.83-1.59,11.57,2.22,16.73C-118.63,112.05-116.94,114.74-116.4,117.94z M-114.54,120.21
	c-0.62,0-1.25-0.04-1.86,0.01c-1.98,0.16-2.38,0.75-1.87,2.67c0.65,2.48,2.17,4.27,4.44,5.4c2.57,1.28,5.32,1.61,8.13,1.19
	c4.02-0.61,7.14-2.4,8.24-6.66c0.68-2.64,0.12-3.39-2.59-2.9C-104.88,120.79-109.69,121.05-114.54,120.21z M-88.76,77.8
	c-2.73,2.38-5.39,4.7-7.63,6.64c1.26,1.26,2.63,2.65,4.08,4.11C-89.74,85.77-88.91,81.9-88.76,77.8z M-132.92,92.38
	c0.33,0.49,0.64,1.02,1.02,1.49c1.54,1.9,3.08,2.38,5.4,1.64c0.35-0.11,0.82-0.38,0.92-0.68c0.43-1.29,0.74-2.61,1.09-3.91
	C-127.56,88.71-129.53,89.04-132.92,92.38z M-83.16,91.96c-1.02-0.7-2.03-1.49-3.14-2.1c-1.63-0.91-3.73-0.57-5.05,0.73
	c-0.15,0.15-0.24,0.5-0.19,0.72c0.28,1.08,0.57,2.15,0.95,3.2c0.12,0.32,0.49,0.65,0.82,0.78C-86.98,96.33-84.55,95.14-83.16,91.96z
	 M-127.06,78.76c-0.38,2.5,0.93,7.6,2.54,9.5c0.29,0.35,0.75,0.56,1.03,0.76c1.34-1.41,2.54-2.69,3.64-3.85
	C-122.24,83.04-124.65,80.9-127.06,78.76z"/>
<path class="st1" d="M-73.58,100.87c0,3.53,0.02,7.06-0.01,10.59c-0.01,0.75,0.16,1.26,0.82,1.76c2.64,1.97,3.2,5.78,1.25,8.73
	c-1.17,1.76-2.49,3.43-3.83,5.06c-3.49,4.23-7.02,8.42-10.55,12.61c-0.45,0.54-0.95,1.08-1.53,1.45c-0.28,0.18-0.96,0.12-1.19-0.1
	c-0.22-0.22-0.15-0.79-0.12-1.2c0.01-0.16,0.27-0.3,0.4-0.46c4.96-5.97,9.93-11.94,14.86-17.93c1.06-1.29,1.39-2.82,0.96-4.46
	c-0.69-2.66-3.43-3.69-5.53-1.94c-1.72,1.43-3.19,3.15-4.82,4.68c-5.23,4.92-10.37,9.94-15.75,14.69
	c-5.29,4.66-7.02,10.42-5.95,17.15c0.41,2.57,0.54,5.1,0.2,7.67c-0.09,0.7-0.21,1.41-1.13,1.3c-0.91-0.11-0.93-0.81-0.79-1.52
	c0.64-3.18-0.26-6.27-0.47-9.4c-0.47-6.9,1.82-12.64,7.29-17c6.91-5.51,12.88-12,19.06-18.26c0.29-0.3,0.41-0.88,0.42-1.33
	c0.13-5.98,0.24-11.96,0.34-17.94c0.05-2.63,1.17-4.51,3.64-5.57c0.34-0.15,0.6-0.72,0.71-1.14c0.95-3.76,4.53-5.97,7.95-4.83
	c2.49,0.83,3.77,2.7,4.24,5.22c1.51,8.01,1.76,16.1,1.38,24.2c-0.27,5.8-0.87,11.59-1.37,17.38c-0.36,4.1-2.07,7.61-5.05,10.41
	c-4.03,3.78-8.17,7.44-12.26,11.15c-0.83,0.75-1.78,1.39-2.5,2.24c-0.47,0.56-0.65,1.37-0.88,2.1c-0.21,0.67-0.41,1.38-1.29,1.19
	c-0.88-0.19-0.8-0.92-0.65-1.61c0.32-1.47,0.85-2.67,2.12-3.75c4.76-4.08,9.36-8.34,13.97-12.6c2.76-2.55,4.21-5.77,4.65-9.52
	c0.98-8.47,1.7-16.96,1.37-25.48c-0.2-5.13-0.86-10.25-1.44-15.36c-0.27-2.36-1.97-3.86-4-3.9c-2.09-0.04-3.92,1.58-4.35,3.89
	c-0.1,0.53-0.12,1.07-0.12,1.61c-0.01,3.41-0.01,6.81-0.01,10.22C-73.56,100.87-73.57,100.87-73.58,100.87z M-75.58,91.47
	c-1.58,0.83-2.08,2.06-2.12,3.56c-0.09,4.4-0.19,8.8-0.27,13.2c-0.03,1.4,0,2.79,0,4.27c0.86-0.15,1.59-0.27,2.39-0.41
	C-75.58,105.26-75.58,98.46-75.58,91.47z"/>
<path class="st1" d="M-144.41,100.87c0-3.41,0.01-6.81-0.01-10.22c0-0.54-0.02-1.08-0.12-1.61c-0.43-2.31-2.26-3.92-4.35-3.89
	c-2.03,0.03-3.73,1.54-4,3.9c-0.58,5.11-1.24,10.23-1.44,15.36c-0.34,8.52,0.38,17.01,1.37,25.48c0.44,3.76,1.89,6.97,4.65,9.52
	c4.6,4.26,9.21,8.52,13.97,12.6c1.27,1.09,1.8,2.28,2.12,3.75c0.15,0.69,0.23,1.42-0.65,1.61c-0.87,0.19-1.07-0.51-1.29-1.19
	c-0.23-0.73-0.41-1.55-0.88-2.1c-0.71-0.85-1.67-1.49-2.5-2.24c-4.1-3.71-8.23-7.37-12.26-11.15c-2.99-2.8-4.7-6.31-5.05-10.41
	c-0.5-5.79-1.1-11.58-1.37-17.38c-0.38-8.1-0.13-16.19,1.38-24.2c0.47-2.52,1.75-4.39,4.24-5.22c3.42-1.14,7,1.08,7.95,4.83
	c0.11,0.42,0.37,1,0.71,1.14c2.47,1.06,3.6,2.94,3.64,5.57c0.1,5.98,0.21,11.96,0.34,17.94c0.01,0.45,0.13,1.04,0.42,1.33
	c6.19,6.26,12.15,12.75,19.06,18.26c5.47,4.36,7.76,10.09,7.29,17c-0.21,3.13-1.11,6.23-0.47,9.4c0.14,0.71,0.12,1.41-0.79,1.52
	c-0.92,0.11-1.04-0.6-1.13-1.3c-0.34-2.57-0.21-5.1,0.2-7.67c1.07-6.73-0.66-12.49-5.95-17.15c-5.38-4.75-10.52-9.77-15.75-14.69
	c-1.63-1.54-3.1-3.26-4.82-4.68c-2.11-1.75-4.84-0.72-5.53,1.94c-0.43,1.64-0.09,3.17,0.96,4.46c4.93,5.99,9.9,11.96,14.86,17.93
	c0.13,0.16,0.39,0.3,0.4,0.46c0.03,0.41,0.11,0.98-0.12,1.2c-0.23,0.22-0.91,0.28-1.19,0.1c-0.58-0.37-1.07-0.91-1.53-1.45
	c-3.53-4.19-7.07-8.38-10.55-12.61c-1.35-1.63-2.66-3.3-3.83-5.06c-1.96-2.95-1.4-6.76,1.25-8.73c0.67-0.5,0.83-1,0.82-1.76
	c-0.03-3.53-0.01-7.06-0.01-10.59C-144.39,100.87-144.4,100.87-144.41,100.87z M-142.38,112.09c0.8,0.14,1.53,0.26,2.39,0.41
	c0-1.48,0.02-2.87,0-4.27c-0.08-4.4-0.17-8.8-0.27-13.2c-0.03-1.5-0.54-2.73-2.12-3.56C-142.38,98.46-142.38,105.26-142.38,112.09z"
	/>
<path class="st1" d="M-116.4,117.94c-0.55-3.2-2.24-5.89-4.15-8.48c-3.81-5.16-4.03-10.9-2.22-16.73c1.41-4.54,4.75-7.34,9.53-7.82
	c3.37-0.34,6.82-0.41,10.19-0.07c5.75,0.59,9.67,4.79,10.5,10.66c0.76,5.4,0.03,10.4-3.56,14.77c-1.6,1.94-2.7,4.18-3.19,6.68
	c-0.13,0.64-0.49,0.79-1.08,0.93C-105.66,119.1-110.93,118.73-116.4,117.94z M-115.45,105.51c0.32-0.04,0.9,0.03,1.27-0.22
	c0.44-0.29,0.97-0.86,0.97-1.29c-0.01-0.72-0.66-0.89-1.39-0.76c-2.08,0.36-2.67,0.07-3.75-1.76c-0.36-0.6-0.86-1.1-1.46-0.61
	c-0.34,0.28-0.54,1.14-0.37,1.55C-119.36,104.41-117.76,105.39-115.45,105.51z M-101.93,105.44c2.41,0.01,4.53-1.36,5.07-3.2
	c0.12-0.42-0.26-0.99-0.41-1.49c-0.46,0.15-1.18,0.17-1.33,0.47c-0.88,1.81-2.17,2.48-4.16,1.97c-0.32-0.08-0.98,0.42-1.14,0.79
	c-0.11,0.25,0.29,0.93,0.63,1.12C-102.79,105.39-102.16,105.39-101.93,105.44z"/>
<path class="st1" d="M-114.54,120.21c4.85,0.85,9.66,0.58,14.49-0.29c2.71-0.49,3.27,0.26,2.59,2.9c-1.1,4.26-4.22,6.05-8.24,6.66
	c-2.81,0.43-5.56,0.09-8.13-1.19c-2.28-1.13-3.79-2.91-4.44-5.4c-0.5-1.92-0.11-2.51,1.87-2.67
	C-115.79,120.16-115.16,120.21-114.54,120.21z M-101.53,121.61c-1.7-0.02-3.3,1-3.59,2.27c-0.09,0.38,0.12,1.06,0.41,1.24
	c0.26,0.16,1.05-0.05,1.22-0.33c0.59-1,1.31-1.39,2.47-1.17c0.29,0.06,0.95-0.41,0.96-0.66c0.02-0.38-0.3-0.86-0.62-1.14
	C-100.92,121.61-101.38,121.64-101.53,121.61z M-114.38,121.63c-0.18,0.02-0.35,0.02-0.51,0.06c-0.67,0.15-1.4,0.3-1.28,1.2
	c0.12,0.88,0.77,0.77,1.5,0.81c0.63,0.03,1.22,0.6,1.84,0.91c0.46,0.23,0.94,0.41,1.42,0.61c0.09-0.54,0.42-1.19,0.23-1.61
	C-111.78,122.28-112.96,121.71-114.38,121.63z"/>
<path class="st1" d="M-88.76,77.8c-0.14,4.1-0.98,7.97-3.55,10.76c-1.45-1.46-2.82-2.85-4.08-4.11
	C-94.15,82.5-91.49,80.18-88.76,77.8z"/>
<path class="st1" d="M-132.92,92.38c3.39-3.34,5.36-3.67,8.43-1.46c-0.35,1.3-0.66,2.63-1.09,3.91c-0.1,0.3-0.57,0.57-0.92,0.68
	c-2.32,0.73-3.85,0.26-5.4-1.64C-132.28,93.4-132.59,92.86-132.92,92.38z"/>
<path class="st1" d="M-83.16,91.96c-1.39,3.18-3.82,4.37-6.6,3.32c-0.33-0.13-0.7-0.46-0.82-0.78c-0.38-1.04-0.68-2.12-0.95-3.2
	c-0.06-0.21,0.03-0.56,0.19-0.72c1.33-1.3,3.42-1.64,5.05-0.73C-85.19,90.47-84.19,91.26-83.16,91.96z"/>
<path class="st1" d="M-127.06,78.76c2.41,2.14,4.82,4.28,7.21,6.41c-1.1,1.16-2.31,2.44-3.64,3.85c-0.28-0.21-0.74-0.42-1.03-0.76
	C-126.13,86.36-127.44,81.26-127.06,78.76z"/>
<path class="st2" d="M-115.45,105.51c-2.31-0.13-3.91-1.1-4.74-3.08c-0.17-0.41,0.03-1.27,0.37-1.55c0.6-0.49,1.11,0.01,1.46,0.61
	c1.08,1.83,1.67,2.12,3.75,1.76c0.74-0.13,1.38,0.04,1.39,0.76c0.01,0.44-0.53,1.01-0.97,1.29
	C-114.55,105.54-115.13,105.47-115.45,105.51z"/>
<path class="st1" d="M-103.64,107.53c0.26,0.04,7.25-0.85,7.25-0.85s0.96-5.02,0.92-5.36c-0.04-0.34-1.36-2.94-1.36-2.94
	s-9.82,2.3-9.99,2.51c-0.18,0.21,0.51,3.57,0.68,3.74S-103.64,107.53-103.64,107.53z"/>
<path class="st2" d="M-102.26,105.51c2.31-0.13,3.91-1.1,4.74-3.08c0.17-0.41-0.03-1.27-0.37-1.55c-0.6-0.49-1.11,0.01-1.46,0.61
	c-1.08,1.83-1.67,2.12-3.75,1.76c-0.74-0.13-1.38,0.04-1.39,0.76c-0.01,0.44,0.53,1.01,0.97,1.29
	C-103.16,105.54-102.58,105.47-102.26,105.51z"/>
<g>
	<circle class="st3" cx="221.78" cy="61.01" r="47.65"/>
	<g>
		<path class="st1" d="M238.75,49.47c0.16-0.41,0.34-0.84,0.36-1.27c0.02-0.52-0.12-1.06-0.17-1.58c-0.02-0.24-0.11-0.53-0.01-0.71
			c0.49-0.86,0.41-1.8,0.45-2.72c0.02-0.34,0.03-0.71,0.49-0.69c0.42,0.03,0.5,0.35,0.46,0.72c-0.01,0.07,0,0.14-0.01,0.21
			c-0.07,0.38,0.09,0.61,0.46,0.65c0.8,0.09,1.61,0.29,2.39,0.2c1.01-0.12,2.01-0.44,3-0.73c1.4-0.41,2.88,0.47,3.18,1.97
			c-0.21,0.06-0.43,0.12-0.66,0.18c0.1,0.25,0.17,0.44,0.24,0.61c0.18-0.06,0.34-0.12,0.63-0.23c-0.26,1.41-0.83,2.57-1.6,3.81
			c0.54,0,0.93-0.01,1.32,0c0.85,0.02,1.28-0.36,1.35-1.23c0.16-2.05-0.61-3.74-2.02-5.16c-0.27-0.27-0.65-0.45-1.01-0.59
			c-0.49-0.19-0.85-0.44-0.84-1.03c0.01-0.62,0.32-1.12,0.88-1.33c0.98-0.36,1.01-0.4,1.01-1.45c0-0.19,0-0.38,0.02-0.57
			c0.03-0.48,0.29-0.78,0.75-0.94c1.05-0.36,1.21-1.2,0.37-1.95c-0.15-0.14-0.31-0.27-0.54-0.47c2.39-0.14,3.59,0.97,3.59,3.2
			c0,0.98-0.02,1.96,0.01,2.95c0.01,0.24,0.14,0.53,0.31,0.69c0.44,0.43,0.61,0.92,0.47,1.5c-0.15,0.62-0.34,1.22-0.54,1.93
			c-0.56-0.88-1.06-1.72-1.03-2.78c0.03-1.1,0.07-2.2,0.04-3.3c-0.02-0.57-0.18-1.14-0.28-1.71c-0.06,0.01-0.11,0.02-0.17,0.03
			c-0.12,1.14-0.26,2.27-0.36,3.41c-0.11,1.33-0.18,2.66,0.66,3.83c0.1,0.14,0.08,0.4,0.06,0.59c-0.07,0.72-0.18,1.43-0.24,2.15
			c-0.05,0.71-0.06,1.42-0.09,2.15c0.5,0.1,0.84-0.03,0.95-0.67c0.09-0.55,0.42-0.99,1.07-1.34c-0.17,0.58-0.31,1.02-0.44,1.47
			c0.35-0.37,0.57-0.88,1.26-0.74c-0.21,0.43-0.41,0.83-0.63,1.28c0.5,0.03,0.89,0.03,1.28,0.09c0.41,0.06,0.67,0.51,0.44,0.79
			c-0.13,0.15-0.42,0.22-0.63,0.22c-2.45,0.02-4.89,0.01-7.34,0.01c-5.96,0-11.92-0.01-17.88-0.01c-0.17,0-0.37,0.05-0.51-0.03
			c-0.19-0.11-0.44-0.29-0.46-0.46c-0.01-0.17,0.2-0.42,0.38-0.51c0.18-0.1,0.43-0.06,0.66-0.06c0.59-0.01,1.19,0,1.9,0
			c-0.26-0.83-0.41-1.63-0.76-2.34c-0.2-0.4-0.36-0.76-0.35-1.2c0.01-0.35-0.13-0.56-0.44-0.73c-0.33-0.18-0.6-0.45-0.9-0.68
			c0.03-0.05,0.06-0.1,0.09-0.15c0.33,0.09,0.66,0.19,0.99,0.28c0.02-0.03,0.04-0.07,0.06-0.1c-0.29-0.23-0.57-0.45-0.86-0.68
			c0.04-0.06,0.07-0.13,0.11-0.19c0.6,0.24,1.19,0.47,1.77,0.7c0.02-0.07,0.04-0.23,0.1-0.37c0.95-2.19,1.9-4.39,2.88-6.57
			c0.23-0.51,0.51-1.02,0.86-1.46c0.71-0.89,1.71-1.17,2.85-1.26c-0.49,0.72-0.49,0.72-0.19,1.6c0.03,0.08,0.06,0.16,0.08,0.25
			c0.27,0.92-0.05,1.67-0.9,2.11c-0.26,0.13-0.53,0.25-0.78,0.4c-0.73,0.43-0.78,1.2-0.1,1.67c0.54,0.37,0.81,0.84,0.91,1.48
			c0.06,0.37,0.23,0.88,0.5,1.02c0.64,0.33,0.64,0.81,0.6,1.37c-0.12,1.57,0.08,3.17-0.41,4.77
			C238.26,49.94,238.59,49.89,238.75,49.47z M245.01,47.9c-0.24,0.65-0.43,1.17-0.62,1.69c0.02,0.01,0.04,0.02,0.06,0.03
			c0.28-0.36,0.57-0.72,0.85-1.08c0.06,0.03,0.12,0.06,0.18,0.1c-0.05,0.29-0.11,0.58-0.17,0.93c0.21-0.13,0.37-0.24,0.58-0.37
			c0.08,0.23,0.15,0.42,0.25,0.7c0.2-0.1,0.43-0.16,0.55-0.3c0.78-0.93,1.26-2.01,1.48-3.19c0.03-0.15-0.12-0.33-0.19-0.5
			c-0.14,0.11-0.27,0.23-0.42,0.33c-0.15,0.1-0.32,0.18-0.47,0.27c-0.05-0.15-0.1-0.3-0.15-0.46c-0.04-0.12-0.06-0.25-0.09-0.37
			c-0.13,0.06-0.26,0.11-0.39,0.17c-0.16,0.08-0.32,0.16-0.49,0.24c-0.01-0.19-0.02-0.39-0.05-0.58c-0.02-0.15-0.02-0.33-0.11-0.44
			c-0.07-0.09-0.28-0.16-0.38-0.12c-1.7,0.71-3.41,0.71-5.27-0.04c0,1.69,0,3.29,0,4.91c0.75,0.13,0.78,0.1,0.8-0.81
			c0.23,0.14,0.44,0.26,0.75,0.45c-0.12-0.44-0.21-0.78-0.3-1.12c0.03-0.03,0.06-0.06,0.09-0.09c0.32,0.37,0.65,0.75,0.97,1.12
			c0.03-0.01,0.07-0.01,0.1-0.02c-0.19-0.5-0.37-0.99-0.55-1.45c0.43,0.02,0.63,0.23,1.18,1.33c0.05-0.46,0.09-0.85,0.13-1.24
			c0.07-0.01,0.13-0.02,0.2-0.03c0.09,0.39,0.18,0.77,0.29,1.24C244.06,48.68,244.3,48.17,245.01,47.9z M235.46,45.14
			c-0.31-0.13-0.59-0.1-0.7,0.2c-0.12,0.3-0.19,0.67-0.13,0.98c0.14,0.69,0.17,1.27-0.34,1.88c-0.28,0.34-0.27,0.93-0.37,1.41
			c-0.02,0.08,0.14,0.29,0.2,0.28c0.26-0.01,0.52-0.07,0.77-0.15c0.07-0.02,0.08-0.21,0.13-0.36c0.16,0.09,0.32,0.17,0.55,0.29
			c-0.06-0.23-0.1-0.4-0.15-0.56c0.02-0.02,0.05-0.04,0.07-0.07c0.22,0.27,0.45,0.53,0.69,0.83c1.34-1.28,0.68-2.87,0.91-4.14
			C236.46,45.51,235.95,45.34,235.46,45.14z"/>
		<path class="st1" d="M240.1,35.14c0.18,0.52,0.51,0.99,0.44,1.38c-0.07,0.38-0.55,0.69-0.86,1.02c-1,1.09-0.85,2.49,0.37,3.32
			c0.66,0.44,1.31,0.89,2.01,1.27c0.91,0.5,2.05,0.21,2.58-0.58c0.49-0.74,0.32-1.53-0.42-2.02c-0.18-0.12-0.39-0.25-0.5-0.43
			c-0.31-0.51,0.08-1.11,0.71-1.1c0.33,0.01,0.65,0.08,0.97,0.12c0.65,0.07,1.18-0.13,1.57-0.68c0.39-0.56,0.45-1.17,0.15-1.76
			c-0.13-0.24-0.48-0.52-0.74-0.52C244.28,35.12,242.18,35.14,240.1,35.14z"/>
	</g>
	<g>
		<path class="st1" d="M205.66,31.8c-0.52-1.08-0.86-2.19-0.64-3.39c0.33-1.84,1.38-3.13,3.04-3.92c0.26-0.12,0.62-0.04,0.93-0.05
			c-0.08,0.28-0.09,0.6-0.24,0.83c-0.65,1.02-1.11,2.08-1.12,3.36c2.66-1.49,4.64-1.36,7.6,0.47c0.65-0.75,0.63-1.62,0.38-2.49
			c-0.16-0.57-0.45-1.11-0.66-1.67c-0.06-0.15-0.08-0.43,0-0.5c0.12-0.1,0.36-0.09,0.53-0.06c0.15,0.03,0.3,0.15,0.43,0.24
			c2.6,1.71,3.06,4.66,1.13,7.22c-0.22,0.29-0.59,0.55-0.2,0.98c0.78-0.3,1.55-0.62,2.33-0.88c1.04-0.35,2.08-0.22,3.09,0.17
			c0.87,0.34,1.15,0.91,0.94,1.83c-0.46,1.99-2.87,3.54-5.01,3.16c-0.59-0.1-0.83,0.02-0.97,0.58c-0.13,0.5-0.33,0.98-0.68,1.51
			c-0.14-0.62-0.35-1.24-0.41-1.87c-0.05-0.61,0.01-1.24,0.1-1.86c0.49-3.48-2.74-6.69-6.01-5.95c-1.28,0.29-1.64,0.94-0.99,2.07
			c0.44,0.76,1,1.47,1.64,2.07c1.66,1.58,3.04,3.36,4.16,5.37c1.19,2.13,2.63,4.05,4.66,5.49c0.26,0.19,0.48,0.63,0.48,0.96
			c0,0.88-0.09,1.77-0.21,2.64c-0.1,0.78-0.64,1.2-1.4,1.31c-0.7,0.1-1.42,0.23-2.09,0.44c-1.33,0.42-2.52,0.31-3.63-0.62
			c-0.51-0.42-1.12-0.73-1.73-1.01c-0.95-0.44-1.93-0.85-2.92-1.21c-3.65-1.34-5.67-4.11-6.71-7.69c-0.32-1.1-0.41-2.26-0.61-3.39
			c-0.07-0.42,0.1-0.61,0.52-0.67c0.61-0.08,1.21-0.22,1.82-0.49c-0.19-0.02-0.37-0.06-0.56-0.07c-2.2-0.18-4.08-1.79-4.59-3.94
			c-0.3-1.25,0.11-1.87,1.37-2.08c1.94-0.33,3.54,0.29,4.81,1.78c0.41,0.48,0.84,0.96,1.25,1.44
			C205.56,31.88,205.61,31.84,205.66,31.8z M216.93,46.9c0.77,0.05,1.57,0.28,1.69-0.84c0.01-0.08,0.13-0.14,0.18-0.22
			c0.09-0.17,0.17-0.36,0.25-0.54c-0.18-0.08-0.37-0.23-0.55-0.24c-0.88-0.05-1.76-0.08-2.64-0.1c-0.55-0.01-0.75,0.19-0.82,0.77
			C216.06,45.16,216.97,45.46,216.93,46.9z M210.46,37.46c-0.01-0.1-0.01-0.19-0.02-0.29c-0.27-0.17-0.58-0.49-0.82-0.45
			c-0.24,0.04-0.52,0.44-0.56,0.71c-0.02,0.16,0.41,0.54,0.62,0.53C209.95,37.95,210.2,37.64,210.46,37.46z"/>
		<path class="st1" d="M207.2,50.09c-0.99,2.6-0.83,5.07,0.56,7.52c-0.29,0.03-0.46,0.1-0.59,0.06c-0.87-0.32-1.8-0.55-2.57-1.03
			c-2.34-1.44-4.58-3.05-6.94-4.47c-2.22-1.35-4.63-2.29-7.24-2.6c-0.51-0.06-0.69-0.24-0.69-0.76c0-3.26-0.02-6.51-0.07-9.77
			c-0.01-0.78,0.27-1.12,1.03-1.35c1.78-0.53,3.53-1.19,5.29-1.79c0.22-0.08,0.44-0.15,0.62-0.21c0.24,1.55,0.37,3.05,0.71,4.51
			c0.82,3.52,2.65,6.43,5.59,8.6c1.03,0.76,2.19,1.16,3.48,1.17C206.63,49.96,206.88,50.04,207.2,50.09z"/>
		<path class="st1" d="M209.39,47.71c-1.15,1.18-2.94,1.42-4.57,0.74c-1.51-0.63-2.75-1.63-3.74-2.93c-2.23-2.96-3.13-6.35-3.26-10
			c-0.01-0.42,1.13-1.21,1.5-1.01c0.15,0.08,0.24,0.34,0.27,0.54c0.11,0.8,0.17,1.62,0.29,2.42c0.44,2.98,1.49,5.68,3.68,7.84
			c0.83,0.83,1.77,1.39,2.99,1.55C207.47,46.98,208.35,47.39,209.39,47.71z"/>
	</g>
</g>
<g>
	<path class="st1" d="M65.54,35.04c0.03-0.01,0.06-0.03,0.1-0.04c0.15,0.24,0.3,0.47,0.44,0.67c0.08-0.19,0.19-0.42,0.29-0.66
		c0.02,0.01,0.04,0.01,0.07,0.02c0.01,0.22,0.02,0.44,0.04,0.65c0.02,0.01,0.04,0.02,0.06,0.04c0.07-0.06,0.16-0.12,0.21-0.2
		c0.25-0.35,0.39-0.75,0.37-1.18c-0.03-0.63-0.07-1.26-0.11-1.89c-0.01-0.09-0.09-0.17-0.16-0.25c-0.19-0.22-0.44-0.4-0.56-0.65
		c-0.14-0.27-0.19-0.58-0.24-0.89c-0.09-0.55-0.3-1.04-0.63-1.48c-0.1-0.13-0.2-0.18-0.37-0.16c-0.16,0.03-0.34,0-0.51,0
		c-0.2-0.01-0.4-0.04-0.59-0.02c-0.26,0.03-0.41-0.03-0.51-0.26c-0.14-0.31-0.12-0.4,0.12-0.58c0.38-0.28,0.73-0.59,0.98-1
		c0.07-0.11,0.24-0.16,0.37-0.23c0.05-0.03,0.12-0.03,0.18-0.04c-0.05-0.2-0.1-0.37-0.16-0.57c0.48,0.23,0.61,0.38,0.81,0.77
		c0.04,0.08,0.12,0.16,0.19,0.21c0.62,0.39,1.29,0.63,2.04,0.62c0.35,0,0.71,0.05,1.07,0.08c0.32,0.03,0.65,0.11,0.97,0.09
		c0.97-0.05,1.94-0.13,2.91-0.21c0.53-0.04,1.05-0.08,1.56,0.11c0.63,0.23,0.97,0.73,0.96,1.39c-0.01,0.6-0.04,1.2-0.04,1.8
		c0,0.13,0.04,0.31,0.13,0.4c0.29,0.3,0.3,0.63,0.17,0.99c-0.09,0.24-0.25,0.46-0.11,0.75c-0.11-0.08-0.21-0.15-0.27-0.25
		c-0.19-0.34-0.31-0.71-0.3-1.11c0.03-0.88,0.06-1.77,0.08-2.65c0.01-0.35-0.16-0.63-0.43-0.74c0.24,0.43,0.2,0.87,0.15,1.32
		c-0.06,0.49-0.13,0.98-0.19,1.47c-0.06,0.53-0.05,1.05,0.23,1.54c0.05,0.09,0.03,0.23,0.01,0.34c-0.09,0.46-0.2,0.92-0.3,1.38
		c-0.07,0.34-0.13,0.68-0.19,1.06c0.04,0.01,0.13,0.02,0.22,0.04c0.15,0.04,0.26,0.04,0.28-0.17c0.02-0.16,0.12-0.31,0.19-0.46
		c0.02,0,0.04,0.01,0.06,0.01c0.01,0.21,0.02,0.42,0.03,0.62c0.15-0.15,0.29-0.29,0.43-0.42c0.02,0.02,0.04,0.03,0.07,0.05
		c-0.04,0.08-0.08,0.17-0.12,0.25c-0.11,0.25-0.1,0.28,0.16,0.35c0.35,0.1,0.71,0.19,1.05,0.3c0.08,0.03,0.14,0.11,0.21,0.17
		c-0.08,0.07-0.12,0.07-0.16,0.07c-4.19,0-8.37,0-12.56,0c-0.11,0-0.22-0.08-0.33-0.12c0.1-0.06,0.18-0.14,0.29-0.17
		c0.36-0.11,0.73-0.21,1.11-0.31c-0.05-0.15-0.09-0.28-0.14-0.41c0.01-0.01,0.03-0.03,0.04-0.04c0.14,0.1,0.28,0.19,0.46,0.32
		C65.62,35.51,65.58,35.28,65.54,35.04z M73.35,33.45c0.08-0.03,0.16-0.05,0.28-0.1c-0.12,0.76-0.45,1.39-0.79,2.06
		c0.2,0.03,0.4,0.07,0.59,0.1c0.04,0.01,0.1,0,0.11-0.03c0.16-0.24,0.4-0.47,0.44-0.73c0.13-0.84-0.02-1.64-0.5-2.37
		c-0.44-0.66-0.92-0.84-1.62-0.46c-0.85,0.46-1.73,0.56-2.66,0.3c-0.16-0.05-0.24-0.12-0.26-0.29c-0.04-0.27-0.13-0.54-0.2-0.8
		c-0.01-0.03-0.03-0.06-0.06-0.12c0,1.48,0,2.88,0,4.32c0.09,0.01,0.21,0.01,0.2-0.18c0-0.12,0-0.23,0-0.35
		c0.02-0.01,0.05-0.01,0.07-0.02c0.11,0.15,0.21,0.3,0.32,0.45c0.02-0.01,0.04-0.01,0.07-0.02c-0.05-0.28-0.09-0.55-0.14-0.83
		c0.01-0.01,0.03-0.03,0.04-0.04c0.21,0.28,0.42,0.55,0.63,0.83c0.01-0.01,0.03-0.01,0.04-0.02c-0.14-0.29-0.27-0.58-0.41-0.89
		c0.37,0.1,0.7,0.25,0.85,0.72c0.17-0.44,0.45-0.64,0.85-0.68c-0.13,0.29-0.26,0.58-0.38,0.86c0.02,0.01,0.05,0.03,0.07,0.04
		c0.22-0.27,0.29-0.67,0.69-0.8c-0.06,0.27-0.12,0.53-0.18,0.79c0.02,0.01,0.04,0.01,0.06,0.02c0.1-0.14,0.21-0.29,0.31-0.43
		c0.03,0.01,0.05,0.01,0.08,0.02c0,0.09-0.01,0.18,0,0.27c0.01,0.09,0.05,0.17,0.08,0.25c0.1-0.04,0.26-0.06,0.3-0.14
		c0.17-0.32,0.33-0.65,0.46-0.99c0.1-0.26,0.16-0.54,0.21-0.82c0.01-0.06-0.07-0.14-0.1-0.22c-0.05,0.05-0.09,0.11-0.14,0.15
		c-0.06,0.05-0.13,0.1-0.19,0.14c-0.04-0.06-0.1-0.12-0.11-0.18c-0.03-0.1-0.02-0.21-0.04-0.35c-0.08,0.05-0.1,0.06-0.12,0.07
		c-0.08,0.04-0.19,0.14-0.24,0.12c-0.13-0.05-0.09-0.17-0.05-0.29c0.03-0.09,0-0.24-0.05-0.33c-0.1-0.16-0.06-0.24,0.1-0.32
		c0.56-0.27,0.92-0.18,1.27,0.33c0.11,0.16,0.2,0.35,0.31,0.54C73.19,33.11,73.16,33.17,73.35,33.45z M67.79,35.38
		c0.31-0.37,0.47-0.78,0.31-1.26c-0.07-0.21-0.14-0.42-0.22-0.63c-0.02,0-0.05,0-0.07,0.01c-0.1,0.65-0.2,1.3-0.31,2.02
		C67.63,35.46,67.74,35.45,67.79,35.38z"/>
	<path class="st1" d="M43.86,35.55c-0.29-0.5-0.52-0.9-0.78-1.34c0.61,0.03,1,0.3,1.24,0.83c0.03-0.03,0.07-0.05,0.1-0.08
		c-0.15-0.48-0.29-0.96-0.45-1.48c0.14,0.1,0.33,0.17,0.42,0.3c0.25,0.39,0.51,0.79,0.66,1.22c0.2,0.58,0.17,0.6,0.71,0.51
		c-0.04-0.6-0.07-1.19-0.13-1.77c-0.08-0.72-0.2-1.45-0.29-2.17c-0.02-0.17-0.05-0.38,0.03-0.5c0.74-1.04,0.57-2.2,0.47-3.35
		c-0.08-0.86-0.24-1.71-0.28-2.57c-0.02-0.51,0.12-1.02,0.18-1.51c-0.42,0.32-0.68,0.78-0.67,1.38c0.04,1.39,0.07,2.78,0.13,4.17
		c0.03,0.7-0.12,1.34-0.48,1.93c-0.12,0.2-0.3,0.38-0.4,0.51c-0.12-0.46-0.23-0.9-0.36-1.34c-0.16-0.59-0.12-1.12,0.4-1.55
		c0.12-0.1,0.2-0.32,0.2-0.49c0-0.97-0.03-1.93-0.07-2.9c-0.06-1.72,0.94-2.91,2.67-2.98c1.03-0.05,2.07,0.06,3.1,0.18
		c2.18,0.26,4.34,0.1,6.52-0.13c1.28-0.13,2.48-0.34,3.59-1.11c-0.1-0.04-0.2-0.05-0.26-0.1c-0.2-0.18-0.43-0.34-0.55-0.57
		c-0.06-0.12,0.02-0.4,0.13-0.5c0.11-0.1,0.34-0.1,0.51-0.09c0.12,0.01,0.25,0.09,0.35,0.17c0.28,0.21,0.48,0.33,0.79-0.03
		c0.33-0.38,1.19-0.2,1.66,0.25c0.16-0.11,0.32-0.25,0.49-0.34c0.38-0.19,0.78-0.13,0.91,0.12c0.13,0.27-0.08,0.74-0.42,0.92
		c-0.11,0.06-0.24,0.09-0.49,0.19c0.4,0.44,0.73,0.86,1.11,1.22c0.42,0.4,0.53,0.62,0.31,1.01c-0.22,0.4-0.56,0.4-0.95,0.3
		c-0.19-0.05-0.4-0.01-0.6-0.01c-0.17,0-0.37,0.08-0.52,0.02c-0.77-0.32-1.1,0.16-1.44,0.71c-0.49,0.79-0.72,1.66-0.84,2.56
		c-0.05,0.36-0.07,0.74-0.2,1.07c-0.15,0.39-0.33,0.84-0.64,1.07c-0.43,0.32-0.52,0.68-0.54,1.15c-0.04,0.92-0.11,1.84-0.17,2.76
		c-0.05,0.77,0.14,1.48,0.59,2.11c0.07,0.09,0.19,0.14,0.29,0.21c0.04-0.11,0.1-0.23,0.1-0.34c0-0.89,0.41-1.56,1.19-1.9
		c-0.2,0.5-0.4,0.98-0.59,1.46c0.04,0.03,0.08,0.06,0.11,0.1c0.25-0.59,0.73-0.8,1.28-0.89c-0.26,0.5-0.52,1-0.78,1.49
		c0.03,0.05,0.06,0.1,0.08,0.15c0.47,0,0.95-0.02,1.42,0.01c0.19,0.01,0.42,0.08,0.54,0.21c0.22,0.24-0.01,0.69-0.38,0.76
		c-0.13,0.02-0.26,0.01-0.39,0.01c-6.57,0-13.14,0-19.71,0c-0.36,0-0.78,0.08-0.84-0.45c-0.04-0.35,0.2-0.51,0.82-0.55
		c0.18-0.01,0.35-0.02,0.53-0.03C43.42,35.55,43.58,35.55,43.86,35.55z M49.66,31.11c-0.06,0.12-0.1,0.19-0.13,0.27
		c-0.07,0.14-0.14,0.29-0.2,0.43c-0.1-0.12-0.18-0.26-0.29-0.37c-0.08-0.08-0.2-0.12-0.31-0.18c-0.05,0.09-0.14,0.19-0.14,0.28
		c0.03,0.44,0.09,0.87,0.15,1.31c0.11,0.85,0.27,1.68,0.81,2.38c0.29,0.39,0.6,0.46,1.03,0.22c-0.15-0.36-0.31-0.72-0.47-1.08
		c0.05-0.04,0.1-0.08,0.14-0.12c0.46,0.42,0.92,0.83,1.38,1.25c0.02-0.01,0.05-0.02,0.07-0.03c-0.27-0.48-0.53-0.96-0.82-1.49
		c0.79,0.24,1.38,0.67,1.63,1.52c-0.04-0.96,0.17-1.8,0.74-2.51c0.06,0.01,0.12,0.01,0.18,0.02c0.04,0.8,0.08,1.6,0.12,2.41
		c0.31-0.74,0.88-1.2,1.67-1.35c-0.3,0.48-0.6,0.95-0.9,1.43c0.03,0.02,0.06,0.04,0.1,0.06c0.89-1.03,1.12-1.21,1.5-1.2
		c-0.17,0.37-0.34,0.76-0.53,1.19c0.48,0,0.84,0,1.15,0c-0.23-2.52-0.33-5-0.34-7.5c-0.13,0.4-0.22,0.8-0.27,1.2
		c-0.03,0.26-0.12,0.46-0.4,0.49c-0.87,0.1-1.73,0.26-2.6,0.26c-1.4,0-2.42-1.01-3.67-1.53c0.38-0.71,0.74-1.38,1.1-2.05
		c-0.15,0.09-0.28,0.21-0.37,0.35c-1.01,1.56-2.1,3.07-2.98,4.7c-0.63,1.17-0.69,2.5,0.03,3.73c0.07,0.13,0.2,0.29,0.33,0.31
		c0.38,0.06,0.77,0.06,1.2,0.08c-0.5-0.77-1.23-3.47-1.07-3.89c0.13,0.02,0.27,0.03,0.44,0.05c0.03-0.17,0.12-0.34,0.07-0.44
		c-0.25-0.47,0.1-0.73,0.3-1.05c0.13-0.21,0.28-0.41,0.41-0.62c0.42-0.63,0.61-0.68,1.26-0.27c0.18,0.12,0.36,0.26,0.52,0.4
		c0.21,0.19,0.25,0.43,0.07,0.67c-0.14,0.18-0.26,0.33-0.1,0.58c0.05,0.07-0.01,0.28-0.09,0.34c-0.07,0.05-0.24,0-0.35-0.04
		C49.88,31.28,49.79,31.19,49.66,31.11z M58.43,35.56c-0.23-1.3-0.45-2.57-0.68-3.83c-0.19,0.33-0.33,0.65-0.4,0.98
		c-0.19,0.79-0.23,1.56,0.18,2.33C57.76,35.49,58.04,35.63,58.43,35.56z"/>
	<path class="st1" d="M99.25,79.99c-0.26,1.06-0.46,2.13-0.77,3.17c-2.62,8.79-10.86,14.39-20,13.63
		c-8.59-0.72-15.82-7.56-17.05-16.12c-1.55-10.79,5.92-20.55,16.68-21.8c10.2-1.19,19.61,6.15,20.96,16.36
		c0.02,0.14,0.12,0.28,0.18,0.42C99.25,77.09,99.25,78.54,99.25,79.99z M84,75.64c-1.98,0-3.83-0.02-5.68,0.01
		c-0.72,0.01-1.45,0.07-2.15,0.23c-0.67,0.15-1.21,0.54-1.08,1.41c0.67,0.03,1.31,0.06,1.94,0.09c0,2.31,0,4.53,0,6.75
		c-0.37,0.05-0.67,0.1-0.99,0.15c0,0.79,0,1.53,0,2.27c3.16,0,6.26,0,9.35,0c0-0.8,0-1.54,0-2.29c-0.49-0.05-0.91-0.09-1.4-0.13
		c0-1.5,0-2.91,0-4.32C84,78.37,84,76.93,84,75.64z M80.09,72.98c1.57-0.1,2.87-0.64,3.75-1.94c1.01-1.48,0.37-3.54-1.23-4.05
		c-1.7-0.54-3.95,0.29-4.86,1.84c-0.55,0.93-0.63,1.9-0.08,2.87C78.2,72.66,79.13,72.92,80.09,72.98z"/>
	<path class="st1" d="M32.57,30.28c0-0.51,0-0.89,0-1.26c0-7.03,0-14.05,0-21.08c0-2.42,0.96-3.39,3.36-3.39
		c15.5,0,31.01,0.03,46.51-0.03c2.09-0.01,3.3,1.29,3.29,3.29c-0.05,14.72-0.03,29.43-0.03,44.15c0,0.37,0,0.74,0,1.2
		c-1.07-0.17-2.01-0.31-3.07-0.48c0-14.98,0-29.96,0-44.99c-15.66,0-31.21,0-46.84,0c0,28.39,0,56.76,0,85.26c0.4,0,0.8,0,1.2,0
		c7.34,0,14.68,0.01,22.03-0.02c0.78,0,1.28,0.23,1.74,0.85c0.56,0.75,1.23,1.42,1.93,2.22c-0.35,0.02-0.61,0.06-0.87,0.06
		c-19.13,0-38.25,0.01-57.38,0.01c-1.47,0-1.97-0.5-1.97-1.98c0-20.39,0-40.77,0-61.16c0-1.78,0.86-2.64,2.68-2.64
		c8.73,0,17.46,0,26.19,0C31.69,30.28,32.07,30.28,32.57,30.28z M5.59,33.48c0,19.82,0,39.58,0,59.38c9.01,0,17.96,0,26.91,0
		c0-19.84,0-39.6,0-59.38C23.5,33.48,14.57,33.48,5.59,33.48z"/>
	<path class="st1" d="M59.15,51.16c-5.35,0-10.71,0-16.06,0c-1.37,0-1.75-0.36-1.75-1.72c-0.01-4.06-0.01-8.12,0-12.19
		c0-1.28,0.4-1.69,1.71-1.69c10.74-0.01,21.48-0.01,32.21,0c1.32,0,1.68,0.38,1.69,1.69c0,4.09,0.01,8.19,0,12.28
		c0,1.24-0.39,1.62-1.64,1.62C69.92,51.16,64.54,51.16,59.15,51.16z"/>
	<path class="st2" d="M84,75.64c0,1.29,0,2.73,0,4.17c0,1.41,0,2.83,0,4.32c0.49,0.05,0.91,0.09,1.4,0.13c0,0.76,0,1.49,0,2.29
		c-3.09,0-6.19,0-9.35,0c0-0.75,0-1.49,0-2.27c0.31-0.05,0.62-0.09,0.99-0.15c0-2.23,0-4.44,0-6.75c-0.63-0.03-1.28-0.06-1.94-0.09
		c-0.13-0.87,0.41-1.26,1.08-1.41c0.7-0.16,1.43-0.22,2.15-0.23C80.17,75.62,82.02,75.64,84,75.64z"/>
	<path class="st2" d="M80.09,72.98c-0.96-0.06-1.88-0.32-2.42-1.28c-0.54-0.96-0.46-1.94,0.08-2.87c0.91-1.55,3.15-2.39,4.86-1.84
		c1.6,0.51,2.24,2.57,1.23,4.05C82.96,72.34,81.65,72.88,80.09,72.98z"/>
	<path class="st1" d="M12.66,47.6c4.3,0,8.47,0,12.75,0c0,1.66,0.02,3.28-0.03,4.91c0,0.16-0.41,0.44-0.64,0.44
		c-3.8,0.03-7.61,0.03-11.41,0c-0.23,0-0.64-0.34-0.64-0.54C12.64,50.84,12.66,49.28,12.66,47.6z"/>
	<path class="st1" d="M25.41,75.12c0,1.64,0.02,3.27-0.03,4.89c0,0.16-0.41,0.45-0.63,0.45c-3.81,0.03-7.62,0.02-11.42,0.03
		c-0.48,0-0.67-0.18-0.67-0.67c0.02-1.54,0.01-3.08,0.01-4.71C16.91,75.12,21.1,75.12,25.41,75.12z"/>
	<path class="st4" d="M20.4,45.38c-0.04,0.12-0.08,0.23-0.13,0.35c-0.09,0.26-0.16,0.54-0.29,0.77c-0.2,0.34-0.26,0.69-0.12,1.1
		c-0.23-0.05-0.41-0.1-0.56-0.14c-0.01-0.13-0.02-0.24-0.02-0.34c0-0.05,0.01-0.1,0.02-0.14c0.02-0.05,0.05-0.09,0.08-0.13
		c0.45-0.52,0.49-1.09,0.2-1.7c-0.04-0.09-0.07-0.19-0.11-0.28c0-0.01-0.01-0.01-0.02-0.03c-0.26,0.06-0.51,0.13-0.78,0.18
		c-0.51,0.09-0.99-0.02-1.47-0.18c-0.54-0.18-0.8-0.01-0.89,0.55c-0.07,0.46,0.04,0.87,0.34,1.24c0.24,0.3,0.45,0.62,0.71,0.98
		c-0.27,0-0.47,0-0.7,0c-0.19-0.43-0.37-0.88-0.58-1.31c-0.22-0.44-0.47-0.86-0.71-1.28c-0.61,0.49-0.84,1.51-0.56,2.59
		c-0.21,0-0.42,0-0.59,0c-0.04-0.19-0.1-0.36-0.12-0.54c-0.01-0.1,0.01-0.22,0.04-0.32c0.07-0.31,0.16-0.61,0.23-0.92
		c-0.02-0.01-0.05-0.02-0.07-0.03c-0.07,0.14-0.14,0.28-0.22,0.44c-0.09-0.36-0.19-0.7-0.24-1.04c-0.02-0.15,0.06-0.32,0.1-0.48
		c0.07-0.24,0.18-0.47,0.21-0.72c0.05-0.42,0.06-0.85,0.09-1.27c0.08-1.04,0.77-1.6,1.77-1.68c0.41-0.03,0.83,0.03,1.24,0.11
		c0.94,0.19,1.84,0.11,2.72-0.25c0.51-0.21,1.01-0.2,1.54-0.06c0.33,0.09,0.68,0.08,1.03,0.09c0.1,0,0.21-0.06,0.32-0.09
		c-0.44-0.48-0.47-0.72-0.11-1.05c0,0.07,0.01,0.12,0.01,0.18c0.01,0.41,0.23,0.57,0.64,0.49c0.12-0.03,0.25-0.03,0.38-0.01
		c0.48,0.1,0.66-0.04,0.67-0.54c0-0.03,0.01-0.06,0.01-0.1c0.39,0.28,0.34,0.6-0.18,1.04c0.07,0.08,0.14,0.16,0.21,0.24
		c0.12,0.14,0.2,0.27,0.13,0.48c-0.03,0.1,0.03,0.25,0.09,0.35c0.08,0.14,0.21,0.25,0.31,0.37c0.1,0.12,0.23,0.26,0.11,0.4
		c-0.12,0.14-0.28,0.27-0.45,0.31c-0.23,0.06-0.48,0.03-0.73,0.03c-0.09,0-0.19,0-0.28-0.03c-0.21-0.07-0.39-0.02-0.55,0.11
		c-0.3,0.25-0.6,0.5-0.87,0.78c-0.1,0.1-0.16,0.28-0.18,0.43c-0.02,0.2-0.11,0.32-0.28,0.38c-0.46,0.14-0.65,0.45-0.61,0.93
		c0.01,0.16-0.01,0.34-0.07,0.5C21,46.43,21.04,46.72,21.2,47c0.11,0.19,0.21,0.38,0.32,0.6c-0.23,0-0.43,0-0.57,0
		c-0.11-0.15-0.22-0.26-0.27-0.4c-0.05-0.12-0.04-0.26-0.02-0.39C20.72,46.31,20.66,45.84,20.4,45.38z M14.86,41.87
		c-0.63,0.94-0.34,2.01-0.44,3.02C14.95,43.95,14.98,42.92,14.86,41.87z"/>
	<path class="st4" d="M17.18,74.32c0.02,0.13,0.02,0.28-0.02,0.39c-0.05,0.14-0.17,0.25-0.27,0.4c-0.14,0-0.34,0-0.57,0
		c0.12-0.21,0.22-0.41,0.32-0.6c0.16-0.28,0.2-0.56,0.08-0.88c-0.06-0.15-0.08-0.33-0.07-0.5c0.04-0.48-0.15-0.78-0.61-0.93
		c-0.18-0.05-0.27-0.17-0.28-0.38c-0.01-0.15-0.07-0.33-0.18-0.43c-0.27-0.28-0.57-0.53-0.87-0.78c-0.16-0.13-0.34-0.18-0.55-0.11
		c-0.09,0.03-0.18,0.03-0.28,0.03c-0.24,0-0.5,0.03-0.73-0.03c-0.17-0.04-0.33-0.18-0.45-0.31c-0.12-0.14,0.01-0.28,0.11-0.4
		c0.11-0.12,0.23-0.23,0.31-0.37c0.06-0.1,0.12-0.25,0.09-0.35c-0.07-0.21,0.01-0.34,0.13-0.48c0.07-0.08,0.14-0.16,0.21-0.24
		c-0.52-0.44-0.58-0.77-0.18-1.04c0,0.04,0.01,0.07,0.01,0.1c0.01,0.5,0.19,0.63,0.67,0.54c0.12-0.02,0.25-0.02,0.38,0.01
		c0.4,0.09,0.63-0.08,0.64-0.49c0-0.05,0-0.1,0.01-0.18c0.36,0.33,0.33,0.57-0.11,1.05c0.12,0.03,0.22,0.09,0.32,0.09
		c0.34-0.02,0.7-0.01,1.03-0.09c0.53-0.14,1.03-0.15,1.54,0.06c0.88,0.36,1.78,0.44,2.72,0.25c0.4-0.08,0.83-0.14,1.24-0.11
		c1,0.08,1.7,0.64,1.77,1.68c0.03,0.42,0.04,0.85,0.09,1.27c0.03,0.24,0.14,0.48,0.21,0.72c0.04,0.16,0.12,0.33,0.1,0.48
		c-0.05,0.34-0.15,0.67-0.24,1.04c-0.08-0.16-0.15-0.3-0.22-0.44c-0.02,0.01-0.05,0.02-0.07,0.03c0.08,0.3,0.16,0.61,0.23,0.92
		c0.03,0.11,0.05,0.22,0.04,0.32c-0.02,0.18-0.08,0.36-0.12,0.54c-0.17,0-0.38,0-0.59,0c0.28-1.08,0.04-2.1-0.56-2.59
		c-0.24,0.42-0.49,0.84-0.71,1.28c-0.21,0.43-0.39,0.88-0.58,1.31c-0.23,0-0.43,0-0.7,0c0.26-0.36,0.47-0.68,0.71-0.98
		c0.3-0.37,0.41-0.78,0.34-1.24c-0.08-0.56-0.34-0.73-0.89-0.55c-0.48,0.16-0.97,0.27-1.47,0.18c-0.26-0.05-0.52-0.12-0.78-0.18
		c-0.01,0.01-0.02,0.02-0.02,0.03c-0.04,0.09-0.07,0.19-0.11,0.28c-0.3,0.61-0.25,1.18,0.2,1.7c0.03,0.04,0.07,0.08,0.08,0.13
		c0.02,0.04,0.03,0.1,0.02,0.14c0,0.11-0.01,0.21-0.02,0.34c-0.14,0.04-0.33,0.08-0.56,0.14c0.14-0.41,0.08-0.75-0.12-1.1
		c-0.14-0.23-0.2-0.51-0.29-0.77c-0.04-0.12-0.08-0.23-0.13-0.35C17.18,73.36,17.12,73.83,17.18,74.32z M23.42,72.42
		c-0.1-1.01,0.18-2.09-0.44-3.02C22.86,70.44,22.89,71.47,23.42,72.42z"/>
</g>
</svg>
