<?xml version="1.0" encoding="utf-8"?>
<!-- Generator: Adobe Illustrator 23.0.5, SVG Export Plug-In . SVG Version: 6.00 Build 0)  -->
<svg version="1.1" id="Layer_1" xmlns="http://www.w3.org/2000/svg" xmlns:xlink="http://www.w3.org/1999/xlink" x="0px" y="0px"
	 viewBox="0 0 100 100" style="enable-background:new 0 0 100 100;" xml:space="preserve">
<style type="text/css">
	.st0{fill-rule:evenodd;clip-rule:evenodd;fill:#573B17;}
	.st1{fill:#573B17;}
	.st2{fill:#FFFFFF;}
</style>
<path class="st0" d="M74.73,76.89c4.46-0.01,8.09,3.59,8.1,8.06c0.01,4.46-3.59,8.09-8.06,8.1s-8.09-3.59-8.1-8.06
	c-0.01-2.15,0.84-4.21,2.35-5.73C70.54,77.75,72.59,76.9,74.73,76.89z M43.4,90.58H7.98c-3.42-0.02-6.18-2.79-6.2-6.21V7.93
	c0.01-3.42,2.78-6.19,6.2-6.2h75.26c1.64,0.01,3.21,0.66,4.37,1.82l0.21,0.23c1.02,1.14,1.59,2.62,1.59,4.15V66.6
	c-0.79-0.39-1.59-0.75-2.38-1.07c-1.15-0.45-2.33-0.84-3.52-1.17V7.93V7.81l-0.06-0.06c-0.04-0.05-0.11-0.08-0.17-0.09H7.98
	c-0.14,0-0.26,0.12-0.26,0.26v76.45c0.02,0.14,0.13,0.24,0.26,0.26h33.75v0.28v0.07c-0.09,2.01,0.51,3.99,1.7,5.61L43.4,90.58z
	 M50.07,83.84c1.26-1.53,2.63-2.97,4.09-4.31c5.72-5.2,12.85-8.62,19.57-8.72c6.72-0.1,14.19,2.99,20.66,8.32
	c1.78,1.46,3.45,3.05,5,4.76c0.5,0.56,0.54,1.4,0.09,2.01c-1.72,2.45-3.78,4.64-6.11,6.52c-5.11,4.08-11.77,6.73-17.86,6.77
	c-6.09,0.04-12.84-2.54-18.24-6.34c-2.74-1.95-5.19-4.27-7.29-6.91c-0.48-0.61-0.45-1.49,0.09-2.06L50.07,83.84z M56.27,81.85
	c-1.06,0.97-2.07,2-3.02,3.08c1.71,2,3.67,3.78,5.81,5.3c4.87,3.47,11.01,5.84,16.46,5.79s11.37-2.47,15.92-6.1
	c1.78-1.43,3.38-3.08,4.76-4.89c-1.19-1.25-2.45-2.43-3.78-3.53c-5.86-4.83-12.69-7.72-18.61-7.6c-5.92,0.12-12.36,3.26-17.51,7.93
	L56.27,81.85z M72.46,78.46c1.73,0,3.14,1.39,3.14,3.12c0,1.73-1.39,3.14-3.12,3.14c-1.72,0-3.12-1.38-3.14-3.09
	C69.33,79.9,70.72,78.49,72.46,78.46z"/>
<g>
	<path class="st1" d="M45.52,67.77c0.93,1.92,1.42,3.97,1.78,6.08c-0.14-0.26-0.27-0.52-0.41-0.78c-0.81-1.55-1.58-3.11-2.43-4.64
		c-0.92-1.67-2.12-3.13-3.53-4.42c-0.28-0.25-0.57-0.38-0.97-0.32c-0.85,0.11-1.63-0.16-2.41-0.48c-0.22-0.09-0.5-0.05-0.75-0.05
		c-0.09,0-0.17,0.06-0.26,0.06c-1.95,0.08-3.9,0.29-5.84-0.15c-1.01-0.22-1.57-0.89-2.09-1.66c-0.09-0.13-0.04-0.34-0.06-0.57
		c-0.18,0.03-0.38,0.04-0.57,0.09c-0.84,0.21-1.32,0.03-1.78-0.72c-0.56-0.91-0.83-1.94-0.95-2.99c-0.17-1.44-0.06-2.88,0.11-4.32
		c0.16-1.35,0.85-2.43,1.71-3.42c0.65-0.75,1.42-1.39,2.02-2.18c0.6-0.78,1.1-1.65,1.52-2.54c0.22-0.46,0.23-1.05,0.22-1.58
		c-0.02-0.88-0.13-1.76-0.2-2.64c-0.01-0.12-0.02-0.24-0.04-0.36c-0.08-0.51-0.12-0.54-0.6-0.35c-0.38,0.15-0.76,0.29-1.13,0.45
		c-2.51,1.16-4.9,0.76-7.2-0.57c-1.42-0.82-2.46-1.97-2.94-3.57c-0.07-0.25-0.08-0.54-0.03-0.79c0.31-1.49,1.31-2.48,2.52-3.27
		c1.32-0.87,2.78-1.44,4.34-1.71c0.99-0.18,1.92,0.07,2.79,0.51c0.48,0.24,0.94,0.53,1.38,0.77c1.05-1.07,2.09-2.14,3.17-3.24
		c-0.81-0.27-1.57-0.49-2.31-0.77c-2.27-0.85-4.28-2.07-5.71-4.09c-1.18-1.68-1.67-3.55-1.54-5.59c0.01-0.15,0.05-0.31,0.09-0.56
		c0.39,0.5,0.7,0.92,1.03,1.32c1.6,1.95,3.41,3.64,5.76,4.69c0.94,0.42,1.92,0.68,2.96,0.74c0.36,0.02,0.69-0.03,0.95-0.3
		c0.64-0.67,1.44-0.91,2.34-0.82c1.23,0.12,2.3-0.3,3.34-0.9c1.21-0.71,2.36-1.6,3.91-1.49c0-0.04,0.01-0.09,0.01-0.13
		c-0.2-0.16-0.4-0.32-0.59-0.48c0.02-0.04,0.03-0.09,0.05-0.13c0.74,0.2,1.47,0.41,2.33,0.64c-0.25-0.27-0.43-0.47-0.61-0.66
		c0.03-0.03,0.06-0.07,0.09-0.1c0.26,0.22,0.55,0.42,0.78,0.67c0.2,0.21,0.34,0.24,0.61,0.11c0.95-0.49,1.95-0.65,3.09-0.45
		c-0.55,0.27-1.01,0.49-1.47,0.72c0.01,0.03,0.02,0.06,0.04,0.09c0.37,0.03,0.76-0.02,1.09,0.11c0.71,0.27,1.4,0.6,2.07,0.96
		c0.89,0.47,1.76,0.98,2.64,1.47c0.52,0.29,1.07,0.38,1.66,0.33c0.21-0.02,0.42-0.01,0.63-0.04c1-0.12,1.71,0.29,2.11,1.19
		c0.19,0.44,0.47,0.45,0.86,0.42c2.04-0.2,3.66-1.15,4.86-2.78c1.12-1.51,1.93-3.19,2.04-5.08c0.06-0.98-0.2-1.99-0.33-2.99
		c-0.07-0.55-0.19-1.1-0.27-1.65c-0.02-0.17,0-0.34,0-0.64c0.14,0.19,0.22,0.26,0.26,0.35c0.9,2.33,1.83,4.67,2.12,7.16
		c0.42,3.74-1.14,6.5-4.55,8.32c-1.69,0.9-3.51,1.42-5.43,1.7c0.02,0.11,0.03,0.21,0.06,0.3c0.5,1.45,2.29,2.44,3.77,2.05
		c1.03-0.27,2.06-0.57,3.08-0.87c1.19-0.35,2.36-0.35,3.55,0.02c1.85,0.57,3.66,1.23,5.12,2.57c1.52,1.4,1.61,3.04,0.29,4.63
		c-0.73,0.89-1.67,1.52-2.67,2.04c-1.9,0.99-3.92,1.62-6.03,1.93c-0.77,0.11-1.5-0.01-2.19-0.36c-1.22-0.64-2.43-1.3-3.74-1.99
		c-0.11,0.64-0.25,1.32-0.33,2.01c-0.14,1.11,0.24,2.17,0.38,3.25c0.25,1.86,0.4,3.74,0.49,5.61c0.24,5.11-1.5,9.56-4.59,13.55
		c-0.28,0.36-0.6,0.67-0.91,1c-0.23,0.25-0.5,0.26-0.78,0.09c-0.58-0.35-1.13-0.75-1.36-1.45c-0.21-0.67-0.47-1.34-0.63-2.02
		c-0.23-0.99-0.77-1.77-1.53-2.39c-0.27-0.22-0.75-0.26-1.14-0.25c-0.38,0.01-0.75,0.19-1.13,0.29c-0.46,0.11-0.92,0.25-1.39,0.3
		c-0.57,0.07-0.94,0.33-1.03,0.83c-0.08,0.46,0.16,0.79,0.67,1.04c0.24,0.12,0.49,0.28,0.64,0.48c0.56,0.78,1.13,1.55,1.6,2.39
		c0.46,0.82,1.24,1.29,2.17,1.14c1.38-0.23,1.87,0.22,1.76,1.61c-0.12,1.49-0.99,5.43-1.46,6.57
		C49.18,71.68,47.45,69.65,45.52,67.77z M34.17,27.03c0.12-0.19,0.18-0.34,0.29-0.45c0.11-0.12,0.26-0.21,0.4-0.31
		c0.04,0.17,0.17,0.39,0.11,0.52c-0.27,0.61-0.51,1.27-0.92,1.78c-0.55,0.67-1.24,1.23-1.88,1.81c-0.85,0.77-0.86,0.79-0.11,1.69
		c0.6,0.71,1.07,1.49,1.21,2.43c0.52,3.52-0.04,6.9-1.51,10.11c-0.9,1.97-2.15,3.72-3.75,5.2c-0.12,0.11-0.25,0.36-0.21,0.48
		c0.05,0.13,0.29,0.23,0.46,0.26c0.65,0.11,1.31,0.18,1.96,0.28c0.9,0.14,1.8,0.37,2.73,0.19c0.94-0.18,1.89-0.33,2.84-0.49
		c1.01-0.16,1.76,0.25,2.29,1.09c1.18,1.86,1.69,3.77,0.48,5.85c-0.34,0.59-0.58,1.26-0.82,1.9c-0.22,0.6-0.13,0.9,0.47,1.12
		c0.81,0.31,1.65,0.59,2.5,0.72c1.48,0.24,1.87,0,2.55-1.33c0.44-0.86,0.81-1.75,1.29-2.58c0.19-0.34,0.55-0.6,0.87-0.86
		c0.31-0.25,0.71-0.41,1-0.68c0.75-0.68,1.12-1.53,0.89-2.55c-0.23-1.03-0.87-1.71-1.91-1.95c-0.52-0.12-1.08-0.13-1.6-0.25
		c-0.44-0.1-0.96-0.19-1.28-0.47c-1.56-1.38-2.74-3.06-3.64-4.94c-0.31-0.65-0.39-1.3-0.12-2c0.29-0.76,0.45-1.56,0.77-2.3
		c0.67-1.53,1.41-3.02,2.12-4.53c0.26-0.55,0.71-0.85,1.3-0.92c1.07-0.12,1.84-0.67,2.38-1.59c0.08-0.14,0.18-0.28,0.3-0.4
		c0.79-0.82,1.54-1.7,2.4-2.43c0.86-0.73,1.89-0.9,2.95-0.32c0.85,0.46,1.7,0.93,2.5,1.37c-0.12-0.18-0.31-0.41-0.45-0.67
		c-0.49-0.89-1-1.78-1.43-2.7c-0.11-0.24-0.09-0.67,0.05-0.88c0.74-1.09,2.37-1.29,3.39-0.47c0.31,0.25,0.6,0.53,0.97,0.86
		c-0.14-1.46-0.36-2.87,1.48-3.54c-0.37-0.25-0.58-0.49-0.85-0.55c-0.37-0.09-0.78-0.09-1.16-0.04c-1.28,0.17-2.4-0.15-3.45-0.88
		c-0.69-0.48-1.41-0.91-2.12-1.36c-0.07-0.05-0.16-0.06-0.28-0.09c0.17,0.24,0.3,0.43,0.47,0.67c-0.46-0.14-0.83-0.26-1.2-0.37
		c-0.02,0.04-0.04,0.08-0.06,0.11c0.23,0.3,0.45,0.6,0.68,0.91c-0.64-0.26-1.22-0.55-1.79-0.88c-1.31-0.75-2.58-0.67-3.83,0.15
		c-0.39,0.25-0.78,0.49-1.17,0.73c-0.02-0.02-0.04-0.04-0.06-0.06c0.26-0.36,0.52-0.72,0.78-1.07c-0.02-0.03-0.04-0.06-0.05-0.09
		c-0.85,0.22-1.7,0.43-2.61,0.66c0.16-0.21,0.3-0.38,0.43-0.55c-1.6,0.98-3.31,1.45-5.15,1.53c-0.5,0.02-1.05,0.29-1.48,0.58
		C33.86,24.99,33.67,26.18,34.17,27.03z M47.03,40.03c0.11-0.07,0.21-0.14,0.32-0.21c0.73-0.55,1.53-0.75,2.42-0.5
		c0.35,0.09,0.7,0.17,1.06,0.24c0.88,0.17,1.69-0.24,2.07-1.05c0.26-0.54,0.21-1.34-0.11-1.66c0,0.24,0.01,0.48,0,0.72
		c-0.08,1.23-0.88,1.81-2.09,1.54c-0.56-0.12-1.12-0.24-1.68-0.34c-0.28-0.05-0.39-0.17-0.26-0.42c0.3-0.58,0.56-1.21,0.95-1.72
		c0.95-1.26,1.57-1.39,3.04-0.79c0.35,0.15,0.7,0.31,1.05,0.47c-0.11-0.27-0.28-0.48-0.47-0.66c-0.84-0.75-2.34-1.12-3.26-0.31
		C48.61,36.61,47.81,38.3,47.03,40.03z M55.26,49.03c-0.32,1.9-0.81,3.74-1.66,5.49c-0.88,1.79-2.38,2.98-3.83,4.24
		c1.54-0.9,3.22-1.61,4.16-3.29C55.04,53.45,55.33,51.28,55.26,49.03z M36.24,52.36c-0.34,0.39-0.59,0.85-0.97,1.07
		c-0.67,0.4-1.07,0.96-1.33,1.64c-0.38,1.02-0.23,1.98,0.49,2.82c0.19,0.22,0.45,0.41,0.7,0.21c0.25-0.2,0.44-0.5,0.59-0.79
		c0.02-0.05-0.29-0.32-0.48-0.42c-0.65-0.33-0.85-0.67-0.65-1.38c0.1-0.34,0.26-0.68,0.48-0.95c0.35-0.43,0.76-0.8,1.17-1.18
		C36.79,52.89,36.78,52.73,36.24,52.36z M26.97,52.85c-0.04,0-0.07,0-0.11,0c0.06,0.3,0.08,0.61,0.2,0.89
		c0.28,0.68,0.62,1.34,0.91,2.01c0.22,0.5,0.17,0.59-0.34,0.81c-0.24,0.1-0.44,0.22-0.39,0.52c0.07,0.4,0.28,0.73,0.69,0.8
		c0.18,0.03,0.52-0.15,0.57-0.3c0.13-0.42,0.23-0.88,0.18-1.31c-0.1-0.85-0.5-1.6-0.99-2.3C27.43,53.61,27.21,53.22,26.97,52.85z
		 M32.37,38.85C32.34,38.93,32.37,38.89,32.37,38.85c-0.01-1.35-0.47-2.56-1.16-3.68c-0.13-0.22-0.38-0.38-0.59-0.54
		c-0.08-0.06-0.26-0.08-0.32-0.03c-0.26,0.25-0.5,0.54-0.83,0.9c0.29-0.05,0.48-0.07,0.65-0.12c0.42-0.13,0.8,0,0.97,0.36
		c0.33,0.7,0.64,1.42,0.84,2.16c0.14,0.51-0.38,0.83-0.87,0.6c-0.15-0.07-0.3-0.16-0.47-0.25c-0.05,0.44,0.18,0.69,0.54,0.66
		C31.52,38.88,31.91,38.87,32.37,38.85z M51.65,36.1c-0.23,0.23-0.5,0.44-0.47,0.49c0.13,0.23,0.34,0.42,0.52,0.62
		c0.15-0.17,0.41-0.34,0.41-0.5C52.1,36.53,51.85,36.35,51.65,36.1z M30.45,36.34c0.27,0.19,0.28,0.69,0.73,0.45
		c0.09-0.05,0.15-0.34,0.09-0.44C31.06,35.99,30.78,36.12,30.45,36.34z"/>
	<path class="st2" d="M34.17,27.03c-0.5-0.85-0.32-2.03,0.44-2.55c0.43-0.29,0.97-0.56,1.48-0.58c1.85-0.09,3.56-0.55,5.15-1.53
		c-0.13,0.17-0.27,0.34-0.43,0.55c0.91-0.23,1.76-0.44,2.61-0.66c0.02,0.03,0.04,0.06,0.05,0.09c-0.26,0.36-0.52,0.72-0.78,1.07
		c0.02,0.02,0.04,0.04,0.06,0.06c0.39-0.24,0.79-0.48,1.17-0.73c1.25-0.82,2.52-0.9,3.83-0.15c0.57,0.33,1.15,0.62,1.79,0.88
		c-0.23-0.3-0.45-0.6-0.68-0.91c0.02-0.04,0.04-0.08,0.06-0.11c0.37,0.11,0.74,0.23,1.2,0.37c-0.17-0.24-0.3-0.43-0.47-0.67
		c0.12,0.04,0.21,0.05,0.28,0.09c0.71,0.45,1.43,0.89,2.12,1.36c1.05,0.72,2.18,1.05,3.45,0.88c0.38-0.05,0.79-0.04,1.16,0.04
		c0.26,0.06,0.48,0.3,0.85,0.55c-1.84,0.67-1.62,2.09-1.48,3.54c-0.38-0.33-0.67-0.61-0.97-0.86c-1.02-0.83-2.66-0.62-3.39,0.47
		c-0.15,0.21-0.16,0.64-0.05,0.88c0.43,0.92,0.94,1.81,1.43,2.7c0.14,0.26,0.33,0.49,0.45,0.67c-0.8-0.44-1.65-0.91-2.5-1.37
		c-1.06-0.57-2.08-0.41-2.95,0.32c-0.86,0.73-1.61,1.61-2.4,2.43c-0.11,0.12-0.21,0.26-0.3,0.4c-0.54,0.92-1.31,1.46-2.38,1.59
		c-0.6,0.07-1.04,0.37-1.3,0.92c-0.71,1.51-1.45,3-2.12,4.53c-0.32,0.74-0.49,1.55-0.77,2.3c-0.27,0.7-0.19,1.35,0.12,2
		c0.89,1.88,2.07,3.57,3.64,4.94c0.32,0.28,0.84,0.36,1.28,0.47c0.53,0.12,1.08,0.13,1.6,0.25c1.03,0.24,1.68,0.92,1.91,1.95
		c0.23,1.02-0.14,1.87-0.89,2.55c-0.3,0.27-0.69,0.43-1,0.68c-0.32,0.26-0.68,0.52-0.87,0.86c-0.47,0.84-0.85,1.73-1.29,2.58
		c-0.68,1.33-1.07,1.57-2.55,1.33c-0.85-0.14-1.69-0.41-2.5-0.72c-0.59-0.23-0.68-0.52-0.47-1.12c0.23-0.65,0.47-1.31,0.82-1.9
		c1.2-2.08,0.69-3.99-0.48-5.85c-0.53-0.84-1.28-1.25-2.29-1.09c-0.95,0.15-1.9,0.31-2.84,0.49c-0.93,0.18-1.82-0.06-2.73-0.19
		c-0.65-0.1-1.31-0.17-1.96-0.28c-0.17-0.03-0.41-0.14-0.46-0.26c-0.04-0.12,0.09-0.36,0.21-0.48c1.59-1.49,2.84-3.23,3.75-5.2
		c1.47-3.22,2.03-6.59,1.51-10.11c-0.14-0.94-0.61-1.72-1.21-2.43c-0.75-0.89-0.74-0.91,0.11-1.69c0.64-0.59,1.33-1.14,1.88-1.81
		c0.41-0.51,0.65-1.17,0.92-1.78c0.06-0.13-0.07-0.34-0.11-0.52c-0.13,0.1-0.28,0.19-0.4,0.31C34.36,26.69,34.29,26.84,34.17,27.03z
		"/>
	<path class="st2" d="M47.03,40.03c0.77-1.73,1.58-3.42,3.03-4.69c0.92-0.81,2.43-0.44,3.26,0.31c0.19,0.17,0.36,0.38,0.47,0.66
		c-0.35-0.16-0.69-0.32-1.05-0.47c-1.47-0.6-2.08-0.47-3.04,0.79c-0.39,0.52-0.65,1.14-0.95,1.72c-0.13,0.25-0.02,0.37,0.26,0.42
		c0.56,0.09,1.12,0.21,1.68,0.34c1.21,0.27,2.01-0.32,2.09-1.54c0.02-0.24,0-0.48,0-0.72c0.31,0.32,0.36,1.12,0.11,1.66
		c-0.38,0.81-1.19,1.22-2.07,1.05c-0.35-0.07-0.71-0.14-1.06-0.24c-0.9-0.24-1.69-0.04-2.42,0.5
		C47.25,39.89,47.14,39.96,47.03,40.03z"/>
	<path class="st2" d="M55.26,49.03c0.07,2.25-0.22,4.42-1.34,6.43c-0.94,1.69-2.61,2.39-4.16,3.29c1.45-1.26,2.95-2.45,3.83-4.24
		C54.45,52.77,54.94,50.93,55.26,49.03z"/>
	<path class="st2" d="M36.24,52.36c0.55,0.37,0.55,0.53,0.02,1.02c-0.41,0.38-0.82,0.75-1.17,1.18c-0.22,0.27-0.38,0.61-0.48,0.95
		c-0.2,0.71-0.01,1.05,0.65,1.38c0.19,0.1,0.51,0.37,0.48,0.42c-0.15,0.29-0.34,0.59-0.59,0.79c-0.25,0.2-0.52,0.01-0.7-0.21
		c-0.72-0.84-0.87-1.8-0.49-2.82c0.26-0.69,0.66-1.25,1.33-1.64C35.65,53.21,35.9,52.75,36.24,52.36z"/>
	<path class="st2" d="M26.97,52.85c0.24,0.38,0.46,0.76,0.71,1.13c0.49,0.7,0.89,1.45,0.99,2.3c0.05,0.43-0.05,0.89-0.18,1.31
		c-0.05,0.15-0.39,0.33-0.57,0.3c-0.4-0.07-0.62-0.39-0.69-0.8c-0.05-0.3,0.15-0.42,0.39-0.52c0.52-0.22,0.56-0.3,0.34-0.81
		c-0.29-0.68-0.63-1.33-0.91-2.01c-0.11-0.28-0.13-0.59-0.2-0.89C26.9,52.85,26.94,52.85,26.97,52.85z"/>
	<path class="st2" d="M32.37,38.85c-0.46,0.02-0.85,0.04-1.24,0.06c-0.36,0.03-0.59-0.22-0.54-0.66c0.17,0.09,0.31,0.18,0.47,0.25
		c0.49,0.24,1.01-0.08,0.87-0.6c-0.2-0.74-0.51-1.47-0.84-2.16c-0.17-0.36-0.54-0.49-0.97-0.36c-0.17,0.05-0.36,0.07-0.65,0.12
		c0.33-0.36,0.56-0.65,0.83-0.9c0.05-0.05,0.24-0.03,0.32,0.03c0.21,0.16,0.46,0.32,0.59,0.54C31.9,36.29,32.36,37.5,32.37,38.85
		C32.37,38.89,32.34,38.93,32.37,38.85z"/>
	<path class="st2" d="M51.65,36.1c0.2,0.25,0.45,0.43,0.46,0.61c0,0.17-0.26,0.33-0.41,0.5c-0.18-0.2-0.39-0.39-0.52-0.62
		C51.15,36.54,51.42,36.33,51.65,36.1z"/>
	<path class="st2" d="M30.45,36.34c0.34-0.22,0.62-0.35,0.82,0.01c0.06,0.1,0,0.39-0.09,0.44C30.73,37.03,30.71,36.53,30.45,36.34z"
		/>
</g>
</svg>
