<svg id="Layer_1" data-name="Layer 1" xmlns="http://www.w3.org/2000/svg" xmlns:xlink="http://www.w3.org/1999/xlink" viewBox="0 0 100 100"><defs><style>.cls-1,.cls-10,.cls-15,.cls-16,.cls-9{fill:none;}.cls-2{clip-path:url(#clip-path);}.cls-3{fill:#43a046;}.cls-4{fill:#60bb49;}.cls-12,.cls-14,.cls-5,.cls-8{fill:#fff;}.cls-13,.cls-14,.cls-15,.cls-5{stroke:#ffffff;}.cls-10,.cls-11,.cls-12,.cls-13,.cls-14,.cls-15,.cls-16,.cls-5,.cls-7,.cls-9{stroke-miterlimit:10;}.cls-11,.cls-13,.cls-6,.cls-7{fill:#ffffff;}.cls-10,.cls-11,.cls-12,.cls-16,.cls-7,.cls-9{stroke:#fff;}.cls-11,.cls-14,.cls-9{stroke-width:0.75px;}.cls-10{stroke-width:0.5px;}.cls-15{stroke-width:0.25px;}</style><clipPath id="clip-path"><ellipse class="cls-1" cx="53.67" cy="36.56" rx="62.07" ry="62.26"/></clipPath></defs><g class="cls-2"><path class="cls-3" d="M82.44,73.65a5.35,5.35,0,0,0,1.63-.06s-.36-.71-.38-.75c-.33-.48-1.25-1.23-1.88-1a.77.77,0,0,0-.47,1A1.6,1.6,0,0,0,82.44,73.65Z"/><path class="cls-3" d="M90.15,85.9h.41v0c-.1-.29-.22-.61-.35-.93A8.27,8.27,0,0,0,91,84.4a5.64,5.64,0,0,0,1.41.64c-.07.3-.14.58-.22.86h.4c.07-.28.14-.57.2-.87a5.34,5.34,0,0,0,1.6-.11,1.65,1.65,0,0,0,1-.92.78.78,0,0,0-.58-1c-.65-.11-1.48.73-1.75,1.24,0,0-.16.38-.24.61l.09-.42c0-.28.1-.56.16-.87l.06-.44c0-.15,0-.31,0-.47,0-.36,0-.73,0-1.1a5.24,5.24,0,0,0,1.55.12A1.64,1.64,0,0,0,96,80.91a.77.77,0,0,0-.43-1.07c-.62-.21-1.57.49-1.92,1,0,0-.23.39-.34.6v-.68c0-.65-.06-1.31-.09-2l0-.61a5.27,5.27,0,0,0,1.61.13,1.6,1.6,0,0,0,1.13-.75.77.77,0,0,0-.42-1.07c-.62-.21-1.57.49-1.92,1,0,0-.33.56-.4.7,0-.45,0-.89,0-1.33A12.7,12.7,0,0,1,93.23,75a5.46,5.46,0,0,0,1.62.13A1.58,1.58,0,0,0,96,74.4a.78.78,0,0,0-.42-1.08c-.62-.21-1.57.5-1.92,1,0,0-.35.6-.41.7s0-.07,0-.1a10.06,10.06,0,0,1,.43-1.72c.1-.31.22-.6.34-.88a5,5,0,0,0,1.56.3A1.63,1.63,0,0,0,96.79,72a.77.77,0,0,0-.31-1.11c-.59-.28-1.61.32-2,.75l-.35.47c0-.12.11-.25.17-.37a13.22,13.22,0,0,1,.62-1.2l.32-.54a5.26,5.26,0,0,0,1.52-.45,1.62,1.62,0,0,0,.78-1.12.77.77,0,0,0-.78-.84c-.66,0-1.29,1-1.44,1.59,0,0-.14.83-.13.83h0a5.68,5.68,0,0,0-.32.51c-.21.35-.44.74-.66,1.19a12.7,12.7,0,0,0-.64,1.47,9.71,9.71,0,0,0-.48,1.73v0c0-.19-.11-.72-.13-.76-.16-.56-.8-1.55-1.45-1.58a.79.79,0,0,0-.78.86,1.6,1.6,0,0,0,.8,1.1,5.36,5.36,0,0,0,1.55.45,13.53,13.53,0,0,0-.16,1.82c0,.36,0,.71,0,1.07,0-.16-.06-.31-.06-.33C92.71,77,92.07,76,91.41,76a.77.77,0,0,0-.77.85,1.64,1.64,0,0,0,.79,1.11,5.29,5.29,0,0,0,1.51.44c0,.13,0,.27,0,.41,0,.66,0,1.32,0,2,0,.23,0,.45,0,.68,0-.15,0-.27,0-.29-.16-.56-.8-1.55-1.46-1.58a.78.78,0,0,0-.77.86,1.62,1.62,0,0,0,.79,1.1,4.82,4.82,0,0,0,1.47.43c0,.23,0,.46,0,.69s0,.3-.06.45,0,.3-.07.44-.12.58-.18.85-.09.37-.13.55c0-.22,0-.67,0-.71a3.09,3.09,0,0,0-.61-1.38.85.85,0,0,0,0-.17.78.78,0,0,0-1-.51c-.6.26-.83,1.42-.77,2,0,0,.08.4.13.63L90,84.38c-.11-.27-.22-.53-.35-.81s-.13-.27-.19-.41-.15-.28-.22-.42c-.17-.32-.37-.63-.57-.94A5.46,5.46,0,0,0,90,81a1.65,1.65,0,0,0,.53-1.26.78.78,0,0,0-1-.66c-.63.17-1,1.28-1.07,1.86,0,0,0,.46,0,.69l-.37-.56c-.38-.54-.77-1.07-1.17-1.6L86.68,79a5.36,5.36,0,0,0,1.41-.77A1.65,1.65,0,0,0,88.62,77a.78.78,0,0,0-1-.66c-.63.17-1,1.28-1.07,1.86,0,0,0,.65.06.8-.27-.36-.52-.72-.76-1.08A14.1,14.1,0,0,1,85,76.37a5.36,5.36,0,0,0,1.42-.78A1.63,1.63,0,0,0,87,74.33a.77.77,0,0,0-.94-.65c-.64.16-1,1.27-1.07,1.85,0,0,0,.7.05.82a.41.41,0,0,1-.05-.09,10.53,10.53,0,0,1-.59-1.68c-.08-.31-.14-.62-.2-.92a5.07,5.07,0,0,0,1.46-.61,1.62,1.62,0,0,0,.67-1.19.78.78,0,0,0-.87-.76c-.65.1-1.17,1.16-1.27,1.73,0,0,0,.36,0,.6,0-.14,0-.28-.07-.41-.07-.49-.1-.94-.13-1.34q0-.34,0-.63a5.69,5.69,0,0,0,1-1.21,1.62,1.62,0,0,0,0-1.36.78.78,0,0,0-1.12-.28c-.53.39-.51,1.57-.33,2.12,0,.05.35.77.36.76h0c0,.19,0,.39,0,.61,0,.4.05.86.11,1.35a12.56,12.56,0,0,0,.28,1.58,10,10,0,0,0,.56,1.71v0c-.13-.15-.49-.54-.53-.57-.44-.38-1.52-.85-2.08-.51a.78.78,0,0,0-.18,1.14,1.59,1.59,0,0,0,1.28.48,5.28,5.28,0,0,0,1.54-.48A13.31,13.31,0,0,0,85.74,78c.19.3.39.6.59.89l-.23-.24c-.45-.38-1.53-.85-2.08-.51a.77.77,0,0,0-.18,1.14,1.58,1.58,0,0,0,1.27.48,5,5,0,0,0,1.5-.46l.24.34c.38.54.76,1.08,1.12,1.61.13.19.25.39.37.58l-.2-.21c-.45-.38-1.53-.86-2.09-.52a.77.77,0,0,0-.17,1.14,1.61,1.61,0,0,0,1.27.49,4.82,4.82,0,0,0,1.46-.45c.11.2.23.4.33.6s.14.26.2.4.13.28.19.42.22.54.32.8.13.36.2.53l-.4-.58c-.38-.45-1.38-1.08-2-.82a.77.77,0,0,0-.35,1.1,1.65,1.65,0,0,0,1.19.67,5.13,5.13,0,0,0,1.58-.25C90,85.41,90.07,85.66,90.15,85.9Z"/><path class="cls-3" d="M94,72.17s.09-.78.09-.83c0-.59-.36-1.71-1-1.91a.78.78,0,0,0-1,.62,1.62,1.62,0,0,0,.47,1.28A5.45,5.45,0,0,0,94,72.17Z"/><path class="cls-3" d="M21.94,75.64a3.05,3.05,0,0,0,.94,0l-.22-.42c-.19-.28-.72-.71-1.08-.6a.44.44,0,0,0-.27.6A.9.9,0,0,0,21.94,75.64Z"/><path class="cls-3" d="M26.36,82.65h.23l-.2-.54a4.79,4.79,0,0,0,.47-.31,3.36,3.36,0,0,0,.81.36c0,.17-.08.34-.12.49h.23c0-.15.07-.32.11-.49a3.26,3.26,0,0,0,.92-.07.92.92,0,0,0,.57-.52.44.44,0,0,0-.33-.57c-.37-.07-.85.41-1,.71,0,0-.09.22-.14.34,0-.08,0-.15.05-.23l.09-.5,0-.26c0-.08,0-.18,0-.27s0-.41,0-.63a2.7,2.7,0,0,0,.89.07.92.92,0,0,0,.65-.43.46.46,0,0,0-.25-.62c-.35-.12-.9.29-1.1.56,0,0-.13.22-.19.34,0-.13,0-.26,0-.39,0-.37,0-.75-.05-1.13,0-.12,0-.23,0-.35a3.08,3.08,0,0,0,.92.08,1,1,0,0,0,.65-.43.45.45,0,0,0-.24-.62c-.36-.12-.9.28-1.1.55,0,0-.19.32-.23.4,0-.25,0-.51,0-.76a8.43,8.43,0,0,1,.06-1,3.08,3.08,0,0,0,.93.08,1,1,0,0,0,.65-.43.45.45,0,0,0-.24-.62c-.36-.12-.9.28-1.1.55,0,0-.2.35-.23.41v-.06a5.61,5.61,0,0,1,.25-1c.06-.18.13-.35.2-.51a2.81,2.81,0,0,0,.89.17.91.91,0,0,0,.69-.36A.44.44,0,0,0,30,74c-.34-.16-.93.18-1.16.42l-.2.28c0-.08.07-.15.1-.22a7,7,0,0,1,.36-.68,2.84,2.84,0,0,1,.18-.31,3.43,3.43,0,0,0,.87-.26,1,1,0,0,0,.45-.64.45.45,0,0,0-.45-.49c-.38,0-.74.59-.83.91,0,0-.08.48-.07.48h0l-.18.29c-.12.2-.25.43-.38.68a7.48,7.48,0,0,0-.37.85,5.49,5.49,0,0,0-.27,1h0c0-.11-.07-.41-.07-.44-.1-.32-.46-.89-.84-.9a.44.44,0,0,0-.44.49.94.94,0,0,0,.45.63,3.16,3.16,0,0,0,.89.26,8.93,8.93,0,0,0-.09,1v.62a1.88,1.88,0,0,1,0-.19c-.1-.32-.46-.89-.84-.9a.44.44,0,0,0-.44.48.93.93,0,0,0,.45.64,2.92,2.92,0,0,0,.87.25v.24c0,.37,0,.75,0,1.12,0,.13,0,.26,0,.39,0-.08,0-.15,0-.16-.09-.32-.46-.89-.83-.9a.45.45,0,0,0-.45.48.94.94,0,0,0,.46.64,2.69,2.69,0,0,0,.84.24l0,.4,0,.25-.05.26c0,.16-.06.33-.1.48s-.05.22-.07.32c0-.13,0-.38,0-.41a1.67,1.67,0,0,0-.35-.79.44.44,0,0,0,0-.1.45.45,0,0,0-.59-.29c-.35.15-.48.81-.45,1.15,0,0,.05.23.08.36l-.09-.22c-.06-.16-.13-.31-.2-.47L26,81.09c0-.08-.08-.16-.12-.24s-.21-.37-.33-.55a2.67,2.67,0,0,0,.78-.43.92.92,0,0,0,.31-.72.46.46,0,0,0-.55-.38c-.36.1-.59.74-.61,1.07,0,0,0,.26,0,.39-.07-.1-.13-.21-.21-.32-.21-.3-.44-.61-.67-.91a2.83,2.83,0,0,0-.2-.28,3.3,3.3,0,0,0,.81-.45.94.94,0,0,0,.3-.72.45.45,0,0,0-.54-.38c-.36.1-.59.74-.61,1.07,0,0,0,.37,0,.46-.15-.21-.3-.41-.44-.62a7.86,7.86,0,0,1-.5-.88,3.34,3.34,0,0,0,.82-.45.94.94,0,0,0,.3-.72.45.45,0,0,0-.54-.38c-.37.1-.6.73-.62,1.07,0,0,0,.4,0,.47s0,0,0-.06a5.25,5.25,0,0,1-.34-1c-.05-.18-.08-.35-.12-.52a3.43,3.43,0,0,0,.84-.35.88.88,0,0,0,.38-.68.44.44,0,0,0-.49-.44c-.37.06-.67.66-.73,1,0,0,0,.21,0,.34,0-.08,0-.16,0-.23,0-.28-.06-.54-.08-.77s0-.25,0-.36a3.27,3.27,0,0,0,.58-.69,1,1,0,0,0,0-.78.44.44,0,0,0-.64-.16c-.31.22-.29.89-.19,1.21,0,0,.2.44.21.44h0c0,.11,0,.23,0,.35s0,.49.06.77a8.32,8.32,0,0,0,.16.91,6.58,6.58,0,0,0,.32,1h0l-.3-.33c-.26-.21-.88-.48-1.2-.29a.44.44,0,0,0-.1.65.94.94,0,0,0,.73.28,3,3,0,0,0,.88-.28,7.63,7.63,0,0,0,.5.93c.11.17.22.34.34.51L24,78.51c-.26-.22-.88-.49-1.19-.29a.45.45,0,0,0-.11.65,1,1,0,0,0,.73.28,2.72,2.72,0,0,0,.86-.27l.14.19c.22.31.44.62.64.93l.21.33a.74.74,0,0,1-.11-.12c-.26-.22-.88-.49-1.2-.29a.44.44,0,0,0-.1.65.89.89,0,0,0,.73.27,2.77,2.77,0,0,0,.84-.25l.19.34a2.4,2.4,0,0,1,.11.23l.11.24c.06.15.13.31.18.46l.12.31L26,81.83c-.22-.25-.79-.62-1.14-.47a.44.44,0,0,0-.2.63.93.93,0,0,0,.68.38,3,3,0,0,0,.91-.14Z"/><path class="cls-3" d="M28.55,74.79s.05-.45.05-.47c0-.34-.2-1-.56-1.1a.45.45,0,0,0-.56.36,1,1,0,0,0,.27.73A3.22,3.22,0,0,0,28.55,74.79Z"/><path class="cls-3" d="M48.52,74.53a3.85,3.85,0,0,0,1.07,0s-.23-.46-.25-.49c-.22-.32-.82-.8-1.24-.68a.51.51,0,0,0-.31.69A1.11,1.11,0,0,0,48.52,74.53Z"/><path class="cls-3" d="M53.59,82.57h.26c-.07-.2-.15-.41-.23-.62a5.22,5.22,0,0,0,.54-.36,3.93,3.93,0,0,0,.93.42c0,.2-.09.39-.14.56h.26c0-.18.09-.37.13-.56a3.56,3.56,0,0,0,1.06-.08,1.09,1.09,0,0,0,.66-.6.52.52,0,0,0-.39-.66c-.42-.07-1,.48-1.15.82l-.15.39.06-.27c0-.18.07-.37.1-.57l0-.29c0-.1,0-.21,0-.31s0-.48,0-.72a3.23,3.23,0,0,0,1,.07,1.09,1.09,0,0,0,.75-.49.52.52,0,0,0-.28-.71c-.41-.14-1,.33-1.26.63a4.12,4.12,0,0,0-.23.4v-.45l-.06-1.29c0-.14,0-.27,0-.4a3.69,3.69,0,0,0,1.06.08,1,1,0,0,0,.74-.49.51.51,0,0,0-.28-.71c-.4-.13-1,.33-1.26.64,0,0-.22.36-.26.45,0-.29,0-.58,0-.87a8.92,8.92,0,0,1,.07-1.16,3.53,3.53,0,0,0,1.07.09,1,1,0,0,0,.74-.5.5.5,0,0,0-.28-.7c-.4-.14-1,.32-1.26.63l-.27.47a.17.17,0,0,0,0-.07,6.44,6.44,0,0,1,.29-1.13c.07-.2.14-.4.22-.58a3.6,3.6,0,0,0,1,.2,1.06,1.06,0,0,0,.79-.42.51.51,0,0,0-.2-.73c-.39-.18-1.06.21-1.32.49l-.23.32a1.89,1.89,0,0,1,.11-.25,8.17,8.17,0,0,1,.41-.79c.07-.13.14-.24.21-.35a3.62,3.62,0,0,0,1-.3,1.08,1.08,0,0,0,.52-.73.51.51,0,0,0-.51-.56c-.43,0-.85.68-1,1,0,0-.09.54-.08.54h0l-.21.34c-.13.23-.28.49-.43.78a10.06,10.06,0,0,0-.42,1,6.45,6.45,0,0,0-.31,1.13v0c0-.13-.08-.47-.09-.5-.1-.37-.52-1-.95-1a.51.51,0,0,0-.51.56,1.06,1.06,0,0,0,.52.73,3.16,3.16,0,0,0,1,.29,9.39,9.39,0,0,0-.11,1.2v.71a1.84,1.84,0,0,0,0-.22c-.1-.37-.52-1-.95-1a.52.52,0,0,0-.51.57,1,1,0,0,0,.52.72,3.17,3.17,0,0,0,1,.29,2.44,2.44,0,0,0,0,.27l0,1.3c0,.15,0,.29,0,.44,0-.09,0-.17,0-.19-.1-.37-.52-1-.95-1A.51.51,0,0,0,54,79a1.08,1.08,0,0,0,.52.73,3.3,3.3,0,0,0,1,.28l0,.45a2.54,2.54,0,0,1,0,.29l0,.3c0,.18-.07.37-.11.55l-.09.37v-.47a2.1,2.1,0,0,0-.41-.91.43.43,0,0,0,0-.11.51.51,0,0,0-.68-.33c-.4.17-.55.93-.51,1.31,0,0,0,.26.09.42l-.11-.26L53.25,81l-.13-.27c0-.09-.1-.18-.14-.27s-.24-.42-.38-.62a3.16,3.16,0,0,0,.9-.5,1.08,1.08,0,0,0,.35-.82.51.51,0,0,0-.62-.44c-.42.11-.69.84-.71,1.22,0,0,0,.31,0,.46-.08-.13-.16-.25-.25-.37-.24-.35-.5-.7-.76-1.05l-.24-.32a3.51,3.51,0,0,0,.93-.52,1,1,0,0,0,.35-.82.51.51,0,0,0-.62-.43c-.42.11-.68.83-.7,1.22,0,0,0,.43,0,.53l-.5-.72a9.36,9.36,0,0,1-.58-1,3.45,3.45,0,0,0,.94-.51A1.1,1.1,0,0,0,51.5,75a.51.51,0,0,0-.62-.43c-.42.11-.69.84-.71,1.22,0,0,0,.46,0,.54s0,0,0-.06a5.58,5.58,0,0,1-.39-1.1,4.76,4.76,0,0,1-.13-.61,3.58,3.58,0,0,0,1-.4,1.08,1.08,0,0,0,.44-.78.52.52,0,0,0-.58-.5c-.42.06-.77.76-.83,1.14,0,0,0,.23,0,.39,0-.09,0-.19,0-.27a7.73,7.73,0,0,1-.09-.88c0-.15,0-.29,0-.42a3.23,3.23,0,0,0,.66-.79,1.09,1.09,0,0,0,0-.9.51.51,0,0,0-.74-.18c-.35.25-.33,1-.21,1.39,0,0,.22.51.23.51h0c0,.12,0,.25,0,.4s0,.56.07.89a8.6,8.6,0,0,0,.18,1,6.47,6.47,0,0,0,.37,1.13h0c-.08-.1-.32-.35-.34-.37-.29-.25-1-.56-1.37-.34a.51.51,0,0,0-.12.75,1.1,1.1,0,0,0,.84.32,3.51,3.51,0,0,0,1-.32,10,10,0,0,0,.58,1.06c.12.2.25.39.39.59l-.16-.16c-.29-.25-1-.56-1.37-.34a.51.51,0,0,0-.11.75,1.07,1.07,0,0,0,.84.32,3.14,3.14,0,0,0,1-.31l.16.23.74,1.06c.08.12.16.25.23.38a1,1,0,0,0-.13-.14c-.29-.25-1-.56-1.37-.34a.51.51,0,0,0-.11.75,1.06,1.06,0,0,0,.83.32,3.1,3.1,0,0,0,1-.3c.08.14.16.27.22.4s.1.17.14.26l.12.28.21.52c0,.12.09.24.13.35l-.26-.38c-.26-.29-.91-.71-1.31-.54a.51.51,0,0,0-.23.72,1.06,1.06,0,0,0,.78.44,3.2,3.2,0,0,0,1.05-.16C53.48,82.26,53.53,82.42,53.59,82.57Z"/><path class="cls-3" d="M56.1,73.55s.06-.51.06-.55c0-.38-.24-1.12-.65-1.25a.52.52,0,0,0-.64.41,1.08,1.08,0,0,0,.32.84A3.59,3.59,0,0,0,56.1,73.55Z"/><path class="cls-4" d="M122,91.41l-6.46-.76,2.92-.64-3.65-.64-1,.51.31-1.41-2.3,1.37.53-1.75-1.25.77L111,87.71l-.83.89-.1-1.28L109,88.73v-2.3l-.55,1.09-.49,1V86.68l-.31-1.53-1.39,1.78-.69.9.31-2.42s-1.15,1.79-.94,1.4-.1-1-.1-1l-1.77,2,.41-1.91-1,.76-.21-1.53L101,86.81l-.21-2.3-.52,1.54-.52-2.56-.42,3.32L98,84.13l.21,3.19L97.9,87l.11-.46-.31.18-.79-1L97,87.13l-1.3.77.53-1.75L95,86.91l-.1-1.15-.83.9-.11-1.28-1,1.41V84.48l-.56,1.1-.48,1V84.74l-.31-1.53L90.16,85l-.7.9.31-2.43s-1.14,1.79-.93,1.41-.11-1-.11-1l-1.77,2L87.38,84l-1,.77-.21-1.53-1.25,1.66-.21-2.3-.52,1.53-.52-2.55-.42,3.32-1.35-2.69.2,3.2-1.25-1.66L81,86l-1.81-.32-.31-.25v.2l-.89-.16-.71.35L77,85.56l.23-1-.84.5,0,0,0,0-1.45.85.53-1.74-1.25.76-.1-1.15-.84.9-.1-1.28-1,1.4v-2.3l-.56,1.1-.48,1V82.74l-.32-1.53L69.37,83l-.7.9L69,81.46s-1.14,1.79-.94,1.41-.1-1-.1-1l-1.77,2L66.59,82l-1,.77-.2-1.53-1.25,1.66-.21-2.3-.52,1.53-.53-2.56-.41,3.33-1.36-2.69.15,2.2-.47.29-.72-1,.08,1.34-.07,0L59.93,82l-.84.89L59,81.57,58,83v-2.3l-.56,1.09-.49,1V80.93l-.31-1.53-1.38,1.78-.7.9.31-2.42s-1.15,1.79-.94,1.4-.1-1-.1-1l-1.77,2,.41-1.91-1,.76-.21-1.53-1.25,1.66-.21-2.3-.52,1.54-.52-2.56-.41,3.32L46.9,78.38l.21,3.19-1.25-1.66.21,3.45-.68-.55.07-.5-.24.36-1.34-1.1v1.74l0,0-2.47-2.15,1.08,2.07-.44.32-.21-1.53-1.25,1.66-.21-2.3L39.83,83l-.52-2.56-.38,3-.2,0L37.54,81l.14,2.18-.77-.14h0l-.39-.52,0,.7-.67.32.31-1.4-2.3,1.36.53-1.74-1.25.76-.1-1.15-.84.9L32.12,81l-1,1.4v-2.3l-.56,1.1-.49,1V80.39l-.31-1.53-1.38,1.78-.7.9L28,79.11S26.8,80.9,27,80.52s-.1-1-.1-1l-1.77,2,.41-1.92-1,.77-.21-1.53-1.25,1.66-.2-2.3-.53,1.53-.52-2.56-.41,3.33L20,77.83l.21,3.2L19,79.37l.21,3.45L17,81v1.79l-2.5-2.17,1.67,3.19-8.34,1h6.67l-5,.77,19.17-.38-4,1.27,8.38-.6L33.68,87l-8.33,1H32l-5,.76,19.18-.38-4,1.28,19.38-1.41-4-.47,12.11-.24-4,1.27L77.9,88l.1.2-8.34,1h6.67l-5,.77L90.5,89.6l-4,1.27,3.72-.26-4.5.55h6.67l-5,.76,19.17-.38-4,1.28Zm60.58-.58-6.46-.76,2.92-.64-3.65-.64-1,.51.32-1.41-2.31,1.37.53-1.75-1.25.77-.1-1.15-.83.89-.11-1.28-1,1.41v-2.3L169,86.94l-.48,1V86.1l-.31-1.53-1.39,1.78-.7.9.31-2.42s-1.14,1.78-.93,1.4-.11-1-.11-1l-1.77,2,.42-1.91-1,.76-.21-1.53-1.25,1.66-.21-2.3-.52,1.53-.52-2.55-.42,3.32-1.36-2.68.21,3.19-.25-.33.1-.46-.31.18-.79-1,.09,1.47-1.29.76.53-1.74-1.25.76-.1-1.15-.84.9-.1-1.28-1,1.4V83.9l-.56,1.1-.49,1V84.16l-.31-1.53-1.38,1.78-.7.9.31-2.43s-1.15,1.79-.94,1.41-.1-1-.1-1l-1.77,2,.41-1.92-1,.77-.21-1.53-1.25,1.66-.21-2.3-.52,1.53L144.21,81l-.41,3.33-1.36-2.69.21,3.2-1.25-1.66.13,2.23-1.8-.32-.31-.25V85l-.89-.16-.72.35-.24-.21.23-1-.84.5,0,0,0,0-1.44.85.53-1.75-1.25.77-.11-1.15-.83.9-.1-1.28-1.05,1.4V81.9L132.14,83l-.49,1V82.16l-.31-1.54L130,82.41l-.69.9.31-2.43s-1.15,1.79-.94,1.41-.1-1-.1-1l-1.78,2,.42-1.92-1,.77-.21-1.54-1.25,1.67-.21-2.3-.52,1.53L123.42,79,123,82.29l-1.35-2.69.14,2.2-.46.29-.72-1,.08,1.34-.07,0-.11-1.15-.83.89L119.57,81l-1,1.41V80.1L118,81.19l-.49,1V80.35l-.31-1.53-1.39,1.78-.7.9.32-2.42s-1.15,1.78-.94,1.4-.11-1-.11-1l-1.77,2,.42-1.91-1,.76-.21-1.53-1.25,1.66-.21-2.3-.52,1.53-.52-2.55-.42,3.32-1.35-2.68L107.7,81l-1.26-1.66.21,3.45-.67-.55.06-.5-.23.36L104.47,81v1.74l0,0L102,80.61,103,82.68l-.44.32-.21-1.53-1.25,1.66-.2-2.3-.53,1.53-.52-2.55-.38,3-.19,0-1.2-2.36.14,2.18-.76-.14h0L97.08,82l0,.7-.66.32.31-1.4L94.47,83,95,81.21,93.75,82l-.11-1.15-.83.9-.11-1.28-1,1.4v-2.3l-.55,1.09-.49,1V79.81l-.31-1.53-1.39,1.78-.7.9.32-2.43s-1.15,1.79-.94,1.41-.11-1-.11-1l-1.77,2L86.14,79l-1,.77-.21-1.53-1.25,1.66-.21-2.3-.52,1.53-.52-2.56L82,79.94l-1.35-2.69.21,3.2-1.25-1.66.2,3.45L77.6,80.45v1.79l-2.5-2.18,1.66,3.2-8.33,1H75.1l-5,.77,19.18-.38-4,1.27,8.37-.6.59,1.11-8.34,1H92.6l-5,.76,19.17-.38-4,1.28,19.38-1.41-4-.47L130.3,87l-4,1.28,12.14-.88.11.2-8.34,1h6.67l-5,.77L151.09,89l-4,1.27,3.72-.27-4.51.56H153l-5,.76L167.18,91l-4,1.28Zm.36,2.56-6.46-.77,2.92-.64-3.65-.64-1,.51.32-1.4-2.31,1.36.53-1.75-1.25.77-.1-1.15-.83.89L171,89.3l-1,1.4V88.4l-.56,1.09-.48,1V88.66l-.31-1.54-1.39,1.79-.7.9.31-2.43s-1.14,1.79-.93,1.4-.11-1-.11-1l-1.77,2,.42-1.92-1,.77-.21-1.54-1.25,1.66-.21-2.3L161.19,88l-.52-2.56-.42,3.32-1.36-2.68.21,3.2-.25-.34.1-.46-.31.18-.79-1.05.09,1.47-1.29.77.53-1.75-1.25.76-.1-1.15-.84.9-.1-1.28-1,1.41v-2.3l-.56,1.09-.49,1V86.71l-.31-1.53L151.11,87l-.7.9.31-2.43s-1.15,1.79-.94,1.41-.1-1-.1-1l-1.77,2,.41-1.91-1,.76-.21-1.53-1.25,1.66-.21-2.3-.52,1.53-.52-2.55-.41,3.32-1.36-2.68.21,3.19-1.25-1.66.13,2.23-1.8-.31-.31-.26v.2l-.89-.15-.72.35-.24-.22.23-1-.84.5,0,0,0,0-1.44.86.53-1.75-1.25.76L135,85.73l-.83.9-.1-1.28-1,1.41v-2.3l-.55,1.09-.49,1V84.71l-.31-1.53L130.31,85l-.69.9.31-2.43s-1.15,1.79-.94,1.41-.1-1-.1-1l-1.78,2,.42-1.92-1,.77-.21-1.53L125,84.84l-.21-2.3-.52,1.53-.52-2.55-.42,3.32L122,82.16l.14,2.2-.46.28-.72-1,.08,1.34-.07,0-.11-1.15-.83.89-.11-1.28-1,1.41v-2.3l-.55,1.09-.49,1V82.91l-.31-1.54-1.39,1.79-.7.9.32-2.43s-1.15,1.79-.94,1.4-.11-1-.11-1l-1.77,2,.42-1.92-1,.77-.21-1.54L110.87,83l-.21-2.3-.52,1.54-.52-2.56L109.2,83l-1.35-2.68.21,3.19-1.25-1.66.2,3.45-.67-.55.06-.5-.23.36-1.34-1.1v1.74l0,0-2.48-2.15,1.08,2.07-.44.33L102.75,84l-1.25,1.66-.2-2.3-.52,1.54-.53-2.56-.38,3-.19,0L98.48,83l.14,2.18-.76-.13h0l-.39-.53,0,.7-.66.33.31-1.41-2.3,1.37.53-1.75-1.25.76L94,83.38l-.83.9L93.06,83l-1,1.41v-2.3l-.55,1.09-.49,1V82.36l-.31-1.53-1.39,1.78-.7.9.32-2.43s-1.15,1.79-.94,1.41-.11-1-.11-1l-1.77,2,.42-1.92-1,.77-.21-1.53L84,82.49l-.21-2.3-.52,1.53-.52-2.55-.42,3.32L81,79.81,81.19,83l-1.25-1.66.2,3.45L78,83v1.79l-2.5-2.17,1.66,3.19-8.33,1h6.67l-5,.77,19.18-.38-4,1.28L94,87.89,94.63,89l-8.34,1H93l-5,.77,19.17-.39-4,1.28,19.38-1.4-4-.48,12.11-.24-4,1.28L138.84,90l.11.2-8.34,1h6.67l-5,.76,19.17-.38-4,1.28,3.72-.27-4.51.55h6.67l-5,.77,19.17-.39-4,1.28ZM34.52,86l-.22-.18.22,0Zm1.78-.33.38,0,0,.35Zm6.63-1.28-.22,0,.11-.49.19.37Zm8.46,2.34.26-.87,1.25,0Zm2-.27.15-.64,2,0Zm7.61-3.38.17-.54.05.83ZM81,86.2,81,87l-.26,0-.68-.56Zm-2.13.47v0l-.16,0Z"/><path class="cls-4" d="M103.4,93.65l-6.46-.76,2.92-.64-3.65-.64-1,.51.31-1.41-2.3,1.37.53-1.75-1.25.77L92.36,90l-.84.89-.1-1.28-1,1.41v-2.3l-.56,1.09-.49.95V88.93L89,87.39l-1.38,1.79-.7.9.31-2.43s-1.15,1.79-.94,1.4-.1-1-.1-1l-1.77,2,.41-1.92-1,.77-.21-1.54-1.25,1.66-.2-2.3-.53,1.54-.52-2.56-.41,3.32-1.36-2.68.21,3.19-.25-.33.1-.46-.31.18-.79-1,.09,1.47-1.29.77.53-1.75-1.25.76L76.26,88l-.83.9-.11-1.28-1,1.41v-2.3l-.55,1.09-.49,1V87l-.31-1.53-1.39,1.78-.7.9.32-2.43s-1.15,1.79-.94,1.41-.1-1-.1-1l-1.78,2,.42-1.92-1,.77-.21-1.53-1.25,1.66-.21-2.3-.52,1.53L65,83.79l-.42,3.32-1.35-2.68.21,3.19L62.2,86l.13,2.23-1.8-.32-.31-.25v.2l-.89-.16-.72.35-.24-.21.23-1-.85.5,0,0,0,0-1.45.86.54-1.75-1.26.76L55.47,86l-.83.9-.11-1.28-1,1.4v-2.3l-.56,1.1-.48,1V85l-.31-1.53-1.39,1.78-.7.9.32-2.43s-1.15,1.79-.94,1.41-.11-1-.11-1l-1.77,2L48,84.21l-1,.77-.21-1.53-1.25,1.66-.21-2.3-.52,1.53-.52-2.55-.42,3.32-1.35-2.69.14,2.21-.47.28-.72-1,.09,1.34-.08,0-.1-1.15-.83.89-.11-1.28-1,1.41v-2.3L38.77,84l-.48.95V83.17L38,81.64l-1.38,1.79-.7.9.31-2.43s-1.14,1.79-.93,1.4-.11-1-.11-1l-1.77,2,.42-1.92-1.05.76-.2-1.53L31.31,83.3,31.1,81l-.52,1.54L30.06,80l-.42,3.32-1.36-2.68.21,3.19-1.25-1.66.21,3.45-.68-.55.07-.5-.24.36-1.34-1.1v1.74l0,0-2.48-2.15,1.08,2.07-.44.33-.21-1.54L21.94,86l-.21-2.3-.52,1.54-.52-2.56-.38,3-.2,0-1.19-2.36.14,2.18-.77-.14,0,0-.39-.53,0,.7-.67.33.32-1.41-2.31,1.37L15.79,84l-1.25.76-.93-.25-1.15.13-.56-1.21-.48,1V82.63l-1.7.25-.7.9.31-2.43s-1.14,1.79-.93,1.41a1.41,1.41,0,0,0-.11-1l-1.77,2,.42-1.92-1,.77L5.69,81.1,4.44,82.76l-.21-2.3L3.71,82l-.52-2.55-.42,3.32L1.41,80.07l.21,3.2L.37,81.61l.21,3.45-2.19-1.79v1.79l-2.5-2.17,1.67,3.19-8.34,1h6.67l-5,.77,19.17-.38-4,1.27,8.38-.6.58,1.12-8.33,1H13.4l-5,.77,19.17-.39-4,1.28L43,90.55l-4-.47,12.11-.24-4,1.27,12.15-.88.1.2-8.33,1h6.67l-5,.77,19.18-.38-4,1.28,3.71-.27-4.5.55h6.67l-5,.77L88,93.78l-4,1.28Zm-87.5-5.4-.21-.18.21,0Zm1.78-.33.38,0,0,.35Zm6.64-1.28-.23,0,.11-.49.19.37ZM32.77,89l.26-.87,1.25,0Zm2.06-.27.14-.64,2,0Zm7.61-3.38.16-.54,0,.83Zm19.91,3.11,0,.78-.26,0-.67-.56Zm-2.13.47v0l-.16,0Z"/><path class="cls-4" d="M104.38,102.12l-6.46-.77,2.92-.64-3.65-.64-1,.51.31-1.4-2.3,1.36.53-1.75-1.25.77-.11-1.15-.83.89L92.4,98l-1.05,1.4v-2.3l-.55,1.09-.49,1V97.39L90,95.85l-1.39,1.79-.69.9.31-2.43s-1.15,1.79-.94,1.4-.1-1-.1-1l-1.77,2.05.41-1.92-1,.77-.21-1.54-1.25,1.66-.21-2.3-.52,1.54-.52-2.56-.42,3.32-1.35-2.68.21,3.2-.26-.34.11-.46-.31.18-.79-1,.09,1.47-1.3.77.54-1.75-1.26.77-.1-1.15-.83.89-.11-1.28-1,1.41v-2.3l-.56,1.09-.48,1V95.44l-.31-1.53-1.39,1.78-.7.9.31-2.43S71,96,71.2,95.57s-.11-1-.11-1l-1.77,2,.42-1.91-1,.76-.21-1.53-1.25,1.66L67,93.27l-.52,1.53L66,92.25l-.42,3.32-1.35-2.68.2,3.19-1.25-1.66.14,2.23-1.8-.31-.32-.26v.2l-.89-.15-.71.35-.25-.22.23-1-.84.5,0,0,0,0-1.45.86.53-1.75-1.25.76-.1-1.15-.84.9-.1-1.28-1,1.41v-2.3l-.56,1.09-.48,1V93.44l-.32-1.53-1.38,1.78-.7.9.31-2.43S50.2,94,50.41,93.57s-.11-1-.11-1l-1.77,2L49,92.68l-1.05.76-.2-1.53-1.25,1.66-.21-2.3-.52,1.53-.52-2.55-.42,3.32-1.36-2.68.15,2.2-.47.28-.72-1,.08,1.34-.07,0-.1-1.15-.84.89-.1-1.27-1,1.4v-2.3l-.56,1.09-.49,1V91.64L39,90.1l-1.38,1.79-.7.9.31-2.43s-1.15,1.79-.94,1.4-.1-1-.1-1l-1.77,2.05.41-1.92-1,.77-.21-1.54-1.25,1.66-.2-2.3L31.55,91,31,88.44l-.41,3.32-1.36-2.68.21,3.2-1.25-1.67.21,3.45-.68-.55.07-.5-.24.36-1.34-1.09V94l0,0-2.47-2.15L24.82,94l-.44.33-.21-1.54-1.25,1.66-.21-2.3-.52,1.54-.52-2.56-.38,3-.2,0L19.9,91.73,20,93.91l-.77-.13h0l-.39-.53,0,.7-.67.33.31-1.41-2.3,1.37.53-1.75-1.25.76-.1-1.15-.84.9-.1-1.28-1,1.41v-2.3l-.56,1.09-.48.95V91.09l-.32-1.53L10.7,91.34l-.7.9.31-2.43s-1.14,1.79-.94,1.41-.1-1-.1-1l-1.77,2,.42-1.91-1,.76-.21-1.53L5.41,91.22l-.2-2.3-.53,1.53L4.16,87.9l-.41,3.32L2.39,88.54l.21,3.19L1.35,90.07l.21,3.45L-.63,91.73v1.79l-2.5-2.17,1.67,3.19-8.34,1h6.67l-5,.76L11,96l-4,1.28,8.38-.61L16,97.74l-8.33,1h6.67l-5,.77,19.18-.39-4,1.28L44,99l-4-.48,12.11-.24-4,1.28,12.15-.88.1.19-8.33,1h6.66l-5,.76,19.17-.38-4,1.28,3.72-.27-4.5.55h6.67l-5,.77L89,102.24l-4,1.28Zm-87.5-5.4-.22-.19h.22Zm1.78-.33.38,0,0,.36Zm6.63-1.29-.22,0,.11-.49.19.38Zm8.46,2.34.26-.87,1.25,0Zm2-.27.15-.64,2,0Zm7.61-3.38.17-.54.05.83ZM63.32,96.9l0,.78-.26,0-.67-.55Zm-2.13.47v0l-.16,0Z"/><path class="cls-4" d="M103.74,97.6l-6.46-.77,2.92-.64-3.65-.64-1,.51.31-1.4L93.52,96l.53-1.75L92.8,95l-.1-1.15-.84.9-.1-1.28-1,1.4v-2.3l-.56,1.09-.48,1V92.87l-.32-1.54L88,93.12l-.7.9.31-2.43s-1.14,1.79-.94,1.41-.1-1-.1-1l-1.77,2,.42-1.92-1,.77L84,91.33,82.7,93l-.21-2.3L82,92.23l-.53-2.56L81,93l-1.36-2.69.21,3.2-.25-.34.1-.46-.31.19-.79-1.05.09,1.46-1.29.77L78,92.33l-1.25.77L76.6,92l-.83.89-.1-1.28-1,1.41v-2.3l-.55,1.09-.49.95V90.92l-.31-1.53-1.39,1.78-.69.9.31-2.42s-1.15,1.79-.94,1.4-.1-1-.1-1l-1.77,2,.41-1.91-1,.76-.21-1.53L66.6,91.05l-.21-2.3-.52,1.54-.52-2.56-.42,3.32-1.35-2.68.21,3.19L62.54,89.9l.13,2.23-1.8-.31-.31-.26v.2l-.89-.15L59,92l-.24-.21.23-1-.84.5,0,0,0,0-1.44.86.53-1.75-1.25.77L55.81,90l-.83.89-.11-1.28-1,1.41v-2.3l-.55,1.09-.49.95V88.92l-.31-1.53-1.39,1.78-.7.9.32-2.42s-1.15,1.78-.94,1.4-.11-1-.11-1l-1.77,2,.42-1.91-1,.76-.21-1.53-1.25,1.66-.21-2.3-.52,1.53-.52-2.55-.42,3.32-1.35-2.68.14,2.2-.47.29-.71-1,.08,1.35-.08,0-.1-1.15-.83.89-.11-1.27-1,1.4v-2.3L39.11,88l-.48,1V87.12l-.31-1.54-1.39,1.79-.7.9.31-2.43s-1.14,1.79-.93,1.41-.11-1-.11-1l-1.77,2,.42-1.92-1,.77-.21-1.54-1.25,1.67L31.44,85l-.52,1.53-.52-2.56L30,87.25l-1.35-2.69.2,3.2L27.58,86.1l.21,3.45L27.12,89l.06-.5-.23.36L25.6,87.76v1.73l0,0L23.1,87.37l1.08,2.07-.44.33-.21-1.54L22.28,89.9l-.21-2.3-.52,1.53L21,86.57l-.38,3-.2,0-1.19-2.37.14,2.18-.76-.13h0l-.39-.52,0,.69-.67.33.32-1.41-2.3,1.37L16.14,88l-1.25.77-.11-1.15-.83.89-.11-1.28-1,1.41v-2.3l-.55,1.09-.49,1V86.57L11.45,85l-1.39,1.78-.7.9.32-2.42s-1.15,1.78-.94,1.4-.11-1-.11-1l-1.77,2,.42-1.91-1,.76L6,85,4.78,86.7l-.21-2.3-.52,1.53-.52-2.55L3.11,86.7,1.76,84,2,87.21.71,85.55.92,89l-2.19-1.79V89l-2.5-2.17L-2.1,90l-8.33,1h6.66l-5,.76,19.17-.38L6.45,92.71l8.37-.61.59,1.12-8.34,1h6.67l-5,.77,19.17-.39L24,95.9l19.38-1.4-4-.48,12.11-.24-4,1.28,12.14-.88.1.19-8.33,1h6.67l-5,.76,19.17-.38-4,1.28L72,96.79l-4.51.55h6.67l-5,.77,19.17-.39-4,1.28Zm-87.5-5.4L16,92h.21ZM18,91.87l.38,0,0,.36Zm6.63-1.29-.23,0,.11-.48.19.37Zm8.45,2.34.26-.87,1.25,0Zm2.06-.27.14-.64,2,0Zm7.61-3.38.16-.54.06.83Zm19.91,3.11,0,.78-.25,0-.68-.55Zm-2.13.47v.05l-.16,0Z"/><polygon class="cls-4" points="13.08 87.47 17.73 83.37 48.66 84.94 63.24 84.62 78.29 84.4 97.69 83.37 75.85 102.77 25.48 99.48 13.08 87.47"/></g><path class="cls-5" d="M43.57,47.5s1.65,12.44,2.69,17.09,2,10,1.62,10.87a5.29,5.29,0,0,0-.68,2,1.84,1.84,0,0,1-1.39,1.76c-1,.21-3,.54-3.36-.49s.7-2.25.95-2.64a7.37,7.37,0,0,0,.74-3.66c-.11-1.73-.58-6.92-1.86-8.53A11.57,11.57,0,0,1,39.53,59C39,56.76,37,46.2,36.87,45.88S43.57,47.5,43.57,47.5Z"/><path class="cls-6" d="M75.3,48s-3.12,1.47-11.48,2.32S51.44,51.5,47,49.87s-10-3.13-10-3.13.59,6.31.57,9.61a78.74,78.74,0,0,1-1,9.8c-.3,2,.41,9.84.46,10.71s-.51,1.16-.77,1.94a1.69,1.69,0,0,1-1.69,1.28c-1,.13-3.62,0-4.14-.83s1.16-1.93,2-2.77,1.27-5.31,1.31-6.65.09-5.5-.87-7.65-.09-2.13-1.62-8.7-1.31-3.42-3-5.28a26.52,26.52,0,0,1-4.49-7.77c-1.46-3.5-6.2-7.81-6.2-7.81s1.27-10.9,1-14.36-.24-5.2.15-5.19,2.33.51,2.33.51,1.25.7,5.36.2,5-1.27,8.46-1.71,8.92-.91,14.35-1.06S55.83,8.39,68.14,6.8s18.08.39,21.11,4.1-.17,13.29-.15,20.21-.86,12.87.65,17.47,1.69,6.35,1.48,13.1,1.31,14,.71,15.44a16.45,16.45,0,0,0-.88,3s.38.48-1.91.73-4.17.1-4.31-.45.51-1.24,1.39-1.69,1.32-1.92,1.4-2.16A27.45,27.45,0,0,0,87.82,68c-.68-3.48-2.09-8.79-3.24-12.52S82,46.3,82,46.3l-1,.44s.27,1.27-.44,1.56-.84-1-.84-1l-.88.6-1.28.52s.36,1.34-.28,1.56-.87.05-.93-.5-.11-1.42-.11-1.42L75.3,48"/><path class="cls-7" d="M22.73,25.26a20.07,20.07,0,0,0,.69,5.95c.83,2.49,2.63,8,2.49,9.28s-2.73-.25-2.13-.06-1.47-3.4-3.27-4.79a10.77,10.77,0,0,1-3.18-4C16.77,30.52,22.73,25.26,22.73,25.26Z"/><path class="cls-8" d="M65.52,43s-4-3.88-6.79-2.35-2.49,5.54-6.92,6.5-7.94,1.33-4.8,2.74,7.1,2.43,13.24.45,8.17-3.46,7.34-6S65.52,43,65.52,43Z"/><path class="cls-6" d="M82,46.3s1.49,5.39,2.63,9.13,2.56,9,3.24,12.52a27.45,27.45,0,0,1-.19,8.64s.17,2.39,1,1.85a19.66,19.66,0,0,1,3.33-1.32c.6-1.4-.91-8.68-.71-15.44s0-8.49-1.48-13.1S89.13,38,89.1,31.11c0-3.34.73-7.29,1.16-10.91-.28-3.69-.43-6.13-.39-6.45.19-1.47-3.53-1.35-4.41,1.12s-4,6.51-4,6.51S72.07,45,72.25,48.86c0,0,0,0,0,.08a19.21,19.21,0,0,0,3-.95l.86.1s0,.87.11,1.42.3.72.93.5.28-1.56.28-1.56l1.28-.52.88-.6s.12,1.26.84,1,.44-1.56.44-1.56Z"/><path class="cls-9" d="M75.3,48s-3.12,1.47-11.48,2.32S51.44,51.5,47,49.87s-10-3.13-10-3.13.59,6.31.57,9.61a78.74,78.74,0,0,1-1,9.8c-.3,2,.41,9.84.46,10.71s-.51,1.16-.77,1.94a1.69,1.69,0,0,1-1.69,1.28c-1,.13-3.62,0-4.14-.83s1.16-1.93,2-2.77,1.27-5.31,1.31-6.65.09-5.5-.87-7.65-.09-2.13-1.62-8.7-1.31-3.42-3-5.28a26.52,26.52,0,0,1-4.49-7.77c-1.46-3.5-6.2-7.81-6.2-7.81s1.27-10.9,1-14.36-.24-5.2.15-5.19,2.33.51,2.33.51,1.25.7,5.36.2,5-1.27,8.46-1.71,8.92-.91,14.35-1.06S55.83,8.39,68.14,6.8s18.08.39,21.11,4.1-.17,13.29-.15,20.21-.86,12.87.65,17.47,1.69,6.35,1.48,13.1,1.31,14,.71,15.44a16.45,16.45,0,0,0-.88,3s.38.48-1.91.73-4.17.1-4.31-.45.51-1.24,1.39-1.69,1.32-1.92,1.4-2.16A27.45,27.45,0,0,0,87.82,68c-.68-3.48-2.09-8.79-3.24-12.52S82,46.3,82,46.3l-1,.44s.27,1.27-.44,1.56-.84-1-.84-1l-.88.6-1.28.52s.36,1.34-.28,1.56-.87.05-.93-.5-.11-1.42-.11-1.42L75.3,48"/><path class="cls-9" d="M34.62,31.52A11.46,11.46,0,0,0,35,33.47"/><path class="cls-9" d="M55.57,11.4S43,14.62,39.21,18.19c-2.86,2.69-4.53,7.42-4.65,11.52"/><path class="cls-10" d="M77.7,46.64s0,2.28.64,2.22.54-2.26.54-2.26a4.1,4.1,0,0,1,1.2-.83"/><path class="cls-9" d="M82,46.3s1,0,2.23-3.31-1.28-9.63-1.91-12.17-.9-4.12-.9-4.12"/><path class="cls-9" d="M80.74,44.69s1-.36,1.13-3.27a20.25,20.25,0,0,0-.48-5.12"/><path class="cls-11" d="M82.5,10.3s3.81,1.61,4.78,8.25.33,17.62,1,21.5L89,43.92s0,3.07-.19,6.21.67,6.23,1.74,7.21l1.07,1-.17-2a6.62,6.62,0,0,0,2.34,3A6.21,6.21,0,0,1,96,63a15.08,15.08,0,0,0-.32-4.81,21.2,21.2,0,0,0-2.87-6.61,16.1,16.1,0,0,0,1.87.68,9.42,9.42,0,0,1-3.31-5.13C90.29,43.57,89.62,32.22,89.94,27s.91-9.25-.07-13.21-1.61-4.06-3.45-5.37a5.76,5.76,0,0,0-3.91-1"/><path class="cls-9" d="M27.55,23.59c-.67,3.32-1.71,9.6-.73,12.58"/><path class="cls-9" d="M28,21.42l-.24,1.07"/><path class="cls-9" d="M35.81,36.86A11.05,11.05,0,0,0,37.89,42"/><path class="cls-12" d="M10.55,16.84a14.73,14.73,0,0,1-3.93-1.52c-1-.81-4-.91-5.11.12s-.09,4,2.23,4.58,5.11-.76,5.39-.82A2.81,2.81,0,0,0,10.55,16.84Z"/><path class="cls-7" d="M10.79,17A17.85,17.85,0,0,1,7,15.29c-1-.79-4.4-.69-5.47.31s.37,3.88,2.63,4.51,5-.75,5.27-.81A2.74,2.74,0,0,0,10.79,17Z"/><path class="cls-8" d="M8.42,18.07A12.22,12.22,0,0,0,5.71,16.3c-1.19-.48-1.82-.5-2.42.07,0,0,1,.26.81,1s.1,1.3,1.4,1.63a4.23,4.23,0,0,0,2.76-.57S8.72,18.23,8.42,18.07Z"/><path class="cls-11" d="M17,12.14a6.1,6.1,0,0,1-2.63.13c-1.44-.25-2.88-.78-3.33.38a3.93,3.93,0,0,0,.34,2.7,14.38,14.38,0,0,1-1.84,3.47A3.59,3.59,0,0,0,9.25,23c.81,1.53,1.52,6,1.6,7.77s-1.46,2.78-1,4.45,2.57,1.88,3.33,1.63a6.68,6.68,0,0,1,3.11.16,2.39,2.39,0,0,0,2.8-1.36,5.28,5.28,0,0,0,.08-2.7,20.45,20.45,0,0,0,3.08-3.49c1.44-2.1.87-8.19.89-8.75s3,.17,4.78-.61,3.35-5.49,2.75-6.34-3.36-.65-5,.06-2.41,2-3.23,1.76-1.21-1.21-1.39-2,0-1.59-1.19-1.7A12.78,12.78,0,0,0,17,12.14Z"/><path class="cls-8" d="M11.59,18.39a20.79,20.79,0,0,0-.31,4.48,43.3,43.3,0,0,1,0,4.8A34.17,34.17,0,0,0,10,23.05c-.44-.81-.87-1.07-.62-2.28s1.76-3.77,2-3.43A3.25,3.25,0,0,1,11.59,18.39Z"/><path class="cls-8" d="M21.81,19.47S19,15.34,18.57,18.26s0,6.93.61,8,1.7,2,2.47-1.24A12.35,12.35,0,0,0,21.81,19.47Z"/><path class="cls-8" d="M25.74,19.46c-2-.41-2.56-1.18-2.12-2.32s4.46-2.24,4.46-2.24.73.56.22,2.11S27,19.7,25.74,19.46Z"/><path class="cls-13" d="M21.57,22.59c-.21.53-.66.86-1,.72s-.49-.67-.29-1.21.66-.86,1-.72S21.77,22.05,21.57,22.59Z"/><path class="cls-13" d="M10.74,22.08c.13.48.1.91-.06,1s-.4-.31-.52-.8-.1-.91.06-.95S10.62,21.6,10.74,22.08Z"/><path class="cls-5" d="M15.14,30.8a6.12,6.12,0,0,0-4.54,1.59h-.08c-.4.94-1,1.75-.7,2.86.43,1.68,2.57,1.88,3.33,1.63a6.68,6.68,0,0,1,3.11.16,2.39,2.39,0,0,0,2.8-1.36,5.28,5.28,0,0,0,.08-2.7A6.09,6.09,0,0,0,15.14,30.8Z"/><path class="cls-13" d="M12.93,35.22a1.33,1.33,0,0,1-1-1.27c-.1-1.11-.73-.85-.77.46S12.07,36.09,12.93,35.22Z"/><path class="cls-13" d="M15.35,35.23a1.39,1.39,0,0,0,1.13-1c.24-.9-.58-1.47.24-.9s1.33,1.63,0,2.15S15.35,35.23,15.35,35.23Z"/><path class="cls-9" d="M18.51,14.91l1.11.14"/><path class="cls-9" d="M12.24,14.76a8.9,8.9,0,0,1,3.6-.31l1.25.24"/><path class="cls-5" d="M28.3,59.09s-.25,3.21-.63,5.57,1.85,7,2.2,8.19a59.25,59.25,0,0,1,.59,6.4c.1,1,2.07,1.88,3.07,1.61s.06-2-.22-2.77a24.09,24.09,0,0,1-1.21-8c0-4.14.18-5.84.64-7a11.19,11.19,0,0,1,.78-1.69Z"/><path class="cls-14" d="M47.47,64.39s-1.6,7.69-2.14,10.53-.38,8.24-.58,8.3A3.43,3.43,0,0,1,43.13,83c-.7-.28-.93-1.46-.83-2.43a30.07,30.07,0,0,1,1.08-3.47c.08-.46-.67-9.9-.78-10.75s-.45-2.15,1-2.24A23.16,23.16,0,0,1,47.47,64.39Z"/><path class="cls-6" d="M67.48,47.44a18,18,0,0,1-4.18.82c-3.15.37-4.69-.54-6.44.27a10.76,10.76,0,0,0-3.13,2.41A36.44,36.44,0,0,1,47.94,48c-2.69-1.73-2.93-4.17-6.21-4.5s-3.77.2-3.77.2-5.26-2.52-8.44-3.63a6.46,6.46,0,0,0-8.14,4.77c-.83,3.81.59,16.4.8,17.43s.28,6.2.32,7.22.5,4.49.45,6a53.24,53.24,0,0,1-.8,5.7c-.19,1,2.15,1.4,2.79.87s.29-1.87.1-3.29-.3-5.5.22-7.13a16.74,16.74,0,0,0,.79-5.23c.07-2.42.66-6.33.66-6.33a12.9,12.9,0,0,0,6,2.93,30,30,0,0,0,6.1.42s2.71,6.44,3.64,9.21,1.58,4.6,1.52,6.71.12,3.77.65,4.26,2.81.63,3.38,0-.39-2.68-.74-4.18-1.39-3.33-1.42-4.9.07-4.94-.13-6a11.54,11.54,0,0,1-.38-2.84c.1-.62,3.46-.21,5.85-1.62s5.24-2,10.49-4.46a23.58,23.58,0,0,0,8.52-7c.81-.84.75-4-.31-5A2.06,2.06,0,0,0,67.48,47.44Z"/><path class="cls-8" d="M38.77,63.51C38.19,62.42,37.33,60.8,37,60c-.54-1.23-1.39-2.9-1.39-2.9s-1.52,1.38-5.26,1.52-5.4-5.54-5.4-5.54-.28,8.31-.83,9.69c-.3.75,0,.15-.75-.44.12.9.32,3.3.37,5.09.86,3.57.61,7.57,1.16,7.79a13.79,13.79,0,0,1,.37-3.51,16.74,16.74,0,0,0,.79-5.23c.07-2.42.66-6.33.66-6.33a12.9,12.9,0,0,0,6,2.93A30.48,30.48,0,0,0,38.77,63.51Z"/><path class="cls-5" d="M69.25,53.85l-1.1-.9c-.14.42.83,1.94-3.47,3.46a92,92,0,0,1-11.07,3.46,10.58,10.58,0,0,1-5.14-.29,8.68,8.68,0,0,0-1.09-2.34c-.42-.27-.28,2.63-1.25,4S43.67,63,43.58,64.08s1.8,6.26,2.29,7.65a23.34,23.34,0,0,0-.13-3.15,11.54,11.54,0,0,1-.38-2.84c.1-.62,3.46-.21,5.85-1.62s5.24-2,10.49-4.46A21.91,21.91,0,0,0,69.25,53.85Z"/><path class="cls-9" d="M67.48,47.44a18,18,0,0,1-4.18.82c-3.15.37-4.69-.54-6.44.27a10.76,10.76,0,0,0-3.13,2.41A36.44,36.44,0,0,1,47.94,48c-2.69-1.73-2.93-4.17-6.21-4.5s-3.77.2-3.77.2-5.26-2.52-8.44-3.63a6.46,6.46,0,0,0-8.14,4.77c-.83,3.81.59,16.4.8,17.43s.28,6.2.32,7.22.5,4.49.45,6a53.24,53.24,0,0,1-.8,5.7c-.19,1,2.15,1.4,2.79.87s.29-1.87.1-3.29-.3-5.5.22-7.13a16.74,16.74,0,0,0,.79-5.23c.07-2.42.66-6.33.66-6.33a12.9,12.9,0,0,0,6,2.93,30,30,0,0,0,6.1.42s2.71,6.44,3.64,9.21,1.58,4.6,1.52,6.71.12,3.77.65,4.26,2.81.63,3.38,0-.39-2.68-.74-4.18-1.39-3.33-1.42-4.9.07-4.94-.13-6a11.54,11.54,0,0,1-.38-2.84c.1-.62,3.15-.95,5.85-1.62a50.13,50.13,0,0,0,10.61-3.66c5.24-2.42,7.59-6.92,8.4-7.76s.75-4-.31-5A2.06,2.06,0,0,0,67.48,47.44Z"/><path class="cls-15" d="M46,66S64.2,63.32,68.49,55.7"/><path class="cls-8" d="M63.82,50.31s-2.18-1.65-3.57,0-.55,3,.42,3.32,3.6-.27,4.15-1.38S63.82,50.31,63.82,50.31Z"/><path class="cls-16" d="M56.24,54.18s-.32-1.73-3.52-1.39-2,2.69-.78,3.59,4.58.69,4.9.09a1.94,1.94,0,0,0,.34-1"/><path class="cls-13" d="M63.26,51s-.47,1.28-1.44,1.18a1,1,0,0,0,1.4,0C64,51.54,63.75,50.92,63.26,51Z"/><path class="cls-9" d="M45.77,51.78s3.11,4.26,2.7,7.8-1.91,4.17-1.91,4.17l-.3.84"/><path class="cls-9" d="M24.73,51.24c0,1.1,0,2.38.05,3.44.12,2.43-.05,4.28,1.93,5.47"/><path class="cls-9" d="M24.78,48.69s0,.49,0,1.23"/><path class="cls-9" d="M37.18,53s-1.6,3.32-.73,5.78a23.57,23.57,0,0,0,2.39,4.72"/><path class="cls-8" d="M39.12,64.16c.05.13.11.26.17.42h.05Z"/><path class="cls-6" d="M84.06,13.42a31.26,31.26,0,0,1-3.28,12.16c-2.55,4.87-5.7,14.14-5.57,20.12s2.66,10.78,2.31,11.95S72.34,72.59,71.88,75s-.18,3.22-.75,3.67-1.43.67-1.52.9a9.52,9.52,0,0,1-1,2.25c-.58.85-2.54.71-3.33.84a25.84,25.84,0,0,1-2.89-.48c-.94-.26,1-2.72,1.82-3.17a12.57,12.57,0,0,0,2.25-1.5c.57-.54,2.75-4.87,3.66-9S69.23,56,69,55.1,67.26,51,66.4,48.34s-2.5-8.17-3.18-9.22-3.07-4.89-2-9.49"/><path class="cls-6" d="M69.61,79.58c.09-.23,1-.44,1.52-.9s.28-1.25.75-3.67,5.29-16.19,5.64-17.36c.29-1-1.46-4.55-2.09-9.22-.09-.29-.13-.44-.13-.44a11.68,11.68,0,0,0-1.2,3.85c-.28,2.22.28,4.57.14,5.54s-1.94-1.66-2.08-1.24-.14,4.29-.41,6.09-1.94-4.57-1.94-4.57l-.17.72c.53,3,1.06,7.47.47,10.13-.91,4.14-3.09,8.47-3.66,9a6.84,6.84,0,0,1-.9.69,1.57,1.57,0,0,1,.93.5,19.19,19.19,0,0,1,2.12,3.12l.26-.43A11.39,11.39,0,0,0,69.61,79.58Z"/><path class="cls-16" d="M84.06,13.42a31.26,31.26,0,0,1-3.28,12.16c-2.55,4.87-5.7,14.14-5.57,20.12s2.66,10.78,2.31,11.95S72.34,72.59,71.88,75s-.18,3.22-.75,3.67-1.43.67-1.52.9a9.52,9.52,0,0,1-1,2.25c-.58.85-2.54.71-3.33.84a25.84,25.84,0,0,1-2.89-.48c-.94-.26,1-2.72,1.82-3.17a12.57,12.57,0,0,0,2.25-1.5c.57-.54,2.75-4.87,3.66-9S69.23,56,69,55.1,67.26,51,66.4,48.34s-2.5-8.17-3.18-9.22-3.07-4.89-2-9.49"/><path class="cls-9" d="M63.13,22.1a10.91,10.91,0,0,1-.36,1.74"/><path class="cls-9" d="M63.18,16.56a29.73,29.73,0,0,1,0,4.56"/><path class="cls-8" d="M82.82,17.69s-1.41-7-2.47-5.82-.53,5.64-1.06,9.69-3.17,13.21-3.17,13.21S82.82,22.62,82.82,17.69Z"/></svg>