<svg id="Layer_1" data-name="Layer 1" xmlns="http://www.w3.org/2000/svg" viewBox="0 0 100 100"><defs><style>.cls-1{fill:#573a14;}</style></defs><path class="cls-1" d="M39.85,97.17H37.27c-5.84,0-11.67,0-17.51,0-2.72,0-3.61-.88-3.62-3.61,0-11.6,0-23.21,0-34.81a7.1,7.1,0,0,1,2.55-5.63c9.11-8.21,18.15-16.5,27.22-24.75.54-.5,1.08-1,1.65-1.47,1.93-1.57,3.09-1.61,5,.07q9.86,8.88,19.64,17.83c3.08,2.8,6.11,5.64,9.24,8.37a6.81,6.81,0,0,1,2.5,5.45q0,17.42,0,34.81c0,2.91-.83,3.73-3.69,3.74-6,0-11.94,0-17.91,0-1.67,0-2.17-.48-2.15-2.15.07-9.12,0-18.24.07-27.36,0-1.9-.49-2.58-2.47-2.54-5.23.12-10.46.09-15.69,0-1.67,0-2.21.53-2.2,2.19.06,9.05,0,18.11,0,27.16Z"/><path class="cls-1" d="M50.33,2.79c1.44.77,3.1,1.28,4.28,2.33,10.91,9.81,21.74,19.71,32.6,29.59,2.67,2.43,5.36,4.86,8,7.31,2.38,2.2,2.51,3.93.5,6.45-.76.94-1.54,1.85-2.35,2.75-2,2.3-4.11,2.42-6.42.33q-8.77-8-17.53-16-8.1-7.38-16.22-14.74c-2.53-2.29-3.89-2.29-6.41,0l-33,30c-3.38,3.07-5,3-7.95-.57-4.12-4.92-4-5.56.74-9.91Q25.71,23,44.78,5.61A9.86,9.86,0,0,1,50.33,2.79Z"/></svg>