<?xml version="1.0" encoding="utf-8"?>
<!-- Generator: Adobe Illustrator 23.0.5, SVG Export Plug-In . SVG Version: 6.00 Build 0)  -->
<svg version="1.1" id="Layer_1" xmlns="http://www.w3.org/2000/svg" xmlns:xlink="http://www.w3.org/1999/xlink" x="0px" y="0px"
	 viewBox="0 0 100 100" style="enable-background:new 0 0 100 100;" xml:space="preserve">
<style type="text/css">
	.st0{fill:#573B17;}
	.st1{fill-rule:evenodd;clip-rule:evenodd;fill:#573B17;}
</style>
<g>
	<path class="st0" d="M206.09,14.67l-0.56,16.32l-6.15-4.19l-6.15,3.47l1.27-17.5l-8.71-1.2v36.68l32.08,3.65V15.98L206.09,14.67
		L206.09,14.67z M259.49-32.14c0.33-0.06,0.67,0,0.95,0.17c0.48,0.2,0.82,0.67,0.83,1.23l0.28,37.79l14.09,1.85l0,0
		c0.33-0.06,0.67,0,0.95,0.17c0.48,0.2,0.82,0.67,0.83,1.23l0.28,38.74c0.02,0.47-0.21,0.94-0.65,1.2l-15.82,9.43
		c-0.22,0.17-0.5,0.27-0.8,0.27c-0.07,0-0.15-0.01-0.21-0.02l-41.05-4.57c-0.1-0.01-0.2-0.02-0.29-0.05l-35.18-4.52
		c-0.71-0.03-1.27-0.62-1.27-1.33v-39.4l0,0c-0.02-0.53,0.28-1.04,0.8-1.26l18.52-8.15V-26.4l0,0c-0.02-0.53,0.28-1.04,0.8-1.26
		l20.59-9.06l0,0c0.21-0.09,0.46-0.13,0.71-0.1L259.49-32.14L259.49-32.14L259.49-32.14z M260.27,9.57l-12.38,7.39l12.29,1.57
		l11.77-7.42L260.27,9.57L260.27,9.57z M201.74,6.99V3.57L188.6,9.35l7.54,0.96L201.74,6.99L201.74,6.99z M245.61-19.63v34.85
		l11.82-7.06l1.44-1.22l-0.25-34.77L245.61-19.63L245.61-19.63L245.61-19.63z M242.22,16.08v-36.05l-16.8-2.24l-0.57,16.73
		l-6.15-4.19l-6.15,3.47l1.27-17.5l-9.42-1.2v36.68L242.22,16.08L242.22,16.08L242.22,16.08z M240.17-31.98l-12.91,7.33l16.8,2.14
		l11.77-7.42L240.17-31.98L240.17-31.98L240.17-31.98z M215.47-26.16l12.52-7.43l-4.13-0.54l-15.93,7L215.47-26.16L215.47-26.16z
		 M261.74,21.4v34.85l13.27-7.91l-0.26-35.14L261.74,21.4L261.74,21.4L261.74,21.4z M258.36,57.11V21.06l-16.8-2.24l-0.57,16.73
		l-6.15-4.19l-6.15,3.47l1.27-17.5l-8.71-0.85v36.68L258.36,57.11L258.36,57.11L258.36,57.11z"/>
</g>
<path class="st1" d="M8.83,84.4c2.41,0,4.36,1.95,4.36,4.36c0,2.41-1.95,4.36-4.36,4.36s-4.36-1.95-4.36-4.36S6.42,84.4,8.83,84.4
	L8.83,84.4z M94.61,78.89c0-0.06,0-0.12,0-0.17c-0.28-0.02-0.56-0.07-0.83-0.13c-0.46-0.14-0.91-0.34-1.32-0.59
	c-0.21-0.21-0.39-0.45-0.54-0.72c-0.14,0.27-0.31,0.51-0.53,0.72c-1.52,1.15-3.62,1.15-5.14,0c-0.21-0.21-0.39-0.45-0.54-0.72
	c-0.14,0.27-0.31,0.51-0.53,0.72c-1.52,1.15-3.62,1.15-5.14,0c-0.21-0.21-0.39-0.45-0.54-0.72c-0.14,0.27-0.31,0.51-0.53,0.72
	c-1.52,1.15-3.62,1.15-5.14,0c-0.21-0.21-0.39-0.45-0.54-0.72c-0.14,0.27-0.31,0.51-0.53,0.72c-0.53,0.37-1.13,0.64-1.77,0.79h-0.38
	c0,0,0,0.07,0,0.11v13c-0.01,0.02-0.01,0.04,0,0.06c0.02,0.01,0.05,0.01,0.07,0h7.74v-7.61c-0.01-0.29,0.11-0.58,0.31-0.79
	c0.21-0.2,0.49-0.32,0.79-0.31h6.12c0.6,0.01,1.08,0.49,1.09,1.09v7.61h7.74c0.02,0.01,0.04,0.01,0.06,0c0.01-0.02,0.01-0.04,0-0.06
	V78.87L94.61,78.89z M43.85,92.68c0.57-0.4,1.29-0.53,1.96-0.33c0.56,0.16,1.11,0.3,1.66,0.42c0.55,0.12,1.11,0.24,1.68,0.33
	c0.32,0.04,0.62,0.14,0.9,0.3c0.38,0.26,0.67,0.61,0.86,1.03c0.18,0.41,0.24,0.87,0.17,1.32c-0.06,0.33-0.18,0.64-0.36,0.92
	c-0.24,0.37-0.58,0.66-0.98,0.85l0,0c-0.41,0.18-0.86,0.24-1.3,0.17h-0.05c-0.63-0.11-1.27-0.24-1.93-0.38s-1.26-0.3-1.89-0.47l0,0
	c-0.29-0.05-0.57-0.15-0.82-0.3c-0.22-0.16-0.42-0.36-0.57-0.58c-0.41-0.57-0.53-1.29-0.33-1.96c0.07-0.27,0.19-0.52,0.35-0.74
	c0.16-0.23,0.36-0.42,0.59-0.58L43.85,92.68z M57.88,93.81c0.39-0.3,0.86-0.47,1.35-0.5c0.57,0,1.13-0.06,1.69-0.12l0,0
	c0.55-0.05,1.12-0.12,1.71-0.2c0.15-0.02,0.3-0.02,0.45,0c0.15,0,0.31,0.03,0.46,0.06l0,0c0.68,0.15,1.25,0.6,1.57,1.21
	c0.18,0.37,0.27,0.78,0.24,1.2c-0.02,0.41-0.14,0.81-0.36,1.16c-0.36,0.55-0.93,0.93-1.57,1.05h-0.04
	c-0.61,0.09-1.25,0.17-1.91,0.24c-0.67,0.06-1.34,0.11-2.01,0.13c-0.27,0.01-0.53-0.01-0.79-0.09c-0.47-0.13-0.89-0.41-1.2-0.79
	c-0.31-0.39-0.48-0.86-0.5-1.35c-0.01-0.25,0.02-0.5,0.09-0.74l0,0c0.14-0.46,0.41-0.87,0.79-1.17l0,0L57.88,93.81z M80.08,91.99
	h5.11V84.9h-5.11V91.99z M96.13,78.61c0.04,0.1,0.06,0.2,0.06,0.31v13c0,0.45-0.19,0.87-0.5,1.19c-0.31,0.32-0.74,0.5-1.18,0.5
	H70.73c-0.93,0-1.68-0.76-1.68-1.68V78.87c0-0.1,0.02-0.2,0.06-0.3c-0.36-0.13-0.68-0.33-0.95-0.6c-0.56-0.55-0.87-1.3-0.87-2.09
	v-1.16l0,0c-0.01-0.05-0.01-0.11,0-0.17l2.08-6.66c0.19-0.6,0.77-0.99,1.39-0.94h23.51c0.62-0.02,1.19,0.35,1.42,0.93l2.23,6.66
	c0.02,0.05,0.04,0.1,0.05,0.16l0,0v1.17c0,0.78-0.31,1.53-0.87,2.09c-0.27,0.28-0.61,0.48-0.98,0.59L96.13,78.61z M28.62,39.57
	c-0.26,0.28-0.34,0.37-0.63,0.72l0,0c-0.36,0.43-1.14,1.45-1.5,1.9c-0.27,0.36-0.63,0.63-1.05,0.79l0,0
	c-0.42,0.15-0.88,0.18-1.32,0.09l0,0c-0.78-0.18-1.42-0.74-1.69-1.5c-0.16-0.43-0.19-0.9-0.09-1.35c0.07-0.3,0.2-0.59,0.39-0.84l0,0
	c0.39-0.52,1.23-1.57,1.64-2.09c0.42-0.52,0.52-0.61,0.97-1.09l0,0l0.06-0.06l-1.07-0.09c-1.06-0.09-1.85-1.03-1.76-2.09
	c0.09-1.06,1.03-1.85,2.09-1.76l6.07,0.53c1.06,0.09,1.84,1.01,1.76,2.07c0,0,0,0,0,0.01v5.89c0.07,1.06-0.74,1.98-1.8,2.05
	c-1.06,0.07-1.98-0.74-2.05-1.8c-0.01-0.08-0.01-0.16,0-0.25v-1.13H28.62z M36.95,37.27c0-4.41-0.12-7.14,3.05-9.06
	c1.72-0.92,6.11-1.28,8.07-2.55c0.31-0.69,0.58-1.41,0.79-2.14v-0.06c-0.69-0.79-1.31-1.64-1.85-2.54l-1.57-2.29
	c-0.5-0.67-0.81-1.47-0.9-2.31c-0.02-0.29,0.04-0.57,0.16-0.83c0.12-0.25,0.31-0.47,0.54-0.63c0.12-0.08,0.25-0.15,0.39-0.2
	c-0.11-1.52-0.13-3.04-0.07-4.56c0.04-0.35,0.1-0.69,0.2-1.03c0.68-2.06,2.33-3.66,4.41-4.28c1.02-0.32,0.67-1.16,1.64-1.11
	c2.36,0.13,6.04,1.66,7.44,3.29c1.98,2.27,1.46,5.08,1.4,7.87l0,0c0.42,0.11,0.75,0.45,0.83,0.87c0.09,0.74-0.06,1.48-0.42,2.13l0,0
	c0,0.02,0,0.03,0,0.05l-1.81,2.74c-0.64,1.17-1.43,2.24-2.36,3.19l-0.05,0.05c0.09,0.13,0.19,0.27,0.29,0.42
	c0.31,0.46,0.67,0.98,1.01,1.39c1.97,1.23,6.3,1.57,8,2.5c3.53,2.01,2.79,4.87,3.04,9.06L36.95,37.27z M48.58,26.55
	c2.2,2.47,7.19,2.04,9.03,0c-0.46-0.54-0.88-1.12-1.27-1.72c-0.09-0.13-0.17-0.25-0.25-0.36c-0.91,0.61-1.98,0.92-3.07,0.9
	c-1.23,0-2.42-0.43-3.36-1.23c-0.23,0.79-0.56,1.56-0.98,2.27c-0.03,0.04-0.07,0.08-0.11,0.11L48.58,26.55z M46.58,15.39
	c-0.61,0-1.13,0.21-1.11,0.9c0.09,0.68,0.36,1.32,0.79,1.85l0,0l1.57,2.29c0.59,1.02,1.3,1.97,2.13,2.81
	c0.82,0.79,1.92,1.23,3.05,1.23c1.21,0.02,2.37-0.44,3.23-1.28c0.86-0.89,1.6-1.89,2.2-2.97l1.83-2.72
	c0.28-0.48,0.41-1.02,0.38-1.57c-0.11-0.43-0.9-0.22-1.18-0.28c-0.16,0.02-0.33,0.02-0.5,0l0.61-2.71
	c-4.56,0.72-7.96-2.67-12.78-0.68l0.35,3.2c-0.18,0.02-0.37,0.02-0.55,0L46.58,15.39z M90.12,56.31c0.66-0.83,1.88-0.97,2.71-0.3
	c0.83,0.66,0.97,1.88,0.3,2.71l-3.8,4.72c-0.62,0.79-1.74,0.96-2.57,0.41l-5.05-3.33c-0.89-0.59-1.13-1.78-0.55-2.67
	c0.59-0.89,1.78-1.13,2.67-0.55l1.07,0.62c-0.07-0.21-0.11-0.43-0.12-0.65c-0.05-0.56,0-0.2-0.07-0.72
	c-0.07-0.51-0.24-1.62-0.35-2.16c-0.09-0.5-0.01-1.01,0.21-1.46l0,0c0.23-0.44,0.59-0.79,1.03-1.02c0.21-0.11,0.44-0.19,0.67-0.22
	l0,0c0.49-0.08,0.99,0,1.44,0.22c0.45,0.23,0.82,0.59,1.05,1.04c0.11,0.21,0.18,0.44,0.22,0.67l0,0c0.12,0.66,0.31,1.83,0.37,2.36
	c0.06,0.53,0.05,0.3,0.1,0.96l0,0l0,0l0.62-0.73L90.12,56.31z M74.77,35.74c0.42,0.4,0.39,0.38,0.79,0.79l0,0
	c0.39,0.42,0.79,0.84,1.15,1.28c0.29,0.34,0.66,0.59,1.08,0.73l0,0c0.43,0.13,0.89,0.13,1.32,0l0,0c0.32-0.09,0.61-0.25,0.87-0.46
	c0.36-0.29,0.64-0.68,0.79-1.13c0.23-0.75,0.07-1.56-0.42-2.17l0,0c-0.42-0.5-0.85-0.99-1.3-1.47c-0.45-0.48-0.46-0.5-0.94-0.95l0,0
	c-2.24-2.17-5.51,1.23-3.29,3.38L74.77,35.74z M81.13,42.57c-0.07,0.5,0.01,1.01,0.25,1.46c0.27,0.5,0.53,1.02,0.79,1.53
	s0.46,1.02,0.68,1.57l0,0c0.07,0.16,0.15,0.32,0.25,0.46l0,0c0.1,0.14,0.22,0.27,0.35,0.38v0.04c0.49,0.41,1.12,0.61,1.75,0.55
	c0.87-0.08,1.62-0.63,1.96-1.43c0.24-0.58,0.24-1.23,0-1.81c-0.26-0.61-0.52-1.21-0.79-1.79c-0.27-0.58-0.55-1.15-0.86-1.72l0,0
	c-0.11-0.2-0.24-0.39-0.4-0.56c-0.36-0.36-0.83-0.6-1.33-0.68c-0.5-0.08-1.02,0.01-1.46,0.25c-0.2,0.11-0.39,0.25-0.56,0.41
	c-0.36,0.36-0.6,0.83-0.67,1.33H81.13z M19.75,57.79c0.25,0.44,0.35,0.95,0.3,1.46c-0.07,0.54-0.13,1.05-0.16,1.57
	c-0.03,0.28-0.05,0.57-0.05,0.85c0,3.09-4.72,3.05-4.72,0l0,0c0-0.66,0-0.51,0.06-1.09c0.06-0.58,0.09-1.15,0.17-1.82l0,0
	c0.02-0.23,0.08-0.46,0.18-0.68c0.2-0.46,0.55-0.85,0.99-1.09c0.43-0.25,0.93-0.35,1.42-0.3l0,0c0.24,0.03,0.47,0.09,0.68,0.19
	c0.45,0.2,0.83,0.54,1.08,0.96l0,0L19.75,57.79z M22.72,46.65c0.1,0.5,0.05,1.01-0.17,1.47c-0.24,0.52-0.48,1.05-0.69,1.57
	c-0.21,0.53-0.58,1.57-0.79,2.09v0.04c-0.06,0.16-0.13,0.32-0.23,0.46v0.04c-0.1,0.14-0.2,0.27-0.32,0.39l0,0
	c-0.46,0.44-1.08,0.68-1.72,0.65c-0.43-0.03-0.84-0.16-1.2-0.39c-0.92-0.58-1.31-1.72-0.94-2.74c0.22-0.63,0.63-1.75,0.87-2.36
	c0.24-0.61,0.49-1.18,0.79-1.76l0,0c0.1-0.21,0.23-0.4,0.38-0.57c0.69-0.78,1.81-1.02,2.76-0.58c0.68,0.31,1.17,0.93,1.32,1.67
	L22.72,46.65z M24.08,70.3h11.08c0.82-0.02,1.49,0.63,1.51,1.45c0,0.01,0,0.02,0,0.02v8.25c0,0.81-0.66,1.47-1.47,1.47H24.08
	c-0.39,0-0.77-0.15-1.04-0.43c-0.27-0.28-0.43-0.65-0.42-1.04v-8.25C22.62,70.96,23.28,70.31,24.08,70.3z M27.64,71.72h3.98
	l0.08,5.93l-2.11-1.31l-2.04,1.31l0.09-5.9L27.64,71.72z M31.06,83.9c2.69,0,4.86,2.18,4.86,4.86s-2.18,4.86-4.86,4.86
	s-4.86-2.18-4.86-4.86S28.38,83.9,31.06,83.9L31.06,83.9z M31.06,87.04c0.93,0,1.68,0.75,1.68,1.68c0,0.93-0.75,1.68-1.68,1.68
	c-0.93,0-1.68-0.75-1.68-1.68l0,0c0.03-0.91,0.78-1.63,1.68-1.62L31.06,87.04z M38.09,89.82c-0.33,0-0.61-0.27-0.61-0.61
	c0,0,0-0.01,0-0.01c0-0.33,0.26-0.6,0.59-0.61c0.01,0,0.01,0,0.02,0h1.53c0.3,0,0.58-0.13,0.79-0.35c0.22-0.23,0.34-0.53,0.35-0.84
	V69.6c0-0.29-0.12-0.58-0.32-0.79l0,0c-0.21-0.2-0.5-0.3-0.79-0.3H19.61c-0.62,0-1.12,0.5-1.12,1.12v19.04h5.37
	c0.33,0,0.61,0.27,0.61,0.61c0,0.34-0.27,0.61-0.61,0.61h-5.98c-0.34,0-0.61-0.27-0.61-0.61v-0.73h-3.01c-0.3-6.7-9.92-7.63-10.9,0
	H1.26l0.65-6.99l6.93-2.66l2.76-5.96h5.67V69.6c0-1.3,1.06-2.36,2.36-2.36h20c0.6,0,1.18,0.23,1.61,0.65l0,0
	c0.44,0.44,0.69,1.03,0.69,1.65v17.85c0,0.63-0.25,1.23-0.69,1.68c-0.43,0.46-1.03,0.72-1.65,0.72L38.09,89.82z M12.91,74.7h3.67
	v4.18h-5.51l1.84-4.14L12.91,74.7z M8.83,87.1c0.93,0,1.68,0.75,1.68,1.68s-0.75,1.68-1.68,1.68c-0.93,0-1.68-0.75-1.68-1.68l0,0
	C7.16,87.85,7.91,87.1,8.83,87.1z"/>
</svg>
