<?xml version="1.0" encoding="utf-8"?>
<!-- Generator: Adobe Illustrator 23.0.5, SVG Export Plug-In . SVG Version: 6.00 Build 0)  -->
<svg version="1.1" id="Layer_1" xmlns="http://www.w3.org/2000/svg" xmlns:xlink="http://www.w3.org/1999/xlink" x="0px" y="0px"
	 viewBox="0 0 100 100" style="enable-background:new 0 0 100 100;" xml:space="preserve">
<style type="text/css">
	.st0{fill:#573B17;}
	.st1{fill-rule:evenodd;clip-rule:evenodd;fill:#573B17;}
	.st2{fill-rule:evenodd;clip-rule:evenodd;fill:#FFFFFF;}
</style>
<g>
	<path class="st0" d="M206.1,14.7L205.5,31l-6.1-4.2l-6.1,3.5l1.3-17.5l-8.7-1.2v36.7l32.1,3.7V16L206.1,14.7L206.1,14.7z
		 M259.5-32.1c0.3-0.1,0.7,0,1,0.2c0.5,0.2,0.8,0.7,0.8,1.2L261.5,7l14.1,1.9l0,0c0.3-0.1,0.7,0,1,0.2c0.5,0.2,0.8,0.7,0.8,1.2
		l0.3,38.7c0,0.5-0.2,0.9-0.6,1.2l-15.8,9.4c-0.2,0.2-0.5,0.3-0.8,0.3c-0.1,0-0.1,0-0.2,0l-41.1-4.6c-0.1,0-0.2,0-0.3,0l-35.2-4.5
		c-0.7,0-1.3-0.6-1.3-1.3V10l0,0c0-0.5,0.3-1,0.8-1.3l18.5-8.1v-27l0,0c0-0.5,0.3-1,0.8-1.3l20.6-9.1l0,0c0.2-0.1,0.5-0.1,0.7-0.1
		L259.5-32.1L259.5-32.1L259.5-32.1z M260.3,9.6L247.9,17l12.3,1.6l11.8-7.4L260.3,9.6L260.3,9.6z M201.7,7V3.6l-13.1,5.8l7.5,1
		L201.7,7L201.7,7z M245.6-19.6v34.8l11.8-7.1l1.4-1.2l-0.3-34.8L245.6-19.6L245.6-19.6L245.6-19.6z M242.2,16.1v-36l-16.8-2.2
		l-0.6,16.7l-6.1-4.2l-6.1,3.5l1.3-17.5l-9.4-1.2v36.7L242.2,16.1L242.2,16.1L242.2,16.1z M240.2-32l-12.9,7.3l16.8,2.1l11.8-7.4
		L240.2-32L240.2-32L240.2-32z M215.5-26.2l12.5-7.4l-4.1-0.5l-15.9,7L215.5-26.2L215.5-26.2z M261.7,21.4v34.8l13.3-7.9l-0.3-35.1
		L261.7,21.4L261.7,21.4L261.7,21.4z M258.4,57.1V21.1l-16.8-2.2L241,35.5l-6.1-4.2l-6.1,3.5l1.3-17.5l-8.7-0.9v36.7L258.4,57.1
		L258.4,57.1L258.4,57.1z"/>
</g>
<g>
	<circle class="st1" cx="49.7" cy="50.4" r="48.4"/>
	<path class="st2" d="M18,71.6c1.8,0,3.3,1.5,3.3,3.3c0,1.8-1.5,3.3-3.3,3.3c-1.8,0-3.3-1.5-3.3-3.3C14.7,73.1,16.2,71.6,18,71.6
		L18,71.6z M82.5,67.5c0,0,0-0.1,0-0.1c-0.2,0-0.4-0.1-0.6-0.1c-0.3-0.1-0.7-0.3-1-0.4c-0.2-0.2-0.3-0.3-0.4-0.5
		c-0.1,0.2-0.2,0.4-0.4,0.5c-1.1,0.9-2.7,0.9-3.9,0c-0.2-0.2-0.3-0.3-0.4-0.5c-0.1,0.2-0.2,0.4-0.4,0.5c-1.1,0.9-2.7,0.9-3.9,0
		c-0.2-0.2-0.3-0.3-0.4-0.5c-0.1,0.2-0.2,0.4-0.4,0.5c-1.1,0.9-2.7,0.9-3.9,0c-0.2-0.2-0.3-0.3-0.4-0.5c-0.1,0.2-0.2,0.4-0.4,0.5
		c-0.4,0.3-0.8,0.5-1.3,0.6h-0.3c0,0,0,0.1,0,0.1v9.8c0,0,0,0,0,0c0,0,0,0,0.1,0h5.8v-5.7c0-0.2,0.1-0.4,0.2-0.6
		c0.2-0.2,0.4-0.2,0.6-0.2h4.6c0.5,0,0.8,0.4,0.8,0.8v5.7h5.8c0,0,0,0,0,0c0,0,0,0,0,0L82.5,67.5L82.5,67.5z M44.3,77.8
		c0.4-0.3,1-0.4,1.5-0.2c0.4,0.1,0.8,0.2,1.2,0.3c0.4,0.1,0.8,0.2,1.3,0.2c0.2,0,0.5,0.1,0.7,0.2c0.3,0.2,0.5,0.5,0.6,0.8
		c0.1,0.3,0.2,0.7,0.1,1c0,0.2-0.1,0.5-0.3,0.7c-0.2,0.3-0.4,0.5-0.7,0.6l0,0c-0.3,0.1-0.6,0.2-1,0.1h0c-0.5-0.1-1-0.2-1.5-0.3
		c-0.5-0.1-0.9-0.2-1.4-0.4l0,0c-0.2,0-0.4-0.1-0.6-0.2c-0.2-0.1-0.3-0.3-0.4-0.4c-0.3-0.4-0.4-1-0.2-1.5c0.1-0.2,0.1-0.4,0.3-0.6
		C44,78.1,44.1,78,44.3,77.8L44.3,77.8z M54.9,78.7c0.3-0.2,0.6-0.4,1-0.4c0.4,0,0.8,0,1.3-0.1l0,0c0.4,0,0.8-0.1,1.3-0.2
		c0.1,0,0.2,0,0.3,0c0.1,0,0.2,0,0.3,0l0,0c0.5,0.1,0.9,0.5,1.2,0.9c0.1,0.3,0.2,0.6,0.2,0.9c0,0.3-0.1,0.6-0.3,0.9
		c-0.3,0.4-0.7,0.7-1.2,0.8h0c-0.5,0.1-0.9,0.1-1.4,0.2c-0.5,0-1,0.1-1.5,0.1c-0.2,0-0.4,0-0.6-0.1c-0.4-0.1-0.7-0.3-0.9-0.6
		c-0.2-0.3-0.4-0.6-0.4-1c0-0.2,0-0.4,0.1-0.6l0,0C54.4,79.3,54.6,79,54.9,78.7L54.9,78.7L54.9,78.7z M71.6,77.3h3.8V72h-3.8V77.3z
		 M83.6,67.3c0,0.1,0,0.2,0,0.2v9.8c0,0.3-0.1,0.7-0.4,0.9c-0.2,0.2-0.6,0.4-0.9,0.4H64.5c-0.7,0-1.3-0.6-1.3-1.3v-9.8
		c0-0.1,0-0.2,0-0.2c-0.3-0.1-0.5-0.2-0.7-0.5c-0.4-0.4-0.7-1-0.7-1.6v-0.9l0,0c0,0,0-0.1,0-0.1l1.6-5c0.1-0.5,0.6-0.7,1-0.7h17.7
		c0.5,0,0.9,0.3,1.1,0.7l1.7,5c0,0,0,0.1,0,0.1l0,0v0.9c0,0.6-0.2,1.2-0.7,1.6C84.2,67,83.9,67.1,83.6,67.3L83.6,67.3z M32.9,37.9
		c-0.2,0.2-0.3,0.3-0.5,0.5l0,0c-0.3,0.3-0.9,1.1-1.1,1.4c-0.2,0.3-0.5,0.5-0.8,0.6l0,0c-0.3,0.1-0.7,0.1-1,0.1l0,0
		c-0.6-0.1-1.1-0.6-1.3-1.1c-0.1-0.3-0.1-0.7-0.1-1c0.1-0.2,0.2-0.4,0.3-0.6l0,0c0.3-0.4,0.9-1.2,1.2-1.6c0.3-0.4,0.4-0.5,0.7-0.8
		l0,0l0,0l-0.8-0.1c-0.8-0.1-1.4-0.8-1.3-1.6c0.1-0.8,0.8-1.4,1.6-1.3l4.6,0.4c0.8,0.1,1.4,0.8,1.3,1.6c0,0,0,0,0,0v4.4
		c0.1,0.8-0.6,1.5-1.4,1.5c-0.8,0.1-1.5-0.6-1.5-1.4c0-0.1,0-0.1,0-0.2L32.9,37.9L32.9,37.9z M39.1,36.2c0-3.3-0.1-5.4,2.3-6.8
		c1.3-0.7,4.6-1,6.1-1.9c0.2-0.5,0.4-1.1,0.6-1.6v0c-0.5-0.6-1-1.2-1.4-1.9l-1.2-1.7c-0.4-0.5-0.6-1.1-0.7-1.7c0-0.2,0-0.4,0.1-0.6
		c0.1-0.2,0.2-0.4,0.4-0.5c0.1-0.1,0.2-0.1,0.3-0.2c-0.1-1.1-0.1-2.3-0.1-3.4c0-0.3,0.1-0.5,0.2-0.8c0.5-1.5,1.8-2.8,3.3-3.2
		c0.8-0.2,0.5-0.9,1.2-0.8c1.8,0.1,4.5,1.2,5.6,2.5c1.5,1.7,1.1,3.8,1.1,5.9l0,0c0.3,0.1,0.6,0.3,0.6,0.7c0.1,0.6,0,1.1-0.3,1.6l0,0
		c0,0,0,0,0,0l-1.4,2.1c-0.5,0.9-1.1,1.7-1.8,2.4l0,0c0.1,0.1,0.1,0.2,0.2,0.3c0.2,0.3,0.5,0.7,0.8,1c1.5,0.9,4.7,1.2,6,1.9
		c2.7,1.5,2.1,3.7,2.3,6.8L39.1,36.2z M47.9,28.1c1.7,1.9,5.4,1.5,6.8,0c-0.3-0.4-0.7-0.8-1-1.3c-0.1-0.1-0.1-0.2-0.2-0.3
		c-0.7,0.5-1.5,0.7-2.3,0.7c-0.9,0-1.8-0.3-2.5-0.9c-0.2,0.6-0.4,1.2-0.7,1.7C47.9,28,47.9,28.1,47.9,28.1L47.9,28.1z M46.4,19.7
		c-0.5,0-0.8,0.2-0.8,0.7c0.1,0.5,0.3,1,0.6,1.4l0,0l1.2,1.7c0.4,0.8,1,1.5,1.6,2.1c0.6,0.6,1.4,0.9,2.3,0.9c0.9,0,1.8-0.3,2.4-1
		c0.6-0.7,1.2-1.4,1.7-2.2l1.4-2c0.2-0.4,0.3-0.8,0.3-1.2c-0.1-0.3-0.7-0.2-0.9-0.2c-0.1,0-0.2,0-0.4,0l0.5-2c-3.4,0.5-6-2-9.6-0.5
		l0.3,2.4C46.7,19.8,46.5,19.8,46.4,19.7L46.4,19.7z M79.1,50.5c0.5-0.6,1.4-0.7,2-0.2c0.6,0.5,0.7,1.4,0.2,2l-2.9,3.5
		c-0.5,0.6-1.3,0.7-1.9,0.3l-3.8-2.5c-0.7-0.4-0.8-1.3-0.4-2c0.4-0.7,1.3-0.8,2-0.4l0.8,0.5c-0.1-0.2-0.1-0.3-0.1-0.5
		c0-0.4,0-0.2-0.1-0.5c-0.1-0.4-0.2-1.2-0.3-1.6c-0.1-0.4,0-0.8,0.2-1.1l0,0c0.2-0.3,0.4-0.6,0.8-0.8c0.2-0.1,0.3-0.1,0.5-0.2l0,0
		c0.4-0.1,0.7,0,1.1,0.2c0.3,0.2,0.6,0.4,0.8,0.8c0.1,0.2,0.1,0.3,0.2,0.5l0,0c0.1,0.5,0.2,1.4,0.3,1.8c0,0.4,0,0.2,0.1,0.7l0,0l0,0
		L79.1,50.5L79.1,50.5z M67.6,35c0.3,0.3,0.3,0.3,0.6,0.6l0,0c0.3,0.3,0.6,0.6,0.9,1c0.2,0.3,0.5,0.4,0.8,0.5l0,0
		c0.3,0.1,0.7,0.1,1,0l0,0c0.2-0.1,0.5-0.2,0.7-0.3c0.3-0.2,0.5-0.5,0.6-0.8c0.2-0.6,0.1-1.2-0.3-1.6l0,0c-0.3-0.4-0.6-0.7-1-1.1
		c-0.3-0.4-0.3-0.4-0.7-0.7l0,0C68.4,30.8,66,33.4,67.6,35L67.6,35z M72.4,40.2c-0.1,0.4,0,0.8,0.2,1.1c0.2,0.4,0.4,0.8,0.6,1.2
		c0.2,0.4,0.3,0.8,0.5,1.2l0,0c0.1,0.1,0.1,0.2,0.2,0.3l0,0c0.1,0.1,0.2,0.2,0.3,0.3v0c0.4,0.3,0.8,0.5,1.3,0.4
		c0.7-0.1,1.2-0.5,1.5-1.1c0.2-0.4,0.2-0.9,0-1.4c-0.2-0.5-0.4-0.9-0.6-1.3c-0.2-0.4-0.4-0.9-0.6-1.3l0,0c-0.1-0.2-0.2-0.3-0.3-0.4
		c-0.3-0.3-0.6-0.5-1-0.5s-0.8,0-1.1,0.2c-0.2,0.1-0.3,0.2-0.4,0.3C72.6,39.4,72.4,39.8,72.4,40.2L72.4,40.2L72.4,40.2z M26.2,51.6
		c0.2,0.3,0.3,0.7,0.2,1.1c-0.1,0.4-0.1,0.8-0.1,1.2c0,0.2,0,0.4,0,0.6c0,2.3-3.5,2.3-3.5,0l0,0c0-0.5,0-0.4,0-0.8s0.1-0.9,0.1-1.4
		l0,0c0-0.2,0.1-0.3,0.1-0.5c0.2-0.3,0.4-0.6,0.7-0.8c0.3-0.2,0.7-0.3,1.1-0.2l0,0c0.2,0,0.4,0.1,0.5,0.1
		C25.7,51.1,26,51.3,26.2,51.6L26.2,51.6L26.2,51.6z M28.4,43.2c0.1,0.4,0,0.8-0.1,1.1c-0.2,0.4-0.4,0.8-0.5,1.2
		c-0.2,0.4-0.4,1.2-0.6,1.6v0c0,0.1-0.1,0.2-0.2,0.3v0c-0.1,0.1-0.2,0.2-0.2,0.3l0,0c-0.3,0.3-0.8,0.5-1.3,0.5
		c-0.3,0-0.6-0.1-0.9-0.3c-0.7-0.4-1-1.3-0.7-2.1c0.2-0.5,0.5-1.3,0.7-1.8c0.2-0.5,0.4-0.9,0.6-1.3l0,0c0.1-0.2,0.2-0.3,0.3-0.4
		c0.5-0.6,1.4-0.8,2.1-0.4C28,42.2,28.4,42.7,28.4,43.2L28.4,43.2z M29.5,61h8.3c0.6,0,1.1,0.5,1.1,1.1c0,0,0,0,0,0v6.2
		c0,0.6-0.5,1.1-1.1,1.1h-8.4c-0.3,0-0.6-0.1-0.8-0.3s-0.3-0.5-0.3-0.8v-6.2C28.4,61.5,28.9,61,29.5,61z M32.1,62.1h3l0.1,4.5
		l-1.6-1l-1.5,1L32.1,62.1L32.1,62.1z M34.7,71.2c2,0,3.7,1.6,3.7,3.7c0,2-1.6,3.7-3.7,3.7s-3.7-1.6-3.7-3.7
		C31.1,72.9,32.7,71.2,34.7,71.2L34.7,71.2z M34.7,73.6c0.7,0,1.3,0.6,1.3,1.3c0,0.7-0.6,1.3-1.3,1.3s-1.3-0.6-1.3-1.3l0,0
		C33.5,74.2,34,73.6,34.7,73.6L34.7,73.6z M40,75.7c-0.2,0-0.5-0.2-0.5-0.5v0c0-0.2,0.2-0.5,0.4-0.5c0,0,0,0,0,0h1.2
		c0.2,0,0.4-0.1,0.6-0.3c0.2-0.2,0.3-0.4,0.3-0.6V60.5c0-0.2-0.1-0.4-0.2-0.6l0,0c-0.2-0.2-0.4-0.2-0.6-0.2H26.1
		c-0.5,0-0.8,0.4-0.8,0.8v14.3h4c0.2,0,0.5,0.2,0.5,0.5s-0.2,0.5-0.5,0.5h-4.5c-0.3,0-0.5-0.2-0.5-0.5v-0.5h-2.3
		c-0.2-5-7.5-5.7-8.2,0h-1.6l0.5-5.3l5.2-2l2.1-4.5h4.3v-2.5c0-1,0.8-1.8,1.8-1.8h15c0.5,0,0.9,0.2,1.2,0.5l0,0
		c0.3,0.3,0.5,0.8,0.5,1.2v13.4c0,0.5-0.2,0.9-0.5,1.3c-0.3,0.3-0.8,0.5-1.2,0.5L40,75.7z M21.1,64.3h2.8v3.1h-4.1L21.1,64.3
		L21.1,64.3z M18,73.6c0.7,0,1.3,0.6,1.3,1.3c0,0.7-0.6,1.3-1.3,1.3c-0.7,0-1.3-0.6-1.3-1.3l0,0C16.7,74.2,17.3,73.6,18,73.6z"/>
</g>
</svg>
