<?xml version="1.0" encoding="utf-8"?>
<!-- Generator: Adobe Illustrator 23.0.5, SVG Export Plug-In . SVG Version: 6.00 Build 0)  -->
<svg version="1.1" id="Layer_1" xmlns="http://www.w3.org/2000/svg" xmlns:xlink="http://www.w3.org/1999/xlink" x="0px" y="0px"
	 viewBox="0 0 100 100" style="enable-background:new 0 0 100 100;" xml:space="preserve">
<style type="text/css">
	.st0{fill:#573B17;}
</style>
<g>
	<path class="st0" d="M25.66,53.47L25.1,69.8l-6.15-4.19l-6.15,3.47l1.27-17.5l-8.71-1.2v36.68l32.08,3.65V54.78L25.66,53.47
		L25.66,53.47z M79.07,6.67c0.33-0.06,0.67,0,0.95,0.17c0.48,0.2,0.82,0.67,0.83,1.23l0.28,37.79l14.09,1.85l0,0
		c0.33-0.06,0.67,0,0.95,0.17c0.48,0.2,0.82,0.67,0.83,1.23l0.28,38.74c0.02,0.47-0.21,0.94-0.65,1.2L80.8,98.49
		c-0.22,0.17-0.5,0.27-0.8,0.27c-0.07,0-0.15-0.01-0.21-0.02l-41.05-4.57c-0.1-0.01-0.2-0.02-0.29-0.05L3.27,89.6
		C2.56,89.57,2,88.98,2,88.27v-39.4l0,0c-0.02-0.53,0.28-1.04,0.8-1.26l18.52-8.15V12.41l0,0c-0.02-0.53,0.28-1.04,0.8-1.26
		L42.7,2.09l0,0c0.21-0.09,0.46-0.13,0.71-0.1L79.07,6.67L79.07,6.67L79.07,6.67z M79.85,48.38l-12.38,7.39l12.29,1.57l11.77-7.42
		L79.85,48.38L79.85,48.38z M21.31,45.8v-3.42L8.18,48.15l7.54,0.96L21.31,45.8L21.31,45.8z M65.18,19.17v34.85L77,46.97l1.44-1.22
		l-0.25-34.77L65.18,19.17L65.18,19.17L65.18,19.17z M61.8,54.88V18.83L45,16.6l-0.57,16.73l-6.15-4.19l-6.15,3.47l1.27-17.5
		l-9.42-1.2v36.68L61.8,54.88L61.8,54.88L61.8,54.88z M59.74,6.82l-12.91,7.33l16.8,2.14L75.4,8.88L59.74,6.82L59.74,6.82
		L59.74,6.82z M35.05,12.64l12.52-7.43l-4.13-0.54l-15.93,7L35.05,12.64L35.05,12.64z M81.32,60.21v34.85l13.27-7.91l-0.26-35.14
		L81.32,60.21L81.32,60.21L81.32,60.21z M77.93,95.92V59.87l-16.8-2.24l-0.57,16.73l-6.15-4.19l-6.15,3.47l1.27-17.5l-8.71-0.85
		v36.68L77.93,95.92L77.93,95.92L77.93,95.92z"/>
</g>
</svg>
