<?xml version="1.0" encoding="utf-8"?>
<!-- Generator: Adobe Illustrator 23.0.5, SVG Export Plug-In . SVG Version: 6.00 Build 0)  -->
<svg version="1.1" id="Layer_1" xmlns="http://www.w3.org/2000/svg" xmlns:xlink="http://www.w3.org/1999/xlink" x="0px" y="0px"
	 viewBox="0 0 100 100" style="enable-background:new 0 0 100 100;" xml:space="preserve">
<style type="text/css">
	.st0{fill-rule:evenodd;clip-rule:evenodd;fill:#573C18;}
	.st1{fill:#573C18;}
</style>
<g>
	<path class="st0" d="M16.69,11.44h12.35v6.49h-7.16c-2.39,0.03-4.32,1.95-4.35,4.34V88.1c0.02,2.39,1.96,4.33,4.35,4.34h56.74
		c2.4-0.01,4.33-1.95,4.34-4.34V22.24c-0.02-2.39-1.95-4.32-4.34-4.34h-7.16v-6.46h12.31c2.84,0.01,5.13,2.31,5.15,5.15v77.16
		c-0.02,2.84-2.31,5.13-5.15,5.15H16.69c-2.86-0.01-5.16-2.34-5.15-5.19c0,0,0,0,0,0V16.54C11.58,13.72,13.87,11.45,16.69,11.44z
		 M65.3,26.15h3.48c0.65,0,1.19,0.53,1.19,1.19c0,0.01,0,0.01,0,0.02v4.42h4.43c0.64,0.01,1.15,0.52,1.17,1.15v3.48
		c0,0.65-0.52,1.17-1.17,1.19h-4.43v4.32c0,0.65-0.53,1.18-1.19,1.18H65.3c-0.65,0-1.18-0.53-1.19-1.18v-4.32H59.7
		c-0.65,0-1.18-0.53-1.18-1.18v-3.49c0-0.65,0.53-1.18,1.18-1.18h4.42v-4.39c0-0.65,0.53-1.19,1.19-1.19V26.15z M26.66,80.25h37.55
		v3.59H26.66V80.25L26.66,80.25z M26.66,69.45h48.92v3.58H26.66V69.45z M26.66,57.1h12.92l3.39-4.71l4.15,5.99l4.55-8.89l4.91,9.6
		l2.23-1.64l1.06-0.36h15.69v3.58H60.44l-5.14,3.79l-3.64-7.16l-4.09,7.96l-4.66-6.71l-1.52,2.11H26.66v-3.58V57.1z M36.21,8.26
		h5.83c0.4-3.98,3.69-7.05,7.69-7.16c3.99,0.09,7.3,3.13,7.72,7.1l6.83,0.06c0.47,0,0.86,0.38,0.86,0.86c0,0,0,0,0,0v8.27
		c0,0.47-0.38,0.86-0.86,0.86l0,0H36.21c-0.47,0-0.86-0.38-0.86-0.86V9.15c-0.03-0.46,0.33-0.86,0.79-0.89
		C36.17,8.26,36.19,8.26,36.21,8.26z M46.55,11.78c0.54,0.76,1.25,1.38,2.08,1.81c0.66,0.18,1.36,0.18,2.03,0
		c1.07-0.58,1.92-1.48,2.43-2.59c0.05-0.28,0.08-0.57,0.08-0.86c0.13-1.92-1.32-3.58-3.24-3.71c-1.92-0.13-3.58,1.32-3.71,3.24
		c-0.01,0.16-0.01,0.31,0,0.47c0,0.55,0.11,1.09,0.33,1.59L46.55,11.78z"/>
	<path class="st1" d="M42.7,39.67c-0.11,0.31-0.22,0.62-0.34,0.93c-0.25,0.69-0.42,1.44-0.78,2.07c-0.54,0.92-0.7,1.84-0.33,2.94
		c-0.6-0.15-1.1-0.27-1.49-0.36c-0.02-0.35-0.05-0.64-0.06-0.92c0-0.13,0.02-0.27,0.07-0.39c0.05-0.12,0.14-0.24,0.22-0.34
		c1.2-1.4,1.32-2.92,0.53-4.56c-0.12-0.24-0.2-0.5-0.3-0.76c-0.01-0.02-0.03-0.03-0.07-0.07c-0.68,0.16-1.38,0.35-2.08,0.47
		c-1.36,0.25-2.66-0.06-3.95-0.48c-1.46-0.48-2.16-0.04-2.38,1.47c-0.18,1.23,0.11,2.32,0.91,3.31c0.65,0.8,1.21,1.67,1.9,2.62
		c-0.73,0-1.27,0-1.88,0c-0.51-1.16-0.98-2.36-1.55-3.51c-0.58-1.17-1.26-2.3-1.89-3.43c-1.62,1.31-2.25,4.03-1.51,6.93
		c-0.56,0-1.12,0-1.57,0c-0.11-0.5-0.26-0.97-0.32-1.46c-0.04-0.28,0.04-0.58,0.1-0.87c0.2-0.82,0.42-1.63,0.63-2.45
		c-0.07-0.02-0.13-0.05-0.2-0.07c-0.19,0.37-0.38,0.74-0.6,1.17c-0.23-0.97-0.51-1.86-0.64-2.78c-0.06-0.41,0.16-0.86,0.28-1.29
		c0.18-0.64,0.48-1.27,0.56-1.93c0.15-1.12,0.16-2.27,0.24-3.4c0.2-2.79,2.07-4.3,4.75-4.5c1.09-0.08,2.23,0.07,3.31,0.29
		c2.51,0.5,4.93,0.3,7.28-0.67c1.37-0.56,2.71-0.54,4.13-0.17c0.88,0.23,1.83,0.21,2.75,0.25c0.27,0.01,0.55-0.15,0.86-0.24
		c-1.18-1.27-1.25-1.93-0.3-2.8c0.01,0.19,0.02,0.33,0.02,0.47c0.03,1.09,0.63,1.53,1.71,1.3c0.32-0.07,0.68-0.09,1-0.02
		c1.29,0.26,1.76-0.11,1.8-1.44c0-0.08,0.02-0.17,0.03-0.27c1.05,0.75,0.91,1.61-0.49,2.8c0.19,0.22,0.37,0.44,0.56,0.65
		c0.33,0.37,0.54,0.73,0.36,1.29c-0.08,0.26,0.08,0.66,0.24,0.93c0.22,0.36,0.55,0.66,0.83,0.99c0.27,0.32,0.62,0.69,0.29,1.07
		c-0.31,0.37-0.76,0.73-1.21,0.84c-0.62,0.15-1.29,0.07-1.94,0.07c-0.25,0-0.51,0.01-0.74-0.07c-0.56-0.18-1.05-0.05-1.47,0.29
		c-0.8,0.67-1.61,1.34-2.34,2.08c-0.27,0.28-0.44,0.76-0.47,1.16c-0.04,0.54-0.29,0.86-0.76,1.01c-1.24,0.38-1.73,1.2-1.63,2.48
		c0.04,0.44-0.03,0.92-0.19,1.33c-0.31,0.84-0.2,1.6,0.22,2.35c0.28,0.51,0.56,1.02,0.87,1.6c-0.62,0-1.15,0-1.53,0
		c-0.29-0.41-0.59-0.71-0.74-1.07c-0.12-0.31-0.11-0.71-0.07-1.05C43.56,42.17,43.4,40.92,42.7,39.67z M27.88,30.29
		c-1.68,2.51-0.91,5.38-1.19,8.1C28.11,35.85,28.18,33.1,27.88,30.29z"/>
</g>
</svg>
