<svg id="Layer_1" data-name="Layer 1" xmlns="http://www.w3.org/2000/svg" viewBox="0 0 100 100"><defs><style>.cls-1{fill:#ffffff;}.cls-2,.cls-4{fill:none;stroke-miterlimit:10;}.cls-2{stroke:#ffffff;}.cls-3{fill:#fff;}.cls-4{stroke:#fff;}</style></defs><polygon class="cls-1" points="15.2 13.5 71.08 13.5 73.36 14.4 73.55 16.45 73.55 83.92 74.32 87.23 76.94 91 76.75 91.89 20.25 91.89 17.45 91.13 15.15 89.08 13.17 86.4 12.85 84.04 12.85 44.28 12.85 15.11 13.49 13.96 15.2 13.5"/><path class="cls-2" d="M87.31,26.32h-4V23.69a4.36,4.36,0,0,0-4.35-4.36h-3.5V16a4.35,4.35,0,0,0-4.35-4.35H15.2A4.35,4.35,0,0,0,10.85,16V83.15A10.57,10.57,0,0,0,21.41,93.71H82.64c5,0,9-5,9-11.17V30.67A4.36,4.36,0,0,0,87.31,26.32ZM21.41,91.88a8.75,8.75,0,0,1-8.74-8.73V16A2.53,2.53,0,0,1,15.2,13.5H71.08A2.53,2.53,0,0,1,73.61,16V82.54a12,12,0,0,0,4.09,9.34Zm68.43-9.34c0,5.15-3.23,9.34-7.2,9.34s-7.2-4.19-7.2-9.34V21.16h3.49a2.53,2.53,0,0,1,2.53,2.53V83.21a.91.91,0,0,0,1.82,0V28.14h4a2.53,2.53,0,0,1,2.53,2.53V82.54Z"/><path class="cls-3" d="M42.73,66.9H21.14a2.57,2.57,0,0,1-2.57-2.57V42.49a2.57,2.57,0,0,1,2.57-2.57H42.73a2.57,2.57,0,0,1,2.57,2.57V64.33A2.57,2.57,0,0,1,42.73,66.9ZM21.14,41.74a.76.76,0,0,0-.75.75V64.33a.76.76,0,0,0,.75.75H42.73a.76.76,0,0,0,.75-.75V42.49a.76.76,0,0,0-.75-.75Z"/><path class="cls-4" d="M66.53,42.26H52.48a.92.92,0,0,1,0-1.83H66.53a.92.92,0,0,1,0,1.83Z"/><path class="cls-3" d="M39,54.32h-14a.91.91,0,1,1,0-1.82H39a.91.91,0,0,1,0,1.82Z"/><path class="cls-3" d="M39,60.33h-14a.92.92,0,0,1,0-1.83H39a.92.92,0,0,1,0,1.83Z"/><path class="cls-3" d="M39,48.32h-14a.91.91,0,1,1,0-1.82H39a.91.91,0,0,1,0,1.82Z"/><path class="cls-4" d="M66.53,50.64H52.48a.91.91,0,0,1,0-1.82H66.53a.91.91,0,0,1,0,1.82Z"/><path class="cls-4" d="M66.53,59H52.48a.91.91,0,0,1,0-1.82H66.53a.91.91,0,1,1,0,1.82Z"/><path class="cls-4" d="M66.53,67.41H52.48a.91.91,0,1,1,0-1.82H66.53a.91.91,0,0,1,0,1.82Z"/><path class="cls-4" d="M66.53,75.8h-47a.91.91,0,0,1,0-1.82h47a.91.91,0,0,1,0,1.82Z"/><path class="cls-4" d="M66.53,84.19h-47a.92.92,0,0,1,0-1.83h47a.92.92,0,0,1,0,1.83Z"/><path class="cls-3" d="M28,34.1a.9.9,0,0,1-.73-.36l-6.89-9.28v8.73a.92.92,0,0,1-1.83,0V21.71a.92.92,0,0,1,.63-.87.93.93,0,0,1,1,.32l6.89,9.28V21.71a.91.91,0,1,1,1.82,0V33.19a.91.91,0,0,1-.63.87A.9.9,0,0,1,28,34.1Z"/><path class="cls-3" d="M38.81,28.36a.91.91,0,0,0,0-1.82H33.93V22.62h4.88a.92.92,0,0,0,0-1.83H33a.92.92,0,0,0-.92.92V33.19a.91.91,0,0,0,.92.91h5.79a.91.91,0,0,0,0-1.82H33.93V28.36Z"/><path class="cls-3" d="M45.77,34.1h0a.9.9,0,0,1-.85-.7L42.2,21.91A.91.91,0,0,1,44,21.5l1.94,8.33,2.77-8.41a.93.93,0,0,1,.87-.63h0a.91.91,0,0,1,.86.63l2.77,8.4,2-8.32a.91.91,0,1,1,1.77.41L54.23,33.4a.91.91,0,0,1-1.75.08l-2.92-8.86-2.92,8.86A.93.93,0,0,1,45.77,34.1Z"/><path class="cls-3" d="M63.65,34.1H59.37a.91.91,0,0,1,0-1.82h4.28a2,2,0,0,0,0-3.92H62.24a3.79,3.79,0,0,1,0-7.57h3.31a.92.92,0,0,1,0,1.83H62.24a2,2,0,0,0,0,3.92h1.42a3.78,3.78,0,1,1,0,7.56Z"/></svg>