<svg id="Layer_1" data-name="Layer 1" xmlns="http://www.w3.org/2000/svg" viewBox="0 0 100 100"><defs><style>.cls-1,.cls-4,.cls-5{fill:#fff;}.cls-1,.cls-3{stroke:#ffffff;stroke-width:2px;}.cls-1,.cls-2,.cls-3{stroke-miterlimit:10;}.cls-1,.cls-2,.cls-3,.cls-4{fill-rule:evenodd;}.cls-2{fill:#ffffff;stroke:#fff;}.cls-3{fill:none;}.cls-5{font-size:16.41px;font-family:NirmalaUI-Bold, Nirmala UI;font-weight:700;}</style></defs><path class="cls-1" d="M50,6.22a9.53,9.53,0,0,1,9.51,9.51,9.79,9.79,0,0,1-.36,2.61,2.06,2.06,0,0,1,.51.3l20.22,15.7a3.34,3.34,0,0,1,.33.32H87a6.63,6.63,0,0,1,6.6,6.6V87.18a6.62,6.62,0,0,1-6.6,6.6H13a6.61,6.61,0,0,1-6.58-6.59V41.26a6.62,6.62,0,0,1,6.6-6.6h6.82a3.34,3.34,0,0,1,.33-.32l20.22-15.7a2.62,2.62,0,0,1,.51-.3,9.61,9.61,0,0,1-.36-2.61A9.53,9.53,0,0,1,50,6.22Z"/><path class="cls-2" d="M87,38.84H13a2.43,2.43,0,0,0-2.42,2.42V87.19A2.42,2.42,0,0,0,13,89.6H87a2.42,2.42,0,0,0,2.42-2.42V41.26A2.42,2.42,0,0,0,87,38.84Z"/><path class="cls-3" d="M72.9,34.66l-16-12.41-.2.2a9.49,9.49,0,0,1-13.44,0l-.2-.2-16,12.41Z"/><path class="cls-3" d="M50,11.71a4,4,0,1,1-2.84,1.18A4,4,0,0,1,50,11.71Z"/><path class="cls-4" d="M22.35,69.09a1.67,1.67,0,1,1,0-3.34h55.3a1.67,1.67,0,0,1,0,3.34Z"/><path class="cls-4" d="M30.64,80.22a1.68,1.68,0,0,1,0-3.35H69.35a1.68,1.68,0,1,1,0,3.35Z"/><text class="cls-5" transform="translate(20.82 59)">NOTICE</text></svg>