<?xml version="1.0" encoding="utf-8"?>
<!-- Generator: Adobe Illustrator 23.0.5, SVG Export Plug-In . SVG Version: 6.00 Build 0)  -->
<svg version="1.1" id="Layer_1" xmlns="http://www.w3.org/2000/svg" xmlns:xlink="http://www.w3.org/1999/xlink" x="0px" y="0px"
	 viewBox="0 0 100 100" style="enable-background:new 0 0 100 100;" xml:space="preserve">
<style type="text/css">
	.st0{fill:none;stroke:#573B17;stroke-miterlimit:10;}
	.st1{fill:#573B17;}
	.st2{fill:#FFFFFF;}
	.st3{fill:none;stroke:#573B17;stroke-width:3;stroke-miterlimit:10;}
</style>
<path class="st0" d="M-137.46,113.03c-0.28,0.03-0.52,0.04-0.75,0.08c-3.89,0.61-7.31-1.48-8.49-5.24
	c-0.11-0.34-0.06-0.96,0.15-1.12c1.91-1.44,3.64-3.2,6.09-3.75c0.44-0.1,0.9-0.11,1.29-0.16c-0.47-2.01-1.13-3.99-1.34-6.01
	c-0.22-2.17-0.03-4.38,0.08-6.57c0.02-0.36,0.5-0.88,0.86-0.99c0.25-0.08,0.89,0.34,1,0.66c0.89,2.5,2.75,4.21,4.6,5.95
	c0.45,0.43,0.97,0.78,1.42,1.21c1.79,1.73,3.55,2.18,6.26,1.6c4.84-1.05,9.88-1.04,14.81,0.19c0.39,0.1,0.93,0.09,1.26-0.11
	c3.17-1.95,6.06-4.24,8.32-7.23c0.52-0.68,0.8-1.55,1.29-2.26c0.26-0.38,0.74-0.62,1.12-0.92c0.3,0.39,0.8,0.76,0.86,1.19
	c0.6,4.23,0.24,8.36-1.52,12.31c-0.1,0.22-0.18,0.45-0.35,0.87c3.23-0.23,5.24,1.93,7.54,3.5c0.63,0.43,0.69,0.93,0.42,1.61
	c-1.58,4.01-4.54,5.7-8.84,5.03c-0.11-0.02-0.24,0.01-0.49,0.03c0,1.04,0.03,2.07,0,3.1c-0.11,3.77-1.32,7.15-3.62,10.15
	c-1.65,2.15-3.08,4.43-3.48,7.18c2.06,1.36,2.46,2.34,1.99,4.71c-1.02,5.14-4.43,8.11-10.32,8.87c-3.46,0.45-6.8-0.07-9.85-1.89
	c-2.62-1.56-4.16-3.89-4.75-6.85c-0.31-1.56-0.06-2.97,1.45-3.93c0.25-0.16,0.43-0.82,0.31-1.11c-0.8-1.86-1.39-3.9-2.6-5.46
	c-3.26-4.2-4.89-8.81-4.64-14.11C-137.38,113.43-137.43,113.27-137.46,113.03z M-127.97,133.41c5.46,0.79,10.74,1.16,16.01-0.05
	c0.6-0.14,0.96-0.29,1.08-0.93c0.49-2.49,1.59-4.74,3.19-6.68c3.59-4.37,4.32-9.38,3.56-14.77c-0.83-5.86-4.75-10.07-10.5-10.66
	c-3.36-0.34-6.82-0.27-10.19,0.07c-4.78,0.48-8.12,3.27-9.53,7.82c-1.81,5.83-1.59,11.57,2.22,16.73
	C-130.21,127.52-128.52,130.21-127.97,133.41z M-126.11,135.67c-0.62,0-1.25-0.04-1.86,0.01c-1.98,0.16-2.38,0.75-1.87,2.67
	c0.65,2.48,2.17,4.27,4.44,5.4c2.57,1.28,5.32,1.61,8.13,1.19c4.02-0.61,7.14-2.4,8.24-6.66c0.68-2.64,0.12-3.39-2.59-2.9
	C-116.45,136.25-121.26,136.52-126.11,135.67z M-100.34,93.26c-2.73,2.38-5.39,4.7-7.63,6.64c1.26,1.26,2.63,2.65,4.08,4.11
	C-101.32,101.24-100.48,97.36-100.34,93.26z M-144.49,107.84c0.33,0.49,0.64,1.02,1.02,1.49c1.54,1.9,3.08,2.38,5.4,1.64
	c0.35-0.11,0.82-0.38,0.92-0.68c0.43-1.29,0.74-2.61,1.09-3.91C-139.13,104.18-141.11,104.5-144.49,107.84z M-94.74,107.43
	c-1.02-0.7-2.03-1.49-3.14-2.1c-1.63-0.91-3.73-0.57-5.05,0.73c-0.15,0.15-0.24,0.5-0.19,0.72c0.28,1.08,0.57,2.15,0.95,3.2
	c0.12,0.32,0.49,0.65,0.82,0.78C-98.56,111.8-96.13,110.6-94.74,107.43z M-138.63,94.22c-0.38,2.5,0.93,7.6,2.54,9.5
	c0.29,0.35,0.75,0.56,1.03,0.76c1.34-1.41,2.54-2.69,3.64-3.85C-133.82,98.5-136.22,96.36-138.63,94.22z"/>
<path class="st1" d="M-85.15,116.34c0,3.53,0.02,7.06-0.01,10.59c-0.01,0.75,0.16,1.26,0.82,1.76c2.64,1.97,3.2,5.78,1.25,8.73
	c-1.17,1.76-2.49,3.43-3.83,5.06c-3.49,4.23-7.02,8.42-10.55,12.61c-0.45,0.54-0.95,1.08-1.53,1.45c-0.28,0.18-0.96,0.12-1.19-0.1
	c-0.22-0.22-0.15-0.79-0.12-1.2c0.01-0.16,0.27-0.3,0.4-0.46c4.96-5.97,9.93-11.94,14.86-17.93c1.06-1.29,1.39-2.82,0.96-4.46
	c-0.69-2.66-3.43-3.69-5.53-1.94c-1.72,1.43-3.19,3.15-4.82,4.68c-5.23,4.92-10.37,9.94-15.75,14.69
	c-5.29,4.66-7.02,10.42-5.95,17.15c0.41,2.57,0.54,5.1,0.2,7.67c-0.09,0.7-0.21,1.41-1.13,1.3c-0.91-0.11-0.93-0.81-0.79-1.52
	c0.64-3.18-0.26-6.27-0.47-9.4c-0.47-6.9,1.82-12.64,7.29-17c6.91-5.51,12.88-12,19.06-18.26c0.29-0.3,0.41-0.88,0.42-1.33
	c0.13-5.98,0.24-11.96,0.34-17.94c0.05-2.63,1.17-4.51,3.64-5.57c0.34-0.15,0.6-0.72,0.71-1.14c0.95-3.76,4.53-5.97,7.95-4.83
	c2.49,0.83,3.77,2.7,4.24,5.22c1.51,8.01,1.76,16.1,1.38,24.2c-0.27,5.8-0.87,11.59-1.37,17.38c-0.36,4.1-2.07,7.61-5.05,10.41
	c-4.03,3.78-8.17,7.44-12.26,11.15c-0.83,0.75-1.78,1.39-2.5,2.24c-0.47,0.56-0.65,1.37-0.88,2.1c-0.21,0.67-0.41,1.38-1.29,1.19
	c-0.88-0.19-0.8-0.92-0.65-1.61c0.32-1.47,0.85-2.67,2.12-3.75c4.76-4.08,9.36-8.34,13.97-12.6c2.76-2.55,4.21-5.77,4.65-9.52
	c0.98-8.47,1.7-16.96,1.37-25.48c-0.2-5.13-0.86-10.25-1.44-15.36c-0.27-2.36-1.97-3.86-4-3.9c-2.09-0.04-3.92,1.58-4.35,3.89
	c-0.1,0.53-0.12,1.07-0.12,1.61c-0.01,3.41-0.01,6.81-0.01,10.22C-85.13,116.34-85.14,116.34-85.15,116.34z M-87.15,106.94
	c-1.58,0.83-2.08,2.06-2.12,3.56c-0.09,4.4-0.19,8.8-0.27,13.2c-0.03,1.4,0,2.79,0,4.27c0.86-0.15,1.59-0.27,2.39-0.41
	C-87.15,120.72-87.15,113.93-87.15,106.94z"/>
<path class="st1" d="M-155.99,116.34c0-3.41,0.01-6.81-0.01-10.22c0-0.54-0.02-1.08-0.12-1.61c-0.43-2.31-2.26-3.92-4.35-3.89
	c-2.03,0.03-3.73,1.54-4,3.9c-0.58,5.11-1.24,10.23-1.44,15.36c-0.34,8.52,0.38,17.01,1.37,25.48c0.44,3.76,1.89,6.97,4.65,9.52
	c4.6,4.26,9.21,8.52,13.97,12.6c1.27,1.09,1.8,2.28,2.12,3.75c0.15,0.69,0.23,1.42-0.65,1.61c-0.87,0.19-1.07-0.51-1.29-1.19
	c-0.23-0.73-0.41-1.55-0.88-2.1c-0.71-0.85-1.67-1.49-2.5-2.24c-4.1-3.71-8.23-7.37-12.26-11.15c-2.99-2.8-4.7-6.31-5.05-10.41
	c-0.5-5.79-1.1-11.58-1.37-17.38c-0.38-8.1-0.13-16.19,1.38-24.2c0.47-2.52,1.75-4.39,4.24-5.22c3.42-1.14,7,1.08,7.95,4.83
	c0.11,0.42,0.37,1,0.71,1.14c2.47,1.06,3.6,2.94,3.64,5.57c0.1,5.98,0.21,11.96,0.34,17.94c0.01,0.45,0.13,1.04,0.42,1.33
	c6.19,6.26,12.15,12.75,19.06,18.26c5.47,4.36,7.76,10.09,7.29,17c-0.21,3.13-1.11,6.23-0.47,9.4c0.14,0.71,0.12,1.41-0.79,1.52
	c-0.92,0.11-1.04-0.6-1.13-1.3c-0.34-2.57-0.21-5.1,0.2-7.67c1.07-6.73-0.66-12.49-5.95-17.15c-5.38-4.75-10.52-9.77-15.75-14.69
	c-1.63-1.54-3.1-3.26-4.82-4.68c-2.11-1.75-4.84-0.72-5.53,1.94c-0.43,1.64-0.09,3.17,0.96,4.46c4.93,5.99,9.9,11.96,14.86,17.93
	c0.13,0.16,0.39,0.3,0.4,0.46c0.03,0.41,0.11,0.98-0.12,1.2c-0.23,0.22-0.91,0.28-1.19,0.1c-0.58-0.37-1.07-0.91-1.53-1.45
	c-3.53-4.19-7.07-8.38-10.55-12.61c-1.35-1.63-2.66-3.3-3.83-5.06c-1.96-2.95-1.4-6.76,1.25-8.73c0.67-0.5,0.83-1,0.82-1.76
	c-0.03-3.53-0.01-7.06-0.01-10.59C-155.97,116.34-155.98,116.34-155.99,116.34z M-153.95,127.55c0.8,0.14,1.53,0.26,2.39,0.41
	c0-1.48,0.02-2.87,0-4.27c-0.08-4.4-0.17-8.8-0.27-13.2c-0.03-1.5-0.54-2.73-2.12-3.56C-153.95,113.93-153.95,120.72-153.95,127.55z
	"/>
<path class="st1" d="M-127.97,133.41c-0.55-3.2-2.24-5.89-4.15-8.48c-3.81-5.16-4.03-10.9-2.22-16.73c1.41-4.54,4.75-7.34,9.53-7.82
	c3.37-0.34,6.82-0.41,10.19-0.07c5.75,0.59,9.67,4.79,10.5,10.66c0.76,5.4,0.03,10.4-3.56,14.77c-1.6,1.94-2.7,4.18-3.19,6.68
	c-0.13,0.64-0.49,0.79-1.08,0.93C-117.23,134.57-122.51,134.19-127.97,133.41z M-127.02,120.98c0.32-0.04,0.9,0.03,1.27-0.22
	c0.44-0.29,0.97-0.86,0.97-1.29c-0.01-0.72-0.66-0.89-1.39-0.76c-2.08,0.36-2.67,0.07-3.75-1.76c-0.36-0.6-0.86-1.1-1.46-0.61
	c-0.34,0.28-0.54,1.14-0.37,1.55C-130.93,119.88-129.33,120.85-127.02,120.98z M-113.5,120.91c2.41,0.01,4.53-1.36,5.07-3.2
	c0.12-0.42-0.26-0.99-0.41-1.49c-0.46,0.15-1.18,0.17-1.33,0.47c-0.88,1.81-2.17,2.48-4.16,1.97c-0.32-0.08-0.98,0.42-1.14,0.79
	c-0.11,0.25,0.29,0.93,0.63,1.12C-114.37,120.85-113.74,120.86-113.5,120.91z"/>
<path class="st1" d="M-126.11,135.67c4.85,0.85,9.66,0.58,14.49-0.29c2.71-0.49,3.27,0.26,2.59,2.9c-1.1,4.26-4.22,6.05-8.24,6.66
	c-2.81,0.43-5.56,0.09-8.13-1.19c-2.28-1.13-3.79-2.91-4.44-5.4c-0.5-1.92-0.11-2.51,1.87-2.67
	C-127.36,135.63-126.74,135.67-126.11,135.67z M-113.1,137.07c-1.7-0.02-3.3,1-3.59,2.27c-0.09,0.38,0.12,1.06,0.41,1.24
	c0.26,0.16,1.05-0.05,1.22-0.33c0.59-1,1.31-1.39,2.47-1.17c0.29,0.06,0.95-0.41,0.96-0.66c0.02-0.38-0.3-0.86-0.62-1.14
	C-112.5,137.08-112.95,137.11-113.1,137.07z M-125.96,137.1c-0.18,0.02-0.35,0.02-0.51,0.06c-0.67,0.15-1.4,0.3-1.28,1.2
	c0.12,0.88,0.77,0.77,1.5,0.81c0.63,0.03,1.22,0.6,1.84,0.91c0.46,0.23,0.94,0.41,1.42,0.61c0.09-0.54,0.42-1.19,0.23-1.61
	C-123.36,137.75-124.54,137.17-125.96,137.1z"/>
<path class="st1" d="M-100.34,93.26c-0.14,4.1-0.98,7.97-3.55,10.76c-1.45-1.46-2.82-2.85-4.08-4.11
	C-105.73,97.96-103.06,95.64-100.34,93.26z"/>
<path class="st1" d="M-144.49,107.84c3.39-3.34,5.36-3.67,8.43-1.46c-0.35,1.3-0.66,2.63-1.09,3.91c-0.1,0.3-0.57,0.57-0.92,0.68
	c-2.32,0.73-3.85,0.26-5.4-1.64C-143.85,108.86-144.16,108.33-144.49,107.84z"/>
<path class="st1" d="M-94.74,107.43c-1.39,3.18-3.82,4.37-6.6,3.32c-0.33-0.13-0.7-0.46-0.82-0.78c-0.38-1.04-0.68-2.12-0.95-3.2
	c-0.06-0.21,0.03-0.56,0.19-0.72c1.33-1.3,3.42-1.64,5.05-0.73C-96.77,105.94-95.76,106.73-94.74,107.43z"/>
<path class="st1" d="M-138.63,94.22c2.41,2.14,4.82,4.28,7.21,6.41c-1.1,1.16-2.31,2.44-3.64,3.85c-0.28-0.21-0.74-0.42-1.03-0.76
	C-137.7,101.83-139.02,96.72-138.63,94.22z"/>
<path class="st2" d="M-127.02,120.98c-2.31-0.13-3.91-1.1-4.74-3.08c-0.17-0.41,0.03-1.27,0.37-1.55c0.6-0.49,1.11,0.01,1.46,0.61
	c1.08,1.83,1.67,2.12,3.75,1.76c0.74-0.13,1.38,0.04,1.39,0.76c0.01,0.44-0.53,1.01-0.97,1.29
	C-126.12,121.01-126.71,120.94-127.02,120.98z"/>
<path class="st1" d="M-115.21,123c0.26,0.04,7.25-0.85,7.25-0.85s0.96-5.02,0.92-5.36c-0.04-0.34-1.36-2.94-1.36-2.94
	s-9.82,2.3-9.99,2.51s0.51,3.57,0.68,3.74S-115.21,123-115.21,123z"/>
<path class="st2" d="M-113.84,120.98c2.31-0.13,3.91-1.1,4.74-3.08c0.17-0.41-0.03-1.27-0.37-1.55c-0.6-0.49-1.11,0.01-1.46,0.61
	c-1.08,1.83-1.67,2.12-3.75,1.76c-0.74-0.13-1.38,0.04-1.39,0.76c-0.01,0.44,0.53,1.01,0.97,1.29
	C-114.74,121.01-114.15,120.94-113.84,120.98z"/>
<g>
	<circle class="st3" cx="50.21" cy="50" r="47.65"/>
	<path class="st1" d="M61.71,74.3c0.07-0.03,0.14-0.05,0.2-0.08c0.32,0.5,0.65,1,0.92,1.43c0.17-0.39,0.4-0.9,0.62-1.41
		c0.05,0.01,0.09,0.02,0.14,0.03c0.03,0.46,0.05,0.93,0.08,1.39c0.04,0.02,0.09,0.05,0.13,0.07c0.15-0.14,0.33-0.25,0.45-0.42
		c0.54-0.75,0.83-1.58,0.78-2.52c-0.07-1.34-0.14-2.68-0.24-4.02c-0.01-0.19-0.2-0.37-0.34-0.53c-0.4-0.46-0.92-0.86-1.2-1.38
		c-0.29-0.56-0.41-1.24-0.51-1.88c-0.18-1.17-0.63-2.21-1.34-3.15c-0.21-0.27-0.43-0.39-0.79-0.33c-0.35,0.06-0.72,0.01-1.08,0
		c-0.42-0.01-0.85-0.08-1.26-0.04c-0.55,0.05-0.87-0.07-1.08-0.55c-0.29-0.67-0.26-0.85,0.26-1.24c0.81-0.59,1.55-1.25,2.08-2.13
		c0.14-0.24,0.52-0.34,0.79-0.48c0.11-0.06,0.25-0.06,0.39-0.09c-0.12-0.42-0.22-0.79-0.33-1.22c1.01,0.49,1.31,0.8,1.73,1.64
		c0.09,0.17,0.25,0.33,0.41,0.44c1.32,0.84,2.74,1.34,4.33,1.32c0.75-0.01,1.51,0.1,2.26,0.17c0.68,0.06,1.37,0.23,2.05,0.2
		c2.06-0.1,4.12-0.28,6.18-0.44c1.12-0.09,2.23-0.16,3.32,0.24c1.33,0.5,2.07,1.54,2.04,2.96c-0.03,1.27-0.08,2.55-0.08,3.82
		c0,0.29,0.08,0.65,0.27,0.84c0.62,0.64,0.64,1.33,0.35,2.1c-0.19,0.5-0.52,0.98-0.24,1.59c-0.24-0.16-0.45-0.32-0.56-0.53
		c-0.41-0.73-0.66-1.51-0.63-2.36c0.07-1.88,0.13-3.75,0.18-5.63c0.02-0.75-0.33-1.33-0.92-1.58c0.51,0.91,0.42,1.86,0.31,2.8
		c-0.12,1.04-0.29,2.08-0.41,3.13c-0.13,1.13-0.1,2.23,0.48,3.26c0.11,0.19,0.06,0.49,0.01,0.73c-0.2,0.98-0.43,1.95-0.63,2.92
		c-0.15,0.72-0.27,1.45-0.41,2.24c0.07,0.01,0.27,0.04,0.47,0.09c0.33,0.08,0.54,0.09,0.6-0.36c0.04-0.34,0.26-0.65,0.4-0.98
		c0.05,0.01,0.09,0.01,0.14,0.02c0.02,0.44,0.05,0.88,0.07,1.31c0.32-0.32,0.61-0.61,0.91-0.9c0.05,0.04,0.1,0.07,0.14,0.11
		c-0.08,0.18-0.16,0.36-0.24,0.54c-0.24,0.52-0.21,0.59,0.35,0.75c0.75,0.21,1.5,0.4,2.24,0.63c0.17,0.05,0.3,0.24,0.45,0.37
		c-0.18,0.14-0.26,0.16-0.34,0.16c-8.89,0-17.78,0-26.67-0.01c-0.24,0-0.47-0.16-0.71-0.25c0.2-0.12,0.39-0.3,0.61-0.37
		c0.77-0.24,1.55-0.44,2.35-0.66c-0.11-0.33-0.2-0.6-0.29-0.86c0.03-0.03,0.06-0.06,0.1-0.08c0.29,0.2,0.59,0.41,0.98,0.68
		C61.88,75.28,61.79,74.79,61.71,74.3z M78.29,70.91c0.16-0.06,0.33-0.11,0.6-0.21c-0.26,1.61-0.95,2.96-1.67,4.37
		c0.43,0.07,0.84,0.15,1.26,0.21c0.08,0.01,0.21,0,0.24-0.05c0.33-0.51,0.84-1,0.93-1.56c0.28-1.78-0.04-3.47-1.07-5.03
		c-0.93-1.41-1.95-1.78-3.44-0.98c-1.8,0.97-3.67,1.19-5.65,0.65c-0.35-0.1-0.5-0.25-0.56-0.62c-0.09-0.58-0.27-1.14-0.42-1.7
		c-0.02-0.06-0.05-0.12-0.12-0.26c0,3.13,0,6.12,0,9.17c0.2,0.03,0.44,0.02,0.43-0.39c0-0.25,0-0.5,0-0.74
		c0.05-0.01,0.1-0.03,0.15-0.04c0.23,0.32,0.46,0.64,0.68,0.96c0.05-0.02,0.09-0.03,0.14-0.05c-0.1-0.59-0.19-1.18-0.29-1.77
		c0.03-0.03,0.06-0.06,0.09-0.09c0.45,0.59,0.9,1.18,1.35,1.76c0.03-0.01,0.06-0.03,0.09-0.04c-0.29-0.62-0.57-1.24-0.88-1.9
		c0.78,0.21,1.48,0.53,1.8,1.53c0.35-0.92,0.96-1.35,1.8-1.44c-0.28,0.62-0.54,1.22-0.81,1.83c0.05,0.03,0.1,0.06,0.15,0.09
		c0.46-0.58,0.62-1.43,1.46-1.7c-0.13,0.58-0.26,1.12-0.38,1.67c0.04,0.01,0.08,0.02,0.12,0.04c0.22-0.3,0.44-0.61,0.66-0.91
		c0.06,0.02,0.11,0.03,0.17,0.05c0,0.19-0.02,0.38,0.01,0.57c0.03,0.18,0.11,0.36,0.17,0.54c0.22-0.09,0.55-0.13,0.64-0.29
		c0.37-0.67,0.71-1.37,0.98-2.09c0.21-0.56,0.33-1.16,0.45-1.75c0.03-0.13-0.14-0.31-0.22-0.46c-0.1,0.11-0.19,0.23-0.3,0.33
		c-0.13,0.11-0.27,0.21-0.4,0.31c-0.08-0.13-0.2-0.25-0.24-0.39c-0.05-0.21-0.05-0.44-0.08-0.74c-0.18,0.1-0.22,0.13-0.26,0.15
		c-0.17,0.09-0.4,0.3-0.51,0.26c-0.27-0.11-0.18-0.35-0.1-0.61c0.07-0.2,0-0.5-0.11-0.7c-0.2-0.35-0.13-0.51,0.21-0.68
		c1.19-0.57,1.95-0.38,2.7,0.71c0.24,0.35,0.42,0.73,0.66,1.15C77.95,70.19,77.9,70.33,78.29,70.91z M66.5,75.01
		c0.65-0.78,0.99-1.65,0.65-2.67c-0.15-0.45-0.3-0.9-0.46-1.34c-0.05,0-0.11,0.01-0.16,0.01c-0.21,1.38-0.42,2.76-0.65,4.3
		C66.14,75.19,66.38,75.15,66.5,75.01z"/>
	<path class="st1" d="M15.67,75.37c-0.62-1.06-1.11-1.9-1.65-2.84c1.3,0.06,2.13,0.65,2.63,1.77c0.07-0.06,0.14-0.12,0.21-0.17
		c-0.31-1.01-0.62-2.03-0.96-3.15c0.3,0.21,0.7,0.36,0.88,0.64c0.52,0.83,1.08,1.67,1.4,2.59c0.43,1.22,0.37,1.27,1.51,1.08
		c-0.09-1.27-0.14-2.52-0.28-3.77c-0.17-1.54-0.42-3.07-0.61-4.61c-0.04-0.35-0.11-0.81,0.07-1.06c1.58-2.21,1.21-4.68,0.99-7.12
		c-0.16-1.82-0.51-3.63-0.59-5.46c-0.05-1.07,0.25-2.16,0.39-3.21c-0.89,0.68-1.45,1.65-1.41,2.94c0.08,2.95,0.14,5.9,0.27,8.85
		c0.06,1.48-0.24,2.84-1.01,4.09c-0.26,0.43-0.63,0.8-0.86,1.09c-0.26-0.97-0.5-1.91-0.75-2.84c-0.34-1.26-0.25-2.38,0.85-3.29
		c0.26-0.22,0.43-0.69,0.43-1.04c-0.01-2.05-0.06-4.1-0.14-6.15c-0.13-3.65,2-6.18,5.67-6.34c2.18-0.1,4.4,0.12,6.57,0.38
		c4.63,0.55,9.22,0.22,13.84-0.27c2.71-0.29,5.27-0.73,7.62-2.37c-0.22-0.08-0.43-0.1-0.56-0.21c-0.42-0.38-0.91-0.73-1.17-1.2
		c-0.14-0.24,0.04-0.84,0.27-1.06c0.23-0.21,0.72-0.21,1.09-0.18c0.26,0.02,0.53,0.2,0.74,0.36c0.59,0.45,1.02,0.7,1.69-0.06
		c0.69-0.8,2.53-0.43,3.53,0.53c0.34-0.24,0.67-0.52,1.05-0.72c0.8-0.41,1.66-0.27,1.92,0.26c0.28,0.58-0.17,1.58-0.9,1.94
		c-0.24,0.12-0.5,0.2-1.04,0.41c0.85,0.94,1.54,1.83,2.35,2.59c0.89,0.85,1.12,1.32,0.66,2.15c-0.46,0.84-1.19,0.85-2.02,0.63
		c-0.4-0.1-0.85-0.03-1.28-0.02c-0.37,0.01-0.79,0.17-1.1,0.04c-1.64-0.69-2.33,0.35-3.06,1.51c-1.04,1.68-1.52,3.52-1.79,5.44
		c-0.11,0.77-0.15,1.57-0.43,2.28c-0.32,0.82-0.69,1.78-1.35,2.26c-0.92,0.68-1.1,1.44-1.14,2.44c-0.08,1.95-0.23,3.91-0.37,5.86
		c-0.11,1.64,0.3,3.14,1.25,4.48c0.14,0.2,0.41,0.3,0.61,0.45c0.08-0.24,0.22-0.48,0.22-0.72c0-1.89,0.87-3.32,2.53-4.03
		c-0.43,1.06-0.84,2.08-1.25,3.1c0.08,0.07,0.16,0.14,0.24,0.2c0.53-1.25,1.54-1.71,2.71-1.89c-0.56,1.07-1.11,2.12-1.67,3.17
		c0.06,0.1,0.12,0.21,0.18,0.31c1.01,0,2.01-0.04,3.02,0.02c0.39,0.02,0.89,0.17,1.14,0.44c0.47,0.52-0.03,1.47-0.8,1.61
		c-0.27,0.05-0.56,0.02-0.84,0.02c-13.95,0-27.9,0-41.85,0c-0.76,0-1.66,0.18-1.79-0.96c-0.09-0.75,0.43-1.08,1.75-1.17
		c0.37-0.02,0.74-0.05,1.12-0.06C14.73,75.36,15.07,75.37,15.67,75.37z M27.98,65.94c-0.13,0.25-0.21,0.41-0.28,0.57
		c-0.15,0.31-0.29,0.62-0.43,0.92c-0.21-0.26-0.39-0.55-0.63-0.78c-0.18-0.17-0.43-0.26-0.65-0.38c-0.1,0.2-0.3,0.4-0.29,0.59
		c0.07,0.93,0.19,1.85,0.31,2.77c0.24,1.79,0.58,3.56,1.71,5.06c0.63,0.83,1.28,0.98,2.19,0.47c-0.33-0.76-0.66-1.53-0.99-2.3
		c0.1-0.08,0.2-0.16,0.3-0.25c0.97,0.89,1.95,1.77,2.92,2.66c0.05-0.02,0.1-0.04,0.15-0.07c-0.56-1.02-1.13-2.04-1.74-3.16
		c1.68,0.5,2.92,1.42,3.45,3.23c-0.08-2.04,0.36-3.81,1.57-5.33c0.13,0.01,0.25,0.02,0.38,0.03c0.08,1.7,0.17,3.39,0.25,5.12
		c0.67-1.58,1.87-2.54,3.54-2.86c-0.65,1.03-1.28,2.03-1.91,3.03c0.07,0.04,0.13,0.08,0.2,0.12c1.89-2.2,2.37-2.57,3.19-2.54
		c-0.35,0.79-0.72,1.61-1.13,2.53c1.02,0,1.79,0,2.44,0c-0.48-5.34-0.7-10.61-0.72-15.92c-0.29,0.84-0.47,1.69-0.58,2.56
		c-0.07,0.56-0.26,0.98-0.85,1.05c-1.84,0.21-3.68,0.56-5.52,0.56c-2.98,0-5.14-2.15-7.8-3.26c0.81-1.5,1.58-2.93,2.34-4.35
		c-0.32,0.2-0.6,0.44-0.79,0.73c-2.14,3.31-4.46,6.52-6.33,9.97c-1.35,2.49-1.46,5.3,0.05,7.92c0.16,0.27,0.43,0.62,0.7,0.66
		c0.8,0.13,1.63,0.12,2.55,0.17c-1.06-1.63-2.62-7.37-2.28-8.27c0.28,0.03,0.57,0.07,0.93,0.11c0.06-0.35,0.26-0.73,0.15-0.94
		c-0.54-0.99,0.21-1.56,0.63-2.24c0.28-0.45,0.59-0.88,0.88-1.32c0.88-1.34,1.3-1.44,2.69-0.57c0.39,0.24,0.76,0.54,1.1,0.85
		c0.45,0.41,0.53,0.92,0.15,1.42c-0.29,0.39-0.55,0.71-0.21,1.23c0.1,0.15-0.02,0.59-0.19,0.72c-0.14,0.11-0.5,0.01-0.73-0.08
		C28.46,66.3,28.26,66.12,27.98,65.94z M46.61,75.4c-0.49-2.77-0.96-5.45-1.44-8.14c-0.4,0.69-0.69,1.37-0.86,2.08
		c-0.4,1.68-0.5,3.32,0.38,4.96C45.19,75.23,45.78,75.54,46.61,75.4z"/>
	<g>
		<path class="st1" d="M67.18,38.45c0.16-0.41,0.34-0.84,0.36-1.27c0.03-0.52-0.12-1.06-0.17-1.58c-0.02-0.24-0.11-0.53-0.01-0.71
			c0.49-0.86,0.41-1.8,0.45-2.72c0.02-0.34,0.03-0.71,0.49-0.69c0.42,0.03,0.5,0.35,0.46,0.72c-0.01,0.07,0,0.14-0.01,0.21
			c-0.07,0.38,0.09,0.61,0.46,0.65c0.8,0.09,1.61,0.29,2.39,0.2c1.01-0.12,2.01-0.44,3-0.73c1.4-0.41,2.88,0.47,3.18,1.97
			c-0.21,0.06-0.43,0.12-0.66,0.18c0.1,0.25,0.17,0.44,0.24,0.61c0.18-0.06,0.34-0.12,0.63-0.23c-0.26,1.41-0.83,2.57-1.6,3.81
			c0.54,0,0.93-0.01,1.32,0c0.85,0.02,1.28-0.36,1.35-1.23c0.16-2.05-0.61-3.74-2.02-5.16c-0.27-0.27-0.65-0.45-1.01-0.59
			c-0.49-0.19-0.85-0.44-0.84-1.03c0.01-0.62,0.32-1.12,0.88-1.33c0.98-0.36,1.01-0.4,1.01-1.45c0-0.19,0-0.38,0.02-0.57
			c0.03-0.48,0.29-0.78,0.75-0.94c1.05-0.36,1.21-1.2,0.37-1.95c-0.15-0.14-0.31-0.27-0.54-0.47c2.39-0.14,3.59,0.97,3.59,3.2
			c0,0.98-0.02,1.96,0.01,2.95c0.01,0.24,0.14,0.53,0.31,0.69c0.44,0.43,0.61,0.92,0.47,1.5c-0.15,0.62-0.34,1.22-0.54,1.93
			c-0.56-0.88-1.06-1.72-1.03-2.78c0.03-1.1,0.07-2.2,0.04-3.3c-0.02-0.57-0.18-1.14-0.28-1.71c-0.06,0.01-0.11,0.02-0.17,0.03
			c-0.12,1.14-0.26,2.27-0.36,3.41c-0.11,1.33-0.18,2.66,0.66,3.83c0.1,0.14,0.08,0.4,0.06,0.59c-0.07,0.72-0.18,1.43-0.24,2.15
			c-0.05,0.71-0.06,1.42-0.09,2.15c0.5,0.1,0.84-0.03,0.95-0.67c0.09-0.55,0.42-0.99,1.07-1.34c-0.17,0.58-0.31,1.02-0.44,1.47
			c0.35-0.37,0.57-0.88,1.26-0.74c-0.21,0.43-0.41,0.83-0.63,1.28c0.5,0.03,0.89,0.03,1.28,0.09c0.41,0.06,0.67,0.51,0.44,0.79
			c-0.13,0.15-0.42,0.22-0.63,0.22c-2.45,0.02-4.89,0.01-7.34,0.01c-5.96,0-11.92-0.01-17.88-0.01c-0.17,0-0.37,0.05-0.51-0.03
			c-0.19-0.11-0.44-0.29-0.46-0.46c-0.01-0.17,0.2-0.42,0.38-0.51c0.18-0.1,0.43-0.06,0.66-0.06c0.59-0.01,1.19,0,1.9,0
			c-0.26-0.83-0.41-1.63-0.76-2.34c-0.2-0.4-0.36-0.76-0.35-1.2c0.01-0.35-0.13-0.56-0.44-0.73c-0.33-0.18-0.6-0.45-0.9-0.68
			c0.03-0.05,0.06-0.1,0.09-0.15c0.33,0.09,0.66,0.19,0.99,0.28c0.02-0.03,0.04-0.07,0.06-0.1c-0.29-0.23-0.57-0.45-0.86-0.68
			c0.04-0.06,0.07-0.13,0.11-0.19c0.6,0.24,1.19,0.47,1.77,0.7c0.02-0.07,0.04-0.23,0.1-0.37c0.95-2.19,1.9-4.39,2.88-6.57
			c0.23-0.51,0.51-1.02,0.86-1.46c0.71-0.89,1.71-1.17,2.85-1.26c-0.49,0.72-0.49,0.72-0.19,1.6c0.03,0.08,0.06,0.16,0.08,0.25
			c0.27,0.92-0.05,1.67-0.9,2.11c-0.26,0.13-0.53,0.25-0.78,0.4c-0.73,0.43-0.78,1.2-0.1,1.67c0.54,0.37,0.81,0.84,0.91,1.48
			c0.06,0.37,0.23,0.88,0.5,1.02c0.64,0.33,0.64,0.81,0.6,1.37c-0.12,1.57,0.08,3.17-0.41,4.77C66.69,38.93,67.02,38.88,67.18,38.45
			z M73.43,36.89c-0.24,0.65-0.43,1.17-0.62,1.69c0.02,0.01,0.04,0.02,0.06,0.03c0.28-0.36,0.57-0.72,0.85-1.08
			c0.06,0.03,0.12,0.06,0.18,0.1c-0.05,0.29-0.11,0.58-0.17,0.93c0.21-0.13,0.37-0.24,0.58-0.37c0.08,0.23,0.15,0.42,0.25,0.7
			c0.2-0.1,0.43-0.16,0.55-0.3c0.78-0.93,1.26-2.01,1.48-3.19c0.03-0.15-0.12-0.33-0.19-0.5c-0.14,0.11-0.27,0.23-0.42,0.33
			c-0.15,0.1-0.32,0.18-0.47,0.27c-0.05-0.15-0.1-0.3-0.15-0.46c-0.04-0.12-0.06-0.25-0.09-0.37c-0.13,0.06-0.26,0.11-0.39,0.17
			c-0.16,0.08-0.32,0.16-0.49,0.24c-0.01-0.19-0.02-0.39-0.05-0.58c-0.02-0.15-0.02-0.33-0.11-0.44c-0.07-0.09-0.28-0.16-0.38-0.12
			c-1.7,0.71-3.41,0.71-5.27-0.04c0,1.69,0,3.29,0,4.91c0.75,0.13,0.78,0.1,0.8-0.81c0.23,0.14,0.44,0.26,0.75,0.45
			c-0.12-0.44-0.21-0.78-0.3-1.12c0.03-0.03,0.06-0.06,0.09-0.09c0.32,0.37,0.65,0.75,0.97,1.12c0.03-0.01,0.07-0.01,0.1-0.02
			c-0.19-0.5-0.37-0.99-0.55-1.45c0.43,0.02,0.63,0.23,1.18,1.33c0.05-0.46,0.09-0.85,0.13-1.24c0.07-0.01,0.13-0.02,0.2-0.03
			c0.09,0.39,0.18,0.77,0.29,1.24C72.49,37.66,72.72,37.16,73.43,36.89z M63.88,34.13c-0.31-0.13-0.59-0.1-0.7,0.2
			c-0.12,0.3-0.19,0.67-0.13,0.98c0.14,0.69,0.17,1.27-0.34,1.88c-0.28,0.34-0.27,0.93-0.37,1.41c-0.02,0.08,0.14,0.29,0.2,0.28
			c0.26-0.01,0.52-0.07,0.77-0.15c0.07-0.02,0.08-0.21,0.13-0.36c0.16,0.09,0.32,0.17,0.55,0.29c-0.06-0.23-0.1-0.4-0.15-0.56
			c0.02-0.02,0.05-0.04,0.07-0.07c0.22,0.27,0.45,0.53,0.69,0.83c1.34-1.28,0.68-2.87,0.91-4.14
			C64.88,34.49,64.37,34.33,63.88,34.13z"/>
		<path class="st1" d="M68.52,24.13c0.18,0.52,0.51,0.99,0.44,1.38c-0.07,0.38-0.55,0.69-0.86,1.02c-1,1.09-0.85,2.49,0.37,3.32
			c0.66,0.44,1.31,0.89,2.01,1.27c0.91,0.5,2.05,0.21,2.58-0.58c0.49-0.74,0.32-1.53-0.42-2.02c-0.18-0.12-0.39-0.25-0.5-0.43
			c-0.31-0.51,0.08-1.11,0.71-1.1c0.33,0.01,0.65,0.08,0.97,0.12c0.65,0.07,1.18-0.13,1.57-0.68c0.39-0.56,0.45-1.17,0.15-1.76
			c-0.13-0.24-0.48-0.52-0.74-0.52C72.71,24.11,70.61,24.13,68.52,24.13z"/>
	</g>
	<g>
		<path class="st1" d="M34.09,20.79c-0.52-1.08-0.86-2.19-0.64-3.39c0.33-1.84,1.38-3.13,3.04-3.92c0.26-0.12,0.62-0.04,0.93-0.05
			c-0.08,0.28-0.09,0.6-0.24,0.83c-0.65,1.02-1.11,2.08-1.12,3.36c2.66-1.49,4.64-1.36,7.6,0.47c0.65-0.75,0.63-1.62,0.38-2.49
			c-0.16-0.57-0.45-1.11-0.66-1.67c-0.06-0.15-0.08-0.43,0-0.5c0.12-0.1,0.36-0.09,0.53-0.06c0.15,0.03,0.3,0.15,0.43,0.24
			c2.6,1.71,3.06,4.66,1.13,7.22c-0.22,0.29-0.59,0.55-0.2,0.98c0.78-0.3,1.55-0.62,2.33-0.88c1.04-0.35,2.08-0.22,3.09,0.17
			c0.87,0.34,1.15,0.91,0.94,1.83c-0.46,1.99-2.87,3.54-5.01,3.16c-0.59-0.1-0.83,0.02-0.97,0.58c-0.13,0.5-0.33,0.98-0.68,1.51
			c-0.14-0.62-0.35-1.24-0.41-1.87c-0.05-0.61,0.01-1.24,0.1-1.86c0.49-3.48-2.74-6.69-6.01-5.95c-1.28,0.29-1.64,0.94-0.99,2.07
			c0.44,0.76,1,1.47,1.64,2.07c1.66,1.58,3.04,3.36,4.16,5.37c1.19,2.13,2.63,4.05,4.66,5.49c0.26,0.19,0.48,0.63,0.48,0.96
			c0,0.88-0.09,1.77-0.21,2.64c-0.1,0.78-0.64,1.2-1.4,1.31c-0.7,0.1-1.42,0.23-2.09,0.44c-1.33,0.42-2.52,0.31-3.63-0.62
			c-0.51-0.42-1.12-0.73-1.73-1.01c-0.95-0.44-1.93-0.85-2.92-1.21c-3.65-1.34-5.67-4.11-6.71-7.69c-0.32-1.1-0.41-2.26-0.61-3.39
			c-0.07-0.42,0.1-0.61,0.52-0.67c0.61-0.08,1.21-0.22,1.82-0.49c-0.19-0.02-0.37-0.06-0.56-0.07c-2.2-0.18-4.08-1.79-4.59-3.94
			c-0.3-1.25,0.11-1.87,1.37-2.08c1.94-0.33,3.54,0.29,4.81,1.78c0.41,0.48,0.84,0.96,1.25,1.44
			C33.99,20.87,34.04,20.83,34.09,20.79z M45.36,35.89c0.77,0.05,1.57,0.28,1.69-0.84c0.01-0.08,0.13-0.14,0.18-0.22
			c0.09-0.17,0.17-0.36,0.25-0.54c-0.18-0.08-0.37-0.23-0.55-0.24c-0.88-0.05-1.76-0.08-2.64-0.1c-0.55-0.01-0.75,0.19-0.82,0.77
			C44.48,34.15,45.4,34.45,45.36,35.89z M38.88,26.45c-0.01-0.1-0.01-0.19-0.02-0.29c-0.27-0.17-0.58-0.49-0.82-0.45
			c-0.24,0.04-0.52,0.44-0.56,0.71c-0.02,0.16,0.41,0.54,0.62,0.53C38.37,26.94,38.62,26.63,38.88,26.45z"/>
		<path class="st1" d="M35.62,39.08c-0.99,2.6-0.83,5.07,0.56,7.52c-0.29,0.03-0.46,0.1-0.59,0.06c-0.87-0.32-1.8-0.55-2.57-1.03
			c-2.34-1.44-4.58-3.05-6.94-4.47c-2.22-1.35-4.63-2.29-7.24-2.6c-0.51-0.06-0.69-0.24-0.69-0.76c0-3.26-0.02-6.51-0.07-9.77
			c-0.01-0.78,0.27-1.12,1.03-1.35c1.78-0.53,3.53-1.19,5.29-1.79c0.22-0.08,0.44-0.15,0.62-0.21c0.24,1.55,0.37,3.05,0.71,4.51
			c0.82,3.52,2.65,6.43,5.59,8.6c1.03,0.76,2.19,1.16,3.48,1.17C35.06,38.95,35.31,39.03,35.62,39.08z"/>
		<path class="st1" d="M37.81,36.7c-1.15,1.18-2.94,1.42-4.57,0.74c-1.51-0.63-2.75-1.63-3.74-2.93c-2.23-2.96-3.13-6.35-3.26-10
			c-0.01-0.42,1.13-1.21,1.5-1.01c0.15,0.08,0.24,0.34,0.27,0.54c0.11,0.8,0.17,1.62,0.29,2.42c0.44,2.98,1.49,5.68,3.68,7.84
			c0.83,0.83,1.77,1.39,2.99,1.55C35.89,35.97,36.78,36.38,37.81,36.7z"/>
	</g>
</g>
</svg>
