<?xml version="1.0" encoding="utf-8"?>
<!-- Generator: Adobe Illustrator 23.0.5, SVG Export Plug-In . SVG Version: 6.00 Build 0)  -->
<svg version="1.1" id="Layer_1" xmlns="http://www.w3.org/2000/svg" xmlns:xlink="http://www.w3.org/1999/xlink" x="0px" y="0px"
	 viewBox="0 0 100 100" style="enable-background:new 0 0 100 100;" xml:space="preserve">
<style type="text/css">
	.st0{fill-rule:evenodd;clip-rule:evenodd;fill:#573C18;}
	.st1{fill-rule:evenodd;clip-rule:evenodd;fill:#FFFFFF;}
	.st2{fill:#573C18;}
</style>
<g>
	<path class="st0" d="M56.06,87.89c-16.68-0.09-34.24-0.34-48.09-0.1c-6.58,0.11-5.05-4.96-1.52-9.74
		c5.82-7.87,13.48-10.79,22.09-14.04c0.68-0.61,1.55-1.34,2.46-2.12c1.6-1.36,3.35-2.84,4.38-3.89l0.01-0.01l-0.06-0.05
		c-1.55-1.4-2.94-3.11-4.21-5.12c-1.17-1.85-2.22-3.96-3.18-6.28c-0.42-0.13-0.82-0.28-1.2-0.46c-0.54-0.25-1.03-0.55-1.48-0.9
		c-1.32-1.01-2.19-2.39-2.7-3.9c-0.57-1.7-0.67-3.56-0.44-5.28c0.12-0.88,0.36-1.66,0.73-2.3c0.39-0.69,0.91-1.24,1.57-1.66
		c0.19-0.12,0.41-0.17,0.62-0.16c-0.37-1.9-0.31-3.73-0.24-5.86c0.06-1.68,0.23-3.26,0.56-4.75v-7.09
		c0-15.59,39.81-18.61,40.66,1.32c0.2,4.6,0.52,9.04,0.47,13.43c-0.02,1.06-0.19,2.15-0.55,3.26c-0.02,0.11-0.04,0.23-0.07,0.36
		c0.8,0.5,1.43,1.12,1.89,1.82c0.69,1.04,0.99,2.25,0.91,3.52c-0.07,1.22-0.49,2.5-1.25,3.75c-0.88,1.45-2.22,2.87-4.01,4.09
		c-1.56,3.65-3.75,7.3-6.39,10.23c-0.56,0.62-1.15,1.21-1.75,1.77c0.08,0.06,0.15,0.13,0.21,0.22c0.61,0.92,2.83,2.87,4.79,4.59
		l0.27,0.23c3.56-3.11,8.22-4.98,13.33-4.98c5.61,0,10.68,2.27,14.36,5.95c3.67,3.67,5.95,8.75,5.95,14.36s-2.27,10.68-5.95,14.36
		s-8.75,5.95-14.36,5.95s-10.68-2.27-14.36-5.95C58.16,91.13,56.99,89.59,56.06,87.89L56.06,87.89z M55.66,69.15
		c0.65-1.32,1.45-2.57,2.37-3.71c0.24-0.61,0.43-1.25,0.59-1.93c-1.92-1.69-3.95-3.5-4.63-4.53c-0.02-0.02-0.03-0.05-0.05-0.08
		c-1.41,1.1-2.91,1.97-4.48,2.55c-2.85,1.06-5.93,1.13-9.12-0.21c-1.18-0.5-2.38-1.19-3.59-2.11c-0.03,0.04-0.06,0.08-0.09,0.12
		c-1.09,1.12-2.88,2.63-4.5,4.01l-0.43,0.36C31.47,72.93,48.34,76.79,55.66,69.15L55.66,69.15z M74.86,81.48
		c0.31-0.15,0.69-0.02,0.84,0.28c0.15,0.31,0.02,0.69-0.28,0.84c-0.25,0.13-0.51,0.24-0.78,0.34c-0.26,0.09-0.53,0.18-0.8,0.26
		c-1.14,0.32-2.4,0.54-3.26,0.24c-1.08-0.38-1.55-1.33-0.64-3.35c0.16-0.34,0.32-0.72,0.44-1.1c0-0.13,0.03-0.24,0.1-0.35
		c0.06-0.24,0.09-0.48,0.09-0.71c0-0.57-0.26-1.08-1.08-1.39c-0.23-0.09-0.5-0.08-0.83,0.02c-0.37,0.1-0.79,0.32-1.25,0.65
		l-0.54,0.91c-0.17,0.3-0.56,0.39-0.86,0.22c-0.3-0.17-0.39-0.56-0.22-0.86l0.25-0.43c-0.09-0.02-0.17-0.02-0.24-0.01
		c-0.32,0.02-0.54,0.15-0.67,0.32c-0.12,0.16-0.18,0.35-0.19,0.58c-0.01,0.26,0.05,0.54,0.17,0.84c0.25,0.57,0.78,1.11,1.59,1.42
		c0.08-0.18,0.17-0.35,0.26-0.53c0.24-0.42,0.51-0.82,0.8-1.17c0.22-0.27,0.61-0.31,0.88-0.09c0.27,0.22,0.31,0.61,0.09,0.88
		c-0.24,0.3-0.48,0.64-0.68,0.99c-0.14,0.25-0.25,0.51-0.33,0.76c0,0.02-0.01,0.05-0.01,0.07c-0.29,2.17-0.03,3.69,0.75,4.64
		c0.76,0.93,2.07,1.36,3.88,1.34l0,0c1.14-0.09,2.18-0.31,3.1-0.63c0.91-0.32,1.72-0.75,2.43-1.29c0.9-0.69,1.82-1.68,2.39-2.78
		c0.44-0.85,0.66-1.76,0.49-2.63c0-0.02-0.01-0.04-0.01-0.06l-0.04-0.21c-0.2-0.97-0.28-1.36-0.16-1.75
		c0.09-0.3,0.24-0.46,0.47-0.72c0.18-0.2,0.44-0.47,0.78-0.96c0.25-0.37,0.46-0.73,0.62-1.06c0.15-0.33,0.25-0.65,0.3-0.97
		c0.21-1.21-0.06-2.29-0.62-3.11c-0.3-0.43-0.68-0.8-1.1-1.08c-0.43-0.28-0.91-0.47-1.43-0.55c-0.94-0.16-1.97,0.03-2.93,0.69
		c-0.47,0.32-0.8,0.69-1.03,1.14c-0.24,0.47-0.38,1.02-0.46,1.67c-0.09,0.77-0.14,1.55-0.05,2.28c0.05,0.39,0.13,0.76,0.28,1.12
		c0.02,0.03,0.04,0.07,0.06,0.11c0.02,0.04,0.03,0.07,0.04,0.11c0.1,0.21,0.22,0.41,0.36,0.6c0.13,0.19,0.27,0.31,0.4,0.37
		c0.1,0.05,0.22,0.06,0.34,0.03c0.34-0.07,0.67,0.14,0.74,0.47c0.07,0.32-0.12,0.63-0.42,0.73l0,0c-0.68,0.22-1.3,0.47-1.87,0.76
		c-0.54,0.29-1.03,0.62-1.42,0.99c-0.25,0.24-0.65,0.23-0.88-0.02c-0.24-0.25-0.23-0.65,0.02-0.88c0.49-0.47,1.06-0.86,1.7-1.2
		c0.18-0.09,0.37-0.19,0.57-0.28c-0.07-0.08-0.13-0.16-0.21-0.24c-0.09-0.13-0.18-0.26-0.26-0.39c-0.5,0.23-0.98,0.48-1.44,0.76
		c-0.55,0.33-1.07,0.71-1.55,1.15c-0.14,0.47-0.34,0.93-0.52,1.33c-0.49,1.09-0.43,1.55-0.09,1.66c0.55,0.2,1.57-0.01,2.52-0.27
		c0.24-0.06,0.47-0.14,0.69-0.23C74.42,81.69,74.64,81.58,74.86,81.48L74.86,81.48L74.86,81.48z M85.66,66.34
		c-3.02-3.02-7.19-4.88-11.8-4.88c-4.6,0-8.78,1.87-11.8,4.88c-3.02,3.02-4.88,7.19-4.88,11.8s1.87,8.78,4.88,11.8
		c3.02,3.02,7.19,4.88,11.8,4.88c4.6,0,8.78-1.87,11.8-4.88c3.02-3.02,4.88-7.19,4.88-11.8C90.54,73.53,88.68,69.35,85.66,66.34
		L85.66,66.34z M44.39,7.97h2.47c0.47,0,0.84,0.38,0.84,0.84v3.68h3.68c0.47,0,0.84,0.38,0.84,0.84v2.47c0,0.47-0.38,0.84-0.84,0.84
		H47.7v3.68c0,0.47-0.38,0.84-0.84,0.84h-2.47c-0.47,0-0.84-0.38-0.84-0.84v-3.68h-3.68c-0.47,0-0.84-0.38-0.84-0.84v-2.47
		c0-0.47,0.38-0.84,0.84-0.84h3.68V8.8C43.56,8.35,43.93,7.97,44.39,7.97L44.39,7.97L44.39,7.97z M32.86,35.36
		c-0.3,0.21-0.72,0.14-0.93-0.16c-0.21-0.3-0.14-0.72,0.16-0.93c1.25-0.89,2.54-1.35,3.86-1.35c1.31-0.01,2.63,0.44,3.93,1.35
		c0.3,0.21,0.38,0.62,0.17,0.93c-0.21,0.3-0.62,0.38-0.93,0.17c-1.09-0.75-2.14-1.12-3.18-1.11C34.91,34.26,33.88,34.63,32.86,35.36
		L32.86,35.36z M51.6,35.36c-0.3,0.21-0.72,0.14-0.93-0.16c-0.21-0.3-0.14-0.72,0.16-0.93c1.25-0.89,2.54-1.35,3.86-1.35
		c1.31-0.01,2.63,0.44,3.93,1.35c0.3,0.21,0.38,0.62,0.17,0.93c-0.21,0.3-0.62,0.38-0.93,0.17c-1.09-0.75-2.14-1.12-3.18-1.11
		C53.66,34.26,52.63,34.63,51.6,35.36L51.6,35.36z M33.43,39.23c-0.31-0.21-0.39-0.62-0.18-0.92c0.21-0.31,0.62-0.39,0.92-0.18
		c0.52,0.35,1.39,0.54,2.31,0.54c0.86-0.01,1.76-0.19,2.45-0.59c0.32-0.18,0.73-0.08,0.91,0.24c0.18,0.32,0.08,0.73-0.24,0.91
		c-0.9,0.53-2.03,0.76-3.11,0.77C35.31,40,34.16,39.72,33.43,39.23L33.43,39.23z M51,39.23c-0.31-0.21-0.39-0.62-0.18-0.92
		c0.21-0.31,0.62-0.39,0.92-0.18c0.51,0.34,1.37,0.52,2.27,0.5c0.85-0.02,1.72-0.21,2.34-0.61c0.31-0.2,0.73-0.1,0.92,0.21
		s0.11,0.73-0.21,0.92c-0.84,0.54-1.96,0.8-3.04,0.81C52.88,39.97,51.73,39.71,51,39.23L51,39.23z M42.14,51.49
		c-0.13-0.35,0.06-0.73,0.41-0.85c0.35-0.13,0.73,0.06,0.85,0.41c0.09,0.27,0.35,0.48,0.69,0.62c0.32,0.13,0.69,0.21,1.08,0.21
		c0.39,0.01,0.77-0.05,1.12-0.17c0.41-0.14,0.74-0.38,0.88-0.71c0.14-0.34,0.54-0.5,0.88-0.35c0.34,0.14,0.5,0.54,0.35,0.88
		c-0.3,0.71-0.92,1.19-1.66,1.45c-0.5,0.17-1.05,0.25-1.59,0.24c-0.54-0.02-1.1-0.12-1.56-0.32C42.91,52.61,42.38,52.15,42.14,51.49
		L42.14,51.49z M65.18,34.54c-0.76,1.73-2.03,4-3.69,6.26V30.47c-2.87-1.32-5.13-3.62-6.83-6.83h-5.94
		c-5.66,6.24-16.47,6.34-19.75,8.28v8.06c-0.8-1.14-1.53-2.29-2.18-3.47c-0.54-0.99-0.95-1.9-1.25-2.78l-0.02,0.02
		c-0.37,0.24-0.67,0.55-0.9,0.95c-0.24,0.43-0.41,0.95-0.49,1.58c-0.19,1.44-0.11,2.99,0.35,4.38c0.39,1.15,1.03,2.19,2.01,2.94
		c0.35,0.26,0.72,0.49,1.11,0.68c0.41,0.19,0.85,0.35,1.32,0.46c0.33,0.08,0.58,0.32,0.7,0.61l0,0c0.96,2.4,2.03,4.55,3.2,6.43
		c1.17,1.85,2.44,3.41,3.85,4.69c1.51,1.36,2.99,2.32,4.44,2.93c2.67,1.12,5.25,1.06,7.64,0.17c2.46-0.91,4.75-2.67,6.77-4.9
		c2.55-2.82,4.66-6.39,6.15-9.94c0.09-0.22,0.25-0.39,0.45-0.5c1.62-1.08,2.83-2.32,3.59-3.58c0.58-0.95,0.9-1.92,0.95-2.81
		c0.05-0.84-0.14-1.63-0.58-2.3C65.85,35.16,65.56,34.83,65.18,34.54L65.18,34.54z"/>
	<path class="st1" d="M79.53,64.08c-0.6,0-8.66,2.59-8.66,2.59l-5.84,3.19l-1.61,1.87l-2.87,7.06l4.48,6.03l1.56,4.63l7.1,2.82h4.23
		l5.64-2.42c0,0,2.21-4.63,2.82-6.64c0.6-2.01,0.81-4.42,0.81-4.42s0-1.45-0.81-4.96c-0.81-3.51-2.65-4.11-1.93-4.92
		c0.72-0.81,0.89-2.47,0-2.24c-0.89,0.23-3.3-1.18-3.3-1.18L79.53,64.08z"/>
	<path class="st2" d="M70.83,84.47c0.04,0.26,0.04,0.55-0.05,0.79c-0.1,0.27-0.33,0.49-0.55,0.8c-0.28,0-0.68,0-1.14,0
		c0.23-0.43,0.44-0.81,0.65-1.19c0.31-0.56,0.4-1.13,0.17-1.76c-0.12-0.31-0.17-0.67-0.14-1c0.08-0.95-0.29-1.56-1.22-1.85
		c-0.35-0.11-0.53-0.34-0.56-0.75c-0.02-0.3-0.15-0.66-0.35-0.87c-0.55-0.56-1.15-1.06-1.75-1.55c-0.31-0.26-0.68-0.36-1.1-0.22
		c-0.17,0.06-0.37,0.05-0.55,0.05c-0.49,0-0.99,0.06-1.45-0.05c-0.34-0.08-0.67-0.35-0.9-0.63c-0.24-0.29,0.01-0.57,0.22-0.8
		c0.21-0.24,0.46-0.47,0.62-0.74c0.12-0.2,0.24-0.5,0.18-0.69c-0.13-0.41,0.02-0.68,0.27-0.96c0.14-0.16,0.28-0.33,0.42-0.49
		c-1.04-0.88-1.15-1.53-0.37-2.09c0.01,0.07,0.02,0.14,0.03,0.2c0.03,1,0.38,1.27,1.34,1.08c0.24-0.05,0.51-0.03,0.75,0.02
		c0.81,0.17,1.25-0.16,1.27-0.97c0-0.1,0.01-0.21,0.02-0.35c0.71,0.65,0.65,1.14-0.22,2.09c0.23,0.07,0.44,0.19,0.64,0.18
		c0.69-0.03,1.4-0.01,2.05-0.19c1.06-0.28,2.06-0.29,3.08,0.13c1.76,0.72,3.56,0.88,5.44,0.5c0.81-0.16,1.66-0.28,2.47-0.21
		c2,0.15,3.39,1.28,3.54,3.36c0.06,0.85,0.07,1.7,0.18,2.54c0.06,0.49,0.28,0.96,0.42,1.44c0.09,0.32,0.25,0.66,0.21,0.96
		c-0.1,0.68-0.31,1.35-0.48,2.07c-0.17-0.32-0.31-0.6-0.45-0.88c-0.05,0.02-0.1,0.03-0.15,0.05c0.16,0.61,0.32,1.22,0.47,1.83
		c0.05,0.21,0.1,0.44,0.08,0.65c-0.05,0.36-0.15,0.71-0.24,1.09c-0.34,0-0.75,0-1.17,0c0.55-2.16,0.09-4.2-1.13-5.17
		c-0.47,0.85-0.98,1.69-1.41,2.56c-0.43,0.86-0.78,1.75-1.16,2.62c-0.45,0-0.85,0-1.4,0c0.51-0.71,0.93-1.36,1.42-1.96
		c0.6-0.73,0.82-1.55,0.68-2.47c-0.17-1.13-0.69-1.45-1.78-1.1c-0.96,0.31-1.93,0.54-2.95,0.36c-0.53-0.1-1.04-0.24-1.55-0.35
		c-0.03,0.03-0.04,0.04-0.05,0.05c-0.07,0.19-0.14,0.38-0.22,0.57c-0.59,1.22-0.5,2.35,0.39,3.4c0.07,0.08,0.13,0.16,0.17,0.25
		c0.04,0.09,0.05,0.19,0.05,0.29c0,0.21-0.03,0.42-0.04,0.69c-0.29,0.07-0.66,0.16-1.11,0.27c0.28-0.82,0.16-1.51-0.25-2.2
		c-0.28-0.47-0.4-1.03-0.59-1.54c-0.08-0.23-0.17-0.46-0.25-0.69C70.82,82.55,70.7,83.49,70.83,84.47z M83.29,80.67
		c-0.21-2.03,0.37-4.17-0.89-6.05C82.18,76.71,82.23,78.76,83.29,80.67z"/>
</g>
</svg>
