<svg id="Layer_1" data-name="Layer 1" xmlns="http://www.w3.org/2000/svg" viewBox="0 0 100 100"><defs><style>.cls-1{fill:#573a14;}</style></defs><path class="cls-1" d="M79.05,28.79a7.15,7.15,0,0,0-6.14-3.64,5.12,5.12,0,0,0-5.17,5.13,1.19,1.19,0,0,0,1.18,1.18,1.17,1.17,0,0,0,.83-.34,1.25,1.25,0,0,0,.35-.84c0-.12,0-.25,0-.37a4.41,4.41,0,0,1,.2-.71,3.76,3.76,0,0,1,.36-.61,4,4,0,0,1,.5-.51,3.85,3.85,0,0,1,.62-.36,4.26,4.26,0,0,1,.7-.19,5.57,5.57,0,0,1,1,0,6.38,6.38,0,0,1,1.21.33,6.11,6.11,0,0,1,1,.61,6.28,6.28,0,0,1,.85.86,6.43,6.43,0,0,1,.61,1,6.28,6.28,0,0,1,.33,1.2,7.12,7.12,0,0,1,0,1.53A8.35,8.35,0,0,1,77,34.87a10.4,10.4,0,0,1-1.2,2c-.27.35-.55.68-.85,1a31.69,31.69,0,0,1-3.81,3.32c-.79.62-1.6,1.22-2.38,1.86a13.2,13.2,0,0,0-3.19,3.31l-.18.31a47.5,47.5,0,0,0,2.3-15.45V28.11H32.33v3.11a47.5,47.5,0,0,0,2.3,15.45c-.06-.1-.11-.21-.18-.31a13.16,13.16,0,0,0-3.18-3.31c-.79-.64-1.59-1.24-2.39-1.86a32.48,32.48,0,0,1-3.81-3.32c-.3-.32-.58-.65-.85-1a10.4,10.4,0,0,1-1.2-2,8.35,8.35,0,0,1-.48-1.76,7.12,7.12,0,0,1,0-1.53,6.28,6.28,0,0,1,.33-1.2,6.43,6.43,0,0,1,.61-1,6.35,6.35,0,0,1,.86-.86,5.67,5.67,0,0,1,1-.61,6.38,6.38,0,0,1,1.21-.33,5.57,5.57,0,0,1,1,0,4.26,4.26,0,0,1,.7.19,3.85,3.85,0,0,1,.62.36,4,4,0,0,1,.5.51,3.76,3.76,0,0,1,.36.61,4.41,4.41,0,0,1,.2.71c0,.12,0,.25,0,.37a1.24,1.24,0,0,0,.34.84,1.18,1.18,0,0,0,2-.84,5.12,5.12,0,0,0-5.17-5.13A7.15,7.15,0,0,0,21,28.79a7.27,7.27,0,0,0-.88,3.62,8.79,8.79,0,0,0,.54,2.87,13.24,13.24,0,0,0,3.25,4.78A46.19,46.19,0,0,0,28.3,43.7l.47.36a25.61,25.61,0,0,1,2.8,2.41,8.14,8.14,0,0,1,.54.63,5.16,5.16,0,0,1,.55.9c0,.13.08.25.11.38v.36c0,.09-.05.18-.07.26a.86.86,0,0,1-.1.16,1.06,1.06,0,0,1-.15.15l-.2.12L32,49.5h-.24c-.1,0-.2,0-.3-.09a1.27,1.27,0,0,0-.9-.11,1.15,1.15,0,0,0-.7.54,1.17,1.17,0,0,0,.42,1.61,3.78,3.78,0,0,0,1.5.41,4.34,4.34,0,0,0,.71-.06,2.5,2.5,0,0,0,.45-.12,3.2,3.2,0,0,0,1.83-1.58,3.8,3.8,0,0,0,.35-1.37,3.68,3.68,0,0,0-.06-.87c2.13,5.5,5.37,9.29,9.21,11.15A6.87,6.87,0,0,0,47,63.51c-.84,10.44-7,12-7,12v1.82H37.78a.76.76,0,0,0-.75.76V90.27H35.51a.77.77,0,0,0-.76.76v1.52a.76.76,0,0,0,.76.76H64.33a.76.76,0,0,0,.76-.76V91a.77.77,0,0,0-.76-.76H62.82V78.13a.77.77,0,0,0-.76-.76h-2V75.55s-6.15-1.59-7-12A6.82,6.82,0,0,0,55.78,59c3.84-1.86,7.08-5.65,9.22-11.15a3.69,3.69,0,0,0-.07.87,4,4,0,0,0,.35,1.37,3.2,3.2,0,0,0,1.83,1.58,2.5,2.5,0,0,0,.45.12,4.37,4.37,0,0,0,.72.06,3.73,3.73,0,0,0,1.49-.41,1.18,1.18,0,0,0-.28-2.15,1.27,1.27,0,0,0-.9.11c-.1,0-.2.06-.3.09h-.24l-.23-.07-.21-.12-.15-.15a.83.83,0,0,1-.09-.16,1.11,1.11,0,0,1-.07-.26,2.16,2.16,0,0,1,0-.36,2.66,2.66,0,0,1,.1-.38,5.16,5.16,0,0,1,.55-.9,8.27,8.27,0,0,1,.55-.63,24.61,24.61,0,0,1,2.79-2.41l.47-.36a46.31,46.31,0,0,0,4.39-3.64,13.5,13.5,0,0,0,3.25-4.78,9.05,9.05,0,0,0,.53-2.87A7.16,7.16,0,0,0,79.05,28.79Z"/><path class="cls-1" d="M27.74,65.08a8.65,8.65,0,0,0,.17-5.74,9.14,9.14,0,0,1-.63,5.71,3.2,3.2,0,0,1-.64-.17A3,3,0,0,1,25,62.06c.11-2.4,2.62-3.4,1.31-6.37a7.4,7.4,0,0,1,4.07,4.17,4.25,4.25,0,0,1-.3,3.45A2.64,2.64,0,0,1,27.74,65.08Z"/><path class="cls-1" d="M22.24,67.06A3,3,0,0,1,25.5,67a3.45,3.45,0,0,1,.48.45A9,9,0,0,1,21.52,71a8.59,8.59,0,0,0,4.74-3.22A2.69,2.69,0,0,1,26,70.71a4.21,4.21,0,0,1-2.75,2.1,7.28,7.28,0,0,1-5.67-1.22C20.78,71.11,20.28,68.44,22.24,67.06Z"/><path class="cls-1" d="M20.25,60.45a8.1,8.1,0,0,0,1.5-5.2,8.62,8.62,0,0,1-1.91,5.06,3.29,3.29,0,0,1-.55-.3,2.83,2.83,0,0,1-.86-3c.67-2.16,3.2-2.48,2.7-5.49a6.94,6.94,0,0,1,2.72,4.75,4,4,0,0,1-1.08,3.08A2.52,2.52,0,0,1,20.25,60.45Z"/><path class="cls-1" d="M14.75,61a2.81,2.81,0,0,1,3,.68,3.83,3.83,0,0,1,.33.53,8.49,8.49,0,0,1-4.91,2.22,8,8,0,0,0,5.07-1.81,2.52,2.52,0,0,1-.91,2.59,4,4,0,0,1-3,1.27A6.93,6.93,0,0,1,9.45,64C12.47,64.32,12.65,61.77,14.75,61Z"/><path class="cls-1" d="M14.36,54.09a7.68,7.68,0,0,0,2.85-4.2,8.12,8.12,0,0,1-3.18,4,3.22,3.22,0,0,1-.39-.43,2.64,2.64,0,0,1,.09-2.89c1.22-1.74,3.56-1.3,4-4.13a6.52,6.52,0,0,1,1.06,5,3.73,3.73,0,0,1-1.86,2.43A2.35,2.35,0,0,1,14.36,54.09Z"/><path class="cls-1" d="M9.29,53a2.59,2.59,0,0,1,2.47,1.48,3,3,0,0,1,.15.57,8.05,8.05,0,0,1-5,.56,7.56,7.56,0,0,0,5.05-.16,2.37,2.37,0,0,1-1.57,2,3.69,3.69,0,0,1-3,.26,6.42,6.42,0,0,1-3.65-3.59C6.29,55.3,7.18,53.08,9.29,53Z"/><path class="cls-1" d="M10.43,45.9a7.1,7.1,0,0,0,3.85-2.75,7.56,7.56,0,0,1-4.06,2.43,3,3,0,0,1-.21-.51,2.44,2.44,0,0,1,1-2.49c1.63-1.12,3.54,0,4.83-2.31A6,6,0,0,1,15.15,45a3.49,3.49,0,0,1-2.41,1.52A2.18,2.18,0,0,1,10.43,45.9Z"/><path class="cls-1" d="M6.33,43.28A2.4,2.4,0,0,1,8,45.37a2.5,2.5,0,0,1,0,.55,7.46,7.46,0,0,1-4.58-1.15,7,7,0,0,0,4.47,1.51,2.23,2.23,0,0,1-2,1.29,3.54,3.54,0,0,1-2.75-.76,6.1,6.1,0,0,1-2-4.33C3,44.33,4.45,42.68,6.33,43.28Z"/><path class="cls-1" d="M9.29,36.94a6.62,6.62,0,0,0,4.17-1.38,7,7,0,0,1-4.27,1,2.78,2.78,0,0,1,0-.51,2.26,2.26,0,0,1,1.59-1.93c1.75-.54,3.13,1,4.92-.72a5.64,5.64,0,0,1-1.94,4,3.2,3.2,0,0,1-2.55.69A2,2,0,0,1,9.29,36.94Z"/><path class="cls-1" d="M6.35,33.48a2.26,2.26,0,0,1,.92,2.32,2.22,2.22,0,0,1-.2.47A7,7,0,0,1,3.33,34a6.52,6.52,0,0,0,3.54,2.57,2,2,0,0,1-2.15.58,3.23,3.23,0,0,1-2.23-1.43,5.63,5.63,0,0,1-.6-4.4C3.06,33.48,4.85,32.43,6.35,33.48Z"/><path class="cls-1" d="M11.05,28.23a6.14,6.14,0,0,0,4-.29,6.45,6.45,0,0,1-4.05,0,2.46,2.46,0,0,1,.08-.46A2.1,2.1,0,0,1,13,26.06c1.69-.08,2.57,1.61,4.56.48a5.19,5.19,0,0,1-2.64,3.15,3,3,0,0,1-2.44,0A1.9,1.9,0,0,1,11.05,28.23Z"/><path class="cls-1" d="M9.18,24.45a2.1,2.1,0,0,1,.3,2.29,2.75,2.75,0,0,1-.28.37,6.37,6.37,0,0,1-2.84-2.88A6.08,6.08,0,0,0,9,27.33a1.88,1.88,0,0,1-2.06,0,3,3,0,0,1-1.66-1.78,5.19,5.19,0,0,1,.45-4.08C6.24,23.71,8.07,23.18,9.18,24.45Z"/><path class="cls-1" d="M15.17,20.26A5.49,5.49,0,0,0,18.8,21a5.86,5.86,0,0,1-3.57-1,3.39,3.39,0,0,1,.18-.39,1.93,1.93,0,0,1,2-.77c1.52.33,1.89,2.05,3.92,1.53a4.77,4.77,0,0,1-3.09,2.15,2.75,2.75,0,0,1-2.16-.56A1.7,1.7,0,0,1,15.17,20.26Z"/><path class="cls-1" d="M14.4,16.45a1.94,1.94,0,0,1-.29,2.1,2,2,0,0,1-.34.26A5.87,5.87,0,0,1,12,15.57,5.59,5.59,0,0,0,13.5,19a1.75,1.75,0,0,1-1.83-.48,2.74,2.74,0,0,1-1-2A4.74,4.74,0,0,1,12,13C12,15.09,13.73,15.06,14.4,16.45Z"/><path class="cls-1" d="M21.32,13.9a5.08,5.08,0,0,0,2.91,1.69,5.38,5.38,0,0,1-2.77-1.92,1.86,1.86,0,0,1,.27-.29,1.74,1.74,0,0,1,1.92-.08c1.2.73,1,2.31,2.92,2.46a4.35,4.35,0,0,1-3.29,1,2.52,2.52,0,0,1-1.7-1.12A1.55,1.55,0,0,1,21.32,13.9Z"/><path class="cls-1" d="M21.76,10.37a1.76,1.76,0,0,1-.87,1.72,2.29,2.29,0,0,1-.37.12,5.39,5.39,0,0,1-.6-3.32,5.08,5.08,0,0,0,.33,3.36,1.58,1.58,0,0,1-1.43-.94,2.53,2.53,0,0,1-.31-2,4.29,4.29,0,0,1,2.21-2.6C20.08,8.48,21.59,9,21.76,10.37Z"/><path class="cls-1" d="M29.38,68a.14.14,0,0,0,.14-.09.15.15,0,0,0-.08-.19c-7-2.73-12.37-6.86-16-12.29A30.63,30.63,0,0,1,8.65,42.14a31.65,31.65,0,0,1,.78-12.71,32.53,32.53,0,0,1,5.25-10.06,30.59,30.59,0,0,1,7.68-7.28,27.29,27.29,0,0,1,4-2.28.15.15,0,1,0-.11-.27,25.46,25.46,0,0,0-4.09,2.3,30.89,30.89,0,0,0-7.76,7.36A32.65,32.65,0,0,0,9.15,29.35a31.68,31.68,0,0,0-.79,12.83,30.82,30.82,0,0,0,4.86,13.44c3.64,5.48,9.06,9.65,16.11,12.4Z"/><path class="cls-1" d="M72.26,65.08a8.65,8.65,0,0,1-.17-5.74,9.14,9.14,0,0,0,.63,5.71,3.2,3.2,0,0,0,.64-.17A3,3,0,0,0,75,62.06c-.11-2.4-2.62-3.4-1.31-6.37a7.4,7.4,0,0,0-4.07,4.17,4.25,4.25,0,0,0,.3,3.45A2.64,2.64,0,0,0,72.26,65.08Z"/><path class="cls-1" d="M77.76,67.06A3,3,0,0,0,74.5,67a3.45,3.45,0,0,0-.48.45A9,9,0,0,0,78.48,71a8.59,8.59,0,0,1-4.74-3.22A2.69,2.69,0,0,0,74,70.71a4.21,4.21,0,0,0,2.75,2.1,7.28,7.28,0,0,0,5.67-1.22C79.22,71.11,79.72,68.44,77.76,67.06Z"/><path class="cls-1" d="M79.75,60.45a8.1,8.1,0,0,1-1.5-5.2,8.62,8.62,0,0,0,1.91,5.06,3.29,3.29,0,0,0,.55-.3,2.83,2.83,0,0,0,.86-3c-.67-2.16-3.2-2.48-2.7-5.49a6.94,6.94,0,0,0-2.72,4.75,4,4,0,0,0,1.08,3.08A2.52,2.52,0,0,0,79.75,60.45Z"/><path class="cls-1" d="M85.25,61a2.81,2.81,0,0,0-3,.68,3.83,3.83,0,0,0-.33.53,8.49,8.49,0,0,0,4.91,2.22,8,8,0,0,1-5.07-1.81,2.52,2.52,0,0,0,.91,2.59,4,4,0,0,0,3,1.27A6.93,6.93,0,0,0,90.55,64C87.53,64.32,87.35,61.77,85.25,61Z"/><path class="cls-1" d="M85.64,54.09a7.68,7.68,0,0,1-2.85-4.2,8.12,8.12,0,0,0,3.18,4,3.22,3.22,0,0,0,.39-.43,2.64,2.64,0,0,0-.09-2.89c-1.22-1.74-3.56-1.3-4-4.13a6.52,6.52,0,0,0-1.06,5,3.73,3.73,0,0,0,1.86,2.43A2.35,2.35,0,0,0,85.64,54.09Z"/><path class="cls-1" d="M90.71,53a2.59,2.59,0,0,0-2.47,1.48,3,3,0,0,0-.15.57,8.05,8.05,0,0,0,5,.56,7.56,7.56,0,0,1-5-.16,2.37,2.37,0,0,0,1.57,2,3.69,3.69,0,0,0,3,.26,6.42,6.42,0,0,0,3.65-3.59C93.71,55.3,92.82,53.08,90.71,53Z"/><path class="cls-1" d="M89.57,45.9a7.1,7.1,0,0,1-3.85-2.75,7.56,7.56,0,0,0,4.06,2.43,3,3,0,0,0,.21-.51,2.44,2.44,0,0,0-1-2.49c-1.63-1.12-3.54,0-4.83-2.31A6,6,0,0,0,84.85,45a3.49,3.49,0,0,0,2.41,1.52A2.18,2.18,0,0,0,89.57,45.9Z"/><path class="cls-1" d="M93.67,43.28A2.4,2.4,0,0,0,92,45.37a2.5,2.5,0,0,0,.05.55,7.46,7.46,0,0,0,4.58-1.15,7,7,0,0,1-4.47,1.51,2.23,2.23,0,0,0,2,1.29,3.54,3.54,0,0,0,2.75-.76,6.1,6.1,0,0,0,2-4.33C97.05,44.33,95.55,42.68,93.67,43.28Z"/><path class="cls-1" d="M90.71,36.94a6.62,6.62,0,0,1-4.17-1.38,7,7,0,0,0,4.27,1,2.78,2.78,0,0,0,0-.51,2.26,2.26,0,0,0-1.59-1.93c-1.75-.54-3.13,1-4.92-.72a5.64,5.64,0,0,0,1.94,4,3.2,3.2,0,0,0,2.55.69A2,2,0,0,0,90.71,36.94Z"/><path class="cls-1" d="M93.65,33.48a2.26,2.26,0,0,0-.92,2.32,2.22,2.22,0,0,0,.2.47A7,7,0,0,0,96.67,34a6.52,6.52,0,0,1-3.54,2.57,2,2,0,0,0,2.15.58,3.23,3.23,0,0,0,2.23-1.43,5.63,5.63,0,0,0,.6-4.4C96.94,33.48,95.15,32.43,93.65,33.48Z"/><path class="cls-1" d="M89,28.23a6.14,6.14,0,0,1-4-.29,6.45,6.45,0,0,0,4,0,2.46,2.46,0,0,0-.08-.46A2.1,2.1,0,0,0,87,26.06c-1.69-.08-2.57,1.61-4.56.48a5.19,5.19,0,0,0,2.64,3.15,3,3,0,0,0,2.44,0A1.9,1.9,0,0,0,89,28.23Z"/><path class="cls-1" d="M90.82,24.45a2.1,2.1,0,0,0-.3,2.29,2.75,2.75,0,0,0,.28.37,6.37,6.37,0,0,0,2.84-2.88,6.08,6.08,0,0,1-2.59,3.1,1.88,1.88,0,0,0,2.06,0,3,3,0,0,0,1.66-1.78,5.19,5.19,0,0,0-.45-4.08C93.76,23.71,91.93,23.18,90.82,24.45Z"/><path class="cls-1" d="M84.83,20.26A5.49,5.49,0,0,1,81.2,21a5.86,5.86,0,0,0,3.57-1,3.39,3.39,0,0,0-.18-.39,1.93,1.93,0,0,0-2-.77c-1.52.33-1.89,2.05-3.92,1.53a4.77,4.77,0,0,0,3.09,2.15A2.75,2.75,0,0,0,84,21.93,1.7,1.7,0,0,0,84.83,20.26Z"/><path class="cls-1" d="M85.6,16.45a1.94,1.94,0,0,0,.29,2.1,2,2,0,0,0,.34.26A5.87,5.87,0,0,0,88,15.57,5.59,5.59,0,0,1,86.5,19a1.75,1.75,0,0,0,1.83-.48,2.74,2.74,0,0,0,1-2A4.74,4.74,0,0,0,88,13C88,15.09,86.27,15.06,85.6,16.45Z"/><path class="cls-1" d="M78.68,13.9a5.08,5.08,0,0,1-2.91,1.69,5.38,5.38,0,0,0,2.77-1.92,1.86,1.86,0,0,0-.27-.29,1.74,1.74,0,0,0-1.92-.08c-1.2.73-1,2.31-2.92,2.46a4.35,4.35,0,0,0,3.29,1,2.52,2.52,0,0,0,1.7-1.12A1.55,1.55,0,0,0,78.68,13.9Z"/><path class="cls-1" d="M78.24,10.37a1.76,1.76,0,0,0,.87,1.72,2.29,2.29,0,0,0,.37.12,5.39,5.39,0,0,0,.6-3.32,5.08,5.08,0,0,1-.33,3.36,1.58,1.58,0,0,0,1.43-.94,2.53,2.53,0,0,0,.31-2,4.29,4.29,0,0,0-2.21-2.6C79.92,8.48,78.41,9,78.24,10.37Z"/><path class="cls-1" d="M70.62,68a.14.14,0,0,1-.14-.09.15.15,0,0,1,.08-.19c7-2.73,12.37-6.86,16-12.29a30.63,30.63,0,0,0,4.81-13.32,31.65,31.65,0,0,0-.78-12.71,32.53,32.53,0,0,0-5.25-10.06,30.59,30.59,0,0,0-7.68-7.28,27.29,27.29,0,0,0-4-2.28.15.15,0,1,1,.11-.27,25.46,25.46,0,0,1,4.09,2.3,30.89,30.89,0,0,1,7.76,7.36,32.65,32.65,0,0,1,5.29,10.15,31.68,31.68,0,0,1,.79,12.83,30.82,30.82,0,0,1-4.86,13.44C83.14,61.1,77.72,65.27,70.67,68Z"/></svg>