<svg id="Layer_1" data-name="Layer 1" xmlns="http://www.w3.org/2000/svg" viewBox="0 0 100 100"><defs><style>.cls-1,.cls-4,.cls-5,.cls-6{fill:#573a14;}.cls-2{fill:#fff;}.cls-3{fill:none;}.cls-3,.cls-4,.cls-5,.cls-6{stroke:#fff;stroke-miterlimit:10;}.cls-4{stroke-width:0.5px;}.cls-6{stroke-width:0.75px;fill-rule:evenodd;}</style></defs><path class="cls-1" d="M6.22,14.4H65.78a0,0,0,0,1,0,0V79.08a0,0,0,0,1,0,0H11a4.77,4.77,0,0,1-4.77-4.77V14.4A0,0,0,0,1,6.22,14.4Z"/><path class="cls-2" d="M35.54,47.15H15.42A2.39,2.39,0,0,1,13,44.76V24.4A2.39,2.39,0,0,1,15.42,22H35.54a2.4,2.4,0,0,1,2.4,2.39V44.76A2.4,2.4,0,0,1,35.54,47.15ZM15.42,23.71a.69.69,0,0,0-.69.69V44.76a.69.69,0,0,0,.69.69H35.54a.7.7,0,0,0,.7-.69V24.4a.7.7,0,0,0-.7-.69Z"/><path class="cls-3" d="M57.72,24.19H44.63a.85.85,0,1,1,0-1.7H57.72a.85.85,0,0,1,0,1.7Z"/><path class="cls-2" d="M32,35.43H18.94a.85.85,0,1,1,0-1.7H32a.85.85,0,0,1,0,1.7Z"/><path class="cls-2" d="M32,41H18.94a.85.85,0,0,1,0-1.7H32A.85.85,0,0,1,32,41Z"/><path class="cls-2" d="M32,29.83H18.94a.85.85,0,1,1,0-1.69H32a.85.85,0,0,1,0,1.69Z"/><path class="cls-3" d="M57.72,32H44.63a.85.85,0,0,1,0-1.7H57.72a.85.85,0,1,1,0,1.7Z"/><path class="cls-3" d="M57.72,39.82H44.63a.85.85,0,1,1,0-1.7H57.72a.85.85,0,0,1,0,1.7Z"/><path class="cls-3" d="M57.72,47.63H44.63a.85.85,0,1,1,0-1.7H57.72a.85.85,0,0,1,0,1.7Z"/><path class="cls-3" d="M57.72,55.44H13.89A.84.84,0,0,1,13,54.6a.85.85,0,0,1,.85-.85H57.72a.85.85,0,0,1,.85.85A.84.84,0,0,1,57.72,55.44Z"/><path class="cls-3" d="M57.72,60.82H13.89a.85.85,0,0,1,0-1.7H57.72a.85.85,0,0,1,0,1.7Z"/><path class="cls-3" d="M47.13,66.32H13.69a.88.88,0,0,1,0-1.7H47.13c.35,0,.64.38.64.85S47.48,66.32,47.13,66.32Z"/><path class="cls-3" d="M47.13,71.93H13.69a.88.88,0,0,1,0-1.7H47.13c.35,0,.64.38.64.85S47.48,71.93,47.13,71.93Z"/><path class="cls-4" d="M75.2,46.21h-.39a.43.43,0,0,1-.43-.43V30.27a.72.72,0,0,0-.72-.72h-8v-3h8a3.68,3.68,0,0,1,3.68,3.68v13.8A2.14,2.14,0,0,1,75.2,46.21Z"/><path class="cls-5" d="M69.29,11.22v49a6.47,6.47,0,0,1-.55,2.64L67.39,66a.94.94,0,0,1-1.8-.37V14.91h-58V72.34a6.27,6.27,0,0,0,6.27,6.27h49c1,0,.68.42,1.35,1.09s2.35,1.6,2.35,2.61H13.84a10,10,0,0,1-10-10V11.22Z"/><path class="cls-6" d="M49.07,70.36c0-2.32.86-4.39,2.94-5.06l.06-.09a1.08,1.08,0,0,1,.24-.32,1.17,1.17,0,0,1,.42-.2l.11,0c10.08-3.71,14.63-9.27,17.25-13a42.75,42.75,0,0,0,2.56,13.22,37.62,37.62,0,0,0,7.07,12.68h0a28.91,28.91,0,0,0-13.26-1.14,6,6,0,0,0-.44,2,1.56,1.56,0,0,0,.4,1.2l.09.08c.4.37.6.55.69.87a3.74,3.74,0,0,1-.06,1.29l0,.26a1.31,1.31,0,0,0,1,1.65c.56.24,1,.43,1.23,1.08a.38.38,0,0,1,0,.15,4.34,4.34,0,0,1-1.77,2.52c-.19.16-.38.32-.54.48h0c-1.56,1.25-2.62.92-3.42-.09a11.88,11.88,0,0,1-1.48-3.12l-.17-.48a48.7,48.7,0,0,1-1.6-6l-.14-.6L59.08,78h0l-1.43.44-.15.06a.51.51,0,0,1-.53,0c-2.52.84-4.62-.36-6-2.36a10.08,10.08,0,0,1-1.36-2.75A10.21,10.21,0,0,1,49.07,70.36ZM84.12,49.83a1.19,1.19,0,0,1-1.67-.22v0l0,0a1.23,1.23,0,0,1,.25-1.68c1.94-1.43,3.87-2.87,5.81-4.28a1.27,1.27,0,0,1,.89-.22,1.25,1.25,0,0,1,.8.48v0a1.22,1.22,0,0,1,.2.89,1.18,1.18,0,0,1-.48.8Zm6.31,23h0a1.17,1.17,0,0,1-.84-.37,1.14,1.14,0,0,1-.34-.85v0a1.19,1.19,0,0,1,1.19-1.2h0c2.14,0,4.32.08,6.47.12a1.22,1.22,0,0,1,.82,2.1,1.2,1.2,0,0,1-.86.34l-6.46-.12Zm.18-6.27a1.2,1.2,0,0,1-1.29-1.09v0a1.22,1.22,0,0,1,1.1-1.29c2-.16,4-.34,6-.46a1.21,1.21,0,0,1,1.29,1.12h0a1.22,1.22,0,0,1-1.12,1.3c-1.93.2-4.06.35-6,.46Zm-.86-5.82a1.23,1.23,0,0,1-1.51-.84h0a1.23,1.23,0,0,1,.11-.92,1.24,1.24,0,0,1,.73-.58c2.08-.55,4.15-1.22,6.23-1.78a1.23,1.23,0,0,1,1.5.83h0A1.22,1.22,0,0,1,96,59l-6.22,1.78Zm-2.51-5.72a1.21,1.21,0,0,1-1.63-.54h0a1.16,1.16,0,0,1-.07-.93,1.22,1.22,0,0,1,.61-.71l6-3a1.19,1.19,0,0,1,1.61.51l0,0a1.2,1.2,0,0,1,.06.93,1.23,1.23,0,0,1-.61.7l-6,3ZM72.52,48.17l.16-.17a1.94,1.94,0,0,1,.59-.44h0a1.37,1.37,0,0,1,.8,0,5.57,5.57,0,0,1,2.84,1.8c2.4,2.47,4.92,7.18,6.72,12.14S86.5,71.59,86,75a5.06,5.06,0,0,1-1.32,2.92l0,0a2.22,2.22,0,0,1-1,.4l-.1-.08a22.87,22.87,0,0,1-6.29-7.88,2,2,0,0,0,1.6-.83c2.79-2.94,1.42-8.09-2.07-9.28A5.45,5.45,0,0,0,73.37,60l-.06,0C72,55.12,71.67,50.57,72.52,48.17Z"/></svg>