<?xml version="1.0" encoding="utf-8"?>
<!-- Generator: Adobe Illustrator 23.0.5, SVG Export Plug-In . SVG Version: 6.00 Build 0)  -->
<svg version="1.1" id="Layer_1" xmlns="http://www.w3.org/2000/svg" xmlns:xlink="http://www.w3.org/1999/xlink" x="0px" y="0px"
	 viewBox="0 0 100 100" style="enable-background:new 0 0 100 100;" xml:space="preserve">
<style type="text/css">
	.st0{fill:#573B17;}
	.st1{fill-rule:evenodd;clip-rule:evenodd;fill:#573B17;}
</style>
<g>
	<path class="st0" d="M206.09,14.67l-0.56,16.32l-6.15-4.19l-6.15,3.47l1.27-17.5l-8.71-1.2v36.68l32.08,3.65V15.98L206.09,14.67
		L206.09,14.67z M259.49-32.14c0.33-0.06,0.67,0,0.95,0.17c0.48,0.2,0.82,0.67,0.83,1.23l0.28,37.79l14.09,1.85l0,0
		c0.33-0.06,0.67,0,0.95,0.17c0.48,0.2,0.82,0.67,0.83,1.23l0.28,38.74c0.02,0.47-0.21,0.94-0.65,1.2l-15.82,9.43
		c-0.22,0.17-0.5,0.27-0.8,0.27c-0.07,0-0.15-0.01-0.21-0.02l-41.05-4.57c-0.1-0.01-0.2-0.02-0.29-0.05l-35.18-4.52
		c-0.71-0.03-1.27-0.62-1.27-1.33v-39.4l0,0c-0.02-0.53,0.28-1.04,0.8-1.26l18.52-8.15V-26.4l0,0c-0.02-0.53,0.28-1.04,0.8-1.26
		l20.59-9.06l0,0c0.21-0.09,0.46-0.13,0.71-0.1L259.49-32.14L259.49-32.14L259.49-32.14z M260.27,9.57l-12.38,7.39l12.29,1.57
		l11.77-7.42L260.27,9.57L260.27,9.57z M201.74,6.99V3.57L188.6,9.35l7.54,0.96L201.74,6.99L201.74,6.99z M245.61-19.63v34.85
		l11.82-7.06l1.44-1.22l-0.25-34.77L245.61-19.63L245.61-19.63L245.61-19.63z M242.22,16.08v-36.05l-16.8-2.24l-0.57,16.73
		l-6.15-4.19l-6.15,3.47l1.27-17.5l-9.42-1.2v36.68L242.22,16.08L242.22,16.08L242.22,16.08z M240.17-31.98l-12.91,7.33l16.8,2.14
		l11.77-7.42L240.17-31.98L240.17-31.98L240.17-31.98z M215.47-26.16l12.52-7.43l-4.13-0.54l-15.93,7L215.47-26.16L215.47-26.16z
		 M261.74,21.4v34.85l13.27-7.91l-0.26-35.14L261.74,21.4L261.74,21.4L261.74,21.4z M258.36,57.11V21.06l-16.8-2.24l-0.57,16.73
		l-6.15-4.19l-6.15,3.47l1.27-17.5l-8.71-0.85v36.68L258.36,57.11L258.36,57.11L258.36,57.11z"/>
</g>
<path class="st1" d="M-135.93,144.89c2.41,0,4.36,1.95,4.36,4.36c0,2.41-1.95,4.36-4.36,4.36s-4.36-1.95-4.36-4.36
	C-140.29,146.84-138.34,144.89-135.93,144.89L-135.93,144.89z M-50.16,139.38c0-0.06,0-0.12,0-0.17c-0.28-0.02-0.56-0.07-0.83-0.13
	c-0.46-0.14-0.91-0.34-1.32-0.59c-0.21-0.21-0.39-0.45-0.54-0.72c-0.14,0.27-0.31,0.51-0.53,0.72c-1.52,1.15-3.62,1.15-5.14,0
	c-0.21-0.21-0.39-0.45-0.54-0.72c-0.14,0.27-0.31,0.51-0.53,0.72c-1.52,1.15-3.62,1.15-5.14,0c-0.21-0.21-0.39-0.45-0.54-0.72
	c-0.14,0.27-0.31,0.51-0.53,0.72c-1.52,1.15-3.62,1.15-5.14,0c-0.21-0.21-0.39-0.45-0.54-0.72c-0.14,0.27-0.31,0.51-0.53,0.72
	c-0.53,0.37-1.13,0.64-1.77,0.79h-0.38c0,0,0,0.07,0,0.11v13c-0.01,0.02-0.01,0.04,0,0.06c0.02,0.01,0.05,0.01,0.07,0h7.74v-7.61
	c-0.01-0.29,0.11-0.58,0.31-0.79c0.21-0.2,0.49-0.32,0.79-0.31h6.12c0.6,0.01,1.08,0.49,1.09,1.09v7.61h7.74
	c0.02,0.01,0.04,0.01,0.06,0c0.01-0.02,0.01-0.04,0-0.06v-13.01L-50.16,139.38z M-100.92,153.17c0.57-0.4,1.29-0.53,1.96-0.33
	c0.56,0.16,1.11,0.3,1.66,0.42c0.55,0.12,1.11,0.24,1.68,0.33c0.32,0.04,0.62,0.14,0.9,0.3c0.38,0.26,0.67,0.61,0.86,1.03
	c0.18,0.41,0.24,0.87,0.17,1.32c-0.06,0.33-0.18,0.64-0.36,0.92c-0.24,0.37-0.58,0.66-0.98,0.85l0,0c-0.41,0.18-0.86,0.24-1.3,0.17
	h-0.05c-0.63-0.11-1.27-0.24-1.93-0.38c-0.66-0.14-1.26-0.3-1.89-0.47l0,0c-0.29-0.05-0.57-0.15-0.82-0.3
	c-0.22-0.16-0.42-0.35-0.57-0.58c-0.41-0.57-0.53-1.29-0.33-1.96c0.07-0.27,0.19-0.52,0.35-0.74c0.16-0.23,0.36-0.42,0.59-0.58
	H-100.92z M-86.88,154.3c0.39-0.3,0.86-0.47,1.35-0.5c0.57,0,1.13-0.06,1.69-0.12l0,0c0.55-0.05,1.12-0.12,1.71-0.2
	c0.15-0.02,0.3-0.02,0.45,0c0.15,0,0.31,0.03,0.46,0.06l0,0c0.68,0.15,1.25,0.6,1.57,1.21c0.18,0.37,0.27,0.78,0.24,1.2
	c-0.02,0.41-0.14,0.81-0.36,1.16c-0.36,0.55-0.93,0.93-1.57,1.05h-0.04c-0.61,0.09-1.25,0.17-1.91,0.24
	c-0.67,0.06-1.34,0.11-2.01,0.13c-0.27,0.01-0.53-0.01-0.79-0.09c-0.47-0.13-0.89-0.41-1.2-0.79c-0.31-0.39-0.48-0.86-0.5-1.35
	c-0.01-0.25,0.02-0.5,0.09-0.74l0,0c0.14-0.46,0.41-0.87,0.79-1.17l0,0L-86.88,154.3z M-64.69,152.48h5.11v-7.08h-5.11V152.48z
	 M-48.63,139.1c0.04,0.1,0.06,0.2,0.06,0.31v13c0,0.45-0.19,0.87-0.5,1.19c-0.31,0.32-0.74,0.5-1.18,0.5h-23.78
	c-0.93,0-1.68-0.76-1.68-1.68v-13.05c0-0.1,0.02-0.2,0.06-0.3c-0.36-0.13-0.68-0.33-0.95-0.6c-0.56-0.55-0.87-1.3-0.87-2.09v-1.16
	l0,0c-0.01-0.05-0.01-0.11,0-0.17l2.08-6.66c0.19-0.6,0.77-0.99,1.39-0.94h23.51c0.62-0.02,1.19,0.35,1.42,0.93l2.23,6.66
	c0.02,0.05,0.04,0.1,0.05,0.16l0,0v1.17c0,0.78-0.31,1.53-0.87,2.09c-0.27,0.28-0.61,0.48-0.98,0.59L-48.63,139.1z M-116.14,100.06
	c-0.26,0.28-0.34,0.37-0.63,0.72l0,0c-0.36,0.43-1.14,1.45-1.5,1.9c-0.27,0.36-0.63,0.63-1.05,0.79l0,0
	c-0.42,0.15-0.88,0.18-1.32,0.09l0,0c-0.78-0.18-1.42-0.74-1.69-1.5c-0.16-0.43-0.19-0.9-0.09-1.35c0.07-0.3,0.2-0.59,0.39-0.84l0,0
	c0.39-0.52,1.23-1.57,1.64-2.09c0.42-0.52,0.52-0.61,0.97-1.09l0,0l0.06-0.06l-1.07-0.09c-1.06-0.09-1.85-1.03-1.76-2.09
	c0.09-1.06,1.03-1.85,2.09-1.76l6.07,0.53c1.06,0.09,1.84,1.01,1.76,2.07c0,0,0,0,0,0.01v5.89c0.07,1.06-0.74,1.98-1.8,2.05
	s-1.98-0.74-2.05-1.8c-0.01-0.08-0.01-0.16,0-0.25v-1.13H-116.14z M-107.82,97.76c0-4.41-0.12-7.14,3.05-9.06
	c1.72-0.92,6.11-1.28,8.07-2.55c0.31-0.69,0.58-1.41,0.79-2.14v-0.06c-0.69-0.79-1.31-1.64-1.85-2.54l-1.57-2.29
	c-0.5-0.67-0.81-1.47-0.9-2.31c-0.02-0.29,0.04-0.57,0.16-0.83c0.12-0.25,0.31-0.47,0.54-0.63c0.12-0.08,0.25-0.15,0.39-0.2
	c-0.11-1.52-0.13-3.04-0.07-4.56c0.04-0.35,0.1-0.69,0.2-1.03c0.68-2.06,2.33-3.66,4.41-4.28c1.02-0.32,0.67-1.16,1.64-1.11
	c2.36,0.13,6.04,1.66,7.44,3.29c1.98,2.27,1.46,5.08,1.4,7.87l0,0c0.42,0.11,0.75,0.45,0.83,0.87c0.09,0.74-0.06,1.48-0.42,2.13l0,0
	c0,0.02,0,0.03,0,0.05l-1.81,2.74c-0.64,1.17-1.43,2.24-2.36,3.19l-0.05,0.05c0.09,0.13,0.19,0.27,0.29,0.42
	c0.31,0.46,0.67,0.98,1.01,1.39c1.97,1.23,6.3,1.57,8,2.5c3.53,2.01,2.79,4.87,3.04,9.06L-107.82,97.76z M-96.19,87.05
	c2.2,2.47,7.19,2.04,9.03,0c-0.46-0.54-0.88-1.12-1.27-1.72c-0.09-0.13-0.17-0.25-0.25-0.36c-0.91,0.61-1.98,0.92-3.07,0.9
	c-1.23,0-2.42-0.43-3.36-1.23c-0.23,0.79-0.56,1.56-0.98,2.27c-0.03,0.04-0.07,0.08-0.11,0.11V87.05z M-98.18,75.89
	c-0.61,0-1.13,0.21-1.11,0.9c0.09,0.68,0.36,1.32,0.79,1.85l0,0l1.57,2.29c0.59,1.02,1.3,1.97,2.13,2.81
	c0.82,0.79,1.92,1.23,3.05,1.23c1.21,0.02,2.37-0.44,3.23-1.28c0.86-0.89,1.6-1.89,2.2-2.97l1.83-2.72
	c0.28-0.48,0.41-1.02,0.38-1.57c-0.11-0.43-0.9-0.22-1.18-0.28c-0.16,0.02-0.33,0.02-0.5,0l0.61-2.71
	c-4.56,0.72-7.96-2.67-12.78-0.68l0.35,3.2c-0.18,0.02-0.37,0.02-0.55,0L-98.18,75.89z M-54.64,116.81c0.66-0.83,1.88-0.97,2.71-0.3
	c0.83,0.66,0.97,1.88,0.3,2.71l-3.8,4.72c-0.62,0.79-1.74,0.96-2.57,0.41l-5.05-3.33c-0.89-0.59-1.13-1.78-0.55-2.67
	c0.59-0.89,1.78-1.13,2.67-0.55l1.07,0.62c-0.07-0.21-0.11-0.43-0.12-0.65c-0.05-0.56,0-0.2-0.07-0.72
	c-0.07-0.51-0.24-1.62-0.35-2.16c-0.09-0.5-0.01-1.01,0.21-1.46l0,0c0.23-0.44,0.59-0.79,1.03-1.02c0.21-0.11,0.44-0.19,0.67-0.22
	l0,0c0.49-0.08,0.99,0,1.44,0.22c0.45,0.23,0.82,0.59,1.05,1.04c0.11,0.21,0.18,0.44,0.22,0.67l0,0c0.12,0.66,0.31,1.83,0.37,2.36
	c0.06,0.53,0.05,0.3,0.1,0.96l0,0l0,0l0.62-0.73L-54.64,116.81z M-70,96.23c0.42,0.4,0.39,0.38,0.79,0.79l0,0
	c0.39,0.42,0.79,0.84,1.15,1.28c0.29,0.34,0.66,0.59,1.08,0.73l0,0c0.43,0.13,0.89,0.13,1.32,0l0,0c0.32-0.09,0.61-0.25,0.87-0.46
	c0.36-0.29,0.64-0.68,0.79-1.13c0.23-0.75,0.07-1.56-0.42-2.17l0,0c-0.42-0.5-0.85-0.99-1.3-1.47s-0.46-0.5-0.94-0.95l0,0
	c-2.24-2.17-5.51,1.23-3.29,3.38L-70,96.23z M-63.64,103.07c-0.07,0.5,0.01,1.01,0.25,1.46c0.27,0.5,0.53,1.02,0.79,1.53
	c0.26,0.52,0.46,1.02,0.68,1.57l0,0c0.07,0.16,0.15,0.32,0.25,0.46l0,0c0.1,0.14,0.22,0.27,0.35,0.38v0.04
	c0.49,0.41,1.12,0.61,1.75,0.55c0.87-0.08,1.62-0.63,1.96-1.43c0.24-0.58,0.24-1.23,0-1.81c-0.26-0.61-0.52-1.21-0.79-1.79
	s-0.55-1.15-0.86-1.72l0,0c-0.11-0.2-0.24-0.39-0.4-0.56c-0.36-0.36-0.83-0.6-1.33-0.68c-0.5-0.08-1.02,0.01-1.46,0.25
	c-0.2,0.11-0.39,0.25-0.56,0.41c-0.36,0.36-0.6,0.83-0.67,1.33H-63.64z M-125.02,118.29c0.25,0.44,0.35,0.95,0.3,1.46
	c-0.07,0.54-0.13,1.05-0.16,1.57c-0.03,0.28-0.05,0.57-0.05,0.85c0,3.09-4.72,3.05-4.72,0l0,0c0-0.66,0-0.51,0.06-1.09
	c0.06-0.58,0.09-1.15,0.17-1.82l0,0c0.02-0.23,0.08-0.46,0.18-0.68c0.2-0.46,0.55-0.85,0.99-1.09c0.43-0.25,0.93-0.35,1.42-0.3l0,0
	c0.24,0.03,0.47,0.09,0.68,0.19c0.45,0.2,0.83,0.54,1.08,0.96l0,0L-125.02,118.29z M-122.04,107.14c0.1,0.5,0.05,1.01-0.17,1.47
	c-0.24,0.52-0.48,1.05-0.69,1.57s-0.58,1.57-0.79,2.09v0.04c-0.06,0.16-0.13,0.32-0.23,0.46v0.04c-0.1,0.14-0.2,0.27-0.32,0.39l0,0
	c-0.46,0.44-1.08,0.68-1.72,0.65c-0.43-0.03-0.84-0.16-1.2-0.39c-0.92-0.58-1.31-1.72-0.94-2.74c0.22-0.63,0.63-1.75,0.87-2.36
	c0.24-0.61,0.49-1.18,0.79-1.76l0,0c0.1-0.21,0.23-0.4,0.38-0.57c0.69-0.78,1.81-1.02,2.76-0.58c0.68,0.31,1.17,0.93,1.32,1.67
	L-122.04,107.14z M-120.68,130.79h11.08c0.82-0.02,1.49,0.63,1.51,1.45c0,0.01,0,0.02,0,0.02v8.25c0,0.81-0.66,1.47-1.47,1.47
	h-11.12c-0.39,0-0.77-0.15-1.04-0.43c-0.27-0.28-0.43-0.65-0.42-1.04v-8.25C-122.14,131.45-121.49,130.8-120.68,130.79z
	 M-117.13,132.22h3.98l0.08,5.93l-2.11-1.31l-2.04,1.31l0.09-5.9L-117.13,132.22z M-113.7,144.39c2.69,0,4.86,2.18,4.86,4.86
	c0,2.69-2.18,4.86-4.86,4.86c-2.69,0-4.86-2.18-4.86-4.86C-118.57,146.57-116.39,144.39-113.7,144.39L-113.7,144.39z M-113.7,147.54
	c0.93,0,1.68,0.75,1.68,1.68c0,0.93-0.75,1.68-1.68,1.68c-0.93,0-1.68-0.75-1.68-1.68l0,0c0.03-0.91,0.78-1.63,1.68-1.62
	L-113.7,147.54z M-106.68,150.31c-0.33,0-0.61-0.27-0.61-0.61c0,0,0-0.01,0-0.01c0-0.33,0.26-0.6,0.59-0.61c0.01,0,0.01,0,0.02,0
	h1.53c0.3,0,0.58-0.13,0.79-0.35c0.22-0.23,0.34-0.53,0.35-0.84V130.1c0-0.29-0.12-0.58-0.32-0.79l0,0c-0.21-0.2-0.5-0.3-0.79-0.3
	h-20.04c-0.62,0-1.12,0.5-1.12,1.12v19.04h5.37c0.33,0,0.61,0.27,0.61,0.61c0,0.34-0.27,0.61-0.61,0.61h-5.98
	c-0.34,0-0.61-0.27-0.61-0.61v-0.73h-3.01c-0.3-6.7-9.92-7.63-10.9,0h-2.11l0.65-6.99l6.93-2.66l2.76-5.96h5.67v-3.33
	c0-1.3,1.06-2.36,2.36-2.36h20c0.6,0,1.18,0.23,1.61,0.65l0,0c0.44,0.44,0.69,1.03,0.69,1.65v17.85c0,0.63-0.25,1.23-0.69,1.68
	c-0.43,0.46-1.03,0.72-1.65,0.72L-106.68,150.31z M-131.86,135.2h3.67v4.18h-5.51l1.84-4.14L-131.86,135.2z M-135.93,147.59
	c0.93,0,1.68,0.75,1.68,1.68s-0.75,1.68-1.68,1.68s-1.68-0.75-1.68-1.68l0,0C-137.61,148.34-136.86,147.59-135.93,147.59z"/>
<g>
	<path class="st1" d="M33.63,82.14l-1.05-26.39l11.87-0.47c5.07,0.7,10.21,3.23,15.37,6.2l9.22-0.37c4.19,0.09,6.54,4.23,2.59,7.17
		c-3.14,2.5-7.41,2.54-11.8,2.31c-3.02-0.03-2.99,4.03,0.15,3.92c1.1,0.04,2.27-0.26,3.31-0.3c5.46-0.22,9.91-1.44,12.49-5.87
		l1.26-3.28l13.45-7.35c6.77-2.53,11.33,3.85,6.48,9.05c-9.65,7.62-18.99,14.58-29.22,19.8c-7.39,4.91-14.96,5.05-22.71,0.9
		L33.63,82.14L33.63,82.14z M94.5,17.14l0.13,25.64c0.01,1.34-0.84,2.49-2.03,2.98v0.01l-22.28,9.01c-0.19,0.03-0.38,0.06-0.58,0.06
		c-0.43,0-0.86-0.09-1.26-0.26l-21.93-8.39v-0.01c-1.18-0.5-2.02-1.68-2.02-3.07l0.12-25.31c-0.02-0.27,0-0.54,0.05-0.82
		c0.01-0.38,0.09-0.77,0.24-1.12c0.34-0.83,1.01-1.45,1.8-1.77l0,0l21.44-8.63c0.87-0.35,1.81-0.31,2.61,0.03l21.4,7.74
		c1.28,0.46,2.09,1.62,2.15,2.86C94.44,16.43,94.5,16.78,94.5,17.14L94.5,17.14L94.5,17.14z M65.52,49.44l0.16-22.33l-17.16-7.42
		l-0.36,22.43L65.52,49.44L65.52,49.44L65.52,49.44z M90.83,19.69l-19.18,7.42l0.15,22.31l19.14-7.15L90.83,19.69L90.83,19.69
		L90.83,19.69z M0.64,54.83l28.27-1.49l1.26,31.58L1.9,86.4L0.64,54.83L0.64,54.83z"/>
</g>
</svg>
