<svg id="Layer_1" data-name="Layer 1" xmlns="http://www.w3.org/2000/svg" viewBox="0 0 100 100"><defs><style>.cls-1{fill:#573a14;}</style></defs><path class="cls-1" d="M50,94.52H11.6c-3.67,0-6.08-2.29-6.13-5.94,0-2.59-.06-5.19,0-7.78A7.85,7.85,0,0,1,9.8,73.91c8.74-4.76,17.53-9.45,26.28-14.19.64-.35,1,0,1.48.21a25.73,25.73,0,0,0,22.89,1,2.41,2.41,0,0,0,.65-.3c1.62-1.37,3.07-.83,4.75.1,7.86,4.33,15.76,8.56,23.68,12.78a8.72,8.72,0,0,1,5,8.44c0,2.18,0,4.37,0,6.55a5.72,5.72,0,0,1-6,6Z"/><path class="cls-1" d="M49.37,57.87c-7.21-.24-13.19-3.82-17.59-10.15a28.69,28.69,0,0,1,1.91-34.59c9-10.25,23.84-10.2,32.73.12,9.45,11,8.84,28.3-1.37,38.27A21.64,21.64,0,0,1,49.37,57.87Z"/></svg>