<?xml version="1.0" encoding="utf-8"?>
<!-- Generator: Adobe Illustrator 23.0.5, SVG Export Plug-In . SVG Version: 6.00 Build 0)  -->
<svg version="1.1" id="Layer_1" xmlns="http://www.w3.org/2000/svg" xmlns:xlink="http://www.w3.org/1999/xlink" x="0px" y="0px"
	 viewBox="0 0 100 100" style="enable-background:new 0 0 100 100;" xml:space="preserve">
<style type="text/css">
	.st0{fill:#573B17;}
</style>
<g>
	<path class="st0" d="M206.09,14.67l-0.56,16.32l-6.15-4.19l-6.15,3.47l1.27-17.5l-8.71-1.2v36.68l32.08,3.65V15.98L206.09,14.67
		L206.09,14.67z M259.49-32.14c0.33-0.06,0.67,0,0.95,0.17c0.48,0.2,0.82,0.67,0.83,1.23l0.28,37.79l14.09,1.85l0,0
		c0.33-0.06,0.67,0,0.95,0.17c0.48,0.2,0.82,0.67,0.83,1.23l0.28,38.74c0.02,0.47-0.21,0.94-0.65,1.2l-15.82,9.43
		c-0.22,0.17-0.5,0.27-0.8,0.27c-0.07,0-0.15-0.01-0.21-0.02l-41.05-4.57c-0.1-0.01-0.2-0.02-0.29-0.05l-35.18-4.52
		c-0.71-0.03-1.27-0.62-1.27-1.33v-39.4l0,0c-0.02-0.53,0.28-1.04,0.8-1.26l18.52-8.15V-26.4l0,0c-0.02-0.53,0.28-1.04,0.8-1.26
		l20.59-9.06l0,0c0.21-0.09,0.46-0.13,0.71-0.1L259.49-32.14L259.49-32.14L259.49-32.14z M260.27,9.57l-12.38,7.39l12.29,1.57
		l11.77-7.42L260.27,9.57L260.27,9.57z M201.74,6.99V3.57L188.6,9.35l7.54,0.96L201.74,6.99L201.74,6.99z M245.61-19.63v34.85
		l11.82-7.06l1.44-1.22l-0.25-34.77L245.61-19.63L245.61-19.63L245.61-19.63z M242.22,16.08v-36.05l-16.8-2.24l-0.57,16.73
		l-6.15-4.19l-6.15,3.47l1.27-17.5l-9.42-1.2v36.68L242.22,16.08L242.22,16.08L242.22,16.08z M240.17-31.98l-12.91,7.33l16.8,2.14
		l11.77-7.42L240.17-31.98L240.17-31.98L240.17-31.98z M215.47-26.16l12.52-7.43l-4.13-0.54l-15.93,7L215.47-26.16L215.47-26.16z
		 M261.74,21.4v34.85l13.27-7.91l-0.26-35.14L261.74,21.4L261.74,21.4L261.74,21.4z M258.36,57.11V21.06l-16.8-2.24l-0.57,16.73
		l-6.15-4.19l-6.15,3.47l1.27-17.5l-8.71-0.85v36.68L258.36,57.11L258.36,57.11L258.36,57.11z"/>
</g>
<g>
	<path class="st0" d="M40.61,37.23c0-0.41,0-0.77,0-1.14c0-6.58-0.01-13.17,0-19.75c0.01-4.29,3.19-7.88,7.26-8.21
		c4.41-0.36,8.12,2.5,8.86,6.84c0.09,0.53,0.07,1.08,0.07,1.62c0,6.48,0,12.97,0,19.45c0,0.37,0,0.74,0,1.18c1.07,0,2.1,0,3.25,0
		c0-0.39,0-0.78,0-1.17c0-10.74,0-21.47,0-32.21c0-1.74,0.46-2.2,2.22-2.2c5,0,9.99,0,14.99,0c1.76,0,2.23,0.46,2.23,2.19
		c0,10.7,0,21.41,0,32.11c0,0.4,0,0.8,0,1.36c0.57,0,1.1,0,1.62,0c2.68,0.03,4.81,2.08,4.86,4.68c0.05,2.78-1.96,4.93-4.71,5.04
		c-0.2,0.01-0.4,0.03-0.68,0.05c-0.23,1.91-0.46,3.81-0.69,5.71c-0.59,4.99-1.18,9.98-1.76,14.97c-0.57,4.89-1.13,9.78-1.7,14.67
		c-0.48,4.09-0.93,8.17-1.44,12.25c-0.31,2.47-2.38,4.22-4.9,4.22c-13.17,0.01-26.34,0.01-39.5,0c-2.72,0-4.68-1.87-4.98-4.59
		c-0.69-6.1-1.44-12.19-2.15-18.28c-0.64-5.49-1.26-10.99-1.9-16.48c-0.48-4.12-0.98-8.23-1.48-12.41c-0.61-0.09-1.24-0.13-1.84-0.3
		c-2.14-0.58-3.55-2.41-3.56-4.61c-0.01-5.5-0.02-11.01,0-16.51c0.02-4.22,3.61-7.8,7.82-7.86c0.6-0.01,1.2,0,1.89,0
		c0-2.59,0-5.08,0-7.57c0-1.68,0.48-2.16,2.16-2.16c1.79,0,3.58,0,5.37,0c1.73,0,2.19,0.47,2.19,2.24c0,2.46,0,4.92,0,7.44
		c0.37,0.02,0.66,0.04,0.96,0.04c1.87,0.01,2.29,0.43,2.29,2.34c0,5.3,0,10.6,0,15.9c0,0.36,0,0.73,0,1.15
		C38.44,37.23,39.45,37.23,40.61,37.23z M23.61,47.15c0,0.22-0.02,0.38,0,0.54c0.34,2.97,0.7,5.94,1.04,8.92
		c0.56,4.91,1.09,9.83,1.67,14.73c0.64,5.48,1.38,10.94,1.94,16.43c0.12,1.18,0.54,1.33,1.54,1.33c13.71-0.03,27.41-0.02,41.12-0.02
		c0.24,0,0.52,0.08,0.7-0.02c0.27-0.15,0.66-0.4,0.69-0.65c0.32-2.43,0.57-4.88,0.85-7.31c0.36-3.11,0.72-6.21,1.09-9.32
		c0.37-3.17,0.76-6.34,1.13-9.51c0.38-3.24,0.77-6.48,1.15-9.72c0.21-1.79,0.39-3.58,0.59-5.4C59.2,47.15,41.42,47.15,23.61,47.15z
		 M34.09,27.65c-3.27,0-6.45,0-9.61,0c0,3.23,0,6.38,0,9.54c3.24,0,6.41,0,9.61,0C34.09,33.99,34.09,30.86,34.09,27.65z
		 M53.52,17.79c0.26-2.38-0.18-4.41-2.29-5.71c-1.74-1.07-3.56-1.02-5.24,0.14c-1.96,1.34-2.36,3.31-2.07,5.57
		C47.11,17.79,50.27,17.79,53.52,17.79z M21.1,21.52c-1.91,0.55-3.17,2.34-3.18,4.56c-0.02,3.61-0.01,7.21,0,10.82
		c0,0.19,0.05,0.38,0.07,0.5c1.08-0.06,2.11-0.11,3.12-0.17C21.1,31.94,21.1,26.74,21.1,21.52z M24.45,24.25c3.26,0,6.44,0,9.6,0
		c0-1.09,0-2.12,0-3.12c-3.24,0-6.39,0-9.6,0C24.45,22.18,24.45,23.18,24.45,24.25z M53.49,21.2c-3.25,0-6.39,0-9.54,0
		c0,1.04,0,2.01,0,3.01c3.2,0,6.35,0,9.54,0C53.49,23.19,53.49,22.22,53.49,21.2z M43.96,27.67c0,3.22,0,6.34,0,9.48
		c1.04,0,2.03,0,3.01,0c0-3.2,0-6.31,0-9.48C45.96,27.67,45,27.67,43.96,27.67z M53.45,37.19c0-3.22,0-6.36,0-9.51
		c-1.03,0-1.99,0-2.98,0c0,3.2,0,6.34,0,9.51C51.47,37.19,52.4,37.19,53.45,37.19z M30.82,11.42c-1.09,0-2.08,0-3.1,0
		c0,2.15,0,4.25,0,6.34c1.07,0,2.06,0,3.1,0C30.82,15.64,30.82,13.57,30.82,11.42z"/>
	<path class="st0" d="M37.47,50.17c1.05,0,2.09-0.02,3.14,0c1.07,0.02,1.69,0.63,1.7,1.7c0.02,2.16,0.02,4.32,0,6.47
		c-0.01,1.07-0.63,1.69-1.7,1.7c-2.16,0.02-4.32,0.02-6.47,0c-1.07-0.01-1.69-0.63-1.7-1.7c-0.02-2.16-0.02-4.32,0-6.47
		c0.01-1.07,0.62-1.68,1.7-1.7C35.24,50.16,36.35,50.17,37.47,50.17z M35.85,56.62c1.07,0,2.03,0,3.01,0c0-1.05,0-2.03,0-3.01
		c-1.04,0-2,0-3.01,0C35.85,54.63,35.85,55.59,35.85,56.62z"/>
	<path class="st0" d="M55.28,55.08c0,1.05,0.01,2.09,0,3.14c-0.01,1.22-0.59,1.82-1.78,1.83c-2.12,0.02-4.25,0.02-6.37,0
		c-1.12-0.01-1.72-0.63-1.73-1.77c-0.01-2.12-0.02-4.25,0-6.37c0.01-1.13,0.62-1.72,1.77-1.73c2.12-0.01,4.25-0.02,6.37,0
		c1.12,0.01,1.72,0.63,1.73,1.77C55.29,52.99,55.28,54.04,55.28,55.08z M48.8,56.59c1.09,0,2.08,0,3.03,0c0-1.05,0-2.01,0-2.96
		c-1.06,0-2.04,0-3.03,0C48.8,54.66,48.8,55.59,48.8,56.59z"/>
	<path class="st0" d="M68.24,55.22c0,1.05,0.02,2.09,0,3.14c-0.02,1.07-0.63,1.69-1.7,1.7c-2.16,0.02-4.32,0.02-6.47,0
		c-1.07-0.01-1.69-0.63-1.7-1.7c-0.02-2.16-0.02-4.32,0-6.47c0.01-1.07,0.62-1.69,1.7-1.7c2.16-0.02,4.32-0.02,6.47,0
		c1.07,0.01,1.68,0.63,1.7,1.7C68.26,52.99,68.24,54.1,68.24,55.22z M61.8,53.6c0,1.08,0,2.04,0,3c1.05,0,2.04,0,3,0
		c0-1.05,0-2.01,0-3C63.77,53.6,62.81,53.6,61.8,53.6z"/>
	<path class="st0" d="M42.31,68.15c0,1.01,0.01,2.02,0,3.03c-0.01,1.22-0.59,1.83-1.77,1.84c-2.12,0.02-4.25,0.02-6.37,0
		c-1.12-0.01-1.72-0.63-1.73-1.77c-0.01-2.12-0.02-4.25,0-6.37c0.01-1.13,0.62-1.72,1.77-1.73c2.12-0.01,4.25-0.02,6.37,0
		c1.12,0.01,1.72,0.63,1.74,1.77C42.32,65.99,42.31,67.07,42.31,68.15z M35.89,66.55c0,1.09,0,2.08,0,3.03c1.05,0,2.01,0,2.96,0
		c0-1.05,0-2.04,0-3.03C37.82,66.55,36.89,66.55,35.89,66.55z"/>
	<path class="st0" d="M55.27,68.08c0,1.08,0.02,2.16,0,3.24c-0.02,1.07-0.63,1.69-1.7,1.7c-2.16,0.02-4.32,0.02-6.47,0
		c-1.07-0.01-1.69-0.63-1.7-1.7c-0.02-2.16-0.02-4.32,0-6.47c0.01-1.07,0.62-1.69,1.7-1.7c2.16-0.02,4.32-0.02,6.47,0
		c1.07,0.01,1.68,0.63,1.7,1.7C55.29,65.92,55.27,67,55.27,68.08z M48.83,66.56c0,1.08,0,2.04,0,3c1.05,0,2.04,0,3,0
		c0-1.05,0-2.01,0-3C50.81,66.56,49.85,66.56,48.83,66.56z"/>
	<path class="st0" d="M68.24,68.08c0,1.08,0.02,2.16,0,3.24c-0.02,1.07-0.63,1.69-1.7,1.7c-2.16,0.02-4.32,0.02-6.47,0
		c-1.07-0.01-1.69-0.63-1.7-1.7c-0.02-2.16-0.02-4.32,0-6.47c0.01-1.07,0.62-1.69,1.7-1.7c2.16-0.02,4.32-0.02,6.47,0
		c1.07,0.01,1.68,0.63,1.7,1.7C68.26,65.92,68.24,67,68.24,68.08z M61.8,66.56c0,1.08,0,2.04,0,3.01c1.05,0,2.03,0,3.01,0
		c0-1.04,0-2,0-3.01C63.78,66.56,62.82,66.56,61.8,66.56z"/>
	<path class="st0" d="M42.31,81.05c0,1.08,0.02,2.16,0,3.24c-0.02,1.07-0.63,1.69-1.71,1.7c-2.16,0.02-4.32,0.02-6.47,0
		c-1.07-0.01-1.69-0.63-1.69-1.71c-0.02-2.16-0.02-4.32,0-6.47c0.01-1.07,0.63-1.68,1.7-1.69c2.16-0.02,4.32-0.02,6.47,0
		c1.07,0.01,1.68,0.63,1.7,1.7C42.32,78.89,42.31,79.97,42.31,81.05z M35.83,82.53c1.09,0,2.08,0,3.03,0c0-1.05,0-2.01,0-2.96
		c-1.05,0-2.04,0-3.03,0C35.83,80.59,35.83,81.53,35.83,82.53z"/>
	<path class="st0" d="M45.39,80.95c0-1.05-0.02-2.09,0-3.14c0.02-1.08,0.62-1.69,1.7-1.7c2.16-0.02,4.32-0.02,6.47,0
		c1.07,0.01,1.69,0.63,1.7,1.7c0.02,2.16,0.02,4.32,0,6.47c-0.01,1.07-0.63,1.69-1.7,1.7c-2.16,0.02-4.32,0.02-6.47,0
		c-1.07-0.01-1.68-0.63-1.7-1.7C45.37,83.17,45.39,82.06,45.39,80.95z M48.82,82.55c1.08,0,2.05,0,2.99,0c0-1.06,0-2.04,0-2.99
		c-1.05,0-2.01,0-2.99,0C48.82,80.58,48.82,81.54,48.82,82.55z"/>
	<path class="st0" d="M63.2,85.99c-1.05,0-2.09,0.02-3.14,0c-1.07-0.02-1.69-0.63-1.7-1.7c-0.02-2.16-0.02-4.32,0-6.47
		c0.01-1.07,0.62-1.69,1.7-1.7c2.16-0.02,4.32-0.02,6.47,0c1.07,0.01,1.69,0.63,1.7,1.7c0.02,2.16,0.02,4.32,0,6.47
		c-0.01,1.07-0.63,1.68-1.7,1.7C65.42,86.01,64.31,85.99,63.2,85.99z M64.84,79.56c-1.08,0-2.07,0-3.04,0c0,1.04,0,2,0,2.97
		c1.05,0,2.03,0,3.04,0C64.84,81.52,64.84,80.58,64.84,79.56z"/>
</g>
</svg>
