<svg id="Layer_1" data-name="Layer 1" xmlns="http://www.w3.org/2000/svg" viewBox="0 0 100 100"><defs><style>.cls-1{fill:#573a14;}.cls-2,.cls-3,.cls-4{fill:#fff;}.cls-3,.cls-4{stroke:#573a14;stroke-miterlimit:10;}.cls-3{stroke-width:1.5px;}.cls-4{stroke-width:1.75px;}</style></defs><rect class="cls-1" x="10.19" y="22.99" width="61.54" height="49.27"/><path class="cls-2" d="M33.44,71.17l-5.35,0v0Z"/><path class="cls-3" d="M29.68,11.34c0,1.35,0,2.7,0,4,0,1.95-1.18,3.35-2.72,3.3s-2.61-1.39-2.61-3.3q0-4.1,0-8.18C24.35,5.28,25.44,4,27,4s2.62,1.31,2.66,3.14C29.71,8.52,29.68,9.93,29.68,11.34Z"/><path class="cls-3" d="M57.47,11.34c0,1.35,0,2.7,0,4,0,1.95-1.19,3.35-2.73,3.3s-2.6-1.39-2.61-3.3c0-2.73,0-5.46,0-8.18,0-1.92,1.1-3.23,2.66-3.24s2.63,1.31,2.67,3.14C57.5,8.52,57.47,9.93,57.47,11.34Z"/><path class="cls-2" d="M49.55,32.71V40H42.27V32.71Z"/><path class="cls-2" d="M62.53,32.71V40H55.24V32.71Z"/><path class="cls-2" d="M37,40H29.81V32.74H37Z"/><path class="cls-2" d="M24.53,40H17.3V32.74h7.23Z"/><path class="cls-2" d="M17.33,44.59h7.22v7.27H17.33Z"/><path class="cls-2" d="M37,51.9H29.8V44.63H37Z"/><path class="cls-2" d="M17.33,57h7.22v7.27H17.33Z"/><path class="cls-2" d="M37,64.29H29.8V57H37Z"/><path class="cls-4" d="M49.85,9.74v.39c0,2.11,0,4.23.08,6.34,0,.22,0,.44,0,.67a4.73,4.73,0,0,0,1.35,3.22A4.85,4.85,0,0,0,55,21.89a4.77,4.77,0,0,0,3.42-1.53,5.23,5.23,0,0,0,1.41-3.57c0-2.33,0-4.65,0-7V9.37c0-.43,0-.85,0-1.28h7.55a6.22,6.22,0,0,1,6.23,6.22v6c0,1.64,0,3.26,0,4.89v18.5h0v5.31H70.21V28.37h0V24.46H11.73c0,.47-.08,1-.08,1.46V66.71c0,2.9,1.52,4.45,4.45,4.46,4,0,8,0,12,0l5.35,0H48.78v3.39H14.26c-3.9,0-5.86-2-5.87-5.81q0-26.91,0-53.82a5.75,5.75,0,0,1,0-.84,6.21,6.21,0,0,1,6.21-6h7.42V9.48c0,2.33,0,4.65,0,7a5.71,5.71,0,0,0,1.4,3.9,4.69,4.69,0,0,0,3.43,1.53,4.62,4.62,0,0,0,3.61-1.53A5.8,5.8,0,0,0,32,16.57v-.1c0-2.21,0-4.42,0-6.64,0-.57,0-1.16,0-1.74H49.86v.28c0,.23,0,.45,0,.69v.68Z"/><path class="cls-2" d="M37.06,71.17H33.44l3.05,0A5.15,5.15,0,0,1,37.06,71.17Z"/><path class="cls-1" d="M58.94,45.09,68.4,47s5.44,4.39,5.44,5.09,3.68,4.73,3.68,4.73l1,5.79.36,7-4.56,7.72L64.72,83l-14.2-1.58-8.42-10-2.28-11L43,52.27l5.79-4.73Z"/><path class="cls-2" d="M56.51,78a7.17,7.17,0,0,1-.89-.61Q50,72.27,44.46,67.13a1,1,0,0,1-.05-1.7c1-1.06,2-2.12,3-3.23.67-.78,1.21-.8,1.95-.08,1.79,1.71,3.63,3.36,5.45,5,.94.87,1.13.86,2-.15L68,53.26c1-1.28,1.11-1.27,2.4-.21,1,.84,2,1.69,3,2.49a1.07,1.07,0,0,1,.22,1.79Q65.5,67.28,57.35,77.24A9.32,9.32,0,0,1,56.51,78Z"/><path class="cls-4" d="M78.11,74.18c.55,1,2.55,1.58.59,3.14L91.61,87.51A27.23,27.23,0,0,1,83.05,96L73,83.25l-1.49.9L69.7,82.48a21.18,21.18,0,0,1-17.26,1.36,20.5,20.5,0,0,1-10.89-8.78A21.13,21.13,0,0,1,71.1,46.27C78.3,50.91,84.17,62,78.11,74.18ZM59.62,46.52A17.43,17.43,0,1,0,76.94,64.16,17.46,17.46,0,0,0,59.62,46.52Z"/><rect class="cls-1" x="31.39" y="69.3" width="6.51" height="2.43"/></svg>