<svg id="Layer_1" data-name="Layer 1" xmlns="http://www.w3.org/2000/svg" viewBox="0 0 100 100"><defs><style>.cls-1,.cls-3{fill:#fff;}.cls-1{stroke:#573a14;stroke-miterlimit:10;stroke-width:3px;}.cls-2{fill:#573a14;}</style></defs><path class="cls-1" d="M89,87.06V84.44c0-14.39,0-28.77,0-43.16,0-2-.52-2.64-2.56-2.62-10.25.09-20.51,0-30.77,0H53.08V36.41q0-12.49,0-25c0-2.89,0-2.89-2.78-2.89-12,0-24,0-35.94,0-2,0-2.7.52-2.7,2.65q.11,36.55,0,73.11v2.82H3.6v4.46H96.4V87.06ZM47.29,48.84c0,10.8,0,21.61,0,32.42,0,1.86-.48,2.52-2.43,2.5q-12.6-.14-25.2,0c-1.87,0-2.3-.65-2.3-2.4q.08-32.43,0-64.85c0-1.79.47-2.41,2.31-2.39q12.71.12,25.4,0c1.74,0,2.23.6,2.22,2.28C47.26,27.22,47.29,38,47.29,48.84ZM83.16,63.92c0,5.85,0,11.69,0,17.54,0,1.69-.51,2.3-2.24,2.29q-12.8-.09-25.59,0c-1.71,0-2.31-.6-2.31-2.28q.08-17.44,0-34.88c0-1.7.58-2.28,2.28-2.27q12.8.09,25.59,0c1.69,0,2.3.53,2.28,2.26C83.11,52.36,83.16,58.14,83.16,63.92Z"/><path class="cls-2" d="M47.29,48.84c0,10.8,0,21.61,0,32.42,0,1.86-.48,2.52-2.43,2.5q-12.6-.14-25.2,0c-1.87,0-2.3-.65-2.3-2.4q.08-32.43,0-64.85c0-1.79.47-2.41,2.31-2.39q12.71.12,25.4,0c1.74,0,2.23.6,2.22,2.28C47.26,27.22,47.29,38,47.29,48.84ZM29.72,30.42V20.29H21.33V30.42ZM43.39,20.24H34.84v10.1h8.55ZM29.71,46.56V36.37H21.34V46.56Zm13.62-.05V36.34H34.85V46.51ZM21.27,62.58h8.5V52.43h-8.5ZM43.41,52.46H34.9V62.54h8.51ZM29.79,68.56H21.33V78.64h8.46Zm5.12-.07V78.62h8.48V68.49Z"/><path class="cls-2" d="M83.16,63.92c0,5.85,0,11.69,0,17.54,0,1.69-.51,2.3-2.24,2.29q-12.8-.09-25.59,0c-1.71,0-2.31-.59-2.31-2.28q.08-17.44,0-34.88c0-1.7.58-2.28,2.28-2.27q12.8.09,25.59,0c1.69,0,2.3.53,2.28,2.26C83.11,52.36,83.16,58.14,83.16,63.92Zm-13-13.62c0,3.38,0,6.53,0,9.66,0,.34.78.91,1.21.93,2.06.1,4.12,0,6.18.06,1.06,0,1.45-.4,1.43-1.46,0-2.61,0-5.22-.07-7.82a1.82,1.82,0,0,0-1.24-1.31C75.32,50.23,72.92,50.3,70.15,50.3Zm8.73,28.4V68.49H70.26V78.7ZM56.76,60.94c2.64,0,5,.05,7.42,0,.42,0,1.15-.62,1.16-1,.09-3.14.06-6.27.06-9.49H56.76Zm8.52,17.78V68.52H56.81v10.2Z"/><rect class="cls-2" x="20.28" y="18.68" width="24.38" height="62.87"/><rect class="cls-3" x="21.33" y="20.29" width="8.39" height="10.13" rx="1"/><rect class="cls-3" x="34.84" y="20.24" width="8.55" height="10.11" rx="1"/><rect class="cls-3" x="21.34" y="36.37" width="8.37" height="10.19" rx="1"/><rect class="cls-3" x="34.85" y="36.34" width="8.48" height="10.17" rx="1"/><rect class="cls-3" x="21.33" y="51.82" width="8.39" height="10.13" rx="1"/><rect class="cls-3" x="34.84" y="51.77" width="8.55" height="10.11" rx="1"/><rect class="cls-3" x="21.34" y="67.9" width="8.37" height="10.19" rx="1"/><rect class="cls-3" x="34.85" y="67.87" width="8.48" height="10.17" rx="1"/><rect class="cls-2" x="55.28" y="46.8" width="25.74" height="34.71"/><rect class="cls-2" x="3.17" y="86.66" width="93.57" height="4.85" rx="1.3"/><rect class="cls-3" x="56.95" y="50.82" width="8.39" height="10.13" rx="1"/><rect class="cls-3" x="70.46" y="50.77" width="8.55" height="10.11" rx="1"/><rect class="cls-3" x="56.95" y="66.9" width="8.37" height="10.19" rx="1"/><rect class="cls-3" x="70.47" y="66.87" width="8.48" height="10.17" rx="1"/></svg>