<svg id="Layer_1" data-name="Layer 1" xmlns="http://www.w3.org/2000/svg" viewBox="0 0 100 100"><defs><style>.cls-1{fill:#7abb43;}</style></defs><title>Untitled-2</title><path class="cls-1" d="M15.67,15.35C22.75,7.86,33.45,2.51,46.23,1.47a7.15,7.15,0,0,1,3.39.41,3.43,3.43,0,0,1,1.94,4.05A3.83,3.83,0,0,1,47.8,9a43.86,43.86,0,0,0-14.48,3.48C8.08,23.42.85,56.88,19.36,77.26A41,41,0,0,0,90.85,49.75c0-.65,0-1.3,0-1.94A3.89,3.89,0,0,1,94.55,44,3.67,3.67,0,0,1,98.4,47.6a66.33,66.33,0,0,1-.72,11c-6.2,34.19-45.32,51-74.45,32C-1.76,74.38-6.17,39.3,15.67,15.35Z"/><path class="cls-1" d="M52.11,43,54,40.89,82.41,9.74a16.25,16.25,0,0,1,1.35-1.4,3.19,3.19,0,0,1,4.59,4.41c-.39.51-.85,1-1.28,1.46Q73,29.65,58.93,45.09c-.54.59-1,1.24-1.84,2.24,1.18,0,1.87,0,2.55,0,6.54-.3,13.07-.63,19.61-.89,2.82-.12,4.57,1.87,3.76,4.19a3.23,3.23,0,0,1-3.09,2.27q-15.24.73-30.47,1.4A3.12,3.12,0,0,1,45.89,51q-.75-15.13-1.39-30.27c-.09-2.26,1.13-3.63,3.07-3.73S50.83,18.2,51,20.63c.32,6.47.6,12.94.91,19.41C51.9,40.8,52,41.55,52.11,43Z"/></svg>