<svg id="Layer_1" data-name="Layer 1" xmlns="http://www.w3.org/2000/svg" viewBox="0 0 100 100"><defs><style>.cls-1{fill:#ec5c53;}</style></defs><title>Untitled-2</title><path class="cls-1" d="M14.63,20C21.16,13.1,31,8.17,42.78,7.22a6.44,6.44,0,0,1,3.13.37,3.17,3.17,0,0,1,1.79,3.73,3.55,3.55,0,0,1-3.47,2.83,40.47,40.47,0,0,0-13.34,3.21C7.64,27.43,1,58.26,18,77A37.75,37.75,0,0,0,83.89,51.69c0-.6,0-1.2,0-1.79a3.57,3.57,0,0,1,3.41-3.49,3.38,3.38,0,0,1,3.54,3.3,60.26,60.26,0,0,1-.66,10.15c-5.71,31.5-41.74,47-68.58,29.5C-1.43,74.38-5.49,42.06,14.63,20Z"/><path class="cls-1" d="M85.27,13.78l-1.73,1.9Q70.44,30,57.36,44.38a15.11,15.11,0,0,1-1.24,1.29,2.94,2.94,0,0,1-4.23-4.06c.36-.48.78-.91,1.18-1.35Q66,26,79,11.82c.51-.56,1-1.15,1.7-2.07-1.09,0-1.72,0-2.35,0-6,.27-12,.57-18.06.82-2.61.11-4.22-1.73-3.47-3.86a3,3,0,0,1,2.85-2.09q14-.69,28.07-1.3a2.87,2.87,0,0,1,3.27,3q.7,14,1.28,27.9c.09,2.08-1,3.34-2.82,3.43s-3-1.1-3.12-3.34c-.3-6-.56-11.92-.84-17.88C85.47,15.77,85.38,15.07,85.27,13.78Z"/></svg>