<svg id="Layer_1" data-name="Layer 1" xmlns="http://www.w3.org/2000/svg" viewBox="0 0 100 100"><defs><style>.cls-1,.cls-2{fill:#573a14;}.cls-1{stroke:#fff;stroke-miterlimit:10;stroke-width:3px;}.cls-3{fill:#fff;}</style></defs><path class="cls-1" d="M15.29,18.92H13.18a2,2,0,0,1-2-2V5.37a2,2,0,0,1,2-2H86.84a2,2,0,0,1,2,2V16.91a2,2,0,0,1-2,2H84.69V84h4a2,2,0,0,1,2,2v8.66a2,2,0,0,1-2,2H11.32a2,2,0,0,1-2-2V86a2,2,0,0,1,2-2h4Zm2.21,0V84H41.18V70.61H58.89V83.94H82.52V19ZM43.3,83.66h5.6V72.72H43.3Zm13.39,0V72.73H51.13V83.67ZM42.94,7a4.29,4.29,0,1,0,4.38,4.27A4.26,4.26,0,0,0,42.94,7Zm13.36.16v8.24h6.2V13.78H58.08V12.07h3.85V10.42H58.1V8.73h4.36V7.18Zm-24.63,0H29.91V15.4h1.82V12.16h3.35v3.26h1.76V7.2H35.05v3.17H31.67Zm20.67,8.22V8.83H54.8V7.22H48V8.86h2.51v6.57Zm11.9-8.24v8.23H70.1V13.79H66V7.19Z"/><path class="cls-2" d="M19,19H81a1.5,1.5,0,0,1,1.5,1.5v62a1.5,1.5,0,0,1-1.5,1.5H58.89V70.61H41.18V84H19a1.5,1.5,0,0,1-1.5-1.5v-62A1.5,1.5,0,0,1,19,19Zm43.79,4.19H52.28V35.58H62.79ZM32.72,35.59V23.15H22.26V35.59Zm15,0V23.16H37.23V35.59Zm30.05,0V23.16H67.26V35.59ZM32.74,67V54.59H22.24V67Zm15,0V54.59H37.23V67ZM62.78,54.59H52.28V67h10.5Zm4.49,0V67h10.5V54.58ZM32.73,51.29V38.92H22.25V51.29Zm15-12.36H37.24V51.29H47.73Zm15,12.36V38.92H52.29V51.29Zm15-12.38H67.26V51.28H77.78Z"/><path class="cls-2" d="M43.3,83.66V72.72h5.6V83.66Z"/><path class="cls-2" d="M56.69,83.67H51.13V72.73h5.56Z"/><path d="M45.39,11.31a2.5,2.5,0,0,1-2.47,2.61,2.54,2.54,0,0,1-2.51-2.66,2.49,2.49,0,1,1,5,.05Z"/><rect class="cls-2" x="23.17" y="5.11" width="53.38" height="12.36"/><rect class="cls-3" x="41.17" y="84.06" width="19.67" height="1.53"/><rect class="cls-2" x="11.33" y="3.94" width="77.36" height="13.53" rx="1.47"/><polygon class="cls-3" points="49.87 6.09 51.4 9.21 54.84 9.71 52.35 12.13 52.94 15.56 49.87 13.94 46.79 15.56 47.38 12.13 44.89 9.71 48.33 9.21 49.87 6.09"/><polygon class="cls-3" points="60.71 7.79 61.97 10.34 64.79 10.75 62.75 12.74 63.23 15.56 60.71 14.23 58.18 15.56 58.66 12.74 56.62 10.75 59.44 10.34 60.71 7.79"/><polygon class="cls-3" points="69.45 8.68 70.56 10.95 73.06 11.31 71.25 13.07 71.68 15.56 69.45 14.38 67.21 15.56 67.64 13.07 65.83 11.31 68.33 10.95 69.45 8.68"/><polygon class="cls-3" points="30.18 8.68 31.29 10.95 33.79 11.31 31.98 13.07 32.41 15.56 30.18 14.38 27.94 15.56 28.37 13.07 26.56 11.31 29.06 10.95 30.18 8.68"/><polygon class="cls-3" points="39.16 7.79 40.42 10.34 43.24 10.75 41.2 12.74 41.68 15.56 39.16 14.23 36.63 15.56 37.11 12.74 35.07 10.75 37.89 10.34 39.16 7.79"/><rect class="cls-3" x="10.66" y="85.04" width="79.23" height="0.77"/><rect class="cls-2" x="10.32" y="85.26" width="79.4" height="10.47" rx="1.47"/><rect class="cls-2" x="20.79" y="22.06" width="58.21" height="46.21"/><rect class="cls-3" x="25.62" y="23.8" width="8.39" height="10.13" rx="1"/><rect class="cls-3" x="39.12" y="23.75" width="8.55" height="10.11" rx="1"/><rect class="cls-3" x="25.62" y="39.88" width="8.37" height="10.19" rx="1"/><rect class="cls-3" x="39.14" y="39.85" width="8.48" height="10.17" rx="1"/><rect class="cls-3" x="25.62" y="55.33" width="8.39" height="10.13" rx="1"/><rect class="cls-3" x="39.12" y="55.28" width="8.55" height="10.11" rx="1"/><rect class="cls-3" x="53.45" y="23.8" width="8.39" height="10.13" rx="1"/><rect class="cls-3" x="66.95" y="23.75" width="8.55" height="10.11" rx="1"/><rect class="cls-3" x="53.45" y="39.88" width="8.37" height="10.19" rx="1"/><rect class="cls-3" x="66.97" y="39.85" width="8.48" height="10.17" rx="1"/><rect class="cls-3" x="53.45" y="55.33" width="8.39" height="10.13" rx="1"/><rect class="cls-3" x="66.95" y="55.28" width="8.55" height="10.11" rx="1"/></svg>