<svg id="Layer_1" data-name="Layer 1" xmlns="http://www.w3.org/2000/svg" viewBox="0 0 100 100"><defs><style>.cls-1,.cls-3,.cls-4{fill:#fff;}.cls-1,.cls-4{stroke:#573a14;stroke-miterlimit:10;}.cls-1{stroke-width:2px;}.cls-2{fill:#573a14;}.cls-4{stroke-width:0.75px;}</style></defs><path class="cls-1" d="M26.12,97.05V83.27a2.64,2.64,0,0,0-2.65-2.65H12.25a6.33,6.33,0,0,1-6.33-6.33v-41A6.34,6.34,0,0,1,12.25,27H77a6.33,6.33,0,0,1,6.33,6.33V74.26A6.33,6.33,0,0,1,77,80.59H46.26a2.57,2.57,0,0,0-1.71.65ZM12.25,30.67A2.64,2.64,0,0,0,9.6,33.33V74.26a2.64,2.64,0,0,0,2.65,2.65H23.47a6.34,6.34,0,0,1,6.33,6.33V89L42.13,78.45A6.36,6.36,0,0,1,46.26,77H77a2.65,2.65,0,0,0,2.66-2.66v-41A2.65,2.65,0,0,0,77,30.67Z"/><polygon class="cls-2" points="13.57 30.64 77.17 30.64 79.06 31.39 79.5 33.09 79.61 35.42 79.61 67.63 79.61 75.25 78.47 76.67 76.81 77.14 70.65 76.94 44.88 76.98 42.15 78.29 29.76 89.18 29.8 82.47 28.89 80.02 27.7 78.33 23.84 76.75 13.93 76.91 10.97 76.63 9.51 75.05 9.51 54.25 9.51 33.01 10.26 31.51 11.52 30.84 13.57 30.64"/><path class="cls-3" d="M57.59,53.18A6.4,6.4,0,1,1,64,59.7,6.37,6.37,0,0,1,57.59,53.18Zm10.1.09A3.7,3.7,0,1,0,64,57,3.77,3.77,0,0,0,67.69,53.27Z"/><path class="cls-3" d="M32.58,53.31a6.42,6.42,0,1,1-6.4-6.48A6.41,6.41,0,0,1,32.58,53.31Zm-2.7,0a3.78,3.78,0,0,0-3.7-3.75,3.73,3.73,0,1,0,3.7,3.75Z"/><path class="cls-3" d="M51.51,53.28a6.43,6.43,0,1,1-6.41-6.45A6.46,6.46,0,0,1,51.51,53.28Zm-2.71-.05A3.72,3.72,0,1,0,45.08,57,3.81,3.81,0,0,0,48.8,53.23Z"/><path class="cls-3" d="M67.69,53.27A3.7,3.7,0,1,1,64,49.53,3.77,3.77,0,0,1,67.69,53.27Z"/><path class="cls-3" d="M29.88,53.28A3.82,3.82,0,0,1,26.19,57a3.73,3.73,0,1,1,0-7.46A3.78,3.78,0,0,1,29.88,53.28Z"/><path class="cls-3" d="M48.8,53.23A3.72,3.72,0,1,1,45,49.53,3.83,3.83,0,0,1,48.8,53.23Z"/><path class="cls-4" d="M47.64,22.18a5.65,5.65,0,0,1,.23-.73,2.33,2.33,0,0,1,2.59-1.31l8.81,1.54a3.46,3.46,0,0,1,2.41,1.73l.13.22.35-.21,1.41-1a.86.86,0,0,0,.19-.19c1.21-2,2.42-4.08,3.61-6.14a35.12,35.12,0,0,0,2.06-4A2.7,2.7,0,0,0,69.66,11c0-1.18-.06-2.36-.08-3.54A5.06,5.06,0,0,1,70,5.2,3.83,3.83,0,0,1,72.74,3l.18,0h.81l.19,0a4.33,4.33,0,0,1,1.51.57,5.39,5.39,0,0,1,2,2.51,15.85,15.85,0,0,1,1.06,4.18,8.05,8.05,0,0,1,.06,2.5c-.31,1.93-.75,3.84-1.25,5.73-.1.38-.21.75-.32,1.15h9c1.51,0,3,0,4.52,0a4.78,4.78,0,0,1,1.13.13A3,3,0,0,1,94,22.17l.06.22v.86a1.42,1.42,0,0,0,0,.16,3.26,3.26,0,0,1-.85,1.78c-.33.34-.73.62-1.11.94a.45.45,0,0,0,.07.1,3.63,3.63,0,0,1-1,5.41c-.13.08-.25.18-.37.27a3.67,3.67,0,0,1-1.7,5.82l.14.21a3.5,3.5,0,0,1,.22,3.73,3.41,3.41,0,0,1-3.17,1.92c-2.06,0-4.12,0-6.17,0H71.4c-1.39,0-2.78,0-4.17,0a3.26,3.26,0,0,1-2-.59l-.76-.52A2.17,2.17,0,0,0,62.81,42a4.85,4.85,0,0,1-1,0,.29.29,0,0,0-.26.13,3.12,3.12,0,0,1-1.38,1.19,6.3,6.3,0,0,1-1.36.34c-2.36.37-4.71.72-7.06,1.07-.43.06-.85.14-1.27.21h-.73l-.2,0a2.34,2.34,0,0,1-1.69-1.39c-.09-.21-.14-.44-.21-.66ZM62.15,40.6l.06,0,.17,0a3.81,3.81,0,0,1,3.13.79,6.5,6.5,0,0,0,.9.57,1.48,1.48,0,0,0,.61.15c.76,0,1.52,0,2.28,0h17A2.14,2.14,0,0,0,88.41,40a2.19,2.19,0,0,0-2.23-2.16c-1.47,0-2.94,0-4.42,0a1,1,0,0,1-.55-.24.66.66,0,0,1-.13-.79.69.69,0,0,1,.69-.42h6.44a2.11,2.11,0,0,0,1.93-1.7A2.28,2.28,0,0,0,87.83,32c-1.86,0-3.73,0-5.6,0-.52,0-.85-.28-.85-.72s.31-.73.84-.73h7.62a1.27,1.27,0,0,0,.54-.14,2.12,2.12,0,0,0,.84-.84c.72-1.15-.11-3.29-1.73-3H82.2a.8.8,0,0,1-.64-.25.72.72,0,0,1-.11-.8.71.71,0,0,1,.7-.41c2.73,0,5.46,0,8.19,0a2.27,2.27,0,0,0,2.23-1.8,1.64,1.64,0,0,0-1.35-2.11,3.82,3.82,0,0,0-.75-.08H76A.73.73,0,0,1,75.3,20a3.89,3.89,0,0,0,.22-.6c.44-1.73.89-3.47,1.3-5.22a8.78,8.78,0,0,0,.27-3.61A17.79,17.79,0,0,0,76.24,7a4.7,4.7,0,0,0-1.33-2,2.27,2.27,0,0,0-3.66,1,3.94,3.94,0,0,0-.2,1.28c0,1.16,0,2.33.07,3.49A5,5,0,0,1,70.66,13,48.53,48.53,0,0,1,68,18C67,19.69,66,21.31,65.06,23a1.88,1.88,0,0,1-.57.65L62.33,25a.35.35,0,0,0-.19.34q0,7.5,0,15ZM49.09,32.52v9.85c0,.9.45,1.28,1.33,1.15l6.43-1c.69-.1,1.38-.24,2.08-.31a2.1,2.1,0,0,0,1.78-2.08c0-4.89,0-9.79,0-14.68,0-.15,0-.31,0-.47A2.11,2.11,0,0,0,59,23.12L51.2,21.75c-.41-.07-.83-.15-1.25-.18a.79.79,0,0,0-.81.66,2.15,2.15,0,0,0,0,.51Z"/><path class="cls-2" d="M62.15,40.6v-.22q0-7.5,0-15a.35.35,0,0,1,.19-.34l2.16-1.43a1.88,1.88,0,0,0,.57-.65c1-1.65,2-3.27,2.9-4.92A48.53,48.53,0,0,0,70.66,13a5,5,0,0,0,.46-2.21c-.05-1.16-.08-2.33-.07-3.49A3.94,3.94,0,0,1,71.25,6a2.27,2.27,0,0,1,3.66-1,4.7,4.7,0,0,1,1.33,2,17.79,17.79,0,0,1,.85,3.6,8.78,8.78,0,0,1-.27,3.61c-.41,1.75-.86,3.49-1.3,5.22a3.89,3.89,0,0,1-.22.6A.73.73,0,0,0,76,21.1h14.5a3.82,3.82,0,0,1,.75.08,1.64,1.64,0,0,1,1.35,2.11,2.27,2.27,0,0,1-2.23,1.8c-2.73,0-5.46,0-8.19,0a.71.71,0,0,0-.7.41.72.72,0,0,0,.11.8.8.8,0,0,0,.64.25h7.29c1.62-.29,2.45,1.85,1.73,3a2.12,2.12,0,0,1-.84.84,1.27,1.27,0,0,1-.54.14H82.22c-.53,0-.84.27-.84.73s.33.72.85.72c1.87,0,3.74,0,5.6,0a2.28,2.28,0,0,1,2.31,2.66,2.11,2.11,0,0,1-1.93,1.7H81.77a.69.69,0,0,0-.69.42.66.66,0,0,0,.13.79,1,1,0,0,0,.55.24c1.48,0,2.95,0,4.42,0A2.19,2.19,0,0,1,88.41,40a2.14,2.14,0,0,1-2.1,2.19h-17c-.76,0-1.52,0-2.28,0a1.48,1.48,0,0,1-.61-.15,6.5,6.5,0,0,1-.9-.57,3.81,3.81,0,0,0-3.13-.79l-.17,0Z"/><path class="cls-2" d="M49.09,32.52V22.74a2.15,2.15,0,0,1,0-.51.79.79,0,0,1,.81-.66c.42,0,.84.11,1.25.18L59,23.12A2.11,2.11,0,0,1,60.69,25c0,.16,0,.32,0,.47,0,4.89,0,9.79,0,14.68a2.1,2.1,0,0,1-1.78,2.08c-.7.07-1.39.21-2.08.31l-6.43,1c-.88.13-1.33-.25-1.33-1.15V32.52ZM57.43,32a2.54,2.54,0,1,0-2.56,2.55A2.53,2.53,0,0,0,57.43,32Zm-3.26-6h0c0,.43,0,.85,0,1.28a.73.73,0,1,0,1.45,0V24.76A.72.72,0,0,0,54.9,24a.72.72,0,0,0-.73.76C54.16,25.16,54.17,25.57,54.17,26Z"/><path class="cls-3" d="M57.43,32a2.54,2.54,0,1,1-2.55-2.54A2.53,2.53,0,0,1,57.43,32ZM56,32a1.09,1.09,0,1,0-1.09,1.09A1.09,1.09,0,0,0,56,32Z"/><path class="cls-3" d="M54.17,26c0-.41,0-.82,0-1.22A.72.72,0,0,1,54.9,24a.72.72,0,0,1,.72.76v2.49a.73.73,0,1,1-1.45,0c0-.43,0-.85,0-1.28Z"/><path class="cls-3" d="M56,32a1.09,1.09,0,1,1-1.1-1.08A1.09,1.09,0,0,1,56,32Z"/><circle class="cls-3" cx="26.17" cy="53.32" r="4.87"/><circle class="cls-3" cx="44.98" cy="53.32" r="4.87"/><circle class="cls-3" cx="63.7" cy="53.32" r="4.87"/><circle class="cls-3" cx="54.98" cy="31.98" r="1.7"/></svg>