<svg id="Layer_1" data-name="Layer 1" xmlns="http://www.w3.org/2000/svg" viewBox="0 0 100 100"><defs><style>.cls-1{fill:#573a14;}.cls-2{fill:#fff;}</style></defs><path class="cls-1" d="M94.43,31.39V93a3.32,3.32,0,0,1-3.32,3.32H10.24A3.33,3.33,0,0,1,6.91,93V31.39a7.71,7.71,0,0,1,3.87-6.68l39.9-23,0,0,.06,0,39.78,23A7.72,7.72,0,0,1,94.43,31.39Z"/><polygon class="cls-1" points="50.73 1.71 50.68 1.74 50.68 1.68 50.73 1.71"/><polygon class="cls-1" points="50.79 1.68 50.79 1.74 50.73 1.71 50.79 1.68"/><path class="cls-2" d="M92.41,84.85H89.66V76.56H73v8.22H70.27c0-.28,0-.57,0-.86V64.68c0-1.64.42-2.05,2.08-2.05,6,0,12,0,18,0a2.15,2.15,0,0,1,2.07,1ZM73.06,73.66H89.6V65.47H73.06Z"/><path class="cls-2" d="M17.54,87.66c0,1.24,0,2.45,0,3.66s-.47,1.81-1.8,1.81c-1.6,0-3.2,0-4.79,0-1.19,0-1.71-.51-1.71-1.67,0-7.29,0-14.57,0-21.85A6.79,6.79,0,0,1,14.15,63c.54-.17.63-.43.63-.92,0-3.76,0-7.53,0-11.29,0-3.11,1.65-4.75,4.76-4.75q18.86,0,37.69,0c3,0,4.68,1.64,4.68,4.65q0,5.69,0,11.37a.82.82,0,0,0,.7,1,6.65,6.65,0,0,1,4.8,6.18c.1,3.3,0,6.6.06,9.9V91.18c0,1.55-.42,1.95-2,2H60.83a1.49,1.49,0,0,1-1.7-1.69c0-1.24,0-2.49,0-3.78Zm47.09-11.2V69a2.73,2.73,0,0,0-.1-.48c-.57-2-2.14-3.11-4.57-3.11H16.77a9.1,9.1,0,0,0-1,.07,3.93,3.93,0,0,0-3.64,3.65c-.14,2.42,0,4.86,0,7.34ZM14.77,90.34V86.92c0-1.7.39-2.09,2.11-2.09h43c1.69,0,2.06.37,2.06,2v3.46h2.72v-11H12.06v11ZM59.09,62.59c0-.31,0-.57,0-.83v-11c0-1.5-.43-1.93-1.93-1.93H19.53c-1.54,0-2,.45-2,2V62.58h2.78v-.84c0-1.46,0-2.92,0-4.39A4.07,4.07,0,0,1,24.37,53c2.92-.09,5.85-.07,8.77,0a3.85,3.85,0,0,1,3.74,3.6c.14,1.67.07,3.35.09,5,0,.31,0,.63,0,.95h2.78v-.92c0-1.62,0-3.25,0-4.87A3.9,3.9,0,0,1,43.45,53q4.59-.15,9.17,0a4,4,0,0,1,3.72,3.91c0,1.6,0,3.19,0,4.79v.88Zm-25,0c0-1.92,0-3.8,0-5.69a1.19,1.19,0,0,0-1.33-1.15q-4.14,0-8.28,0A1.23,1.23,0,0,0,23.15,57c-.06,1.85,0,3.71,0,5.62Zm19.43,0c0-1.9,0-3.76,0-5.62a1.2,1.2,0,0,0-1.28-1.21c-2.81,0-5.63,0-8.44,0a1.16,1.16,0,0,0-1.26,1.14c-.06,1.88,0,3.77,0,5.69Z"/><path class="cls-2" d="M79.85,52.94c-1.24,0-2.43,0-3.62,0-1.54,0-2.11-.81-1.62-2.27q1.24-3.77,2.51-7.52c.35-1,.73-1.31,1.78-1.31,1.62,0,3.25,0,4.87,0a1.54,1.54,0,0,1,1.74,1.26c.86,2.56,1.72,5.12,2.55,7.68.44,1.34-.12,2.12-1.53,2.15-1.24,0-2.48,0-3.77,0v4.12h2.66v2.73H77.21V57.12h2.64Zm5.07-2.83c-.37-1.11-.71-2.15-1.07-3.19-.25-.74-.31-1.77-.83-2.14s-1.56-.1-2.35-.18-1.28.14-1.48,1a29.53,29.53,0,0,1-.92,2.85l-.53,1.64Z"/><path class="cls-2" d="M54.59,15.7,53.4,19.05a9.3,9.3,0,0,0-9.34,2.05,9.05,9.05,0,0,0-2.89,6.5,9.22,9.22,0,0,0,9.13,9.32c5,0,9.8-4.08,9.12-10.68l3.49-.62A12.63,12.63,0,0,1,56,39.3a12.83,12.83,0,1,1-1.36-23.6Z"/><path class="cls-2" d="M64.55,18l-4.86,4.85-7.52,7.52c-1.45,1.44-2.21,1.43-3.7,0-1-1-2-2-3.11-3l2.71-2.61,2.06,2.4L61.62,15.54Z"/><path class="cls-1" d="M73.06,73.66V65.47H89.6v8.19Zm11-5.41H78.62v2.63h5.46Z"/><path class="cls-1" d="M64.63,76.46H12.05c0-2.48-.11-4.92,0-7.34a3.93,3.93,0,0,1,3.64-3.65,9.1,9.1,0,0,1,1-.07H60c2.43,0,4,1.08,4.57,3.11a2.73,2.73,0,0,1,.1.48Z"/><path class="cls-1" d="M14.77,90.34H12.06v-11H64.62v11H61.9V86.86c0-1.66-.37-2-2.06-2h-43c-1.72,0-2.11.39-2.11,2.09Z"/><path class="cls-1" d="M59.09,62.59H56.36v-.88c0-1.6,0-3.19,0-4.79A4,4,0,0,0,52.62,53q-4.57-.13-9.17,0a3.9,3.9,0,0,0-3.67,3.77c-.06,1.62,0,3.25,0,4.87v.92H37c0-.32,0-.64,0-.95,0-1.68.05-3.36-.09-5A3.85,3.85,0,0,0,33.14,53c-2.92-.09-5.85-.11-8.77,0a4.07,4.07,0,0,0-4.05,4.37c0,1.47,0,2.93,0,4.39v.84H17.54V50.76c0-1.53.45-2,2-2H57.2c1.5,0,1.93.43,1.93,1.93v11C59.13,62,59.1,62.28,59.09,62.59Z"/><path class="cls-2" d="M35.06,63.94H22.21c0-2.61-.05-5.15,0-7.68a1.55,1.55,0,0,1,1.59-1.67q4.84,0,9.67,0A1.49,1.49,0,0,1,35,56.17C35.11,58.74,35.06,61.32,35.06,63.94Z"/><path class="cls-2" d="M54.85,64.11H41.28c0-2.8-.05-5.54,0-8.28a1.56,1.56,0,0,1,1.55-1.66q5.2,0,10.39,0a1.61,1.61,0,0,1,1.58,1.76C54.89,58.63,54.85,61.34,54.85,64.11Z"/><path class="cls-1" d="M84.92,50.11H77.74l.53-1.64a29.53,29.53,0,0,0,.92-2.85c.2-.88.65-1.11,1.48-1s1.8-.21,2.35.18.58,1.4.83,2.14C84.21,48,84.55,49,84.92,50.11Z"/><path class="cls-2" d="M84.08,68.25v2.63H78.62V68.25Z"/></svg>