<svg id="Layer_1" data-name="Layer 1" xmlns="http://www.w3.org/2000/svg" viewBox="0 0 100 100"><defs><style>.cls-1{fill:#573a14;}.cls-1,.cls-2{fill-rule:evenodd;}.cls-2,.cls-3{fill:#fff;}</style></defs><path class="cls-1" d="M49.81,6.92V93.09h-35a5.23,5.23,0,0,1-5.23-5.23V47.63a6.47,6.47,0,0,1-4.39.21,5.13,5.13,0,0,1-2.42-1.69,5.38,5.38,0,0,1-1.11-2.73,7,7,0,0,1,1.66-5.11,1.75,1.75,0,0,1,.24-.23L48.91,7.29A1.41,1.41,0,0,1,49.81,6.92Z"/><path class="cls-1" d="M49.76,6.92V93.09h35A5.23,5.23,0,0,0,90,87.86V47.63a6.47,6.47,0,0,0,4.39.21,5.13,5.13,0,0,0,2.42-1.69A5.38,5.38,0,0,0,98,43.42a7,7,0,0,0-1.66-5.11,1.75,1.75,0,0,0-.24-.23L50.66,7.29A1.41,1.41,0,0,0,49.76,6.92Z"/><path class="cls-1" d="M11.51,41.64,48.79,16.28,89.13,41.64,88.11,52l.51,37.45h0A4.59,4.59,0,0,1,85.21,91H11.85V45.38L10.15,43Z"/><polygon class="cls-2" points="36.8 35.55 62.18 35.55 62.18 52.65 36.8 52.65 36.8 35.55 36.8 35.55 36.8 35.55"/><path class="cls-1" d="M45.43,40.2a1.33,1.33,0,1,1-1.34,1.33,1.33,1.33,0,0,1,1.34-1.33Z"/><polygon class="cls-1" points="51.03 45.91 54.02 41.31 56.85 48.46 42.98 48.46 42.98 47.57 44.09 47.52 45.2 44.8 46.09 46.74 47.75 46.74 49.19 43.02 51.03 45.91 51.03 45.91 51.03 45.91"/><path class="cls-2" d="M49.09,65.76a.1.1,0,0,0,.1,0c1.7-1.33,4.2-.77,5.34,2h0a12.73,12.73,0,0,0-4.45,6.32H46.8l2.29-8.3Z"/><path class="cls-2" d="M60.45,71.08a3.53,3.53,0,0,1-4.28,3.76,7.07,7.07,0,0,0-.71,2,5.43,5.43,0,0,0-.11,3.06c.23,2.37,0,4-1.55,4.68v.91H22.93v-.91c-1.19-.43-1.7-1.59-1.52-3.51.39-3.61.15-4.74-.76-6.1a4.18,4.18,0,0,1-3.46-1.13A3.36,3.36,0,0,1,18,68.64a4.3,4.3,0,0,1,1.33-.52c3.93-.83,6.1,3.19,7.14,6.35l10.3.28a1.93,1.93,0,0,1,1.44.84,2,2,0,0,1,1.3-.88c3.2-.14,5.5.28,7.84.28h2.72a.83.83,0,0,0,1-.69c.69-2.11,3.15-6.35,5.73-6.27a3.9,3.9,0,0,1,3.7,3Z"/><path class="cls-2" d="M22.46,67.49h0c1-2.31,2.67-2.89,4.88-2.12l2.37,8.16H27.15c-1.19-2.43-2-4.89-4.69-6Z"/><path class="cls-2" d="M28.34,65.44a.14.14,0,0,0,.07-.08,3.89,3.89,0,0,1,5.26-1.72h0L34.21,74H30.8l-2.46-8.58Z"/><path class="cls-2" d="M34.72,63.42c.64-2.66,6.69-2.11,7.25-.29.08,0-.63,9.81-.67,10.9H35.19l-.44-10.61Z"/><path class="cls-2" d="M42.76,63.87l.06,0c2.2-1.16,5.25-.31,5.54,1.21l-.15,0L45.8,74H42.25l.51-10.15Z"/><path class="cls-2" d="M74.23,68.3V82.76h2.91a1,1,0,0,1,.81,1c0,.45-.36,1-.81,1H69.07a1,1,0,0,1-.82-1,1,1,0,0,1,.82-1H72V68.3Z"/><polygon class="cls-2" points="68.92 57.34 77.27 57.34 79.72 67.01 66.48 67.01 68.92 57.34 68.92 57.34 68.92 57.34"/><polygon class="cls-3" points="9.54 47.63 49.41 15.91 50.02 15.42 50.63 15.91 90.07 47.71 49.41 17.49 50.63 17.5 9.54 47.63"/></svg>