<svg xmlns="http://www.w3.org/2000/svg" width="39.031" height="33.448" viewBox="0 0 39.031 33.448">
  <path id="Icon_ionic-md-eye-off" data-name="Icon ionic-md-eye-off" d="M21.77,11.538a8.848,8.848,0,0,1,8.876,8.806,8.471,8.471,0,0,1-.636,3.223l5.183,5.139a20.823,20.823,0,0,0,6.089-8.362A21.02,21.02,0,0,0,14.688,8.367l3.833,3.806A8.776,8.776,0,0,1,21.77,11.538ZM4.027,6.739l4.05,4.015.819.81a20.724,20.724,0,0,0-6.646,8.78A21.051,21.051,0,0,0,29.54,32.068l.749.74,5.2,5.139,2.256-2.239L6.274,4.5Zm9.808,9.73,2.752,2.726a4.99,4.99,0,0,0-.139,1.141,5.3,5.3,0,0,0,5.322,5.278,5.006,5.006,0,0,0,1.15-.139L25.672,28.2a8.83,8.83,0,0,1-12.778-7.874A8.7,8.7,0,0,1,13.835,16.468ZM21.483,15.1l5.592,5.549.035-.279a5.3,5.3,0,0,0-5.322-5.278Z" transform="translate(-2.25 -4.5)" fill="#ff8744"/>
</svg>
