<svg xmlns="http://www.w3.org/2000/svg" width="150" height="150" viewBox="0 0 150 150">
  <g id="Group_24887" data-name="Group 24887" transform="translate(0.052 -0.365)">
    <circle id="Ellipse_196" data-name="Ellipse 196" cx="75" cy="75" r="75" transform="translate(-0.052 0.365)" fill="#ff8744"/>
    <path id="Icon_awesome-question" data-name="Icon awesome-question" d="M26.657,0C15.411,0,8.127,4.608,2.408,12.825a3.385,3.385,0,0,0,.73,4.632l6.078,4.609a3.381,3.381,0,0,0,4.685-.584c3.529-4.421,6.147-6.967,11.66-6.967,4.334,0,9.7,2.79,9.7,6.993,0,3.177-2.623,4.809-6.9,7.209-4.991,2.8-11.6,6.281-11.6,14.992v1.379a3.381,3.381,0,0,0,3.381,3.381H30.35a3.381,3.381,0,0,0,3.381-3.381v-.813c0-6.039,17.65-6.29,17.65-22.631C51.381,9.335,38.616,0,26.657,0ZM25.245,52.618A9.76,9.76,0,1,0,35,62.378,9.771,9.771,0,0,0,25.245,52.618Z" transform="translate(48.357 38.879)" fill="#fff"/>
  </g>
</svg>
