<svg xmlns="http://www.w3.org/2000/svg" width="212.296" height="186.617" viewBox="0 0 212.296 186.617">
  <g id="Group_24888" data-name="Group 24888" transform="translate(-3362.66 1946.895)">
    <path id="Path_32992" data-name="Path 32992" d="M3574.956-1808.395v5.806a3.531,3.531,0,0,0-.33.733c-1.756,8.883-6.944,14.9-15.606,17.315-8.842,2.47-16.479-.127-22.626-6.977-1.127-1.256-2.25-2.515-3.731-4.172,0,5.928.048,11.294-.01,16.658a18.554,18.554,0,0,1-18.689,18.717q-66.333.072-132.667,0a18.482,18.482,0,0,1-18.6-18.59c-.071-23.358-.032-46.717-.017-70.075,0-4.141,2.585-6.662,6.774-6.678,5.32-.021,10.641,0,15.962-.01.666,0,1.332-.06,2.133-.1v-2.609q0-40.532,0-81.064c0-5.129,2.328-7.452,7.464-7.452q65.09,0,130.18,0c5.134,0,7.466,2.325,7.467,7.451,0,14.72-.027,29.44.053,44.159a6.253,6.253,0,0,0,1.2,3.509q15.646,20.558,7.938,45.166a2.23,2.23,0,0,0,.746,2.8c8.07,7.04,16.064,14.167,24.124,21.219a23.069,23.069,0,0,1,7.625,12.046C3574.526-1809.821,3574.752-1809.11,3574.956-1808.395Zm-125.01-63.859h-2.2c-9.466,0-18.932-.018-28.4.014a6.559,6.559,0,0,1-5.224-2.034,5.814,5.814,0,0,1-1.2-6.536,6.1,6.1,0,0,1,6.05-3.883c11.332,0,22.663-.03,33.994.033a3.147,3.147,0,0,0,2.922-1.653c2.327-3.245,4.884-6.324,7.353-9.466.3-.384.613-.76,1.093-1.356h-2.612q-21.144,0-42.286,0c-4.186,0-7.019-2.553-7-6.251s2.844-6.182,7.067-6.183c25.15-.005,50.3-.111,75.45.09a74.429,74.429,0,0,1,14.908,2.049c3.514.757,6.841,2.382,10.236,3.616V-1934.3H3399.991v2.83q0,75.151-.026,150.3c0,2.774-.375,5.547-.583,8.436h1.4q56.277,0,112.554-.005c4.4,0,6.882-2.538,6.89-6.99.014-7.395-.353-14.812.119-22.176.363-5.656-.957-10.156-5.272-13.894-1.142-.99-1.876-1.346-3.349-.873-14.021,4.506-27.35,2.858-40.033-4.6a8.782,8.782,0,0,0-4.211-1.173c-16.029-.081-32.059-.066-48.089-.038-2.9.005-5.145-1.041-6.385-3.712-1.971-4.243,1.176-8.722,6.134-8.733,11.953-.026,23.906-.009,35.859-.009h1.977c-1.74-3.667-3.483-7.034-4.924-10.527-.589-1.427-1.159-1.971-2.757-1.957-9.949.086-19.9.051-29.849.041-4.193,0-7.023-2.545-7.006-6.245s2.84-6.185,7.059-6.189q13.577-.012,27.154,0h2.157C3449.19-1864,3449.553-1867.971,3449.945-1872.254Zm82,10.456a35.218,35.218,0,0,0-35.066-35.326,35.347,35.347,0,0,0-35.4,35.059,35.35,35.35,0,0,0,35.025,35.424A35.2,35.2,0,0,0,3531.941-1861.8Zm-156.826,18.668v2.4q0,22.475,0,44.949c0,5.593-.039,11.186.018,16.779a6.232,6.232,0,0,0,5.519,6.234,6.242,6.242,0,0,0,6.73-4.889,12.464,12.464,0,0,0,.164-2.675q.012-30.243.006-60.486v-2.312Zm161.027,10.166-10.351,10.24c-.59-.494-.587-.333-.507-.241,7.079,8.036,14.077,16.146,21.286,24.063a9.13,9.13,0,0,0,13.2.06,9.172,9.172,0,0,0-.182-13.355C3551.609-1819.436,3543.466-1826.494,3536.142-1832.964Z" fill="#ff8744"/>
    <path id="Path_32993" data-name="Path 32993" d="M3477.4-1699.8c6,0,12-.012,18.006,0,4.038.01,6.838,2.533,6.875,6.151.037,3.7-2.8,6.277-6.956,6.281q-17.9.016-35.8,0c-4.167,0-7-2.565-6.977-6.259s2.855-6.169,7.057-6.176Q3468.5-1699.815,3477.4-1699.8Z" transform="translate(-40.104 -110.249)" fill="#ff8744"/>
    <path id="Path_32994" data-name="Path 32994" d="M3581.695-1807.792c-2.6-2.553-4.889-4.753-7.121-7.014-2.834-2.871-2.942-6.668-.321-9.21,2.52-2.445,6.329-2.3,9.075.416,2.3,2.275,4.55,4.609,7.062,7.161,2.564-2.65,4.906-5.177,7.37-7.579a5.844,5.844,0,0,1,6.52-1.293,5.822,5.822,0,0,1,3.905,5.158,6.13,6.13,0,0,1-1.992,5.225c-2.318,2.272-4.634,4.545-7.175,7.037,2.452,2.438,4.777,4.765,7.117,7.074a6.22,6.22,0,0,1,2.059,5.206,5.824,5.824,0,0,1-4.022,5.288,5.917,5.917,0,0,1-6.505-1.406c-2.406-2.374-4.722-4.839-7.392-7.589-2.582,2.686-4.874,5.259-7.365,7.619a6.155,6.155,0,0,1-10.385-3.143,6,6,0,0,1,1.868-5.84C3576.742-1803.006,3579.125-1805.294,3581.695-1807.792Z" transform="translate(-93.569 -54.041)" fill="#ff8744"/>
  </g>
</svg>
