<svg id="Group_24353" data-name="Group 24353" xmlns="http://www.w3.org/2000/svg" width="50" height="50" viewBox="0 0 50 50">
  <path id="Path_32751" data-name="Path 32751" d="M8.333,0H41.667A8.333,8.333,0,0,1,50,8.333V41.667A8.333,8.333,0,0,1,41.667,50H8.333A8.333,8.333,0,0,1,0,41.667V8.333A8.333,8.333,0,0,1,8.333,0Z" transform="translate(0 0)" fill="#fff" opacity="0"/>
  <g id="Group_24336" data-name="Group 24336" transform="translate(9.669 9.667)">
    <path id="Path_32751-2" data-name="Path 32751" d="M257.621,650.9c-2.94,0-5.881,0-8.821,0a6.383,6.383,0,0,1-6.35-5.177,6.284,6.284,0,0,1-.118-1.269q0-8.881,0-17.762a6.375,6.375,0,0,1,6.424-6.445c3.34-.009,6.679,0,10.019,0a1.287,1.287,0,1,1-.02,2.554q-4.909,0-9.819,0a3.839,3.839,0,0,0-4.05,4.059q0,8.721,0,17.443a3.836,3.836,0,0,0,4.025,4.044q8.741,0,17.483,0a3.835,3.835,0,0,0,4.038-4.031c0-3.313,0-6.626,0-9.939a1.277,1.277,0,1,1,2.551-.02c0,1.517,0,3.034,0,4.55q0,2.694,0,5.388A6.386,6.386,0,0,1,266.4,650.9Q262.012,650.906,257.621,650.9Z" transform="translate(-242.332 -620.24)" fill="#ff8744"/>
    <path id="Path_32752" data-name="Path 32752" d="M341.353,640.639c-.625,0-1.25.006-1.875,0a1.274,1.274,0,0,1-1.325-1.337c-.007-1.237,0-2.474,0-3.711a1.337,1.337,0,0,1,.416-1q6.757-6.645,13.518-13.286a3.824,3.824,0,1,1,5.344,5.473q-4.824,4.938-9.679,9.846c-1.147,1.166-2.3,2.327-3.44,3.5a1.564,1.564,0,0,1-1.24.521C342.5,640.624,341.924,640.639,341.353,640.639Zm.353-2.582v.028a2.255,2.255,0,0,1,.359,0,1.213,1.213,0,0,0,1.137-.468c2.082-2.15,4.189-4.277,6.288-6.412q3.036-3.088,6.075-6.173a1.311,1.311,0,0,0,.43-1.3,1.214,1.214,0,0,0-.9-.928,1.3,1.3,0,0,0-1.336.408q-6.171,6.078-12.361,12.135a1.843,1.843,0,0,0-.7,1.722c.051.323-.144.762.081.949C340.968,638.18,341.389,638.057,341.706,638.057Z" transform="translate(-327.93 -620.193)" fill="#ff8744"/>
  </g>
</svg>
