<svg id="Group_24509" data-name="Group 24509" xmlns="http://www.w3.org/2000/svg" width="50" height="50" viewBox="0 0 50 50">
  <path id="Path_32751" data-name="Path 32751" d="M8.333,0H41.667A8.333,8.333,0,0,1,50,8.333V41.667A8.333,8.333,0,0,1,41.667,50H8.333A8.333,8.333,0,0,1,0,41.667V8.333A8.333,8.333,0,0,1,8.333,0Z" transform="translate(0 0)" fill="#fff" opacity="0"/>
  <path id="Icon_ionic-ios-lock" data-name="Icon ionic-ios-lock" d="M30.977,15.835H28.9V11.794a8.307,8.307,0,1,0-16.612-.112v4.153H10.211A3.471,3.471,0,0,0,6.75,19.3V35.908a3.471,3.471,0,0,0,3.461,3.461H30.977a3.471,3.471,0,0,0,3.461-3.461V19.3A3.471,3.471,0,0,0,30.977,15.835Zm-9.171,10.8v5.953a1.241,1.241,0,0,1-1.151,1.246,1.213,1.213,0,0,1-1.272-1.211V26.633a2.769,2.769,0,1,1,2.423,0Zm4.672-10.8H14.71V11.681a5.884,5.884,0,0,1,11.767,0Z" transform="translate(4.406 3.628)" fill="#ff8744"/>
</svg>
